<svg id="Camada_1" data-name="Camada 1" xmlns="http://www.w3.org/2000/svg" viewBox="0 0 134.66 134.66"><defs><style>.cls-1{fill:#f5ba0e;}.cls-2{fill:#2b0738;}</style></defs><title>marujo_icon</title><circle class="cls-1" cx="67.33" cy="67.33" r="67.33"/><path class="cls-2" d="M87.49,89.15V72.4l.78-8.18a2.33,2.33,0,0,0,0-.38v0h0A1.85,1.85,0,0,0,86.46,62h-8a1.86,1.86,0,0,0-1.85,1.83h0v0a1.58,1.58,0,0,0,0,.38l.78,8.18V91.25l-.78,8.18a1.58,1.58,0,0,0,0,.38v0h0a1.87,1.87,0,0,0,1.85,1.83h8a1.85,1.85,0,0,0,1.84-1.83h0v0a2.33,2.33,0,0,0,0-.38l-.78-8.18v-2.1Z" transform="translate(-3.54 -3.54)"/><path class="cls-2" d="M88.26,104.24a1.84,1.84,0,0,0-1.83-1.82h-8a1.84,1.84,0,0,0-1.84,1.82h0v0a2.34,2.34,0,0,0,0,.38l.79,8.18v1.59a8,8,0,0,1-16,.12A5,5,0,0,0,66,106.49l-5.64-7.38a5,5,0,0,0-9,3V113.6A18.11,18.11,0,0,0,69.4,131.69a17.91,17.91,0,0,0,8-1.89h0l.23-.11a18.15,18.15,0,0,0,9.7-13.64l.12-1.4v-1.82l.78-8.18a2.33,2.33,0,0,0,0-.38v0h0" transform="translate(-3.54 -3.54)"/><path class="cls-2" d="M87.49,48.74V32l.78-8.19a2.33,2.33,0,0,0,0-.38h0a8,8,0,1,0-11.7,0h0a1.58,1.58,0,0,0,0,.38L77.43,32V50.83L76.65,59a1.5,1.5,0,0,0,0,.37v0a1.85,1.85,0,0,0,1.85,1.82h8a1.84,1.84,0,0,0,1.84-1.82v0a2.21,2.21,0,0,0,0-.37l-.78-8.19V48.74ZM84.28,21.57h0a4,4,0,0,1-1.82.44,4,4,0,0,1-1.83-.44h0a4,4,0,1,1,3.65,0" transform="translate(-3.54 -3.54)"/></svg>