<svg width="1059" height="275" viewBox="0 0 1059 275" fill="none" xmlns="http://www.w3.org/2000/svg">
<path d="M610.934 183.388C613.691 171.663 621.962 162.001 633.136 157.472C635.82 168.832 630.781 180.612 620.72 186.529C629.996 191.716 635.528 201.689 635.053 212.3C623.185 211.533 613.052 203.424 609.729 191.99" fill="#E0E0E0"/>
<path d="M567.095 215.167C568.939 219.587 572.572 223.021 577.082 224.628C578.178 225.121 579.419 225.194 580.551 224.792C581.574 224.372 582.049 223.222 581.647 222.199C581.61 222.089 581.556 221.98 581.483 221.888C583.217 223.185 585.353 223.788 587.508 223.587C589.662 223.277 591.16 221.267 590.831 219.112C590.831 219.076 590.831 219.021 590.813 218.985C593.278 219.66 596.4 220.135 597.915 218.09C598.846 216.574 598.755 214.656 597.714 213.231C596.674 211.843 595.359 210.693 593.862 209.853" fill="#E0E0E0"/>
<path d="M557.545 165.416C564.575 154.403 574.928 145.911 587.106 141.18C588.53 140.395 590.247 140.395 591.671 141.18C592.584 142.057 592.912 143.354 592.529 144.559C592.127 145.728 591.506 146.787 590.703 147.719C592.766 146.586 595.231 146.513 597.349 147.518C599.321 148.723 599.851 152.084 597.86 153.253C599.394 152.12 601.549 152.431 602.681 153.965C602.809 154.148 602.918 154.33 603.028 154.531C603.776 156.522 603.356 158.75 601.932 160.321C600.508 161.855 598.81 163.079 596.929 163.974" fill="#E0E0E0"/>
<path d="M534.612 189.159C534.612 189.159 551.794 159.152 579.328 159.152C606.862 159.152 613.49 187.333 613.49 187.333C613.49 187.333 603.666 211.606 579.382 215.697C555.099 219.788 534.612 189.159 534.612 189.159Z" fill="#F5F5F5"/>
<path d="M564.447 186.438C568.209 190.73 572.408 194.657 576.936 198.127C578.926 199.99 581.519 201.086 584.24 201.25C586.65 201.013 588.804 199.661 590.082 197.597C591.324 195.57 592.036 193.251 592.146 190.858C592.438 186.913 591.78 182.968 590.21 179.333C589.516 177.251 587.946 175.571 585.919 174.731C583.527 174.055 581.117 175.498 579.054 176.886L564.447 186.694" fill="#E0E0E0"/>
<path d="M554.898 174.293C554.898 174.293 555.299 174.603 555.865 175.316C556.632 176.32 557.308 177.416 557.874 178.548C561.745 186.274 561.051 195.497 556.048 202.547C555.318 203.588 554.478 204.556 553.565 205.433C553.254 205.78 552.871 206.072 552.469 206.291C552.341 206.163 553.802 204.812 555.482 202.163C560.028 195.205 560.704 186.402 557.308 178.822C555.993 175.955 554.77 174.384 554.898 174.293Z" fill="#E0E0E0"/>
<path d="M551.155 180.649C552.67 180.886 553.711 182.329 553.474 183.845C553.236 185.361 551.794 186.402 550.278 186.164C548.763 185.927 547.722 184.484 547.96 182.968C548.069 182.256 548.453 181.617 549.037 181.178" fill="#E0E0E0"/>
<path d="M161.132 145.198C166.847 149.819 173.092 153.746 179.72 156.887C186.457 159.773 194.18 160.997 201.174 158.714C202.999 158.147 204.971 157.033 205.227 155.152C205.556 152.906 203.292 151.225 201.283 150.166C192.3 145.49 182.586 142.386 172.544 141.034C183.627 138.696 192.939 131.245 197.65 120.944C198.709 118.588 199.475 115.465 197.65 113.638C196.408 112.488 194.692 111.94 193.012 112.177C188.392 112.488 184.412 115.446 180.925 118.478C172.307 125.93 164.766 134.532 158.485 144.048" fill="#E0E0E0"/>
<path d="M79.6075 121.985L98.1035 111.319C99.199 110.57 100.441 110.077 101.755 109.894C103.143 109.748 104.439 110.57 104.877 111.885C105.078 112.889 104.567 113.93 104.658 114.953C104.841 116.999 107.324 118.076 109.369 117.912C111.414 117.748 113.368 116.78 115.431 116.67C116.563 116.67 117.951 117.017 118.224 118.131C118.498 119.245 117.823 119.957 117.585 120.779C116.855 123.318 119.411 125.82 121.986 126.131C124.633 126.185 127.244 125.528 129.527 124.195C131.827 122.861 134.475 122.295 137.104 122.533C139.678 123.044 141.942 125.875 140.847 128.268C143.403 127.336 146.16 127.208 148.789 127.884C151.309 128.834 153.683 133.363 152.112 135.628C128.468 127.957 103.106 122.496 78.2563 122.058" fill="#E0E0E0"/>
<path d="M74.8604 156.759C80.2649 167.462 93.3198 171.736 104.001 166.348C105.882 165.398 107.598 164.193 109.132 162.732C109.807 161.91 110.666 161.289 111.651 160.905C113.477 160.43 115.194 161.928 116.855 162.914C119.612 164.503 122.935 164.741 125.875 163.535C127.463 162.586 129.235 161.965 131.06 161.709C132.558 161.928 134 162.458 135.278 163.28C143.641 167.371 153.738 163.901 157.828 155.536C159.58 151.938 160 147.847 159.014 143.975" fill="#E0E0E0"/>
<path d="M29.5425 141.892C43.7659 127.793 64.5443 121.802 84.574 121.802C104.604 121.802 124.268 126.916 143.549 132.395C151.309 134.587 159.745 137.345 163.999 144.194C141.413 154.038 116.527 157.965 91.9687 158.403C80.9953 158.805 70.0218 157.91 59.2675 155.736C48.4767 153.545 38.3431 148.888 29.652 142.13" fill="#EBEBEB"/>
<path d="M55.6157 133.4C57.825 133.674 59.377 135.683 59.1031 137.893C58.8292 140.103 56.8208 141.655 54.6115 141.381C52.4022 141.107 50.8502 139.098 51.1241 136.888C51.3067 135.518 52.1648 134.331 53.4064 133.747" fill="#E0E0E0"/>
<path d="M63.0105 151.883C62.8827 151.773 63.9965 150.659 65.2563 148.522C68.5794 142.933 68.7985 136.03 65.8041 130.258C64.672 128.048 63.6313 126.879 63.7591 126.77C64.8729 127.61 65.7676 128.688 66.3884 129.93C69.9305 135.847 69.7114 143.262 65.8223 148.961C65.1103 150.129 64.1425 151.134 63.0105 151.883Z" fill="#E0E0E0"/>
<path d="M70.0583 140.285C76.1202 144.76 83.0402 147.901 90.3984 149.545C93.2102 150.257 96.1316 150.44 98.9982 150.093C101.883 149.709 104.512 148.193 106.302 145.892C108.054 146.769 110.099 146.915 111.962 146.294C114.354 145.107 114.737 141.71 113.788 139.244C111.962 134.843 107.014 132.395 102.248 132.121C97.4645 132.158 92.7355 133.071 88.2987 134.843C81.9994 136.906 76.394 138.221 70.04 140.322" fill="#E0E0E0"/>
<path d="M997.286 40.2902C1000.57 42.9567 1004.17 45.2215 1008 47.0479C1011.87 48.8743 1016.27 49.2578 1020.4 48.1437C1021.44 47.7967 1022.59 47.1757 1022.76 46.0799C1022.92 44.984 1021.62 43.8151 1020.47 43.1942C1015.29 40.4911 1009.67 38.7013 1003.86 37.8976C1010.3 36.5826 1015.73 32.2541 1018.47 26.2818C1019.27 24.985 1019.27 23.3413 1018.47 22.0445C1017.74 21.387 1016.75 21.0766 1015.78 21.2044C1013.12 21.661 1010.67 22.9395 1008.79 24.8572C1003.82 29.1675 999.477 34.1353 995.843 39.6144" fill="#E0E0E0"/>
<path d="M950.179 26.8845L960.86 20.7296C961.499 20.2912 962.248 19.999 963.015 19.8894C963.818 19.8346 964.548 20.3095 964.841 21.0583C964.968 21.6245 964.658 22.2272 964.713 22.8847C964.822 24.0719 966.246 24.7111 967.433 24.6015C968.62 24.4919 969.752 23.944 970.939 23.8892C971.596 23.8892 972.381 24.0901 972.546 24.7294C972.71 25.3686 972.327 25.7521 972.181 26.2635C971.761 27.7246 973.221 29.1675 974.719 29.3501C976.252 29.3867 977.749 28.9849 979.082 28.236C980.397 27.4689 981.931 27.1219 983.446 27.268C984.943 27.5603 986.24 29.204 985.619 30.5921C987.098 30.0624 988.686 29.9711 990.202 30.3729C991.662 30.9208 993.032 33.5691 992.119 34.8476C978.37 30.1537 963.982 27.5055 949.467 26.9941" fill="#E0E0E0"/>
<path d="M947.44 46.9749C950.58 53.1298 958.121 55.5772 964.293 52.4358C965.37 51.8879 966.356 51.1756 967.232 50.3537C967.616 49.8971 968.127 49.5318 968.693 49.3309C969.77 49.057 970.738 49.9154 971.687 50.4816C973.276 51.3947 975.211 51.5409 976.909 50.8468C977.822 50.2989 978.845 49.9154 979.904 49.7693C980.762 49.8971 981.602 50.2076 982.332 50.6825C987.171 53.0385 993.013 51.0112 995.369 46.1713C996.373 44.1074 996.61 41.7514 996.044 39.5232" fill="#E0E0E0"/>
<path d="M921.257 38.3908C929.473 30.2268 941.469 26.7932 953.045 26.7567C964.621 26.7202 975.978 29.7154 987.116 32.8751C991.607 34.1536 996.464 35.7425 998.929 39.6875C985.728 45.1302 971.596 47.9246 957.318 47.9063C950.982 48.1437 944.646 47.6141 938.438 46.3721C932.194 45.1119 926.351 42.4089 921.33 38.5004" fill="#EBEBEB"/>
<path d="M936.32 33.4778C937.598 33.6422 938.493 34.7928 938.329 36.0713C938.164 37.3497 937.014 38.2447 935.736 38.0803C934.458 37.9159 933.563 36.7653 933.727 35.4868C933.819 34.7015 934.33 34.0257 935.042 33.6787" fill="#E0E0E0"/>
<path d="M940.593 44.1622C940.483 44.0526 941.086 43.3768 941.761 42.1349C942.656 40.5459 943.167 38.7743 943.24 36.9479C943.277 35.1215 942.875 33.3317 942.09 31.6879C941.469 30.4095 940.922 29.7154 941.031 29.6058C941.141 29.4963 941.871 30.0807 942.674 31.4322C944.811 34.8658 944.683 39.2675 942.346 42.5732C941.451 43.7239 940.666 44.2352 940.593 44.1622Z" fill="#E0E0E0"/>
<path d="M944.665 37.4593C948.17 40.0345 952.169 41.8609 956.405 42.7924C958.03 43.2124 959.728 43.322 961.389 43.1211C963.069 42.9019 964.585 42.0253 965.625 40.692C966.648 41.1851 967.817 41.2764 968.894 40.9294C970.19 40.0162 970.628 38.2812 969.898 36.8566C968.62 34.3544 966.045 32.7655 963.234 32.7472C960.476 32.7472 957.738 33.2951 955.182 34.3179C951.53 35.505 948.316 36.2539 944.665 37.4593Z" fill="#E0E0E0"/>
</svg>
