<svg width="197" height="105" viewBox="0 0 197 105" fill="none" xmlns="http://www.w3.org/2000/svg">
<path d="M158.465 68.0441V53.6354L159.111 46.5947C159.134 46.4903 159.143 46.3812 159.143 46.2673C159.143 46.2626 159.143 46.2578 159.143 46.2531C159.143 46.2531 159.143 46.2436 159.143 46.2389C159.13 45.3706 158.452 44.6732 157.619 44.6685H151.032C150.195 44.6685 149.522 45.3706 149.508 46.2389C149.508 46.2389 149.508 46.2483 149.508 46.2531C149.508 46.2578 149.508 46.2626 149.508 46.2673C149.508 46.3812 149.522 46.4903 149.54 46.5947L150.186 53.6354V69.8422L149.54 76.8829C149.517 76.9873 149.508 77.0964 149.508 77.2103C149.508 77.215 149.508 77.2197 149.508 77.2245C149.508 77.2245 149.508 77.234 149.508 77.2387C149.522 78.107 150.2 78.8044 151.032 78.8091H157.619C158.456 78.8091 159.13 78.107 159.143 77.2387C159.143 77.2387 159.143 77.2292 159.143 77.2245C159.143 77.2197 159.143 77.215 159.143 77.2103C159.143 77.0964 159.13 76.9873 159.111 76.8829L158.465 69.8422V68.0441Z" fill="#4A1D4E"/>
<path d="M159.107 81.0201C159.093 80.1566 158.42 79.4591 157.592 79.4544C157.592 79.4544 157.587 79.4544 157.583 79.4544H150.995C150.995 79.4544 150.991 79.4544 150.986 79.4544C150.154 79.4639 149.485 80.1566 149.472 81.0201C149.472 81.0201 149.472 81.0295 149.472 81.0343C149.472 81.039 149.472 81.0438 149.472 81.0485C149.472 81.1624 149.485 81.2715 149.503 81.3759L150.149 88.4166V89.7829C149.808 93.2606 146.983 95.9839 143.562 95.9839C140.141 95.9839 137.371 93.3128 136.984 89.8873C138.049 90.0202 139.104 89.707 139.959 89.0238C140.842 88.3217 141.406 87.3064 141.551 86.1582C141.697 85.0101 141.41 83.8762 140.737 82.9605L136.088 76.6125C135.005 75.137 133.149 74.5487 131.461 75.1417C129.778 75.7395 128.646 77.3858 128.646 79.2409V89.076C128.646 97.6539 135.337 104.633 143.562 104.633C145.928 104.633 148.161 104.04 150.149 103.01C150.213 102.977 150.277 102.949 150.336 102.915C154.585 100.643 157.665 96.3112 158.338 91.1873L158.442 89.9822V88.4213L159.088 81.3806C159.111 81.2762 159.12 81.1671 159.12 81.0533C159.12 81.0485 159.12 81.0438 159.12 81.039C159.12 81.039 159.12 81.0295 159.12 81.0248L159.107 81.0201Z" fill="#4A1D4E"/>
<path d="M158.465 33.2819V18.8732L159.111 11.8325C159.134 11.7281 159.143 11.619 159.143 11.5052C159.143 11.5052 159.143 11.4957 159.143 11.4909C160.226 10.2716 160.89 8.64429 160.89 6.8509C160.89 3.06488 157.947 0 154.321 0C150.695 0 147.752 3.06962 147.752 6.8509C147.752 8.64429 148.416 10.2716 149.499 11.4909V11.5004C149.499 11.6143 149.512 11.7234 149.531 11.8278L150.177 18.8685V35.0753L149.531 42.116C149.508 42.2204 149.499 42.3295 149.499 42.4434C149.499 42.4481 149.499 42.4528 149.499 42.4576C149.499 42.4576 149.499 42.4671 149.499 42.4718C149.512 43.34 150.19 44.0375 151.023 44.0422H157.61C158.447 44.0422 159.12 43.34 159.134 42.4718C159.134 42.4718 159.134 42.4623 159.134 42.4576C159.134 42.4528 159.134 42.4481 159.134 42.4434C159.134 42.3295 159.12 42.2204 159.102 42.116L158.456 35.0753V33.2772L158.465 33.2819ZM155.827 9.91104C155.376 10.153 154.862 10.2953 154.321 10.2953C153.78 10.2953 153.266 10.1577 152.815 9.91104C151.751 9.34171 151.023 8.18882 151.023 6.85565C151.023 4.95789 152.501 3.41596 154.321 3.41596C156.141 3.41596 157.619 4.95789 157.619 6.85565C157.619 8.18882 156.891 9.34171 155.827 9.91104Z" fill="#4A1D4E"/>
<path d="M45.1731 41.9642C45.1731 39.8529 44.9684 38.1592 44.5589 36.8734C44.1495 35.5925 43.6082 34.5866 42.9304 33.856C42.2571 33.1301 41.5065 32.6367 40.6876 32.3852C39.8688 32.1338 39.0499 32.0104 38.2311 32.0104C37.4122 32.0104 36.6025 32.1385 35.8109 32.3852C35.0148 32.6367 34.2915 33.1254 33.641 33.856C32.9905 34.5866 32.4582 35.5877 32.0488 36.8734C31.6394 38.1544 31.4346 39.8529 31.4346 41.9642V53.6496C31.4346 55.1583 31.4574 56.3871 31.5074 57.3455C31.5529 58.2991 31.603 59.0535 31.653 59.6086C31.6985 60.2111 31.7485 60.6618 31.7986 60.9655C28.8098 60.9655 26.5216 60.3107 24.9339 59.006C23.3417 57.7013 22.5501 55.5664 22.5501 52.5964L22.6229 41.9689C22.6229 39.8577 22.4182 38.1639 22.0088 36.8782C21.5994 35.5972 21.058 34.5914 20.3802 33.8608C19.7069 33.1349 18.9563 32.6414 18.1375 32.39C17.3186 32.1385 16.4998 32.0152 15.6809 32.0152C14.8621 32.0152 14.0523 32.1433 13.2608 32.39C12.4647 32.6414 11.7414 33.1301 11.0908 33.8608C10.4403 34.5914 9.9217 35.5925 9.53502 36.8782C9.14835 38.1592 8.95728 39.8577 8.95728 41.9689V53.6544C8.95728 55.1631 8.96638 56.3919 8.99367 57.3502C9.01642 58.3039 9.05281 59.0582 9.10285 59.6133C9.14834 60.2159 9.19839 60.6666 9.24843 60.9702C6.25963 60.9702 3.97141 60.3155 2.38376 59.0108C0.791553 57.7061 0 55.5711 0 52.6011L0.0727864 41.9737C0.0727864 38.6051 0.54135 35.8534 1.48302 33.7184C2.4247 31.5834 3.63932 29.9134 5.13144 28.7036C6.62357 27.4985 8.29766 26.6825 10.1537 26.2555C12.0098 25.8285 13.8522 25.615 15.6855 25.615C17.7099 25.615 19.7069 25.8664 21.6858 26.3694C23.6601 26.8723 25.4207 27.8259 26.9628 29.235C28.505 27.8306 30.261 26.8723 32.2398 26.3694C34.2142 25.8664 36.2158 25.615 38.2402 25.615C40.0689 25.615 41.925 25.8285 43.8038 26.2555C45.6826 26.6825 47.384 27.4985 48.8988 28.7036C50.4183 29.9087 51.6465 31.5787 52.5837 33.7184C53.5253 35.8534 53.9939 38.6051 53.9939 41.9737V53.6591C53.9939 55.1678 54.003 56.3966 54.0303 57.355C54.053 58.3086 54.0894 59.063 54.1395 59.6181C54.185 60.2206 54.235 60.6713 54.285 60.975C51.2962 60.975 49.0217 60.3202 47.4522 59.0155C45.8873 57.7108 45.1048 55.5758 45.1048 52.6059L45.1776 41.9784L45.1731 41.9642Z" fill="white"/>
<path d="M61.1998 41.632C62.5008 40.778 63.9702 40.1375 65.6079 39.7105C67.2456 39.2835 68.9561 39.07 70.7394 39.07C73.2459 39.07 75.6297 39.4448 77.8952 40.1992C77.7496 38.643 77.4357 37.2577 76.9535 36.0526C76.3257 34.4964 75.3886 33.3625 74.133 32.6604C73.6508 32.4089 73.1322 32.2191 72.5772 32.0958C72.0222 31.9724 71.3853 31.906 70.662 31.906H69.8659C69.1926 31.9582 68.5148 32.0673 67.8415 32.2428C67.1683 32.4184 66.4905 32.6319 65.8172 32.8833C65.1439 33.1348 64.4661 33.3483 63.7928 33.5238C63.1195 33.6994 62.469 33.7895 61.8412 33.7895C61.1679 33.7895 60.5174 33.6377 59.8896 33.3388C59.3119 32.9877 58.8069 32.4089 58.3702 31.6071L58.2246 31.3035L58.3702 31.0757C59.8168 29.4674 61.5137 28.1722 63.4653 27.1948C65.4169 26.2127 67.5504 25.6481 69.8614 25.4963C70.1025 25.4489 70.3072 25.4204 70.4755 25.4204H71.0896C73.3051 25.4204 75.3295 25.8332 77.1628 26.6634C78.9915 27.4937 80.5837 28.6371 81.9348 30.0936C84.6825 33.2107 86.1018 37.3051 86.1974 42.3816V42.9842C86.1974 48.2125 84.9191 52.4587 82.367 55.7229C81.1114 57.3312 79.6057 58.6359 77.8497 59.6417C76.0892 60.6475 74.1285 61.2738 71.9585 61.5252C71.6674 61.5727 71.3808 61.6012 71.0896 61.6012H70.148C69.1381 61.6012 68.0736 61.511 66.9681 61.3355C65.8581 61.1599 64.7754 60.8231 63.7155 60.3154C62.6055 59.8647 61.5956 59.2717 60.6812 58.5458C59.7668 57.8151 58.9934 56.8757 58.3702 55.7181C57.4558 54.2616 56.9736 52.4777 56.9236 50.3664V49.9157C56.9236 47.9563 57.3103 46.3242 58.0791 45.0148C58.7523 43.71 59.7895 42.5761 61.1861 41.6225L61.1998 41.632ZM76.1619 45.252C75.5342 45.1523 74.8245 45.0527 74.0284 44.9531C73.2323 44.8534 72.4271 44.8013 71.6082 44.8013C70.935 44.8013 70.2844 44.8392 69.6567 44.9151C69.0289 44.991 68.4511 45.1286 67.9234 45.3279C66.7179 45.7312 65.8035 46.3574 65.1757 47.2114C64.9346 47.5103 64.7436 47.8519 64.598 48.2267C64.4524 48.6015 64.3569 49.019 64.3069 49.4697C64.2568 49.6216 64.2341 49.8445 64.2341 50.1482C64.2341 50.6511 64.3069 51.192 64.4524 51.7708C64.598 52.3496 64.8846 52.8904 65.3213 53.3934C65.708 53.8963 66.2721 54.3233 67.0182 54.6743C67.7642 55.0254 68.765 55.201 70.016 55.201C70.4027 55.201 70.6893 55.1772 70.8849 55.1251C72.2315 55.0776 73.4143 54.6743 74.4287 53.92C74.9109 53.6163 75.3204 53.2558 75.657 52.8288C75.9936 52.4018 76.2848 51.9368 76.5259 51.4339C77.0536 50.4803 77.4175 49.4982 77.6086 48.4924C77.7996 47.4866 77.8997 46.5567 77.8997 45.7027C77.8497 45.7027 77.8133 45.6885 77.7905 45.6647C77.7678 45.641 77.7314 45.6268 77.6814 45.6268C77.4903 45.5793 77.2719 45.5272 77.0308 45.475C76.7897 45.4275 76.4986 45.3516 76.1619 45.2472V45.252Z" fill="white"/>
<path d="M89.2725 42.6853C89.2725 39.3168 89.741 36.5698 90.6827 34.4301C91.6244 32.2951 92.839 30.6251 94.3311 29.4153C95.8232 28.2102 97.4973 27.3941 99.3534 26.9672C101.209 26.5402 103.052 26.3267 104.885 26.3267H108.429C108.67 27.3799 108.72 28.362 108.575 29.2682C108.479 30.0225 108.151 30.7532 107.596 31.4554C107.041 32.1575 106.136 32.5845 104.885 32.7363C104.066 32.836 103.257 33.0257 102.465 33.3009C101.669 33.5761 100.959 34.0553 100.331 34.7337C99.7037 35.4122 99.1851 36.38 98.7756 37.6373C98.3662 38.8946 98.1615 40.5788 98.1615 42.6901V53.6212C98.1615 55.1299 98.1706 56.3492 98.1979 57.2791C98.2206 58.209 98.257 58.9491 98.3071 59.5042C98.3526 60.1067 98.4026 60.5575 98.4526 60.8611C95.5139 60.8611 93.2484 60.2206 91.6562 58.9396C90.064 57.6586 89.2725 55.5094 89.2725 52.4967V42.6948V42.6853Z" fill="white"/>
<path d="M143.167 45.3279C143.167 48.6964 142.684 51.4339 141.72 53.5451C140.755 55.6564 139.514 57.3122 137.999 58.522C136.479 59.7271 134.782 60.5574 132.904 61.0081C131.025 61.4588 129.169 61.6865 127.34 61.6865C125.511 61.6865 123.655 61.4588 121.772 61.0081C119.893 60.5574 118.192 59.7271 116.677 58.522C115.157 57.3169 113.929 55.6564 112.992 53.5451C112.05 51.4339 111.582 48.6964 111.582 45.3279L111.655 34.7004C111.655 31.683 112.437 29.5385 114.002 28.2528C115.567 26.9718 117.846 26.3313 120.835 26.3313C120.785 26.6349 120.739 27.0857 120.689 27.6882C120.639 28.2433 120.603 28.9976 120.58 29.9513C120.557 30.9049 120.544 32.1384 120.544 33.6472L120.616 45.3326C120.616 47.4439 120.807 49.1376 121.194 50.4233C121.581 51.7043 122.099 52.6959 122.75 53.4028C123.4 54.1097 124.124 54.5842 124.92 54.8356C125.716 55.0871 126.521 55.2104 127.34 55.2104C128.159 55.2104 128.964 55.0871 129.76 54.8356C130.556 54.5842 131.28 54.1097 131.93 53.4028C132.581 52.7006 133.099 51.7091 133.486 50.4233C133.873 49.1423 134.064 47.4439 134.064 45.3326L134.136 34.7052C134.136 31.6877 134.933 29.5433 136.52 28.2575C138.112 26.9765 140.401 26.336 143.385 26.336C143.335 26.6397 143.289 27.0904 143.239 27.6929C143.189 28.248 143.153 29.0024 143.13 29.956C143.107 30.9096 143.094 32.1432 143.094 33.6519L143.167 45.3373V45.3279Z" fill="white"/>
<path d="M191.911 30.8527C193.403 32.461 194.572 34.3588 195.418 36.5459C196.26 38.7331 196.683 41.0816 196.683 43.5961C196.683 46.1106 196.296 48.4591 195.527 50.6463C194.754 52.8334 193.671 54.7312 192.274 56.3395C190.878 58.0001 189.176 59.3048 187.179 60.2584C185.178 61.212 182.949 61.6912 180.492 61.6912C178.277 61.6912 176.193 61.212 174.242 60.2584C172.29 59.3048 170.566 57.9953 169.074 56.3395C167.627 54.7312 166.481 52.8334 165.639 50.6463C164.798 48.4591 164.375 46.1106 164.375 43.5961C164.375 41.0816 164.748 38.7331 165.494 36.5459C166.24 34.3588 167.313 32.4657 168.71 30.8527C170.106 29.1921 171.803 27.8874 173.805 26.9338C175.802 25.9802 178.036 25.501 180.492 25.501C182.758 25.501 184.864 25.9802 186.815 26.9338C188.767 27.8874 190.464 29.1969 191.911 30.8527ZM180.492 55.2009C181.12 55.2009 181.852 55.0491 182.698 54.7502C183.54 54.4465 184.35 53.8725 185.119 53.0185C185.887 52.1645 186.538 50.9831 187.07 49.4744C187.598 47.9657 187.866 46.0063 187.866 43.5961C187.866 41.1859 187.602 39.2123 187.07 37.6798C186.538 36.1474 185.887 34.966 185.119 34.1358C184.345 33.3055 183.54 32.7409 182.698 32.4373C181.857 32.1336 181.12 31.9866 180.492 31.9866C179.864 31.9866 179.132 32.1384 178.286 32.4373C177.444 32.7409 176.634 33.3055 175.866 34.1358C175.092 34.966 174.442 36.1474 173.914 37.6798C173.382 39.2123 173.118 41.1859 173.118 43.5961C173.118 46.0063 173.382 47.9704 173.914 49.4744C174.442 50.9831 175.092 52.1645 175.866 53.0185C176.634 53.8725 177.444 54.4513 178.286 54.7502C179.127 55.0538 179.864 55.2009 180.492 55.2009Z" fill="white"/>
<path d="M4.18066 84.2367C4.18066 83.4349 4.31259 82.6901 4.58099 81.9926C4.84939 81.2952 5.21332 80.6927 5.67279 80.1803C6.13225 79.6537 6.6736 79.2361 7.29229 78.9325C7.91552 78.6289 8.58424 78.4771 9.30301 78.4771C10.0855 78.4771 10.7951 78.6289 11.432 78.9325C12.0689 79.2361 12.6102 79.6537 13.0515 80.1803C13.4973 80.6927 13.8431 81.2952 14.0887 81.9926C14.3344 82.6901 14.4572 83.4349 14.4572 84.2367C14.4572 85.0385 14.3207 85.7834 14.0569 86.4808C13.7885 87.1783 13.4154 87.7808 12.9423 88.2932C12.4829 88.8198 11.9415 89.2373 11.3228 89.541C10.7042 89.8446 10.0309 89.9964 9.31211 89.9964C8.43867 89.9964 7.66531 89.8114 6.98749 89.4461L7.01024 93.0945C7.01024 93.5737 7.01024 93.9675 7.02388 94.2711C7.03298 94.5748 7.04208 94.8167 7.06028 94.9923C7.07393 95.1821 7.09212 95.3291 7.10577 95.424C6.155 95.424 5.43168 95.2153 4.93127 94.7978C4.43087 94.3803 4.18521 93.6971 4.18521 92.734V84.2415L4.18066 84.2367ZM9.30756 87.9326C9.50772 87.9326 9.73973 87.8852 10.0081 87.7903C10.2765 87.6954 10.5313 87.5151 10.7769 87.2494C11.0226 86.9837 11.2273 86.6089 11.4002 86.1203C11.5685 85.6316 11.6549 85.0053 11.6549 84.2367C11.6549 83.4682 11.5685 82.8466 11.4002 82.3675C11.2319 81.8883 11.0226 81.5182 10.7769 81.2525C10.5313 80.9868 10.2765 80.8113 10.0081 80.7117C9.73973 80.6168 9.50772 80.5693 9.30756 80.5693C9.1074 80.5693 8.87539 80.6168 8.60699 80.7117C8.33859 80.8065 8.07929 80.9868 7.83818 81.2525C7.59253 81.5182 7.38782 81.8883 7.21495 82.3675C7.04663 82.8466 6.9602 83.4729 6.9602 84.2367C6.9602 85.0006 7.04208 85.6316 7.21495 86.1203C7.38327 86.6089 7.59253 86.9837 7.83818 87.2494C8.08384 87.5151 8.33859 87.6954 8.60699 87.7903C8.87539 87.8852 9.1074 87.9326 9.30756 87.9326Z" fill="#4A1D4E"/>
<path d="M25.1477 87.4014C25.3297 87.5152 25.5071 87.705 25.6754 87.9754L25.7437 88.0466L25.6754 88.1178C25.1705 88.6918 24.5654 89.1473 23.8694 89.4747C23.1734 89.802 22.4182 89.9681 21.6039 89.9681C20.8988 89.9681 20.2347 89.821 19.616 89.5221C18.9973 89.2232 18.4468 88.8152 17.9692 88.2886C17.5097 87.7762 17.1458 87.1736 16.8774 86.4762C16.609 85.7788 16.4771 85.0339 16.4771 84.2321C16.4771 83.4303 16.5953 82.6854 16.8319 81.988C17.0684 81.2906 17.4096 80.6833 17.8554 80.1519C18.3013 79.6395 18.8426 79.2315 19.4749 78.9279C20.1118 78.6242 20.8215 78.4724 21.6039 78.4724C22.0316 78.4724 22.5047 78.5388 23.0187 78.6764C23.5328 78.814 24.0104 79.0275 24.4563 79.3264C24.9021 79.6206 25.2706 80.0096 25.5617 80.4888C25.8529 80.968 25.9984 81.5468 25.9984 82.2157C25.9984 82.8847 25.8392 83.4018 25.5162 83.8099C25.1932 84.2179 24.8111 84.5358 24.3653 84.7682C23.9195 85.0007 23.4509 85.162 22.9505 85.2474C22.4501 85.3328 22.0179 85.3803 21.6494 85.3803C21.0808 85.3803 20.5895 85.3423 20.1664 85.2711C19.7433 85.2 19.4567 85.1478 19.3021 85.1146C19.3612 85.6886 19.484 86.1583 19.6706 86.5189C19.8571 86.8795 20.0618 87.1641 20.2938 87.3729C20.5258 87.5817 20.7533 87.7192 20.9853 87.7904C21.2173 87.8616 21.422 87.8995 21.6085 87.8995C21.9315 87.8995 22.2363 87.8663 22.5274 87.8046C22.8186 87.743 23.0779 87.6671 23.3099 87.5864C23.5419 87.5057 23.7602 87.4251 23.965 87.3444C24.1742 87.2638 24.3744 87.2258 24.5745 87.2258C24.7884 87.2258 24.9794 87.2828 25.1477 87.3919V87.4014ZM21.6085 80.5173C21.4402 80.5315 21.24 80.5789 21.0126 80.6501C20.7805 80.7213 20.5576 80.8541 20.3347 81.0439C20.1118 81.2384 19.9071 81.5088 19.7251 81.8599C19.5432 82.211 19.4113 82.6617 19.3339 83.2026C19.5796 83.2832 19.9299 83.3591 20.3802 83.4303C20.8306 83.5015 21.2855 83.5157 21.7359 83.4683C22.1862 83.4208 22.5866 83.2832 22.9323 83.0602C23.278 82.8373 23.4645 82.4625 23.4964 81.9311C23.5282 81.5326 23.3781 81.1862 23.046 80.9015C22.7139 80.6121 22.2363 80.484 21.6085 80.5173Z" fill="#4A1D4E"/>
<path d="M27.9453 83.9473C27.9453 82.875 28.0954 82.0021 28.3957 81.3189C28.6959 80.6404 29.0826 80.1091 29.5557 79.7248C30.0288 79.3405 30.5656 79.0795 31.1525 78.9467C31.7439 78.8091 32.3307 78.7427 32.913 78.7427H34.0412C34.1185 79.0795 34.1322 79.3879 34.0867 79.6773C34.0548 79.9193 33.9502 80.147 33.7773 80.3747C33.6045 80.6025 33.3133 80.7353 32.913 80.7828C32.6537 80.816 32.3944 80.8729 32.1442 80.963C31.894 81.0532 31.6665 81.205 31.4664 81.4185C31.2662 81.6368 31.1024 81.9404 30.9705 82.3437C30.8386 82.7422 30.7749 83.2783 30.7749 83.952V87.4297C30.7749 87.9088 30.7749 88.2979 30.7885 88.592C30.7976 88.8862 30.8067 89.1234 30.8249 89.299C30.8386 89.4887 30.8568 89.6358 30.8704 89.7307C29.9333 89.7307 29.2145 89.5267 28.7096 89.1187C28.2046 88.7106 27.9499 88.0275 27.9499 87.0691V83.952L27.9453 83.9473Z" fill="#4A1D4E"/>
<path d="M38.7498 87.4013C38.7498 87.8805 38.7498 88.2743 38.7635 88.5779C38.7726 88.8815 38.7817 89.1235 38.7999 89.2991C38.8135 89.4888 38.8317 89.6359 38.8454 89.7308C37.8946 89.7308 37.1713 89.522 36.6709 89.1093C36.1705 88.6918 35.9248 88.0133 35.9248 87.0692L35.9476 78.553C35.9476 77.7512 36.0567 77.0111 36.2796 76.3231C36.5025 75.6352 36.8346 75.0279 37.2804 74.5013C37.7081 73.9747 38.2312 73.5619 38.8454 73.2677C39.4595 72.9736 40.1555 72.8218 40.938 72.8218C41.3974 72.8218 41.7887 72.9024 42.1117 73.0637C42.4619 73.2061 42.7394 73.448 42.9396 73.7849C43.0624 74.0411 43.1216 74.2973 43.1216 74.5535C43.1216 74.729 43.0988 74.8951 43.0533 75.0564L43.0078 75.1987L42.8941 75.1513C42.6803 75.0706 42.4301 75.0042 42.148 74.9473C41.866 74.8903 41.5476 74.8619 41.1927 74.8619C41.0699 74.8619 40.9152 74.8761 40.7333 74.9093C40.5513 74.9425 40.3511 75.0137 40.1373 75.1276C39.9235 75.2414 39.7188 75.398 39.5277 75.5972C39.3367 75.7965 39.1729 76.0669 39.0319 76.399C38.9409 76.622 38.8681 76.8877 38.8135 77.1914C38.7589 77.495 38.7316 77.8366 38.7316 78.2209V78.4866H41.8387C41.8387 79.2077 41.6476 79.7818 41.2655 80.2135C40.8834 80.6453 40.3375 80.8588 39.6324 80.8588H38.7362L38.7589 87.406L38.7498 87.4013Z" fill="#4A1D4E"/>
<path d="M51.1734 80.1852C51.6466 80.6976 52.0196 81.3001 52.288 81.9975C52.5564 82.695 52.6883 83.4398 52.6883 84.2416C52.6883 85.0434 52.5655 85.7883 52.3198 86.4857C52.0742 87.1832 51.7284 87.7857 51.2826 88.2981C50.8368 88.8247 50.2955 89.2422 49.6631 89.5459C49.0262 89.8495 48.3166 90.0013 47.5341 90.0013C46.829 90.0013 46.1648 89.8495 45.5461 89.5459C44.9275 89.2422 44.377 88.8247 43.8993 88.2981C43.4399 87.7857 43.076 87.1832 42.8076 86.4857C42.5392 85.7883 42.4072 85.0434 42.4072 84.2416C42.4072 83.4398 42.5255 82.695 42.7621 81.9975C42.9986 81.3001 43.3398 80.6976 43.7856 80.1852C44.2314 79.6585 44.7728 79.241 45.4051 78.9374C46.042 78.6338 46.7517 78.4819 47.5341 78.4819C48.2529 78.4819 48.9262 78.6338 49.5448 78.9374C50.1681 79.241 50.7049 79.6585 51.1643 80.1852H51.1734ZM47.5387 87.9328C47.7388 87.9328 47.9708 87.8853 48.2392 87.7904C48.5076 87.6955 48.7624 87.5105 49.0081 87.2401C49.2537 86.9697 49.4584 86.5948 49.6313 86.1109C49.7996 85.6317 49.886 85.0055 49.886 84.2416C49.886 83.4778 49.7996 82.8468 49.6313 82.3581C49.463 81.8694 49.2537 81.4946 49.0081 81.2289C48.7624 80.9633 48.5076 80.783 48.2392 80.6881C47.9708 80.5932 47.7388 80.5457 47.5387 80.5457C47.3385 80.5457 47.1065 80.5932 46.8381 80.6881C46.5697 80.783 46.3104 80.9633 46.0693 81.2289C45.8236 81.4946 45.6189 81.8694 45.4461 82.3581C45.2777 82.8468 45.1913 83.473 45.1913 84.2416C45.1913 85.0102 45.2732 85.6317 45.4461 86.1109C45.6144 86.5901 45.8236 86.9649 46.0693 87.2401C46.3149 87.5105 46.5697 87.6955 46.8381 87.7904C47.1065 87.8853 47.3385 87.9328 47.5387 87.9328Z" fill="#4A1D4E"/>
<path d="M54.708 83.9473C54.708 82.875 54.8581 82.0021 55.1584 81.3189C55.4586 80.6404 55.8453 80.1091 56.3184 79.7248C56.7915 79.3405 57.3283 79.0795 57.9152 78.9467C58.5065 78.8091 59.0934 78.7427 59.6757 78.7427H60.8039C60.8812 79.0795 60.8949 79.3879 60.8494 79.6773C60.8175 79.9193 60.7129 80.147 60.54 80.3747C60.3671 80.6025 60.076 80.7353 59.6757 80.7828C59.4164 80.816 59.1571 80.8729 58.9069 80.963C58.6567 81.0532 58.4292 81.205 58.229 81.4185C58.0289 81.6368 57.8651 81.9404 57.7332 82.3437C57.6013 82.7422 57.5376 83.2783 57.5376 83.952V87.4297C57.5376 87.9088 57.5376 88.2979 57.5512 88.592C57.5603 88.8862 57.5694 89.1234 57.5876 89.299C57.6013 89.4887 57.6195 89.6358 57.6331 89.7307C56.696 89.7307 55.9772 89.5267 55.4723 89.1187C54.9673 88.7106 54.7126 88.0275 54.7126 87.0691V83.952L54.708 83.9473Z" fill="#4A1D4E"/>
<path d="M76.4076 83.6866C76.4076 83.0176 76.3439 82.4767 76.2119 82.0687C76.08 81.6607 75.9071 81.3428 75.6933 81.1104C75.4795 80.8779 75.243 80.7213 74.9791 80.6407C74.7198 80.56 74.456 80.5221 74.1967 80.5221C73.9374 80.5221 73.6781 80.56 73.4279 80.6407C73.1731 80.7213 72.9456 80.8779 72.7364 81.1104C72.5271 81.3428 72.3588 81.6607 72.2314 82.0687C72.0995 82.4767 72.0358 83.0176 72.0358 83.6866V87.4062C72.0358 87.8854 72.0449 88.2791 72.0586 88.5828C72.0722 88.8864 72.0904 89.1284 72.104 89.3039C72.1177 89.4937 72.1359 89.6408 72.1495 89.7357C71.1988 89.7357 70.4709 89.5269 69.9659 89.1142C69.461 88.6966 69.2062 88.0182 69.2062 87.0741L69.229 83.6913C69.229 83.0223 69.1653 82.4815 69.0334 82.0735C68.9014 81.6655 68.7286 81.3476 68.5148 81.1151C68.301 80.8826 68.0644 80.7261 67.8006 80.6454C67.5413 80.5648 67.2774 80.5268 67.0181 80.5268C66.7588 80.5268 66.4995 80.5648 66.2493 80.6454C65.9945 80.7261 65.7671 80.8826 65.5578 81.1151C65.3486 81.3476 65.1848 81.6655 65.062 82.0735C64.9391 82.4815 64.88 83.0223 64.88 83.6913V87.4109C64.88 87.8901 64.88 88.2839 64.8936 88.5875C64.9027 88.8912 64.9118 89.1331 64.93 89.3087C64.9437 89.4985 64.9619 89.6455 64.9755 89.7404C64.0248 89.7404 63.2969 89.5317 62.7919 89.1189C62.287 88.7014 62.0322 88.0229 62.0322 87.0788L62.055 83.6961C62.055 82.6238 62.2051 81.7509 62.5053 81.0677C62.8056 80.3892 63.1923 79.8578 63.6654 79.4735C64.1385 79.0892 64.6753 78.8283 65.2621 78.6955C65.8535 78.5579 66.4404 78.4915 67.0226 78.4915C67.6686 78.4915 68.301 78.5721 68.9333 78.7334C69.5611 78.8947 70.1206 79.1984 70.6119 79.6443C71.1032 79.1984 71.6628 78.8947 72.2906 78.7334C72.9183 78.5721 73.5552 78.4915 74.2012 78.4915C74.7835 78.4915 75.3749 78.5579 75.9708 78.6955C76.5668 78.833 77.1081 79.0892 77.5903 79.4735C78.0725 79.8578 78.4638 80.3892 78.764 81.0677C79.0643 81.7461 79.2144 82.6238 79.2144 83.6961V87.4157C79.2144 87.8948 79.2144 88.2886 79.228 88.5923C79.2371 88.8959 79.2462 89.1379 79.2644 89.3134C79.2781 89.5032 79.2963 89.6503 79.3099 89.7452C78.3591 89.7452 77.6358 89.5364 77.1354 89.1236C76.635 88.7061 76.3893 88.0277 76.3893 87.0836L76.4121 83.7008L76.4076 83.6866Z" fill="#4A1D4E"/>
<path d="M82.5489 83.6152C82.9629 83.3448 83.4314 83.1408 83.95 83.0032C84.4732 82.8656 85.0145 82.7992 85.5832 82.7992C86.3793 82.7992 87.139 82.9178 87.8623 83.1597C87.8168 82.6663 87.7167 82.2251 87.5621 81.8408C87.3619 81.3474 87.0617 80.9868 86.6659 80.7638C86.5112 80.6832 86.3474 80.6262 86.17 80.5835C85.9926 80.5456 85.7924 80.5219 85.5604 80.5219H85.3057C85.0919 80.5361 84.8781 80.574 84.6597 80.631C84.4459 80.6879 84.2321 80.7543 84.0137 80.835C83.7999 80.9156 83.5861 80.9821 83.3677 81.039C83.1539 81.0959 82.9447 81.1244 82.7445 81.1244C82.5307 81.1244 82.3214 81.0769 82.1213 80.9821C81.9393 80.8682 81.7755 80.6879 81.6391 80.4317L81.5936 80.3368L81.6391 80.2657C82.0985 79.7533 82.6399 79.3405 83.2586 79.0321C83.8772 78.7237 84.5596 78.5387 85.292 78.4913C85.3694 78.477 85.4331 78.4675 85.4876 78.4675H85.6833C86.3884 78.4675 87.0344 78.6004 87.6167 78.8613C88.1989 79.127 88.7039 79.4876 89.1361 79.9525C90.0095 80.9441 90.4644 82.2488 90.4917 83.8619V84.0517C90.4917 85.717 90.0868 87.0644 89.2725 88.1081C88.8722 88.6205 88.3946 89.038 87.835 89.3559C87.2755 89.6738 86.6522 89.8731 85.9608 89.9537C85.8698 89.9679 85.7788 89.9774 85.6833 89.9774H85.383C85.06 89.9774 84.7234 89.949 84.3731 89.892C84.0183 89.8351 83.6771 89.726 83.3359 89.5694C82.9811 89.4271 82.6626 89.2373 82.3715 89.0048C82.0803 88.7724 81.8347 88.4735 81.6345 88.1034C81.3434 87.6384 81.1887 87.0739 81.175 86.4002V86.2578C81.175 85.6363 81.2979 85.1144 81.5435 84.6969C81.7573 84.2794 82.0894 83.9236 82.5307 83.6152H82.5489ZM87.3119 84.7633C87.1117 84.7301 86.8842 84.7017 86.634 84.6685C86.3793 84.6352 86.1245 84.621 85.8652 84.621C85.6514 84.621 85.4422 84.6305 85.242 84.659C85.0418 84.6827 84.8599 84.7254 84.6915 84.7918C84.3094 84.9199 84.0183 85.1192 83.8181 85.3896C83.7408 85.4845 83.6816 85.5936 83.6361 85.7122C83.5907 85.8308 83.5588 85.9637 83.5452 86.106C83.5315 86.1535 83.5224 86.2246 83.5224 86.3195C83.5224 86.4808 83.5452 86.6516 83.5906 86.8366C83.6361 87.0217 83.7271 87.1925 83.8681 87.3538C83.991 87.5151 84.1729 87.6479 84.4095 87.7618C84.6461 87.8757 84.9645 87.9279 85.3648 87.9279C85.4876 87.9279 85.5786 87.9184 85.6423 87.9041C86.0699 87.8899 86.4475 87.7618 86.7705 87.5198C86.9252 87.4249 87.0526 87.3063 87.1617 87.1735C87.2709 87.0359 87.3619 86.8888 87.4392 86.7275C87.6076 86.4239 87.7213 86.1108 87.785 85.7929C87.8441 85.475 87.8759 85.1761 87.8759 84.9057C87.8623 84.9057 87.8487 84.9057 87.8396 84.8962C87.8305 84.8867 87.8214 84.882 87.8032 84.882C87.7395 84.8677 87.6712 84.8487 87.5939 84.8345C87.5166 84.8203 87.4256 84.7966 87.3164 84.7633H87.3119Z" fill="#4A1D4E"/>
<path d="M92.548 83.6865C92.548 82.6143 92.6981 81.7413 92.9983 81.0581C93.2986 80.3797 93.6807 79.8483 94.1493 79.464C94.6178 79.0797 95.1455 78.8188 95.7369 78.6859C96.3283 78.5484 96.9197 78.4819 97.5202 78.4819C98.1207 78.4819 98.6939 78.5484 99.2898 78.6859C99.8858 78.8235 100.427 79.0797 100.909 79.464C101.392 79.8483 101.783 80.3797 102.083 81.0581C102.383 81.7366 102.533 82.6143 102.533 83.6865L102.624 89.7309C101.687 89.7309 100.968 89.5221 100.464 89.1094C99.9586 88.6919 99.7038 88.0134 99.7038 87.0693L99.7265 83.6865C99.7265 83.0176 99.6628 82.4767 99.5309 82.0687C99.399 81.6607 99.2261 81.3428 99.0123 81.1103C98.7985 80.8779 98.562 80.7213 98.2981 80.6406C98.0388 80.56 97.775 80.522 97.5157 80.522C97.2564 80.522 96.997 80.56 96.7468 80.6406C96.4921 80.7213 96.2646 80.8779 96.0554 81.1103C95.8461 81.3428 95.6778 81.6607 95.5504 82.0687C95.4185 82.4767 95.3548 83.0176 95.3548 83.6865V87.4061C95.3685 87.8853 95.3821 88.2791 95.3912 88.5828C95.4003 88.8864 95.4094 89.1284 95.4276 89.3039C95.4412 89.4937 95.4594 89.6408 95.4731 89.7356C94.5223 89.7356 93.7944 89.5269 93.2895 89.1141C92.7845 88.6966 92.5298 88.0182 92.5298 87.074L92.5525 83.6913L92.548 83.6865Z" fill="#4A1D4E"/>
<path d="M109.589 80.5173C109.389 80.5173 109.157 80.5647 108.888 80.6596C108.62 80.7545 108.365 80.9348 108.12 81.2004C107.874 81.4661 107.669 81.8409 107.496 82.3296C107.328 82.8183 107.242 83.4445 107.242 84.2131C107.242 84.9817 107.324 85.608 107.496 86.0967C107.665 86.5853 107.874 86.9601 108.12 87.2258C108.365 87.4915 108.62 87.6671 108.888 87.7667C109.157 87.8663 109.389 87.909 109.589 87.909C109.912 87.909 110.217 87.8758 110.508 87.8141C110.799 87.7524 111.058 87.6765 111.29 87.5959C111.518 87.501 111.741 87.4156 111.946 87.3444C112.155 87.2733 112.355 87.2353 112.555 87.2353C112.755 87.2353 112.955 87.2922 113.151 87.4014C113.319 87.5152 113.497 87.6955 113.679 87.9517L113.724 88.0466L113.656 88.1178C113.151 88.6918 112.546 89.1473 111.85 89.4747C111.154 89.802 110.403 89.9681 109.607 89.9681C108.888 89.9681 108.215 89.8163 107.597 89.5126C106.978 89.209 106.427 88.801 105.954 88.2886C105.495 87.7762 105.131 87.1736 104.862 86.4762C104.594 85.7788 104.462 85.0339 104.462 84.2321C104.462 83.4303 104.585 82.6854 104.831 81.988C105.076 81.2906 105.422 80.6833 105.868 80.1519C106.314 79.6395 106.85 79.2315 107.478 78.9279C108.106 78.6242 108.811 78.4724 109.594 78.4724C110.376 78.4724 111.163 78.6385 111.859 78.9658C112.555 79.2932 113.16 79.7439 113.665 80.3227L113.733 80.3939L113.665 80.4888C113.497 80.7782 113.319 80.9585 113.137 81.0391C112.937 81.1672 112.746 81.2242 112.564 81.2052C112.364 81.2052 112.164 81.1672 111.955 81.0961C111.75 81.0249 111.527 80.949 111.3 80.8683C111.068 80.7734 110.808 80.688 110.517 80.6169C110.226 80.5457 109.921 80.5078 109.598 80.5078L109.589 80.5173Z" fill="#4A1D4E"/>
<path d="M123.537 87.4014C123.719 87.5152 123.896 87.705 124.065 87.9754L124.133 88.0466L124.065 88.1178C123.56 88.6918 122.955 89.1473 122.259 89.4747C121.563 89.802 120.807 89.9681 119.993 89.9681C119.288 89.9681 118.624 89.821 118.005 89.5221C117.386 89.228 116.836 88.8152 116.363 88.2886C115.903 87.7762 115.539 87.1736 115.271 86.4762C115.003 85.7788 114.866 85.0339 114.866 84.2321C114.866 83.4303 114.984 82.6854 115.221 81.988C115.458 81.2906 115.799 80.6833 116.245 80.1519C116.69 79.6395 117.232 79.2315 117.864 78.9279C118.501 78.6242 119.211 78.4724 119.993 78.4724C120.421 78.4724 120.894 78.5388 121.408 78.6764C121.922 78.814 122.4 79.0275 122.845 79.3264C123.291 79.6206 123.66 80.0096 123.951 80.4888C124.242 80.968 124.388 81.5468 124.388 82.2157C124.388 82.8847 124.228 83.4018 123.905 83.8099C123.582 84.2179 123.2 84.5358 122.754 84.7682C122.309 85.0007 121.84 85.162 121.34 85.2474C120.839 85.3328 120.407 85.3803 120.039 85.3803C119.47 85.3803 118.979 85.3423 118.556 85.2711C118.132 85.2 117.846 85.1478 117.691 85.1146C117.75 85.6886 117.873 86.1583 118.06 86.5189C118.246 86.8795 118.451 87.1641 118.678 87.3729C118.906 87.5817 119.138 87.7192 119.37 87.7904C119.602 87.8616 119.807 87.8995 119.993 87.8995C120.316 87.8995 120.621 87.8663 120.912 87.8046C121.203 87.743 121.462 87.6671 121.694 87.5864C121.922 87.5057 122.145 87.4251 122.35 87.3444C122.559 87.2638 122.759 87.2258 122.959 87.2258C123.173 87.2258 123.364 87.2828 123.532 87.3919L123.537 87.4014ZM119.998 80.5173C119.829 80.5315 119.629 80.5789 119.397 80.6501C119.17 80.7213 118.942 80.8541 118.719 81.0439C118.496 81.2384 118.296 81.5088 118.11 81.8599C117.923 82.211 117.796 82.6617 117.719 83.2026C117.964 83.2832 118.314 83.3591 118.765 83.4303C119.215 83.5015 119.67 83.5157 120.12 83.4683C120.571 83.4208 120.971 83.2832 121.317 83.0602C121.663 82.8373 121.849 82.4625 121.881 81.9311C121.913 81.5326 121.763 81.1862 121.431 80.9015C121.099 80.6121 120.621 80.484 119.993 80.5173H119.998Z" fill="#4A1D4E"/>
</svg>
