<svg width="258" height="258" viewBox="0 0 258 258" fill="none" xmlns="http://www.w3.org/2000/svg">
<path d="M50.6556 161.833C74.5154 189.181 98.6075 192.643 132.473 199.124C166.338 205.605 191.204 201.126 209.527 184.609C230.683 165.517 229.847 121.781 197.473 106.208C187.359 101.332 175.316 99.8563 166.456 92.9986C149.537 79.9129 135.852 59.5515 108.69 55.728C81.5278 51.9044 63.215 70.1244 63.215 70.1244C40.9083 94.5518 26.7957 134.464 50.6556 161.833Z" fill="#BA68C8"/>
<path opacity="0.7" d="M50.6556 161.833C74.5154 189.181 98.6075 192.643 132.473 199.124C166.338 205.605 191.204 201.126 209.527 184.609C230.683 165.517 229.847 121.781 197.473 106.208C187.359 101.332 175.316 99.8563 166.456 92.9986C149.537 79.9129 135.852 59.5515 108.69 55.728C81.5278 51.9044 63.215 70.1244 63.215 70.1244C40.9083 94.5518 26.7957 134.464 50.6556 161.833Z" fill="white"/>
<path d="M232.69 205.564H31.4502V213.82H232.69V205.564Z" fill="#BA68C8"/>
<path opacity="0.5" d="M232.69 205.564H31.4502V213.82H232.69V205.564Z" fill="white"/>
<path d="M78.9066 116.766C77.9223 117.087 76.956 117.461 76.0118 117.885C76.5278 117.509 77.0438 117.117 77.5598 116.719C79.8571 114.872 82.0436 112.89 84.1078 110.785C81.6856 113.138 79.0991 115.316 76.3679 117.302C76.7444 116.648 77.0754 115.969 77.3586 115.269C77.8746 113.984 77.9674 112.689 76.7445 112.003C75.2326 111.157 73.406 112.421 73.8859 114.583C74.1788 115.79 74.7495 116.912 75.5526 117.86C73.7702 119.093 71.9086 120.209 69.9798 121.198L69.7992 121.291C70.2069 120.585 70.5672 119.852 70.8776 119.098C71.3627 117.818 71.4865 116.518 70.2584 115.837C68.7465 114.985 66.9199 116.255 67.4049 118.417C67.6929 119.608 68.2508 120.716 69.0355 121.657C66.7186 122.798 64.3244 123.768 61.9405 124.82L61.5948 124.975C62.0601 124.476 62.4927 123.946 62.8899 123.391C63.6639 122.256 64.0819 121.028 63.0499 120.073C61.7805 118.897 59.701 119.702 59.6701 121.931C59.6715 123.161 59.9576 124.374 60.506 125.476C58.2752 126.518 56.1557 127.784 54.1799 129.253L54.1179 129.304C54.3852 128.881 54.6298 128.443 54.8507 127.994C55.4337 126.75 55.6505 125.471 54.474 124.691C54.2349 124.527 53.9617 124.419 53.6748 124.375C53.388 124.332 53.095 124.354 52.8179 124.44C52.5408 124.526 52.2867 124.673 52.0749 124.871C51.863 125.07 51.6988 125.313 51.5947 125.584C51.4396 125.342 51.2291 125.14 50.9807 124.996C49.799 124.315 48.638 125.053 47.6421 126.095C47.3841 126.368 47.1261 126.663 46.9043 126.951C47.6725 124.819 48.6381 122.764 49.7887 120.811C50.8843 121.29 52.0658 121.541 53.2614 121.549C55.6143 121.549 56.6051 119.588 55.4492 118.37C54.5101 117.385 53.1891 117.762 51.9404 118.484C51.5292 118.724 51.1313 118.985 50.7485 119.268C51.9446 117.467 53.3021 115.778 54.8042 114.222C55.7885 115.018 56.9323 115.593 58.1582 115.909C60.4441 116.472 61.8786 114.815 61.053 113.355C60.3822 112.168 58.989 112.215 57.6216 112.612C56.9671 112.808 56.3259 113.045 55.7021 113.324C56.3264 112.715 56.9714 112.132 57.6267 111.554C58.4833 110.821 59.3708 110.114 60.2738 109.423C61.2447 110.198 62.3683 110.759 63.571 111.069C65.8569 111.631 67.2914 109.975 66.4658 108.515C65.795 107.328 64.4018 107.374 63.0293 107.772C62.7093 107.865 62.3843 107.978 62.0695 108.097C63.2615 107.245 64.4689 106.415 65.6815 105.589L66.8012 104.82C67.8102 105.665 68.9947 106.275 70.2687 106.606C72.5546 107.168 73.9943 105.512 73.1687 104.051C72.4927 102.865 71.1046 102.911 69.7321 103.308C69.192 103.473 68.6605 103.664 68.1377 103.881L68.8291 103.365C69.2522 103.061 69.6753 102.751 70.0881 102.426C70.6041 102.039 71.0943 101.611 71.5949 101.198C71.8838 100.971 72.1573 100.728 72.4308 100.481C73.4438 101.335 74.6359 101.95 75.9189 102.282C78.2048 102.844 79.6393 101.188 78.8137 99.7273C78.1429 98.5405 76.7497 98.587 75.3823 98.9843C74.6155 99.2212 73.8641 99.5056 73.1325 99.8357C74.0665 98.9688 74.9695 98.0658 75.826 97.1267C75.8828 97.0596 75.9344 96.9925 75.9963 96.9306C76.3627 96.523 76.7239 96.1102 77.0748 95.6819C77.4256 95.2536 77.8797 94.6912 78.2616 94.1752C79.8296 92.117 81.1203 89.8617 82.1006 87.4672C81.0733 89.8332 79.7392 92.0539 78.1326 94.072C76.5436 96.0985 74.7695 97.9727 72.8332 99.6706L72.6217 99.8512C73.0615 99.1021 73.4511 98.3247 73.7878 97.524C74.278 96.2443 74.3967 94.944 73.1687 94.2629C71.6619 93.4115 69.8301 94.6808 70.3152 96.8429C70.6267 98.1231 71.2488 99.3069 72.1263 100.29L71.6722 100.682L71.1562 101.126C70.857 101.368 70.5474 101.6 70.2378 101.833C70.0726 101.956 69.9127 102.085 69.7218 102.209C69.2832 102.534 68.8394 102.849 68.3905 103.159L67.7455 103.597L67.0128 104.113C67.441 103.382 67.817 102.622 68.1377 101.838C68.6279 100.553 68.7465 99.2578 67.5236 98.5766C66.0117 97.7252 64.1799 98.9946 64.665 101.157C64.9641 102.399 65.5569 103.551 66.3936 104.516L65.8776 104.867L63.8703 106.182L63.473 106.44L62.3533 107.189L61.8683 107.514C61.3523 107.87 60.8363 108.231 60.3203 108.603C60.7349 107.86 61.0969 107.089 61.4039 106.296C61.9198 105.016 62.0127 103.716 60.7898 103.035C59.2779 102.183 57.4513 103.453 57.9363 105.615C58.2394 106.873 58.8452 108.039 59.701 109.01C58.8238 109.655 57.957 110.316 57.121 111.007C56.507 111.523 55.9033 112.039 55.3099 112.596C55.5684 112.118 55.7993 111.625 56.0013 111.121C56.4864 109.836 56.6102 108.541 55.3821 107.859C53.8703 107.008 52.0436 108.277 52.5287 110.439C52.8166 111.63 53.3745 112.739 54.1592 113.68C52.488 115.341 50.9828 117.16 49.6649 119.113C49.8145 118.55 49.9282 117.978 50.0054 117.4C50.1705 116.038 49.9745 114.758 48.6174 114.387C46.9455 113.928 45.4801 115.599 46.476 117.591C47.0489 118.688 47.8684 119.636 48.8702 120.362C47.5704 122.485 46.4849 124.732 45.6297 127.07C45.6074 126.581 45.5592 126.094 45.4853 125.61C45.2531 124.253 44.7061 123.081 43.2974 123.107C41.5637 123.143 40.6297 125.171 42.1519 126.792C42.9637 127.638 43.9545 128.292 45.0518 128.706C44.465 130.511 43.9877 132.349 43.6225 134.212C43.5606 134.506 43.5141 134.8 43.4574 135.094C43.3955 135.151 43.3335 135.207 43.2768 135.269C43.2149 135.017 43.1426 134.753 43.0601 134.511C42.6266 133.211 41.9042 132.132 40.5162 132.38C38.8134 132.679 38.1993 134.815 39.9537 136.193C40.8454 136.874 41.8732 137.354 42.9672 137.602C42.9672 137.653 43.0085 137.7 43.0343 137.751C42.8433 139.15 42.6989 140.558 42.6111 141.972C42.5441 143.004 42.5079 144.083 42.4873 145.14C41.0115 145.14 39.9692 146.761 40.9857 148.515C41.4147 149.243 41.9643 149.892 42.6111 150.435C42.735 152.421 42.9311 154.408 43.1942 156.379C42.9855 156.186 42.7302 156.051 42.4533 155.986C42.1764 155.922 41.8876 155.931 41.6153 156.013C40.6865 156.265 40.2685 157.014 40.1189 157.932C39.7883 158.274 39.6034 158.731 39.6029 159.207C38.9114 158.175 38.2561 157.143 37.6214 156.054C38.5903 155.311 39.3934 154.374 39.9795 153.304C41.0889 151.24 39.8351 149.428 38.22 149.867C36.899 150.228 36.6101 151.57 36.672 153.009C36.6926 153.556 36.7443 154.1 36.8268 154.64L36.1457 153.443C35.5781 152.411 35.1137 151.379 34.5564 150.347C34.4222 150.094 34.3035 149.831 34.1952 149.573C35.2823 149.025 36.2435 148.257 37.0177 147.318C38.4986 145.491 37.6059 143.484 35.9341 143.613C34.5719 143.721 34.0301 144.986 33.803 146.41C33.7145 147.031 33.6594 147.656 33.6379 148.283L33.1529 147.163C32.1198 144.623 31.2697 142.012 30.609 139.351C31.8395 138.915 32.9571 138.21 33.8804 137.287C35.5368 135.61 34.8505 133.53 33.1735 133.489C31.8113 133.458 31.1456 134.661 30.7741 136.069C30.592 136.817 30.4559 137.575 30.3665 138.34C30.0053 136.812 29.6957 135.264 29.4377 133.696C29.2622 132.736 29.1487 131.761 29.03 130.791C30.3526 130.528 31.5983 129.969 32.673 129.155C34.5306 127.71 34.1229 125.543 32.4614 125.3C31.1147 125.089 30.2994 126.198 29.7524 127.535C29.4322 128.378 29.1634 129.239 28.9475 130.115C28.8443 128.99 28.7256 127.86 28.674 126.73C28.5192 124.396 28.5192 122.056 28.674 119.722C28.4384 122.054 28.3574 124.398 28.4315 126.74C28.4315 127.818 28.5243 128.892 28.5914 129.97C28.2966 129.237 27.9518 128.525 27.5594 127.839C26.8577 126.657 25.9185 125.775 24.6182 126.291C23.0135 126.951 22.8741 129.17 24.8865 130.14C26.0668 130.683 27.3616 130.929 28.6585 130.858C28.7514 131.823 28.8339 132.782 28.9784 133.737C29.1797 135.285 29.4377 136.771 29.7421 138.273C29.4119 137.697 29.0448 137.144 28.643 136.616C27.7916 135.538 26.7493 134.774 25.547 135.471C24.0455 136.332 24.1899 138.567 26.3107 139.253C27.5107 139.626 28.7818 139.711 30.0207 139.501C30.6094 142.191 31.3836 144.838 32.3376 147.421L32.642 148.195C32.369 147.834 32.0744 147.489 31.7597 147.163C30.8051 146.172 29.6957 145.517 28.545 146.338C27.1363 147.37 27.513 149.537 29.6802 150.022C30.8762 150.264 32.1119 150.229 33.2922 149.919C33.4005 150.182 33.5089 150.435 33.6379 150.703C34.1539 151.766 34.6131 152.855 35.1549 153.897L35.6039 154.8C35.3355 154.568 35.0569 154.346 34.7679 154.14C33.6431 153.35 32.4253 152.917 31.4552 153.933C30.2581 155.187 31.0321 157.272 33.2612 157.339C34.4217 157.366 35.5739 157.137 36.6359 156.668C37.2757 157.824 37.931 158.964 38.6431 160.084C38.9063 160.512 39.1591 160.935 39.4584 161.358C39.0536 160.988 38.6262 160.644 38.1787 160.326C37.0538 159.537 35.8361 159.103 34.8608 160.12C33.6689 161.374 34.4429 163.458 36.672 163.526C37.946 163.541 39.2054 163.253 40.3459 162.684C40.7174 163.2 41.0993 163.716 41.4914 164.232C40.6607 165.197 40.9341 166.812 42.6215 167.55C43.441 167.892 44.3144 168.086 45.2015 168.123C45.3047 168.206 45.4079 168.288 45.5214 168.366L45.573 168.407C46.6394 172.39 47.9036 176.315 49.3656 180.182C49.9848 181.828 50.6504 183.459 51.3367 185.079H45.1447V209.496H64.0664V185.058H53.9941C53.1324 183.175 52.3016 181.271 51.5276 179.346C50.2634 176.188 49.1179 172.979 48.122 169.723C48.2915 169.773 48.4638 169.812 48.638 169.841C48.8672 169.888 49.1022 169.898 49.3346 169.872L49.0663 168.175H48.8857C48.7781 168.16 48.6713 168.139 48.5658 168.113C48.3274 168.044 48.0945 167.958 47.8692 167.855L47.6009 167.731C48.5967 167.384 49.5215 166.859 50.3305 166.183C52.121 164.635 51.6153 162.519 49.9435 162.339C48.5916 162.189 47.8279 163.335 47.3635 164.692C47.2242 165.079 47.1107 165.481 47.0126 165.873C46.9146 165.512 46.8165 165.151 46.7237 164.79C46.4502 163.722 46.2077 162.643 45.96 161.565C47.0407 161.228 48.0451 160.683 48.9167 159.96C50.7072 158.412 50.1963 156.302 48.5297 156.121C47.1726 155.971 46.4141 157.117 45.9497 158.474C45.8103 158.866 45.6917 159.274 45.5885 159.676C45.4337 158.892 45.284 158.102 45.1447 157.313C45.0467 156.73 44.9538 156.142 44.8661 155.553C44.8351 154.717 44.8196 153.882 44.8299 153.04C44.8299 152.581 44.8299 152.122 44.8712 151.663C45.8829 151.982 46.9439 152.117 48.0033 152.06C50.3563 151.905 51.2232 149.893 49.9951 148.752C48.9941 147.819 47.6989 148.283 46.4966 149.078C45.9575 149.444 45.4406 149.842 44.9486 150.27C45.0935 148.306 45.392 146.356 45.8413 144.439C46.1046 143.309 46.4337 142.196 46.8269 141.105C47.9058 141.477 49.0465 141.637 50.186 141.575C52.539 141.425 53.4059 139.413 52.1778 138.267C51.1819 137.339 49.8816 137.798 48.6793 138.598C48.2596 138.886 47.8565 139.198 47.4719 139.532C47.9256 138.464 48.4532 137.43 49.0508 136.436C50.236 134.43 51.7222 132.618 53.4575 131.064C54.3567 131.894 55.4203 132.525 56.5793 132.916C58.8187 133.649 60.3719 132.101 59.6753 130.584C59.0922 129.351 57.7196 129.294 56.3058 129.588C55.7609 129.705 55.2234 129.853 54.6959 130.032L54.732 130.001C56.6574 128.499 58.7323 127.198 60.924 126.121C61.6972 127.133 62.6792 127.967 63.8033 128.567C65.8982 129.645 67.6784 128.365 67.214 126.755C66.8373 125.445 65.4906 125.171 64.0509 125.207C63.4855 125.238 62.9222 125.3 62.3636 125.393C64.6908 124.294 67.0644 123.257 69.3554 122.044H69.407C70.4327 122.93 71.6496 123.566 72.9622 123.902C75.2481 124.47 76.6826 122.808 75.857 121.322C75.1862 120.135 73.793 120.187 72.4256 120.579C72.0386 120.692 71.6516 120.832 71.2749 120.976C72.8049 120.087 74.2878 119.119 75.7177 118.076L75.8364 118.205V118.138C76.8723 119.032 78.099 119.676 79.4226 120.022C81.7033 120.584 83.1429 118.928 82.3173 117.442C81.6672 116.322 80.2946 116.368 78.9066 116.766ZM42.8279 163.52C42.3583 162.973 41.9145 162.401 41.4811 161.823C41.5843 161.73 41.6978 161.627 41.8113 161.513C42.4561 161.714 43.1235 161.834 43.7979 161.869V161.978L44.1127 161.91C44.2778 162.726 44.4481 163.536 44.6287 164.346C44.419 164.072 44.1452 163.853 43.8312 163.709C43.5172 163.565 43.1727 163.5 42.8279 163.52ZM44.51 144.093C44.3501 144.702 44.2159 145.311 44.0869 145.925L44.0095 145.816C44.0095 144.557 44.0284 143.302 44.0663 142.05C44.1024 141.172 44.1643 140.3 44.2417 139.423C44.6662 139.856 45.133 140.245 45.6349 140.584C45.1982 141.733 44.8244 142.904 44.5152 144.093H44.51ZM46.6256 138.314C46.6566 138.087 46.6824 137.855 46.6927 137.628V137.282C46.8785 137.225 47.0694 137.158 47.2551 137.081C47.0487 137.488 46.832 137.901 46.6308 138.314H46.6256ZM49.314 133.954C49.2248 133.749 49.0952 133.566 48.9328 133.413C48.7705 133.26 48.579 133.142 48.3697 133.066C47.0952 132.55 46.0632 133.479 45.2427 134.666L45.2015 134.722H45.1189C45.0324 134.703 44.9443 134.691 44.8557 134.686C44.8496 134.614 44.8621 134.541 44.8919 134.475C45.2185 132.611 45.6597 130.769 46.2128 128.959C47.3973 129.109 48.6001 129.016 49.7474 128.685C50.4563 128.499 51.0728 128.061 51.4812 127.452C51.7083 128.492 52.1417 129.477 52.7557 130.347C51.4863 131.426 50.3344 132.637 49.3191 133.959L49.314 133.954Z" fill="#BA68C8"/>
<path opacity="0.3" d="M78.9066 116.766C77.9223 117.087 76.956 117.461 76.0118 117.885C76.5278 117.509 77.0438 117.117 77.5598 116.719C79.8571 114.872 82.0436 112.89 84.1078 110.785C81.6856 113.138 79.0991 115.316 76.3679 117.302C76.7444 116.648 77.0754 115.969 77.3586 115.269C77.8746 113.984 77.9674 112.689 76.7445 112.003C75.2326 111.157 73.406 112.421 73.8859 114.583C74.1788 115.79 74.7495 116.912 75.5526 117.86C73.7702 119.093 71.9086 120.209 69.9798 121.198L69.7992 121.291C70.2069 120.585 70.5672 119.852 70.8776 119.098C71.3627 117.818 71.4865 116.518 70.2584 115.837C68.7465 114.985 66.9199 116.255 67.4049 118.417C67.6929 119.608 68.2508 120.716 69.0355 121.657C66.7186 122.798 64.3244 123.768 61.9405 124.82L61.5948 124.975C62.0601 124.476 62.4927 123.946 62.8899 123.391C63.6639 122.256 64.0819 121.028 63.0499 120.073C61.7805 118.897 59.701 119.702 59.6701 121.931C59.6715 123.161 59.9576 124.374 60.506 125.476C58.2752 126.518 56.1557 127.784 54.1799 129.253L54.1179 129.304C54.3852 128.881 54.6298 128.443 54.8507 127.994C55.4337 126.75 55.6505 125.471 54.474 124.691C54.2349 124.527 53.9617 124.419 53.6748 124.375C53.388 124.332 53.095 124.354 52.8179 124.44C52.5408 124.526 52.2867 124.673 52.0749 124.871C51.863 125.07 51.6988 125.313 51.5947 125.584C51.4396 125.342 51.2291 125.14 50.9807 124.996C49.799 124.315 48.638 125.053 47.6421 126.095C47.3841 126.368 47.1261 126.663 46.9043 126.951C47.6725 124.819 48.6381 122.764 49.7887 120.811C50.8843 121.29 52.0658 121.541 53.2614 121.549C55.6143 121.549 56.6051 119.588 55.4492 118.37C54.5101 117.385 53.1891 117.762 51.9404 118.484C51.5292 118.724 51.1313 118.985 50.7485 119.268C51.9446 117.467 53.3021 115.778 54.8042 114.222C55.7885 115.018 56.9323 115.593 58.1582 115.909C60.4441 116.472 61.8786 114.815 61.053 113.355C60.3822 112.168 58.989 112.215 57.6216 112.612C56.9671 112.808 56.3259 113.045 55.7021 113.324C56.3264 112.715 56.9714 112.132 57.6267 111.554C58.4833 110.821 59.3708 110.114 60.2738 109.423C61.2447 110.198 62.3683 110.759 63.571 111.069C65.8569 111.631 67.2914 109.975 66.4658 108.515C65.795 107.328 64.4018 107.374 63.0293 107.772C62.7093 107.865 62.3843 107.978 62.0695 108.097C63.2615 107.245 64.4689 106.415 65.6815 105.589L66.8012 104.82C67.8102 105.665 68.9947 106.275 70.2687 106.606C72.5546 107.168 73.9943 105.512 73.1687 104.051C72.4927 102.865 71.1046 102.911 69.7321 103.308C69.192 103.473 68.6605 103.664 68.1377 103.881L68.8291 103.365C69.2522 103.061 69.6753 102.751 70.0881 102.426C70.6041 102.039 71.0943 101.611 71.5949 101.198C71.8838 100.971 72.1573 100.728 72.4308 100.481C73.4438 101.335 74.6359 101.95 75.9189 102.282C78.2048 102.844 79.6393 101.188 78.8137 99.7273C78.1429 98.5405 76.7497 98.587 75.3823 98.9843C74.6155 99.2212 73.8641 99.5056 73.1325 99.8357C74.0665 98.9688 74.9695 98.0658 75.826 97.1267C75.8828 97.0596 75.9344 96.9925 75.9963 96.9306C76.3627 96.523 76.7239 96.1102 77.0748 95.6819C77.4256 95.2536 77.8797 94.6912 78.2616 94.1752C79.8296 92.117 81.1203 89.8617 82.1006 87.4672C81.0733 89.8332 79.7392 92.0539 78.1326 94.072C76.5436 96.0985 74.7695 97.9727 72.8332 99.6706L72.6217 99.8512C73.0615 99.1021 73.4511 98.3247 73.7878 97.524C74.278 96.2443 74.3967 94.944 73.1687 94.2629C71.6619 93.4115 69.8301 94.6808 70.3152 96.8429C70.6267 98.1231 71.2488 99.3069 72.1263 100.29L71.6722 100.682L71.1562 101.126C70.857 101.368 70.5474 101.6 70.2378 101.833C70.0726 101.956 69.9127 102.085 69.7218 102.209C69.2832 102.534 68.8394 102.849 68.3905 103.159L67.7455 103.597L67.0128 104.113C67.441 103.382 67.817 102.622 68.1377 101.838C68.6279 100.553 68.7465 99.2578 67.5236 98.5766C66.0117 97.7252 64.1799 98.9946 64.665 101.157C64.9641 102.399 65.5569 103.551 66.3936 104.516L65.8776 104.867L63.8703 106.182L63.473 106.44L62.3533 107.189L61.8683 107.514C61.3523 107.87 60.8363 108.231 60.3203 108.603C60.7349 107.86 61.0969 107.089 61.4039 106.296C61.9198 105.016 62.0127 103.716 60.7898 103.035C59.2779 102.183 57.4513 103.453 57.9363 105.615C58.2394 106.873 58.8452 108.039 59.701 109.01C58.8238 109.655 57.957 110.316 57.121 111.007C56.507 111.523 55.9033 112.039 55.3099 112.596C55.5684 112.118 55.7993 111.625 56.0013 111.121C56.4864 109.836 56.6102 108.541 55.3821 107.859C53.8703 107.008 52.0436 108.277 52.5287 110.439C52.8166 111.63 53.3745 112.739 54.1592 113.68C52.488 115.341 50.9828 117.16 49.6649 119.113C49.8145 118.55 49.9282 117.978 50.0054 117.4C50.1705 116.038 49.9745 114.758 48.6174 114.387C46.9455 113.928 45.4801 115.599 46.476 117.591C47.0489 118.688 47.8684 119.636 48.8702 120.362C47.5704 122.485 46.4849 124.732 45.6297 127.07C45.6074 126.581 45.5592 126.094 45.4853 125.61C45.2531 124.253 44.7061 123.081 43.2974 123.107C41.5637 123.143 40.6297 125.171 42.1519 126.792C42.9637 127.638 43.9545 128.292 45.0518 128.706C44.465 130.511 43.9877 132.349 43.6225 134.212C43.5606 134.506 43.5141 134.8 43.4574 135.094C43.3955 135.151 43.3335 135.207 43.2768 135.269C43.2149 135.017 43.1426 134.753 43.0601 134.511C42.6266 133.211 41.9042 132.132 40.5162 132.38C38.8134 132.679 38.1993 134.815 39.9537 136.193C40.8454 136.874 41.8732 137.354 42.9672 137.602C42.9672 137.653 43.0085 137.7 43.0343 137.751C42.8433 139.15 42.6989 140.558 42.6111 141.972C42.5441 143.004 42.5079 144.083 42.4873 145.14C41.0115 145.14 39.9692 146.761 40.9857 148.515C41.4147 149.243 41.9643 149.892 42.6111 150.435C42.735 152.421 42.9311 154.408 43.1942 156.379C42.9855 156.186 42.7302 156.051 42.4533 155.986C42.1764 155.922 41.8876 155.931 41.6153 156.013C40.6865 156.265 40.2685 157.014 40.1189 157.932C39.7883 158.274 39.6034 158.731 39.6029 159.207C38.9114 158.175 38.2561 157.143 37.6214 156.054C38.5903 155.311 39.3934 154.374 39.9795 153.304C41.0889 151.24 39.8351 149.428 38.22 149.867C36.899 150.228 36.6101 151.57 36.672 153.009C36.6926 153.556 36.7443 154.1 36.8268 154.64L36.1457 153.443C35.5781 152.411 35.1137 151.379 34.5564 150.347C34.4222 150.094 34.3035 149.831 34.1952 149.573C35.2823 149.025 36.2435 148.257 37.0177 147.318C38.4986 145.491 37.6059 143.484 35.9341 143.613C34.5719 143.721 34.0301 144.986 33.803 146.41C33.7145 147.031 33.6594 147.656 33.6379 148.283L33.1529 147.163C32.1198 144.623 31.2697 142.012 30.609 139.351C31.8395 138.915 32.9571 138.21 33.8804 137.287C35.5368 135.61 34.8505 133.53 33.1735 133.489C31.8113 133.458 31.1456 134.661 30.7741 136.069C30.592 136.817 30.4559 137.575 30.3665 138.34C30.0053 136.812 29.6957 135.264 29.4377 133.696C29.2622 132.736 29.1487 131.761 29.03 130.791C30.3526 130.528 31.5983 129.969 32.673 129.155C34.5306 127.71 34.1229 125.543 32.4614 125.3C31.1147 125.089 30.2994 126.198 29.7524 127.535C29.4322 128.378 29.1634 129.239 28.9475 130.115C28.8443 128.99 28.7256 127.86 28.674 126.73C28.5192 124.396 28.5192 122.056 28.674 119.722C28.4384 122.054 28.3574 124.398 28.4315 126.74C28.4315 127.818 28.5243 128.892 28.5914 129.97C28.2966 129.237 27.9518 128.525 27.5594 127.839C26.8577 126.657 25.9185 125.775 24.6182 126.291C23.0135 126.951 22.8741 129.17 24.8865 130.14C26.0668 130.683 27.3616 130.929 28.6585 130.858C28.7514 131.823 28.8339 132.782 28.9784 133.737C29.1797 135.285 29.4377 136.771 29.7421 138.273C29.4119 137.697 29.0448 137.144 28.643 136.616C27.7916 135.538 26.7493 134.774 25.547 135.471C24.0455 136.332 24.1899 138.567 26.3107 139.253C27.5107 139.626 28.7818 139.711 30.0207 139.501C30.6094 142.191 31.3836 144.838 32.3376 147.421L32.642 148.195C32.369 147.834 32.0744 147.489 31.7597 147.163C30.8051 146.172 29.6957 145.517 28.545 146.338C27.1363 147.37 27.513 149.537 29.6802 150.022C30.8762 150.264 32.1119 150.229 33.2922 149.919C33.4005 150.182 33.5089 150.435 33.6379 150.703C34.1539 151.766 34.6131 152.855 35.1549 153.897L35.6039 154.8C35.3355 154.568 35.0569 154.346 34.7679 154.14C33.6431 153.35 32.4253 152.917 31.4552 153.933C30.2581 155.187 31.0321 157.272 33.2612 157.339C34.4217 157.366 35.5739 157.137 36.6359 156.668C37.2757 157.824 37.931 158.964 38.6431 160.084C38.9063 160.512 39.1591 160.935 39.4584 161.358C39.0536 160.988 38.6262 160.644 38.1787 160.326C37.0538 159.537 35.8361 159.103 34.8608 160.12C33.6689 161.374 34.4429 163.458 36.672 163.526C37.946 163.541 39.2054 163.253 40.3459 162.684C40.7174 163.2 41.0993 163.716 41.4914 164.232C40.6607 165.197 40.9341 166.812 42.6215 167.55C43.441 167.892 44.3144 168.086 45.2015 168.123C45.3047 168.206 45.4079 168.288 45.5214 168.366L45.573 168.407C46.6394 172.39 47.9036 176.315 49.3656 180.182C49.9848 181.828 50.6504 183.459 51.3367 185.079H45.1447V209.496H64.0664V185.058H53.9941C53.1324 183.175 52.3016 181.271 51.5276 179.346C50.2634 176.188 49.1179 172.979 48.122 169.723C48.2915 169.773 48.4638 169.812 48.638 169.841C48.8672 169.888 49.1022 169.898 49.3346 169.872L49.0663 168.175H48.8857C48.7781 168.16 48.6713 168.139 48.5658 168.113C48.3274 168.044 48.0945 167.958 47.8692 167.855L47.6009 167.731C48.5967 167.384 49.5215 166.859 50.3305 166.183C52.121 164.635 51.6153 162.519 49.9435 162.339C48.5916 162.189 47.8279 163.335 47.3635 164.692C47.2242 165.079 47.1107 165.481 47.0126 165.873C46.9146 165.512 46.8165 165.151 46.7237 164.79C46.4502 163.722 46.2077 162.643 45.96 161.565C47.0407 161.228 48.0451 160.683 48.9167 159.96C50.7072 158.412 50.1963 156.302 48.5297 156.121C47.1726 155.971 46.4141 157.117 45.9497 158.474C45.8103 158.866 45.6917 159.274 45.5885 159.676C45.4337 158.892 45.284 158.102 45.1447 157.313C45.0467 156.73 44.9538 156.142 44.8661 155.553C44.8351 154.717 44.8196 153.882 44.8299 153.04C44.8299 152.581 44.8299 152.122 44.8712 151.663C45.8829 151.982 46.9439 152.117 48.0033 152.06C50.3563 151.905 51.2232 149.893 49.9951 148.752C48.9941 147.819 47.6989 148.283 46.4966 149.078C45.9575 149.444 45.4406 149.842 44.9486 150.27C45.0935 148.306 45.392 146.356 45.8413 144.439C46.1046 143.309 46.4337 142.196 46.8269 141.105C47.9058 141.477 49.0465 141.637 50.186 141.575C52.539 141.425 53.4059 139.413 52.1778 138.267C51.1819 137.339 49.8816 137.798 48.6793 138.598C48.2596 138.886 47.8565 139.198 47.4719 139.532C47.9256 138.464 48.4532 137.43 49.0508 136.436C50.236 134.43 51.7222 132.618 53.4575 131.064C54.3567 131.894 55.4203 132.525 56.5793 132.916C58.8187 133.649 60.3719 132.101 59.6753 130.584C59.0922 129.351 57.7196 129.294 56.3058 129.588C55.7609 129.705 55.2234 129.853 54.6959 130.032L54.732 130.001C56.6574 128.499 58.7323 127.198 60.924 126.121C61.6972 127.133 62.6792 127.967 63.8033 128.567C65.8982 129.645 67.6784 128.365 67.214 126.755C66.8373 125.445 65.4906 125.171 64.0509 125.207C63.4855 125.238 62.9222 125.3 62.3636 125.393C64.6908 124.294 67.0644 123.257 69.3554 122.044H69.407C70.4327 122.93 71.6496 123.566 72.9622 123.902C75.2481 124.47 76.6826 122.808 75.857 121.322C75.1862 120.135 73.793 120.187 72.4256 120.579C72.0386 120.692 71.6516 120.832 71.2749 120.976C72.8049 120.087 74.2878 119.119 75.7177 118.076L75.8364 118.205V118.138C76.8723 119.032 78.099 119.676 79.4226 120.022C81.7033 120.584 83.1429 118.928 82.3173 117.442C81.6672 116.322 80.2946 116.368 78.9066 116.766ZM42.8279 163.52C42.3583 162.973 41.9145 162.401 41.4811 161.823C41.5843 161.73 41.6978 161.627 41.8113 161.513C42.4561 161.714 43.1235 161.834 43.7979 161.869V161.978L44.1127 161.91C44.2778 162.726 44.4481 163.536 44.6287 164.346C44.419 164.072 44.1452 163.853 43.8312 163.709C43.5172 163.565 43.1727 163.5 42.8279 163.52ZM44.51 144.093C44.3501 144.702 44.2159 145.311 44.0869 145.925L44.0095 145.816C44.0095 144.557 44.0284 143.302 44.0663 142.05C44.1024 141.172 44.1643 140.3 44.2417 139.423C44.6662 139.856 45.133 140.245 45.6349 140.584C45.1982 141.733 44.8244 142.904 44.5152 144.093H44.51ZM46.6256 138.314C46.6566 138.087 46.6824 137.855 46.6927 137.628V137.282C46.8785 137.225 47.0694 137.158 47.2551 137.081C47.0487 137.488 46.832 137.901 46.6308 138.314H46.6256ZM49.314 133.954C49.2248 133.749 49.0952 133.566 48.9328 133.413C48.7705 133.26 48.579 133.142 48.3697 133.066C47.0952 132.55 46.0632 133.479 45.2427 134.666L45.2015 134.722H45.1189C45.0324 134.703 44.9443 134.691 44.8557 134.686C44.8496 134.614 44.8621 134.541 44.8919 134.475C45.2185 132.611 45.6597 130.769 46.2128 128.959C47.3973 129.109 48.6001 129.016 49.7474 128.685C50.4563 128.499 51.0728 128.061 51.4812 127.452C51.7083 128.492 52.1417 129.477 52.7557 130.347C51.4863 131.426 50.3344 132.637 49.3191 133.959L49.314 133.954Z" fill="white"/>
<path d="M206.137 186.983C206.137 186.983 203.639 181.405 203.041 180.832C202.442 180.259 197.659 178.526 196.333 174.124C195.006 169.723 192.488 157.973 198.835 158.742C205.182 159.511 203.639 171.818 205.946 171.431C208.252 171.044 204.026 151.441 208.061 148.727C212.096 146.013 218.634 148.536 217.865 158.918C217.096 169.3 215.559 175.254 216.906 174.681C218.252 174.109 222.096 171.988 222.096 176.41C222.096 180.832 218.443 183.908 216.328 184.098C214.212 184.289 213.232 184.485 213.232 184.485V187.365L206.137 186.983Z" fill="#2E353A" stroke="#2E353A" stroke-linecap="round" stroke-linejoin="round"/>
<path d="M204.104 176.173C202.654 174.8 201.323 173.469 200.709 172.246C199.491 169.805 198.572 162.958 198.572 162.958" stroke="white" stroke-width="0.5" stroke-linecap="round" stroke-linejoin="round"/>
<path d="M196.41 166.302C197.37 170.301 197.504 173.314 200.404 176.823C201.952 178.722 206.049 180.332 206.508 182.009C206.919 184.027 207.227 186.064 207.432 188.113L209.723 188.268C209.723 188.268 210.187 184.295 208.877 181.462" stroke="white" stroke-width="0.5" stroke-linecap="round" stroke-linejoin="round"/>
<path d="M197.05 159.888C197.05 159.888 195.337 161.204 195.946 164.444" stroke="white" stroke-width="0.5" stroke-linecap="round" stroke-linejoin="round"/>
<path d="M208.025 171.689L207.117 173.159" stroke="white" stroke-width="0.5" stroke-linecap="round" stroke-linejoin="round"/>
<path d="M208.34 171.178L208.025 171.689" stroke="white" stroke-width="0.5" stroke-linecap="round" stroke-linejoin="round"/>
<path d="M211.39 149.207C211.39 149.207 207.881 149.057 207.881 152.411C207.881 155.244 208.748 164.914 208.562 169.336" stroke="white" stroke-width="0.5" stroke-linecap="round" stroke-linejoin="round"/>
<path d="M214.14 176.684C214.057 177.834 214.006 178.649 214.006 178.959C214.006 180.636 218.273 174.227 220.26 174.078C220.26 174.078 222.241 173.923 221.478 177.587C221.2 178.947 220.556 180.205 219.616 181.226C218.676 182.247 217.475 182.992 216.142 183.381C214.46 183.84 213.087 183.077 212.783 183.84C212.54 184.738 212.386 185.658 212.324 186.586" stroke="white" stroke-width="0.5" stroke-linecap="round" stroke-linejoin="round"/>
<path d="M215.136 152.39C215.401 153.497 215.526 154.632 215.507 155.77C215.507 159.341 214.826 167.762 214.372 173.448" stroke="white" stroke-width="0.5" stroke-linecap="round" stroke-linejoin="round"/>
<path d="M213.371 149.516C213.829 149.779 214.201 150.17 214.439 150.641" stroke="white" stroke-width="0.5" stroke-linecap="round" stroke-linejoin="round"/>
<path d="M210.889 175.755L210.781 177.891" stroke="white" stroke-width="0.5" stroke-linecap="round" stroke-linejoin="round"/>
<path d="M211.694 151.343C211.694 151.343 210.781 151.647 211.085 154.852C211.338 157.499 211.085 169.516 210.966 173.619" stroke="white" stroke-width="0.5" stroke-linecap="round" stroke-linejoin="round"/>
<path d="M221.307 174.991C219.998 177.44 217.902 179.376 215.357 180.486C211.229 182.163 211.085 181.4 211.085 183.066C211.085 184.733 210.93 187.798 210.93 187.798" stroke="white" stroke-width="0.5" stroke-linecap="round" stroke-linejoin="round"/>
<path d="M215.585 209.481H202.251L199.398 190.167H218.438L215.585 209.481Z" fill="#BA68C8" stroke="#2E353A" stroke-linecap="round" stroke-linejoin="round"/>
<path d="M220.074 187.122H197.762V192.293H220.074V187.122Z" fill="#BA68C8" stroke="#2E353A" stroke-linecap="round" stroke-linejoin="round"/>
<path d="M142.375 196.477V185.992H111.497V196.477C111.492 199.893 110.336 203.207 108.216 205.884L106.864 207.587H147.009L145.657 205.884C143.536 203.207 142.38 199.893 142.375 196.477Z" fill="white" stroke="#2E353A" stroke-linecap="round" stroke-linejoin="round"/>
<path d="M109.599 203.82H144.274C143.029 201.573 142.376 199.046 142.375 196.477V185.992H111.498V196.477C111.497 199.046 110.843 201.573 109.599 203.82Z" fill="#BA68C8"/>
<path d="M184.609 96.2185H69.2575C66.8409 96.2185 64.8818 98.1776 64.8818 100.594V184.924C64.8818 187.341 66.8409 189.3 69.2575 189.3H184.609C187.026 189.3 188.985 187.341 188.985 184.924V100.594C188.985 98.1776 187.026 96.2185 184.609 96.2185Z" fill="#2E353A" stroke="#2E353A" stroke-linecap="round" stroke-linejoin="round"/>
<path d="M64.8818 174.831H188.99V184.919C188.99 186.079 188.529 187.192 187.709 188.013C186.888 188.834 185.775 189.295 184.614 189.295H69.2627C68.1022 189.295 66.9892 188.834 66.1686 188.013C65.348 187.192 64.887 186.079 64.887 184.919V174.831H64.8818Z" fill="white" stroke="#2E353A" stroke-linecap="round" stroke-linejoin="round"/>
<path d="M182.747 102.013H71.1255V167.772H182.747V102.013Z" fill="white" stroke="#2E353A" stroke-linecap="round" stroke-linejoin="round"/>
<path d="M129.227 182.065C129.227 181.612 129.093 181.169 128.841 180.793C128.589 180.416 128.231 180.122 127.813 179.949C127.394 179.775 126.934 179.73 126.489 179.818C126.045 179.907 125.636 180.125 125.316 180.445C124.996 180.766 124.777 181.174 124.689 181.618C124.601 182.063 124.646 182.524 124.819 182.942C124.993 183.361 125.286 183.719 125.663 183.97C126.04 184.222 126.483 184.356 126.936 184.356C127.544 184.356 128.126 184.115 128.556 183.685C128.986 183.256 129.227 182.673 129.227 182.065Z" fill="#2E353A" stroke="#2E353A" stroke-linecap="round" stroke-linejoin="round"/>
<path d="M147.014 207.607H106.864V209.481H147.014V207.607Z" fill="white" stroke="#2E353A" stroke-linecap="round" stroke-linejoin="round"/>
<path d="M181.699 106.647H72.0024V112.411H181.699V106.647Z" fill="white" stroke="#2E353A" stroke-linecap="round" stroke-linejoin="round"/>
<path d="M90.1037 112.411L88.7879 108.85H72.0024V112.411V117.132V164.97H181.699V112.411H90.1037Z" fill="#BA68C8" stroke="#2E353A" stroke-linecap="round" stroke-linejoin="round"/>
<path d="M101.528 138.474H152.963" stroke="#2E353A" stroke-width="2" stroke-linecap="round" stroke-linejoin="round"/>
<path d="M101.528 143.531H152.963" stroke="#2E353A" stroke-width="2" stroke-linecap="round" stroke-linejoin="round"/>
<path d="M101.528 148.587H152.963" stroke="#2E353A" stroke-width="2" stroke-linecap="round" stroke-linejoin="round"/>
<path d="M101.528 153.649H152.963" stroke="#2E353A" stroke-width="2" stroke-linecap="round" stroke-linejoin="round"/>
<path d="M150.244 124.991H103.634C103.154 124.991 102.679 124.897 102.235 124.715C101.792 124.532 101.388 124.263 101.049 123.924C100.709 123.586 100.439 123.183 100.255 122.74C100.071 122.297 99.9758 121.822 99.9751 121.343C99.9744 120.863 100.068 120.388 100.251 119.944C100.434 119.501 100.703 119.097 101.041 118.758C101.38 118.418 101.783 118.148 102.226 117.964C102.669 117.78 103.143 117.685 103.623 117.684H150.244C150.724 117.683 151.2 117.778 151.645 117.961C152.089 118.145 152.492 118.414 152.832 118.754C153.172 119.094 153.442 119.498 153.625 119.942C153.809 120.386 153.903 120.862 153.902 121.343C153.902 121.822 153.806 122.297 153.622 122.74C153.438 123.183 153.168 123.586 152.829 123.924C152.489 124.263 152.086 124.532 151.642 124.715C151.199 124.897 150.724 124.991 150.244 124.991Z" fill="white" stroke="#2E353A" stroke-linecap="round" stroke-linejoin="round"/>
<path d="M150.244 124.991H143.876V117.674H150.244C150.725 117.673 151.201 117.767 151.645 117.951C152.089 118.134 152.492 118.404 152.832 118.744C153.172 119.084 153.442 119.487 153.625 119.931C153.809 120.376 153.903 120.852 153.902 121.332C153.903 121.813 153.809 122.289 153.625 122.733C153.442 123.177 153.172 123.581 152.832 123.921C152.492 124.26 152.089 124.53 151.645 124.714C151.201 124.897 150.725 124.991 150.244 124.991Z" fill="#2E353A" stroke="#2E353A" stroke-linecap="round" stroke-linejoin="round"/>
<path d="M148.825 118.603C148.521 118.319 148.141 118.131 147.731 118.063C147.321 117.995 146.9 118.051 146.522 118.222C146.143 118.394 145.824 118.674 145.605 119.026C145.386 119.379 145.276 119.789 145.29 120.205C145.303 120.62 145.44 121.022 145.682 121.359C145.924 121.697 146.261 121.955 146.65 122.101C147.039 122.247 147.462 122.275 147.867 122.18C148.271 122.085 148.639 121.873 148.923 121.57C149.112 121.369 149.259 121.134 149.357 120.876C149.455 120.619 149.501 120.345 149.492 120.069C149.483 119.794 149.42 119.523 149.307 119.272C149.193 119.022 149.031 118.796 148.83 118.608L148.825 118.603ZM148.618 121.286C148.39 121.528 148.096 121.697 147.772 121.771C147.448 121.846 147.11 121.823 146.799 121.706C146.488 121.588 146.219 121.381 146.026 121.111C145.832 120.841 145.723 120.519 145.712 120.187C145.702 119.855 145.79 119.527 145.965 119.245C146.14 118.962 146.395 118.738 146.698 118.601C147 118.463 147.337 118.419 147.665 118.472C147.993 118.526 148.298 118.675 148.541 118.902C148.867 119.208 149.058 119.631 149.073 120.078C149.087 120.525 148.924 120.959 148.618 121.286Z" fill="white"/>
<path d="M150.404 122.333C150.357 122.288 150.299 122.258 150.236 122.245C150.173 122.232 150.108 122.238 150.048 122.261L149.289 121.549C149.25 121.511 149.199 121.49 149.145 121.49C149.091 121.49 149.039 121.511 149 121.549L148.933 121.621C148.896 121.661 148.875 121.714 148.875 121.768C148.875 121.823 148.896 121.875 148.933 121.915L149.681 122.617C149.659 122.681 149.656 122.75 149.671 122.816C149.687 122.881 149.721 122.941 149.769 122.989L151.059 124.253C151.144 124.337 151.259 124.385 151.379 124.385C151.499 124.385 151.614 124.337 151.699 124.253C151.783 124.168 151.831 124.053 151.831 123.933C151.831 123.813 151.783 123.698 151.699 123.613L150.404 122.333Z" fill="white"/>
<path d="M163.727 147.06C163.877 147.434 164.102 147.773 164.386 148.059C164.671 148.344 165.01 148.57 165.383 148.722C165.966 148.959 166.745 148.907 167.643 149.413C169.671 150.553 174.733 149.537 178.402 149.929C182.07 150.321 187.014 146.26 187.014 146.26L201.57 147.06V132.612C201.57 132.612 186.379 133.247 183.087 131.977C179.795 130.708 176.126 128.056 174.48 128.18C172.834 128.303 159.289 129.826 159.289 129.826L163.722 147.06H163.727Z" fill="white" stroke="#2E353A" stroke-linecap="round" stroke-linejoin="round"/>
<path d="M159.96 88.8036C156.954 89.1363 154.115 90.3528 151.801 92.2992C149.487 94.2456 147.802 96.8345 146.959 99.7386C146.116 102.643 146.153 105.731 147.066 108.614C147.979 111.497 149.726 114.045 152.086 115.935C154.447 117.825 157.315 118.972 160.327 119.232C163.34 119.492 166.362 118.853 169.012 117.396C171.661 115.938 173.819 113.728 175.212 111.044C176.605 108.36 177.171 105.323 176.838 102.318C176.619 100.322 176.008 98.3883 175.04 96.6285C174.073 94.8687 172.768 93.3168 171.201 92.0617C169.633 90.8065 167.833 89.8728 165.905 89.3137C163.976 88.7547 161.956 88.5813 159.96 88.8036ZM162.994 116.193C160.583 116.461 158.147 116.008 155.993 114.891C153.84 113.774 152.066 112.044 150.896 109.919C149.726 107.794 149.212 105.37 149.419 102.953C149.627 100.536 150.547 98.2347 152.062 96.3405C153.578 94.4462 155.621 93.0439 157.933 92.3108C160.245 91.5776 162.723 91.5467 165.053 92.2218C167.383 92.897 169.461 94.2478 171.023 96.1037C172.585 97.9595 173.562 100.237 173.83 102.648C174.008 104.249 173.869 105.869 173.421 107.416C172.972 108.963 172.224 110.407 171.217 111.665C170.211 112.922 168.967 113.97 167.556 114.747C166.145 115.524 164.595 116.015 162.994 116.193Z" fill="white" stroke="#2E353A" stroke-linecap="round" stroke-linejoin="round"/>
<path d="M159.877 87.9316C156.871 88.2643 154.032 89.4807 151.718 91.4271C149.404 93.3735 147.719 95.9625 146.876 98.8666C146.033 101.771 146.07 104.859 146.983 107.742C147.896 110.625 149.643 113.173 152.003 115.063C154.364 116.953 157.232 118.1 160.244 118.36C163.257 118.62 166.279 117.981 168.929 116.524C171.578 115.066 173.736 112.856 175.129 110.172C176.522 107.488 177.088 104.451 176.755 101.446C176.308 97.4159 174.279 93.7288 171.114 91.1946C167.949 88.6605 163.907 87.4868 159.877 87.9316ZM162.911 115.321C160.5 115.589 158.064 115.136 155.91 114.019C153.757 112.902 151.983 111.172 150.813 109.047C149.643 106.922 149.129 104.498 149.336 102.081C149.544 99.6638 150.464 97.3627 151.979 95.4684C153.495 93.5742 155.538 92.1718 157.85 91.4387C160.162 90.7056 162.64 90.6746 164.97 91.3498C167.3 92.0249 169.378 93.3758 170.94 95.2316C172.502 97.0875 173.479 99.3649 173.747 101.776C173.925 103.377 173.786 104.997 173.338 106.544C172.889 108.091 172.141 109.535 171.134 110.793C170.128 112.05 168.884 113.098 167.473 113.875C166.062 114.652 164.512 115.143 162.911 115.321Z" fill="white" stroke="#2E353A" stroke-linecap="round" stroke-linejoin="round"/>
<path d="M163.745 118.608L163.022 118.688C162.206 118.778 161.618 119.513 161.709 120.329L162.882 130.924C162.972 131.74 163.707 132.328 164.523 132.238L165.246 132.158C166.062 132.067 166.65 131.333 166.559 130.517L165.386 119.921C165.295 119.106 164.561 118.518 163.745 118.608Z" fill="#BA68C8" stroke="#2E353A" stroke-linecap="round" stroke-linejoin="round"/>
<path d="M163.51 127.452L165.058 127.287C165.724 127.216 166.391 127.41 166.914 127.827C167.438 128.244 167.776 128.851 167.855 129.516L170.172 150.471C170.266 151.327 170.016 152.186 169.477 152.859C168.938 153.531 168.154 153.962 167.298 154.057H167.194C166.77 154.104 166.341 154.067 165.931 153.948C165.521 153.83 165.138 153.631 164.805 153.364C164.472 153.097 164.195 152.767 163.989 152.393C163.784 152.018 163.654 151.607 163.608 151.183L161.291 130.233C161.254 129.901 161.282 129.566 161.375 129.245C161.468 128.924 161.623 128.625 161.831 128.364C162.04 128.103 162.298 127.886 162.59 127.725C162.883 127.564 163.204 127.463 163.536 127.426L163.51 127.452Z" fill="#2E353A" stroke="#2E353A" stroke-linecap="round" stroke-linejoin="round"/>
<path d="M165.76 144.913C165.76 144.913 162.091 145.048 161.575 145.682C161.059 146.317 161.152 148.525 162.148 148.778C164.687 149.444 170.084 149.057 170.295 148.603C170.507 148.149 170.94 145.507 169.826 145.223C168.48 145.017 167.121 144.913 165.76 144.913Z" fill="white" stroke="#2E353A" stroke-linecap="round" stroke-linejoin="round"/>
<path d="M164.702 139.795C164.702 139.795 160.434 139.635 159.769 140.404C159.103 141.172 158.974 144.047 160.099 144.48C162.968 145.579 169.423 145.151 169.717 144.583C170.011 144.016 170.651 141.069 169.387 140.594C168.123 140.12 164.702 139.795 164.702 139.795Z" fill="white" stroke="#2E353A" stroke-linecap="round" stroke-linejoin="round"/>
<path d="M164.088 134.015C164.088 134.015 159.526 133.84 158.814 134.666C158.102 135.491 157.963 138.556 159.165 139.021C162.261 140.197 168.969 140.197 169.284 139.588C169.599 138.979 170.445 135.378 169.093 134.867C167.741 134.356 164.088 134.015 164.088 134.015Z" fill="white" stroke="#2E353A" stroke-linecap="round" stroke-linejoin="round"/>
<path d="M161.456 128.608C161.456 128.608 156.895 128.438 156.183 129.258C155.471 130.078 155.3 133.241 156.533 133.613C157.767 133.985 166.337 134.789 166.652 134.186C166.967 133.582 167.813 129.97 166.461 129.459C165.109 128.948 161.456 128.608 161.456 128.608Z" fill="white" stroke="#2E353A" stroke-linecap="round" stroke-linejoin="round"/>
<path d="M176.394 143.783C175.576 143.558 174.8 143.199 174.098 142.72C170.429 140.187 170.553 134.366 170.553 134.366L169.671 134.114C168.942 133.836 168.259 133.452 167.643 132.973C167.939 134.176 168.111 135.405 168.159 136.642C168.146 137.322 167.88 137.973 167.414 138.468C166.948 138.962 166.314 139.266 165.636 139.32C164.495 139.449 163.99 139.573 163.608 138.056C163.226 136.539 161.332 130.46 161.203 129.573C161.09 128.768 162.442 127.333 164.594 126.993C167.901 127.261 171.162 128.185 174.496 128.185C175.655 128.294 176.767 128.703 177.721 129.371" fill="white"/>
<path d="M176.394 143.783C175.576 143.558 174.8 143.199 174.098 142.72C170.429 140.187 170.553 134.366 170.553 134.366L169.671 134.114C168.942 133.836 168.259 133.452 167.643 132.973C167.939 134.176 168.111 135.405 168.159 136.642C168.146 137.322 167.88 137.973 167.414 138.468C166.948 138.962 166.314 139.266 165.636 139.32C164.495 139.449 163.99 139.573 163.608 138.056C163.226 136.539 161.332 130.46 161.203 129.573C161.09 128.768 162.442 127.333 164.594 126.993C167.901 127.261 171.162 128.185 174.496 128.185C175.655 128.294 176.767 128.703 177.721 129.371" stroke="#2E353A" stroke-linecap="round" stroke-linejoin="round"/>
<path d="M179.883 144.103C179.481 144.124 179.078 144.124 178.675 144.103H179.883Z" fill="white"/>
<path d="M179.883 144.103C179.481 144.124 179.078 144.124 178.675 144.103" stroke="#2E353A" stroke-linecap="round" stroke-linejoin="round"/>
<path d="M182.581 143.603C181.705 143.88 180.799 144.053 179.882 144.119L182.581 143.603Z" fill="white"/>
<path d="M182.581 143.603C181.705 143.88 180.799 144.053 179.882 144.119" stroke="#2E353A" stroke-linecap="round" stroke-linejoin="round"/>
<path d="M187.138 141.962H191.694" stroke="#2E353A" stroke-linecap="round" stroke-linejoin="round"/>
<path d="M187.52 143.226H189.418" stroke="#2E353A" stroke-linecap="round" stroke-linejoin="round"/>
<path d="M170.553 134.366C170.553 134.366 173.071 134.366 174.722 132.865" stroke="#2E353A" stroke-linecap="round" stroke-linejoin="round"/>
<path d="M167.586 132.808C167.514 132.121 167.37 131.443 167.158 130.785" stroke="#2E353A" stroke-linecap="round" stroke-linejoin="round"/>
<path d="M163.572 137.39C163.572 137.39 163.092 136.059 163.675 135.579C164.258 135.099 165.806 134.408 166.075 134.939C166.343 135.471 166.926 137.922 166.766 138.401L166.606 138.881" stroke="#2E353A" stroke-width="0.5" stroke-linecap="round" stroke-linejoin="round"/>
<path d="M233.515 153.536H189.888V132.091H233.515" fill="#BA68C8"/>
<path d="M233.515 153.536H189.888V132.091H233.515" stroke="#2E353A" stroke-linecap="round" stroke-linejoin="round"/>
<path d="M193.087 152.101C193.628 152.101 194.067 151.662 194.067 151.121C194.067 150.579 193.628 150.141 193.087 150.141C192.545 150.141 192.106 150.579 192.106 151.121C192.106 151.662 192.545 152.101 193.087 152.101Z" fill="white" stroke="#2E353A" stroke-linecap="round" stroke-linejoin="round"/>
<path d="M123.752 111.668C124.126 111.517 124.466 111.293 124.751 111.008C125.036 110.723 125.262 110.385 125.414 110.011C125.651 109.428 125.594 108.654 126.105 107.751C127.24 105.728 126.229 100.666 126.621 96.9925C127.013 93.3186 122.947 88.3856 122.947 88.3856L123.737 73.8293H109.289C109.289 73.8293 109.918 89.0203 108.654 92.3072C107.39 95.5942 104.732 99.2732 104.856 100.919C104.98 102.565 106.513 116.1 106.513 116.1L123.726 111.668H123.752Z" fill="white" stroke="#2E353A" stroke-linecap="round" stroke-linejoin="round"/>
<path d="M65.532 115.424C65.8625 118.43 67.0769 121.27 69.0217 123.586C70.9665 125.902 73.5543 127.589 76.4578 128.433C79.3614 129.278 82.4503 129.243 85.3339 128.332C88.2175 127.422 90.7663 125.676 92.6579 123.317C94.5496 120.958 95.6991 118.091 95.9611 115.078C96.2231 112.065 95.5859 109.043 94.1299 106.392C92.674 103.742 90.4648 101.583 87.7817 100.188C85.0987 98.7929 82.0622 98.225 79.0564 98.5559H79.0202C74.9966 99.0085 71.3168 101.039 68.7882 104.201C66.2595 107.363 65.0885 111.399 65.532 115.424ZM92.88 112.385C93.1487 114.797 92.6963 117.234 91.5798 119.389C90.4633 121.544 88.733 123.319 86.6075 124.49C84.4821 125.661 82.0571 126.176 79.6391 125.969C77.2212 125.763 74.9188 124.843 73.0232 123.328C71.1277 121.813 69.724 119.769 68.9897 117.456C68.2554 115.143 68.2235 112.664 68.898 110.333C69.5724 108.002 70.923 105.923 72.779 104.36C74.6349 102.796 76.9128 101.818 79.3247 101.549C82.5589 101.189 85.8036 102.129 88.3454 104.161C90.8872 106.193 92.5183 109.151 92.88 112.385Z" fill="white" stroke="#2E353A" stroke-linecap="round" stroke-linejoin="round"/>
<path d="M64.6393 115.517C64.9728 118.521 66.1895 121.359 68.1356 123.671C70.0816 125.984 72.6697 127.667 75.5725 128.509C78.4753 129.351 81.5626 129.313 84.444 128.401C87.3254 127.489 89.8716 125.742 91.7606 123.383C93.6497 121.024 94.7968 118.157 95.057 115.146C95.3172 112.135 94.6787 109.114 93.2223 106.465C91.7659 103.817 89.557 101.66 86.8748 100.267C84.1925 98.8736 81.1575 98.307 78.1533 98.6386C76.1574 98.8588 74.2245 99.4702 72.4651 100.438C70.7056 101.405 69.154 102.71 67.899 104.278C66.644 105.845 65.7101 107.644 65.1508 109.573C64.5915 111.501 64.4177 113.521 64.6393 115.517ZM92.0285 112.488C92.2964 114.899 91.8433 117.335 90.7265 119.489C89.6097 121.642 87.8795 123.416 85.7545 124.586C83.6296 125.756 81.2053 126.27 78.7884 126.063C76.3715 125.855 74.0704 124.935 72.1761 123.42C70.2819 121.904 68.8795 119.861 68.1464 117.549C67.4133 115.237 67.3823 112.759 68.0575 110.429C68.7326 108.099 70.0835 106.021 71.9393 104.459C73.7951 102.897 76.0725 101.92 78.4835 101.652C80.0844 101.474 81.7047 101.613 83.2518 102.062C84.7989 102.51 86.2425 103.258 87.5003 104.265C88.7581 105.271 89.8053 106.515 90.5823 107.926C91.3592 109.337 91.8507 110.887 92.0285 112.488Z" fill="white" stroke="#2E353A" stroke-linecap="round" stroke-linejoin="round"/>
<path d="M107.228 108.843L96.6323 110.016C95.8166 110.107 95.2285 110.841 95.3189 111.657L95.399 112.38C95.4893 113.196 96.2238 113.784 97.0396 113.694L107.635 112.52C108.451 112.43 109.039 111.695 108.949 110.879L108.869 110.156C108.778 109.341 108.044 108.752 107.228 108.843Z" fill="#BA68C8" stroke="#2E353A" stroke-linecap="round" stroke-linejoin="round"/>
<path d="M104.16 111.889L103.989 110.341C103.916 109.671 104.111 108.998 104.533 108.472C104.955 107.946 105.569 107.608 106.239 107.534L127.189 105.218C127.615 105.168 128.046 105.203 128.459 105.321C128.871 105.439 129.256 105.637 129.592 105.904C129.928 106.171 130.207 106.502 130.415 106.877C130.622 107.253 130.753 107.665 130.801 108.092V108.195C130.85 108.621 130.815 109.053 130.697 109.465C130.58 109.877 130.381 110.263 130.114 110.598C129.847 110.934 129.517 111.213 129.141 111.421C128.766 111.628 128.353 111.759 127.927 111.807L106.977 114.124C106.307 114.199 105.635 114.007 105.107 113.588C104.579 113.169 104.239 112.559 104.16 111.889Z" fill="#2E353A" stroke="#2E353A" stroke-linecap="round" stroke-linejoin="round"/>
<path d="M121.616 109.64C121.616 109.64 121.755 113.303 122.385 113.819C123.014 114.335 125.233 114.242 125.481 113.246C126.151 110.713 125.759 105.31 125.305 105.104C124.851 104.898 122.209 104.454 121.93 105.574C121.723 106.919 121.617 108.278 121.616 109.64Z" fill="white" stroke="#2E353A" stroke-linecap="round" stroke-linejoin="round"/>
<path d="M116.502 110.692C116.502 110.692 116.337 114.96 117.106 115.625C117.875 116.291 120.749 116.425 121.182 115.295C122.287 112.426 121.853 105.971 121.286 105.682C120.718 105.393 117.772 104.748 117.297 106.012C116.822 107.276 116.502 110.692 116.502 110.692Z" fill="white" stroke="#2E353A" stroke-linecap="round" stroke-linejoin="round"/>
<path d="M110.723 111.317C110.723 111.317 110.548 115.878 111.368 116.59C112.189 117.302 115.264 117.442 115.728 116.234C116.905 113.169 116.905 106.43 116.296 106.121C115.687 105.811 112.08 104.96 111.575 106.311C111.069 107.663 110.723 111.317 110.723 111.317Z" fill="white" stroke="#2E353A" stroke-linecap="round" stroke-linejoin="round"/>
<path d="M105.315 113.943C105.315 113.943 105.14 118.505 105.966 119.217C106.791 119.929 109.949 120.099 110.321 118.861C110.692 117.622 111.497 109.057 110.888 108.742C110.279 108.427 106.678 107.586 106.167 108.938C105.656 110.29 105.315 113.943 105.315 113.943Z" fill="white" stroke="#2E353A" stroke-linecap="round" stroke-linejoin="round"/>
<path d="M120.806 95.5013C121.016 97.5338 120.528 99.5774 119.423 101.296C116.894 104.97 111.069 104.841 111.069 104.841L110.816 105.728C110.541 106.457 110.156 107.139 109.676 107.751C110.88 107.456 112.111 107.283 113.35 107.235C114.027 107.255 114.673 107.524 115.164 107.992C115.655 108.46 115.955 109.093 116.007 109.769C116.136 110.909 116.26 111.415 114.743 111.791C113.226 112.168 107.147 114.072 106.26 114.201C105.455 114.315 104.02 112.963 103.68 110.811C103.953 107.503 104.877 104.237 104.877 100.909C104.985 99.7474 105.394 98.634 106.064 97.6788" fill="white"/>
<path d="M120.806 95.5013C121.016 97.5338 120.528 99.5774 119.423 101.296C116.894 104.97 111.069 104.841 111.069 104.841L110.816 105.728C110.541 106.457 110.156 107.139 109.676 107.751C110.88 107.456 112.111 107.283 113.35 107.235C114.027 107.255 114.673 107.524 115.164 107.992C115.655 108.46 115.955 109.093 116.007 109.769C116.136 110.909 116.26 111.415 114.743 111.791C113.226 112.168 107.147 114.072 106.26 114.201C105.455 114.315 104.02 112.963 103.68 110.811C103.953 107.503 104.877 104.237 104.877 100.909C104.985 99.7474 105.394 98.634 106.064 97.6788" stroke="#2E353A" stroke-linecap="round" stroke-linejoin="round"/>
<path d="M120.311 92.8181C120.463 93.3008 120.581 93.794 120.661 94.2938L120.311 92.8181Z" fill="white"/>
<path d="M120.311 92.8181C120.463 93.3008 120.581 93.794 120.661 94.2938" stroke="#2E353A" stroke-linecap="round" stroke-linejoin="round"/>
<path d="M118.664 88.2566V83.7003" stroke="#2E353A" stroke-linecap="round" stroke-linejoin="round"/>
<path d="M119.929 87.88V85.9811" stroke="#2E353A" stroke-linecap="round" stroke-linejoin="round"/>
<path d="M111.069 104.841C111.069 104.841 111.069 102.323 109.567 100.672" stroke="#2E353A" stroke-linecap="round" stroke-linejoin="round"/>
<path d="M109.515 107.813C108.828 107.884 108.15 108.026 107.493 108.236" stroke="#2E353A" stroke-linecap="round" stroke-linejoin="round"/>
<path d="M114.098 111.807C114.098 111.807 112.767 112.287 112.287 111.699C111.807 111.11 111.115 109.567 111.647 109.304C112.178 109.041 114.629 108.453 115.109 108.613L115.589 108.768" stroke="#2E353A" stroke-width="0.5" stroke-linecap="round" stroke-linejoin="round"/>
<path d="M130.243 41.8785V85.5063H108.793V41.8785" fill="#BA68C8"/>
<path d="M130.243 41.8785V85.5063H108.793V41.8785" stroke="#2E353A" stroke-linecap="round" stroke-linejoin="round"/>
<path d="M127.823 83.2875C128.365 83.2875 128.804 82.8486 128.804 82.3071C128.804 81.7657 128.365 81.3267 127.823 81.3267C127.282 81.3267 126.843 81.7657 126.843 82.3071C126.843 82.8486 127.282 83.2875 127.823 83.2875Z" fill="white" stroke="#2E353A" stroke-linecap="round" stroke-linejoin="round"/>
<path d="M102.168 189.372C102.018 189.746 101.794 190.086 101.509 190.372C101.225 190.657 100.885 190.882 100.511 191.034C99.9283 191.276 99.1543 191.219 98.2513 191.725C96.2286 192.865 91.1666 191.854 87.4927 192.241C83.8188 192.628 78.8858 188.572 78.8858 188.572L64.314 189.372V174.924C64.314 174.924 79.505 175.559 82.7971 174.294C86.0892 173.03 89.7579 170.368 91.404 170.497C93.05 170.626 106.595 172.143 106.595 172.143L102.168 189.372Z" fill="white" stroke="#2E353A" stroke-linecap="round" stroke-linejoin="round"/>
<path d="M105.909 131.147C108.914 131.479 111.754 132.696 114.068 134.642C116.382 136.589 118.067 139.177 118.91 142.082C119.753 144.986 119.715 148.074 118.803 150.957C117.89 153.84 116.143 156.388 113.782 158.278C111.422 160.168 108.554 161.315 105.541 161.575C102.529 161.835 99.5065 161.196 96.8571 159.739C94.2077 158.281 92.0499 156.071 90.6568 153.387C89.2636 150.703 88.6976 147.666 89.0303 144.661C89.4765 140.632 91.5048 136.945 94.6692 134.412C97.8335 131.878 101.875 130.706 105.904 131.152L105.909 131.147ZM102.875 158.536C105.287 158.805 107.724 158.352 109.879 157.236C112.033 156.119 113.809 154.389 114.98 152.263C116.151 150.138 116.666 147.713 116.459 145.295C116.252 142.877 115.333 140.575 113.818 138.679C112.303 136.783 110.259 135.38 107.946 134.645C105.633 133.911 103.154 133.879 100.823 134.554C98.4919 135.228 96.4131 136.579 94.8495 138.435C93.2858 140.291 92.3077 142.569 92.0386 144.98C91.6792 148.215 92.6187 151.459 94.6507 154.001C96.6826 156.543 99.6406 158.174 102.875 158.536Z" fill="white" stroke="#2E353A" stroke-linecap="round" stroke-linejoin="round"/>
<path d="M106.001 130.275C109.006 130.608 111.843 131.825 114.156 133.771C116.469 135.718 118.152 138.306 118.994 141.209C119.835 144.112 119.797 147.2 118.884 150.081C117.971 152.963 116.225 155.509 113.865 157.398C111.505 159.286 108.638 160.433 105.626 160.692C102.615 160.952 99.5941 160.313 96.946 158.856C94.2978 157.398 92.1411 155.189 90.7487 152.506C89.3562 149.823 88.7905 146.788 89.1231 143.783C89.344 141.788 89.9558 139.856 90.9236 138.097C91.8915 136.338 93.1964 134.787 94.7637 133.532C96.3311 132.278 98.1303 131.345 100.058 130.786C101.987 130.227 104.006 130.053 106.001 130.275ZM102.967 157.664C105.379 157.933 107.817 157.48 109.971 156.364C112.126 155.247 113.901 153.517 115.073 151.391C116.244 149.266 116.759 146.841 116.552 144.423C116.345 142.005 115.426 139.703 113.911 137.807C112.395 135.911 110.352 134.508 108.039 133.773C105.726 133.039 103.247 133.007 100.916 133.682C98.5847 134.356 96.5058 135.707 94.9422 137.563C93.3786 139.419 92.4004 141.697 92.1314 144.108C91.7735 147.341 92.7138 150.584 94.7457 153.124C96.7776 155.664 99.7348 157.293 102.967 157.653V157.664Z" fill="white" stroke="#2E353A" stroke-linecap="round" stroke-linejoin="round"/>
<path d="M100.489 162.265L99.3159 172.861C99.2256 173.676 99.8136 174.411 100.629 174.501L101.353 174.581C102.168 174.672 102.903 174.084 102.993 173.268L104.167 162.672C104.257 161.856 103.669 161.122 102.853 161.031L102.13 160.951C101.314 160.861 100.58 161.449 100.489 162.265Z" fill="#BA68C8" stroke="#2E353A" stroke-linecap="round" stroke-linejoin="round"/>
<path d="M98.695 196.421H98.5918C98.1652 196.374 97.7521 196.243 97.3764 196.036C97.0006 195.829 96.6695 195.549 96.4024 195.213C96.1352 194.877 95.9371 194.492 95.8196 194.079C95.7021 193.667 95.6674 193.235 95.7177 192.809L98.0345 171.859C98.0705 171.527 98.1717 171.205 98.3324 170.912C98.493 170.619 98.71 170.36 98.9708 170.151C99.2316 169.942 99.5311 169.787 99.8521 169.694C100.173 169.601 100.509 169.572 100.842 169.609L102.39 169.779C103.06 169.853 103.674 170.191 104.096 170.717C104.518 171.244 104.713 171.916 104.639 172.587L102.322 193.562C102.274 193.988 102.143 194.4 101.935 194.775C101.728 195.151 101.448 195.481 101.112 195.748C100.777 196.015 100.392 196.213 99.98 196.331C99.5678 196.449 99.1364 196.485 98.7105 196.436L98.695 196.421Z" fill="#2E353A" stroke="#2E353A" stroke-linecap="round" stroke-linejoin="round"/>
<path d="M100.104 187.251C100.104 187.251 103.767 187.391 104.283 188.02C104.799 188.65 104.707 190.863 103.711 191.116C101.177 191.787 95.7746 191.395 95.5682 190.941C95.3618 190.487 94.9181 187.845 96.0378 187.561C97.3833 187.355 98.7426 187.251 100.104 187.251Z" fill="white" stroke="#2E353A" stroke-linecap="round" stroke-linejoin="round"/>
<path d="M101.177 182.148C101.177 182.148 105.444 181.983 106.11 182.752C106.776 183.521 106.91 186.395 105.78 186.828C102.911 187.927 96.4556 187.499 96.1667 186.931C95.8777 186.364 95.2327 183.417 96.4969 182.943C97.7611 182.468 101.177 182.148 101.177 182.148Z" fill="white" stroke="#2E353A" stroke-linecap="round" stroke-linejoin="round"/>
<path d="M101.801 176.353C101.801 176.353 106.363 176.183 107.075 177.003C107.787 177.824 107.926 180.899 106.724 181.358C103.628 182.54 96.9201 182.535 96.6053 181.931C96.2905 181.328 95.4443 177.716 96.7962 177.205C98.1481 176.694 101.801 176.353 101.801 176.353Z" fill="white" stroke="#2E353A" stroke-linecap="round" stroke-linejoin="round"/>
<path d="M104.428 170.951C104.428 170.951 108.989 170.775 109.701 171.596C110.413 172.416 110.584 175.584 109.345 175.956C108.107 176.327 99.5413 177.127 99.2266 176.524C98.9118 175.92 98.0707 172.308 99.4227 171.802C100.775 171.296 104.428 170.951 104.428 170.951Z" fill="white" stroke="#2E353A" stroke-linecap="round" stroke-linejoin="round"/>
<path d="M86.688 186.467C88.4875 186.538 90.2643 186.045 91.7706 185.058C95.4445 182.525 95.3155 176.704 95.3155 176.704L96.203 176.451C96.9312 176.176 97.6133 175.792 98.2257 175.311C97.9303 176.513 97.7574 177.743 97.7097 178.98C97.7293 179.658 97.9988 180.305 98.4665 180.796C98.9341 181.288 99.567 181.589 100.243 181.642C101.384 181.766 101.889 181.895 102.271 180.373C102.653 178.851 104.547 172.777 104.676 171.895C104.805 171.013 103.437 169.65 101.286 169.315C97.9781 169.589 94.7118 170.512 91.3836 170.512C90.2229 170.62 89.11 171.028 88.1534 171.694" fill="white"/>
<path d="M86.688 186.467C88.4875 186.538 90.2643 186.045 91.7706 185.058C95.4445 182.525 95.3155 176.704 95.3155 176.704L96.203 176.451C96.9312 176.176 97.6133 175.792 98.2257 175.311C97.9303 176.513 97.7574 177.743 97.7097 178.98C97.7293 179.658 97.9988 180.305 98.4665 180.796C98.9341 181.288 99.567 181.589 100.243 181.642C101.384 181.766 101.889 181.895 102.271 180.373C102.653 178.851 104.547 172.777 104.676 171.895C104.805 171.013 103.437 169.65 101.286 169.315C97.9781 169.589 94.7118 170.512 91.3836 170.512C90.2229 170.62 89.11 171.028 88.1534 171.694" stroke="#2E353A" stroke-linecap="round" stroke-linejoin="round"/>
<path d="M83.3027 185.946C84.0242 186.167 84.7656 186.318 85.5164 186.395L83.3027 185.946Z" fill="white"/>
<path d="M83.3027 185.946C84.0242 186.167 84.7656 186.318 85.5164 186.395" stroke="#2E353A" stroke-linecap="round" stroke-linejoin="round"/>
<path d="M78.7413 184.3H74.1851" stroke="#2E353A" stroke-linecap="round" stroke-linejoin="round"/>
<path d="M78.3647 185.564H76.4658" stroke="#2E353A" stroke-linecap="round" stroke-linejoin="round"/>
<path d="M95.3255 176.704C95.3255 176.704 92.8075 176.704 91.1562 175.203" stroke="#2E353A" stroke-linecap="round" stroke-linejoin="round"/>
<path d="M98.2979 175.146C98.3687 174.459 98.5105 173.781 98.721 173.123" stroke="#2E353A" stroke-linecap="round" stroke-linejoin="round"/>
<path d="M102.291 179.728C102.291 179.728 102.771 178.397 102.183 177.917C101.595 177.437 100.052 176.745 99.7889 177.277C99.5257 177.808 98.9375 180.265 99.0975 180.739L99.2574 181.219" stroke="#2E353A" stroke-width="0.5" stroke-linecap="round" stroke-linejoin="round"/>
<path d="M32.3633 195.879H75.9911V174.429H32.3633" fill="#BA68C8"/>
<path d="M32.3633 195.879H75.9911V174.429H32.3633" stroke="#2E353A" stroke-linecap="round" stroke-linejoin="round"/>
<path d="M71.8115 193.459C71.8115 193.653 71.869 193.842 71.9767 194.003C72.0845 194.165 72.2376 194.29 72.4167 194.364C72.5959 194.439 72.793 194.458 72.9832 194.42C73.1734 194.382 73.3481 194.289 73.4852 194.152C73.6223 194.015 73.7157 193.84 73.7535 193.65C73.7913 193.46 73.7719 193.263 73.6977 193.083C73.6235 192.904 73.4978 192.751 73.3366 192.644C73.1754 192.536 72.9858 192.478 72.7919 192.478C72.5319 192.478 72.2825 192.582 72.0987 192.765C71.9148 192.949 71.8115 193.199 71.8115 193.459Z" fill="white" stroke="#2E353A" stroke-linecap="round" stroke-linejoin="round"/>
</svg>
