<svg width="267" height="178" viewBox="0 0 267 178" fill="none" xmlns="http://www.w3.org/2000/svg">
<path d="M246.484 108.302L241.813 108.402L239.442 108.441C238.648 108.459 237.851 108.441 237.057 108.463H236.9V108.302L236.879 104.308V104.13H237.057L241.77 104.151C243.344 104.151 244.914 104.191 246.484 104.208H246.583V104.308C246.583 104.984 246.555 105.657 246.537 106.323L246.484 108.302ZM246.484 108.302L246.434 106.291C246.416 105.629 246.395 104.974 246.388 104.319L246.484 104.418C244.914 104.436 243.344 104.475 241.77 104.475L237.057 104.497L237.235 104.319V108.302L237.075 108.146C237.851 108.146 238.627 108.146 239.406 108.163L241.724 108.224L246.484 108.302Z" fill="#EBEBEB"/>
<path d="M241.226 113.326L236.555 113.425L234.18 113.464C233.39 113.464 232.593 113.464 231.799 113.486H231.642V113.326V109.342V109.164H231.82L236.534 109.189C238.103 109.189 239.677 109.228 241.247 109.246H241.347V109.342C241.347 110.018 241.318 110.691 241.3 111.357L241.226 113.326ZM241.226 113.326L241.176 111.314C241.158 110.652 241.137 109.997 241.129 109.342L241.226 109.442C239.656 109.459 238.082 109.499 236.512 109.499L231.799 109.52L231.977 109.342V113.326L231.817 113.169C232.593 113.169 233.369 113.169 234.148 113.187L236.487 113.229L241.226 113.326Z" fill="#EBEBEB"/>
<path d="M251.742 113.326L247.071 113.425L244.7 113.464C243.906 113.464 243.109 113.464 242.315 113.486H242.158V113.326L242.137 109.342V109.164H242.315L247.028 109.189C248.602 109.189 250.172 109.228 251.742 109.246H251.841V109.342C251.841 110.018 251.809 110.691 251.795 111.357L251.742 113.326ZM251.742 113.326L251.692 111.314C251.692 110.652 251.653 109.997 251.645 109.342L251.742 109.442C250.172 109.459 248.602 109.499 247.028 109.499L242.315 109.52L242.493 109.342V113.326L242.333 113.169C243.112 113.169 243.885 113.169 244.664 113.187L247.007 113.229L251.742 113.326Z" fill="#EBEBEB"/>
<path d="M112.065 60.901L107.395 61.0006L105.024 61.0398C104.23 61.0398 103.432 61.0398 102.638 61.0398H102.482V60.8796L102.46 56.896V56.718H102.638L107.352 56.7393C108.925 56.7393 110.495 56.7785 112.065 56.7963H112.165V56.8924C112.165 57.5688 112.133 58.2381 112.115 58.9038L112.065 60.901ZM112.065 60.901L112.015 58.886C112.015 58.2238 111.976 57.5688 111.969 56.9173L112.065 57.0134C110.495 57.0134 108.925 57.0704 107.352 57.0704L102.638 57.0953L102.816 56.9173L102.799 60.901L102.638 60.7408C103.415 60.7408 104.191 60.7408 104.97 60.7621L107.313 60.8013L112.065 60.901Z" fill="#EBEBEB"/>
<path d="M106.8 65.9241L102.129 66.0238L99.7547 66.0629C98.9644 66.0629 98.167 66.0629 97.3731 66.0807H97.2165V65.9205L97.188 61.944V61.766H97.366L102.079 61.7874C103.649 61.7874 105.223 61.8265 106.793 61.8443H106.893V61.944C106.893 62.6204 106.864 63.2897 106.846 63.9554L106.8 65.9241ZM106.8 65.9241L106.75 63.9091C106.732 63.247 106.711 62.5919 106.704 61.9404L106.8 62.0365C105.23 62.0543 103.657 62.0935 102.087 62.0935L97.3731 62.1184L97.5511 61.9404L97.544 65.9241L97.3838 65.7639C98.1599 65.7639 98.936 65.7639 99.7156 65.7852L102.055 65.8244L106.8 65.9241Z" fill="#EBEBEB"/>
<path d="M117.323 65.9241L112.652 66.0238L110.281 66.0629C109.488 66.0629 108.694 66.0629 107.896 66.0807H107.74V65.9205L107.718 61.944V61.766H107.896L112.61 61.7874C114.183 61.7874 115.753 61.8265 117.323 61.8443H117.423V61.944C117.423 62.6204 117.391 63.2897 117.377 63.9554L117.323 65.9241ZM117.323 65.9241L117.273 63.9091C117.273 63.247 117.234 62.5919 117.227 61.9404L117.323 62.0365C115.753 62.0543 114.183 62.0935 112.61 62.0935L107.896 62.1184L108.074 61.9404L108.056 65.9241L107.896 65.7639C108.676 65.7639 109.448 65.7639 110.228 65.7852L112.571 65.8244L117.323 65.9241Z" fill="#EBEBEB"/>
<path d="M35.2011 87.2592L30.5304 87.3589L28.1559 87.398C27.3656 87.398 26.5681 87.398 25.7742 87.4158H25.6318V87.2556V83.272V83.094H25.8098L30.5233 83.1154C32.0932 83.1154 33.6668 83.1545 35.2367 83.1723H35.3364V83.2684C35.3364 83.9448 35.3079 84.6141 35.2901 85.2798L35.2011 87.2592ZM35.2011 87.2592L35.1513 85.2442C35.1513 84.5821 35.1121 83.927 35.105 83.2756L35.2011 83.3717C33.6312 83.3895 32.0576 83.4286 30.4877 83.4286L25.7742 83.4536L25.9522 83.2756L25.9344 87.2592L25.7742 87.099C26.5503 87.099 27.3264 87.099 28.106 87.1204L30.445 87.1595L35.2011 87.2592Z" fill="#EBEBEB"/>
<path d="M191.478 60.8974L186.807 60.9971L184.436 61.0362C183.642 61.054 182.845 61.0362 182.051 61.054H181.894V60.8938L181.873 56.9102V56.7322H182.051L186.764 56.7535C188.338 56.7535 189.908 56.7963 191.478 56.8141H191.578V56.9102C191.578 57.5866 191.549 58.2594 191.531 58.9216L191.478 60.8974ZM191.478 60.8974L191.428 58.886C191.41 58.2203 191.389 57.5652 191.382 56.9137L191.478 57.0099C189.908 57.0277 188.338 57.0668 186.764 57.0704L182.051 57.0917L182.229 56.9137L182.211 60.8974L182.051 60.7372C182.827 60.7372 183.603 60.7372 184.383 60.7585L186.725 60.7977L191.478 60.8974Z" fill="#EBEBEB"/>
<path d="M245.939 22.2073L241.268 22.307L238.894 22.3461C238.103 22.3461 237.306 22.3461 236.512 22.3675H236.355V22.2073V18.2237V18.0457H236.533L241.247 18.067C242.817 18.067 244.39 18.1097 245.96 18.1275H246.06V18.2237C246.06 18.9001 246.032 19.5729 246.014 20.2351L245.939 22.2073ZM245.939 22.2073L245.889 20.1959C245.871 19.5302 245.85 18.8751 245.843 18.2237L245.939 18.3198C244.369 18.3198 242.796 18.3767 241.226 18.3803L236.512 18.4017L236.69 18.2237L236.672 22.2073L236.512 22.0471C237.288 22.0471 238.064 22.0471 238.844 22.0685L241.183 22.1076L245.939 22.2073Z" fill="#EBEBEB"/>
<path d="M251.197 27.2304L246.526 27.3301L244.155 27.3693C243.362 27.3871 242.564 27.3693 241.77 27.3906H241.614V27.2304L241.592 23.2468V23.0688H241.77L246.484 23.0901C248.057 23.0901 249.627 23.1329 251.197 23.1507H251.297V23.2468C251.297 23.9232 251.265 24.596 251.247 25.2582L251.197 27.2304ZM251.197 27.2304L251.147 25.219C251.147 24.5533 251.108 23.8983 251.101 23.2468L251.197 23.3429C249.627 23.3607 248.057 23.3999 246.484 23.4034L241.77 23.4248L241.948 23.2468V27.2304L241.788 27.0702C242.564 27.0702 243.34 27.0702 244.12 27.0916L246.462 27.1307L251.197 27.2304Z" fill="#EBEBEB"/>
<path d="M24.685 22.2111L20.0107 22.3108L17.6397 22.3499C16.8494 22.3499 16.052 22.3499 15.2581 22.3713H15.0979V22.2111V18.2274V18.0494H15.2795L19.9929 18.0744C21.5629 18.0744 23.1328 18.1135 24.7063 18.1313H24.8025V18.2274C24.8025 18.9038 24.7704 19.5767 24.7562 20.2424L24.685 22.2111ZM24.685 22.2111L24.6316 20.1997C24.6316 19.5375 24.5924 18.8789 24.5853 18.2274L24.685 18.3236C23.1115 18.3449 21.5415 18.3805 19.9715 18.3841L15.2581 18.4054L15.4361 18.2274L15.4147 22.2111L15.2581 22.0722C16.0342 22.0722 16.8067 22.0722 17.5863 22.0722L19.9288 22.1114L24.685 22.2111Z" fill="#EBEBEB"/>
<path d="M246.217 64.0159L248.313 60.6375L247.277 59.9967C247.129 59.9033 247.01 59.7707 246.933 59.6136C246.855 59.4565 246.823 59.281 246.84 59.1067C246.85 58.9087 246.85 58.7102 246.84 58.5122C246.834 58.3373 246.878 58.1645 246.965 58.013C247.053 57.8615 247.181 57.7373 247.334 57.6542L248.402 57.0775L246.523 53.5745L245.455 54.1476C245.3 54.2303 245.126 54.2681 244.951 54.2567C244.776 54.2454 244.608 54.1854 244.465 54.0835C244.305 53.9732 244.134 53.8664 243.96 53.7702C243.806 53.6879 243.677 53.5645 243.589 53.4136C243.501 53.2628 243.457 53.0904 243.461 52.9159L243.5 51.6983L239.527 51.5737L239.492 52.7948C239.484 52.9698 239.428 53.1394 239.33 53.2846C239.232 53.4297 239.096 53.5449 238.936 53.6172L238.677 53.7489C238.588 53.7952 238.502 53.845 238.42 53.8949C238.272 53.9866 238.101 54.0352 237.927 54.0352C237.753 54.0352 237.582 53.9866 237.434 53.8949L236.391 53.2505L234.294 56.6289L235.334 57.2697C235.481 57.3637 235.6 57.4964 235.677 57.6534C235.755 57.8103 235.787 57.9855 235.772 58.1597C235.754 58.3574 235.747 58.5558 235.75 58.7542C235.755 58.9282 235.712 59.1002 235.626 59.251C235.539 59.4019 235.412 59.5257 235.259 59.6087L234.191 60.1854L236.071 63.692L237.139 63.1152C237.293 63.0341 237.467 62.9972 237.641 63.0085C237.815 63.0198 237.982 63.0789 238.125 63.1793C238.286 63.2913 238.454 63.3947 238.627 63.489C238.782 63.5707 238.911 63.6945 238.999 63.8463C239.088 63.998 239.131 64.1716 239.125 64.347L239.089 65.5645L243.062 65.6891L243.102 64.4681C243.109 64.2938 243.164 64.125 243.261 63.9804C243.359 63.8358 243.495 63.7211 243.653 63.6492L243.917 63.5175L244.173 63.3716C244.322 63.2799 244.493 63.2314 244.668 63.2314C244.843 63.2314 245.014 63.2799 245.163 63.3716L246.217 64.0159ZM242.852 61.5239C242.285 61.8283 241.639 61.9575 240.998 61.8951C240.357 61.8328 239.749 61.5817 239.25 61.1737C238.752 60.7656 238.385 60.2189 238.198 59.6027C238.01 58.9865 238.009 58.3284 238.195 57.7117C238.381 57.095 238.746 56.5473 239.243 56.1379C239.741 55.7285 240.348 55.4758 240.989 55.4118C241.63 55.3477 242.276 55.4751 242.845 55.778C243.413 56.0808 243.879 56.5454 244.184 57.1131C244.588 57.8726 244.674 58.7612 244.425 59.5844C244.175 60.4076 243.61 61.0986 242.852 61.5061V61.5239Z" fill="#EBEBEB"/>
<path d="M55.9667 134.532L54.5748 132.119L53.8343 132.546C53.7277 132.607 53.6063 132.637 53.4836 132.632C53.361 132.628 53.242 132.589 53.1401 132.521C53.0251 132.446 52.9063 132.377 52.7841 132.315C52.6762 132.258 52.5858 132.173 52.523 132.069C52.4602 131.965 52.4274 131.845 52.4281 131.724V130.873H49.6264V131.72C49.6271 131.842 49.5942 131.961 49.5314 132.066C49.4686 132.17 49.3783 132.255 49.2704 132.311C49.1458 132.375 49.0247 132.443 48.9144 132.517C48.8106 132.589 48.6883 132.63 48.562 132.635C48.4358 132.639 48.3109 132.607 48.2024 132.542L47.4654 132.115L46.0735 134.529L46.814 134.956C46.9195 135.018 47.0057 135.108 47.063 135.216C47.1202 135.324 47.1461 135.446 47.1379 135.568C47.1379 135.636 47.1379 135.707 47.1379 135.775C47.1379 135.843 47.1379 135.91 47.1379 135.981C47.1462 136.103 47.1207 136.224 47.0641 136.331C47.0075 136.439 46.9221 136.528 46.8175 136.59L46.0735 137.021L47.4654 139.435L48.2059 139.007C48.3145 138.943 48.4393 138.911 48.5656 138.915C48.6918 138.92 48.8141 138.96 48.9179 139.032C49.0329 139.107 49.1517 139.176 49.2739 139.239C49.3813 139.295 49.4713 139.379 49.534 139.483C49.5968 139.586 49.63 139.705 49.6299 139.826V140.681H52.4174V139.826C52.417 139.705 52.45 139.586 52.5128 139.482C52.5756 139.379 52.6658 139.294 52.7734 139.239C52.8944 139.175 53.0155 139.107 53.1294 139.032C53.2313 138.964 53.3503 138.925 53.473 138.921C53.5956 138.916 53.7171 138.946 53.8236 139.007L54.5641 139.435L55.956 137.021L55.2156 136.594C55.11 136.532 55.0238 136.442 54.9666 136.334C54.9094 136.225 54.8834 136.103 54.8916 135.981C54.8916 135.914 54.8916 135.843 54.8916 135.775C54.8916 135.707 54.8916 135.636 54.8916 135.568C54.8834 135.446 54.9094 135.324 54.9666 135.216C55.0238 135.108 55.11 135.018 55.2156 134.956L55.9667 134.532ZM53.3038 135.778C53.3038 136.23 53.17 136.671 52.9193 137.046C52.6685 137.421 52.3121 137.714 51.8952 137.887C51.4782 138.059 51.0194 138.105 50.5767 138.017C50.134 137.928 49.7274 137.711 49.4083 137.392C49.0892 137.073 48.8718 136.666 48.7838 136.224C48.6957 135.781 48.7409 135.322 48.9136 134.905C49.0863 134.488 49.3788 134.132 49.7541 133.881C50.1294 133.63 50.5706 133.496 51.0219 133.496C51.6271 133.496 52.2075 133.737 52.6355 134.165C53.0634 134.593 53.3038 135.173 53.3038 135.778Z" fill="#EBEBEB"/>
<path d="M32.0043 107.238C29.8581 107.237 27.7598 107.873 25.975 109.065C24.1901 110.257 22.7987 111.951 21.9769 113.934C21.1551 115.917 20.9397 118.098 21.358 120.204C21.7763 122.309 22.8094 124.242 24.3268 125.76C25.8442 127.278 27.7776 128.312 29.8826 128.731C31.9875 129.15 34.1695 128.935 36.1524 128.114C38.1354 127.293 39.8302 125.902 41.0227 124.118C42.2152 122.333 42.8517 120.235 42.8517 118.089C42.8521 116.664 42.5719 115.253 42.027 113.937C41.4821 112.62 40.6831 111.424 39.6758 110.416C38.6685 109.409 37.4725 108.609 36.1563 108.064C34.84 107.519 33.4291 107.238 32.0043 107.238ZM32.0043 123.151C31.0023 123.151 30.0227 122.854 29.1895 122.297C28.3564 121.74 27.7071 120.949 27.3237 120.023C26.9404 119.097 26.8403 118.078 27.0361 117.096C27.2318 116.113 27.7147 115.21 28.4235 114.502C29.1323 113.794 30.0353 113.311 31.0182 113.116C32.0011 112.921 33.0198 113.022 33.9454 113.406C34.871 113.79 35.662 114.44 36.2182 115.273C36.7744 116.107 37.0709 117.087 37.0702 118.089C37.0693 119.432 36.5351 120.719 35.5852 121.669C34.6353 122.618 33.3473 123.151 32.0043 123.151Z" fill="#EBEBEB"/>
<path d="M34.0905 107.69H29.9182L30.1496 104.735H33.8591L34.0905 107.69Z" fill="#EBEBEB"/>
<path d="M26.1481 109.093L23.2004 112.044L21.2744 109.794L23.8981 107.17L26.1481 109.093Z" fill="#EBEBEB"/>
<path d="M21.5272 115.704V119.876L18.5759 119.644V115.935L21.5272 115.704Z" fill="#EBEBEB"/>
<path d="M22.9334 123.642L25.8846 126.594L23.6347 128.516L21.011 125.892L22.9334 123.642Z" fill="#EBEBEB"/>
<path d="M29.5408 128.263H33.7131L33.4852 131.218H29.7722L29.5408 128.263Z" fill="#EBEBEB"/>
<path d="M37.4832 126.857L40.4344 123.909L42.3568 126.159L39.7331 128.783L37.4832 126.857Z" fill="#EBEBEB"/>
<path d="M42.104 120.25V116.077L45.0552 116.309V120.018L42.104 120.25Z" fill="#EBEBEB"/>
<path d="M40.6978 112.311L37.7466 109.36L40.0001 107.434L42.6238 110.057L40.6978 112.311Z" fill="#EBEBEB"/>
<path d="M33.4177 42.008C33.4177 41.563 33.4782 40.3775 33.4782 39.872C33.4782 37.7075 32.7057 36.7285 30.6907 36.668C29.7402 36.611 29.1777 36.0485 29.1777 35.244C29.1777 34.4394 29.7402 33.8805 30.6907 33.82C32.7057 33.7417 33.464 32.7947 33.464 30.616C33.464 30.114 33.4035 28.9285 33.4035 28.48C33.4035 25.6035 34.6174 23.7665 39.2134 22.7591C40.1319 22.549 40.8439 23.1151 40.8439 23.973C40.8528 24.2373 40.7771 24.4975 40.628 24.7159C40.4788 24.9342 40.2638 25.0992 40.0144 25.187C37.1379 26.077 36.7214 26.9955 36.7214 29.014C36.7214 29.6049 36.7819 30.5839 36.7819 31.2069C36.7819 33.5174 35.6569 34.6459 33.6989 35.2689C35.6854 35.9204 36.7819 37.0169 36.7819 39.3309C36.7819 39.9503 36.7214 40.9293 36.7214 41.5238C36.7214 43.5388 37.1379 44.4573 40.0144 45.3473C40.2638 45.435 40.4788 45.6 40.628 45.8184C40.7771 46.0367 40.8528 46.2969 40.8439 46.5612C40.8439 47.4227 40.1319 47.9852 39.2134 47.7787C34.6317 46.757 33.4177 44.9165 33.4177 42.008Z" fill="#EBEBEB"/>
<path d="M50.7905 28.48C50.7905 28.925 50.73 30.1105 50.73 30.616C50.73 32.8125 51.531 33.7595 53.5459 33.8485C54.4644 33.909 55.0269 34.4715 55.0269 35.2725C55.0269 36.0735 54.4644 36.6359 53.5459 36.6965C51.531 36.757 50.73 37.736 50.73 39.9005C50.73 40.4024 50.7905 41.5879 50.7905 42.0365C50.7905 44.9414 49.573 46.7819 44.977 47.7894C44.0585 47.9959 43.3501 47.4334 43.3501 46.5719C43.3408 46.3036 43.4196 46.0396 43.5746 45.8204C43.7295 45.6012 43.952 45.4387 44.2081 45.358C47.0561 44.4679 47.469 43.5495 47.469 41.5345C47.469 40.94 47.4085 39.961 47.4085 39.3415C47.4085 37.0275 48.537 35.9026 50.4915 35.2796C48.505 34.6281 47.4085 33.5281 47.4085 31.2176C47.4085 30.5946 47.469 29.6156 47.469 29.0247C47.469 27.0061 47.0525 26.0877 44.2081 25.1977C43.952 25.1169 43.7295 24.9545 43.5746 24.7352C43.4196 24.516 43.3408 24.252 43.3501 23.9837C43.3501 23.1257 44.0621 22.5597 44.977 22.7697C49.573 23.7523 50.7905 25.5893 50.7905 28.48Z" fill="#EBEBEB"/>
<path d="M18.0564 159.221L46.9173 159.136L75.7782 159.103L133.5 159.043L191.222 159.103L220.083 159.136L248.944 159.221L220.083 159.31L191.222 159.342L133.5 159.399L75.7782 159.338L46.9173 159.31L18.0564 159.221Z" fill="#263238"/>
<path d="M231.361 152.094H35.6392V159.221H231.361V152.094Z" fill="#C7C7C7"/>
<path d="M211.136 48.2273H55.8635V152.094H211.136V48.2273Z" fill="#DBDBDB"/>
<path d="M210.011 49.4946H56.9919V150.826H210.011V49.4946Z" fill="#263238"/>
<path d="M203.233 56.0059H63.7666V144.312H203.233V56.0059Z" fill="#455A64"/>
<path d="M93.6706 59.4057H63.7666V144.315H93.6706V59.4057Z" fill="#37474F"/>
<path d="M66.967 59.4057H63.7666V144.315H66.967V59.4057Z" fill="#455A64"/>
<path d="M93.6744 88.4446H66.9673V89.7084H93.6744V88.4446Z" fill="#FFC727"/>
<path d="M80.3279 63.6207H69.9434V64.1868H80.3279V63.6207Z" fill="white"/>
<path d="M68.6152 63.724H69.2845L68.9499 64.08L68.6152 63.724Z" fill="white"/>
<path d="M72.1541 65.7176H70.7764V66.2836H72.1541V65.7176Z" fill="white"/>
<path d="M69.9434 66.3335V65.6642L70.2994 65.9988L69.9434 66.3335Z" fill="white"/>
<path d="M72.1541 67.8144H70.7764V68.3804H72.1541V67.8144Z" fill="white"/>
<path d="M69.7866 67.9177H70.4559L70.1213 68.2737L69.7866 67.9177Z" fill="white"/>
<path d="M72.1541 69.9113H70.7764V70.4773H72.1541V69.9113Z" fill="white"/>
<path d="M69.7866 70.0145H70.4559L70.1213 70.374L69.7866 70.0145Z" fill="white"/>
<path d="M72.9905 72.0081H71.6128V72.5742H72.9905V72.0081Z" fill="white"/>
<path d="M70.7764 72.624V71.9547L71.1359 72.2894L70.7764 72.624Z" fill="white"/>
<path d="M73.8274 74.1085H72.4497V74.6746H73.8274V74.1085Z" fill="white"/>
<path d="M71.6128 74.7244V74.0551L71.9724 74.3898L71.6128 74.7244Z" fill="white"/>
<path d="M73.8274 95.0769H72.4497V95.6429H73.8274V95.0769Z" fill="white"/>
<path d="M71.6128 95.6928V95.0235L71.9724 95.3581L71.6128 95.6928Z" fill="white"/>
<path d="M74.6639 76.2018H73.2861V76.7678H74.6639V76.2018Z" fill="white"/>
<path d="M72.4497 76.8177V76.1484L72.8093 76.483L72.4497 76.8177Z" fill="white"/>
<path d="M74.6639 92.98H73.2861V93.5461H74.6639V92.98Z" fill="white"/>
<path d="M72.4497 93.5959V92.9266L72.8093 93.2613L72.4497 93.5959Z" fill="white"/>
<path d="M75.5003 78.2986H74.1226V78.8646H75.5003V78.2986Z" fill="white"/>
<path d="M73.2861 78.9145V78.2452L73.6457 78.5799L73.2861 78.9145Z" fill="white"/>
<path d="M75.5003 90.8796H74.1226V91.4457H75.5003V90.8796Z" fill="white"/>
<path d="M73.2861 91.4991V90.8298L73.6457 91.1645L73.2861 91.4991Z" fill="white"/>
<path d="M76.3372 80.399H74.9595V80.965H76.3372V80.399Z" fill="white"/>
<path d="M74.1226 81.0149V80.3456L74.4821 80.6803L74.1226 81.0149Z" fill="white"/>
<path d="M76.4939 82.4923H75.1162V83.0583H76.4939V82.4923Z" fill="white"/>
<path d="M74.1226 82.5955H74.7918L74.4572 82.9551L74.1226 82.5955Z" fill="white"/>
<path d="M76.4939 84.5891H75.1162V85.1552H76.4939V84.5891Z" fill="white"/>
<path d="M74.1226 84.6924H74.7918L74.4572 85.0519L74.1226 84.6924Z" fill="white"/>
<path d="M76.4939 86.686H75.1162V87.252H76.4939V86.686Z" fill="white"/>
<path d="M74.1226 86.7892H74.7918L74.4572 87.1487L74.1226 86.7892Z" fill="white"/>
<path d="M76.4939 88.7828H75.1162V89.3489H76.4939V88.7828Z" fill="white"/>
<path d="M74.1226 88.886H74.7918L74.4572 89.2456L74.1226 88.886Z" fill="white"/>
<path d="M72.1541 97.1737H70.7764V97.7397H72.1541V97.1737Z" fill="white"/>
<path d="M69.9434 97.7896V97.1204L70.2994 97.455L69.9434 97.7896Z" fill="white"/>
<path d="M72.1541 99.2706H70.7764V99.8366H72.1541V99.2706Z" fill="white"/>
<path d="M69.7866 99.3738H70.4559L70.1213 99.7334L69.7866 99.3738Z" fill="white"/>
<path d="M72.1541 101.367H70.7764V101.933H72.1541V101.367Z" fill="white"/>
<path d="M69.7866 101.471H70.4559L70.1213 101.83L69.7866 101.471Z" fill="white"/>
<path d="M72.9905 103.464H71.6128V104.03H72.9905V103.464Z" fill="white"/>
<path d="M70.7764 104.084V103.414L71.1359 103.749L70.7764 104.084Z" fill="white"/>
<path d="M73.8274 105.565H72.4497V106.131H73.8274V105.565Z" fill="white"/>
<path d="M71.6128 106.181V105.511L71.9724 105.846L71.6128 106.181Z" fill="white"/>
<path d="M73.8274 107.661H72.4497V108.228H73.8274V107.661Z" fill="white"/>
<path d="M71.6128 108.281V107.612L71.9724 107.946L71.6128 108.281Z" fill="white"/>
<path d="M73.9842 109.758H72.6064V110.324H73.9842V109.758Z" fill="white"/>
<path d="M71.6128 109.862H72.2821L71.9474 110.221L71.6128 109.862Z" fill="white"/>
<path d="M73.9842 111.855H72.6064V112.421H73.9842V111.855Z" fill="white"/>
<path d="M71.6128 111.958H72.2821L71.9474 112.318L71.6128 111.958Z" fill="white"/>
<path d="M73.9842 113.952H72.6064V114.518H73.9842V113.952Z" fill="white"/>
<path d="M71.6128 114.055H72.2821L71.9474 114.415L71.6128 114.055Z" fill="white"/>
<path d="M73.9842 116.049H72.6064V116.615H73.9842V116.049Z" fill="white"/>
<path d="M71.6128 116.152H72.2821L71.9474 116.512L71.6128 116.152Z" fill="white"/>
<path d="M203.233 56.0059H63.7666V59.4022H203.233V56.0059Z" fill="#FFC727"/>
<path d="M66.9669 57.7076C66.9669 57.835 66.9292 57.9596 66.8583 58.0656C66.7875 58.1715 66.6869 58.2541 66.5692 58.3029C66.4514 58.3517 66.3219 58.3644 66.1969 58.3396C66.0719 58.3147 65.9571 58.2533 65.867 58.1632C65.7768 58.0731 65.7155 57.9583 65.6906 57.8333C65.6657 57.7083 65.6785 57.5788 65.7273 57.461C65.776 57.3433 65.8586 57.2426 65.9646 57.1718C66.0706 57.101 66.1951 57.0632 66.3226 57.0632C66.4935 57.0632 66.6574 57.1311 66.7782 57.252C66.8991 57.3728 66.9669 57.5367 66.9669 57.7076Z" fill="#C7C7C7"/>
<path d="M69.591 57.7076C69.591 57.835 69.5532 57.9596 69.4824 58.0656C69.4116 58.1715 69.3109 58.2541 69.1932 58.3029C69.0755 58.3517 68.9459 58.3644 68.8209 58.3396C68.6959 58.3147 68.5811 58.2533 68.491 58.1632C68.4009 58.0731 68.3395 57.9583 68.3146 57.8333C68.2898 57.7083 68.3025 57.5788 68.3513 57.461C68.4001 57.3433 68.4827 57.2426 68.5886 57.1718C68.6946 57.101 68.8192 57.0632 68.9466 57.0632C69.1175 57.0632 69.2814 57.1311 69.4022 57.252C69.5231 57.3728 69.591 57.5367 69.591 57.7076Z" fill="white"/>
<path d="M72.2184 57.7076C72.2184 57.835 72.1806 57.9596 72.1098 58.0656C72.039 58.1715 71.9384 58.2541 71.8206 58.3029C71.7029 58.3517 71.5733 58.3644 71.4483 58.3396C71.3233 58.3147 71.2085 58.2533 71.1184 58.1632C71.0283 58.0731 70.9669 57.9583 70.9421 57.8333C70.9172 57.7083 70.93 57.5788 70.9787 57.461C71.0275 57.3433 71.1101 57.2426 71.2161 57.1718C71.322 57.101 71.4466 57.0632 71.574 57.0632C71.7449 57.0632 71.9088 57.1311 72.0297 57.252C72.1505 57.3728 72.2184 57.5367 72.2184 57.7076Z" fill="#455A64"/>
<path d="M103.215 74.5037H100.698V75.1195H103.215V74.5037Z" fill="#EBEBEB"/>
<path d="M161.955 74.5037H106.181V75.1195H161.955V74.5037Z" fill="#EBEBEB"/>
<path d="M168.281 74.5037H163.504V75.1195H168.281V74.5037Z" fill="#FFC727"/>
<path d="M187.281 89.0925H171.15V89.7084H187.281V89.0925Z" fill="#EBEBEB"/>
<path d="M193.002 74.5037H169.321V75.1195H193.002V74.5037Z" fill="#A6A6A6"/>
<path d="M103.215 77.4193H100.698V78.0352H103.215V77.4193Z" fill="#EBEBEB"/>
<path d="M127.576 77.4193H108.633V78.0352H127.576V77.4193Z" fill="#A6A6A6"/>
<path d="M170.018 89.0925H162.852V89.7084H170.018V89.0925Z" fill="#A6A6A6"/>
<path d="M124.273 86.1733H106.181V86.7892H124.273V86.1733Z" fill="#A6A6A6"/>
<path d="M121.325 80.3385H108.633V80.9544H121.325V80.3385Z" fill="#FFC727"/>
<path d="M190.745 83.2542H166.701V83.87H190.745V83.2542Z" fill="#A6A6A6"/>
<path d="M161.959 97.576H137.915V98.1919H161.959V97.576Z" fill="#A6A6A6"/>
<path d="M169.915 80.3385H122.734V80.9544H169.915V80.3385Z" fill="#A6A6A6"/>
<path d="M161.211 89.0925H106.181V89.7084H161.211V89.0925Z" fill="#FFC727"/>
<path d="M167.751 77.4193H128.765V78.0352H167.751V77.4193Z" fill="#EBEBEB"/>
<path d="M180.093 80.3385H171.934V80.9544H180.093V80.3385Z" fill="#EBEBEB"/>
<path d="M103.215 80.3385H100.698V80.9544H103.215V80.3385Z" fill="#EBEBEB"/>
<path d="M103.215 83.2542H100.698V83.87H103.215V83.2542Z" fill="#A6A6A6"/>
<path d="M121.051 83.2542H106.181V83.87H121.051V83.2542Z" fill="#EBEBEB"/>
<path d="M123.503 92.0082H108.633V92.6241H123.503V92.0082Z" fill="#EBEBEB"/>
<path d="M184.038 94.9274H163.276V95.5433H184.038V94.9274Z" fill="#FFC727"/>
<path d="M161.976 94.9274H122.083V95.5433H161.976V94.9274Z" fill="#EBEBEB"/>
<path d="M119.812 94.9274H108.633V95.5433H119.812V94.9274Z" fill="#A6A6A6"/>
<path d="M168.281 86.1733H125.298V86.7892H168.281V86.1733Z" fill="#EBEBEB"/>
<path d="M194.967 86.1733H169.321V86.7892H194.967V86.1733Z" fill="#FFC727"/>
<path d="M165.529 83.2542H122.563V83.87H165.529V83.2542Z" fill="#FFC727"/>
<path d="M103.215 86.1733H100.698V86.7892H103.215V86.1733Z" fill="#EBEBEB"/>
<path d="M103.215 89.0925H100.698V89.7084H103.215V89.0925Z" fill="#EBEBEB"/>
<path d="M103.215 92.0082H100.698V92.6241H103.215V92.0082Z" fill="#A6A6A6"/>
<path d="M103.215 94.9274H100.698V95.5433H103.215V94.9274Z" fill="#EBEBEB"/>
<path d="M103.215 97.576H100.698V98.1919H103.215V97.576Z" fill="#EBEBEB"/>
<path d="M135.682 97.576H106.181V98.1919H135.682V97.576Z" fill="#EBEBEB"/>
<path d="M103.215 100.495H100.698V101.111H103.215V100.495Z" fill="#EBEBEB"/>
<path d="M127.576 100.495H108.633V101.111H127.576V100.495Z" fill="#A6A6A6"/>
<path d="M124.273 109.246H106.181V109.862H124.273V109.246Z" fill="#A6A6A6"/>
<path d="M121.325 103.411H108.633V104.027H121.325V103.411Z" fill="#FFC727"/>
<path d="M150.392 115.084H137.701V115.7H150.392V115.084Z" fill="#FFC727"/>
<path d="M121.325 120.919H108.633V121.535H121.325V120.919Z" fill="#FFC727"/>
<path d="M169.915 103.411H122.734V104.027H169.915V103.411Z" fill="#A6A6A6"/>
<path d="M161.211 112.165H106.181V112.781H161.211V112.165Z" fill="#FFC727"/>
<path d="M167.751 100.495H128.765V101.111H167.751V100.495Z" fill="#EBEBEB"/>
<path d="M176.003 106.33H167.857V106.946H176.003V106.33Z" fill="#EBEBEB"/>
<path d="M103.215 103.411H100.698V104.027H103.215V103.411Z" fill="#EBEBEB"/>
<path d="M103.215 106.33H100.698V106.946H103.215V106.33Z" fill="#A6A6A6"/>
<path d="M121.051 106.33H106.181V106.946H121.051V106.33Z" fill="#EBEBEB"/>
<path d="M168.281 109.246H125.298V109.862H168.281V109.246Z" fill="#EBEBEB"/>
<path d="M165.529 106.33H122.563V106.946H165.529V106.33Z" fill="#FFC727"/>
<path d="M103.215 109.246H100.698V109.862H103.215V109.246Z" fill="#EBEBEB"/>
<path d="M103.215 115.084H100.698V115.7H103.215V115.084Z" fill="#EBEBEB"/>
<path d="M135.682 115.084H106.181V115.7H135.682V115.084Z" fill="#EBEBEB"/>
<path d="M103.215 118H100.698V118.616H103.215V118Z" fill="#EBEBEB"/>
<path d="M127.576 118H108.633V118.616H127.576V118Z" fill="#A6A6A6"/>
<path d="M124.273 126.754H106.181V127.37H124.273V126.754Z" fill="#A6A6A6"/>
<path d="M169.915 120.919H122.734V121.535H169.915V120.919Z" fill="#A6A6A6"/>
<path d="M176.003 123.835H167.857V124.45H176.003V123.835Z" fill="#EBEBEB"/>
<path d="M103.215 120.919H100.698V121.535H103.215V120.919Z" fill="#EBEBEB"/>
<path d="M103.215 123.835H100.698V124.45H103.215V123.835Z" fill="#A6A6A6"/>
<path d="M121.051 123.835H106.181V124.45H121.051V123.835Z" fill="#EBEBEB"/>
<path d="M168.281 126.754H125.298V127.37H168.281V126.754Z" fill="#EBEBEB"/>
<path d="M165.529 123.835H122.563V124.45H165.529V123.835Z" fill="#FFC727"/>
<path d="M103.215 126.754H100.698V127.37H103.215V126.754Z" fill="#EBEBEB"/>
<path d="M102.25 68.8646C102.271 68.8845 102.288 68.9086 102.3 68.9352C102.311 68.9618 102.317 68.9905 102.317 69.0195C102.317 69.0484 102.311 69.0771 102.3 69.1037C102.288 69.1303 102.271 69.1544 102.25 69.1743C102.231 69.1944 102.208 69.2104 102.182 69.2214C102.157 69.2324 102.129 69.2382 102.101 69.2384C102.041 69.2389 101.984 69.2158 101.941 69.1743L100.969 68.1918C100.969 68.1918 100.969 68.1918 100.969 68.1704C100.967 68.161 100.967 68.1513 100.969 68.1419C100.969 68.1419 100.969 68.1241 100.969 68.1206C100.969 68.117 100.969 68.1206 100.969 68.1028V68.0778C100.969 68.0778 100.969 68.0778 100.969 68.0565C100.969 68.0351 100.969 68.0565 100.969 68.0387V67.996C100.969 67.996 100.969 67.9782 100.969 67.9675C100.974 67.9564 100.98 67.9457 100.987 67.9354C100.987 67.9354 100.987 67.9354 101.004 67.9141L101.976 66.928C102.018 66.8881 102.074 66.8659 102.131 66.8659C102.189 66.8659 102.244 66.8881 102.286 66.928C102.307 66.9479 102.324 66.9719 102.335 66.9985C102.347 67.0252 102.353 67.0538 102.353 67.0828C102.353 67.1118 102.347 67.1405 102.335 67.1671C102.324 67.1937 102.307 67.2177 102.286 67.2377L101.467 68.0636L102.25 68.8646Z" fill="#FFC727"/>
<path d="M103.13 68.975L103.977 66.9636C103.987 66.9401 104.001 66.9189 104.019 66.901C104.037 66.8831 104.058 66.8689 104.082 66.8593C104.105 66.8497 104.131 66.8449 104.156 66.845C104.181 66.8452 104.206 66.8504 104.23 66.8603C104.252 66.87 104.273 66.8841 104.29 66.9017C104.307 66.9193 104.32 66.9402 104.329 66.963C104.338 66.9859 104.342 67.0103 104.342 67.0349C104.341 67.0594 104.336 67.0836 104.326 67.106L103.479 69.1245C103.464 69.1585 103.44 69.1875 103.409 69.2077C103.378 69.228 103.341 69.2387 103.304 69.2384C103.281 69.2434 103.256 69.2434 103.233 69.2384C103.208 69.2293 103.185 69.2149 103.166 69.1962C103.147 69.1775 103.132 69.1549 103.122 69.13C103.112 69.1051 103.108 69.0784 103.109 69.0517C103.11 69.0249 103.117 68.9988 103.13 68.975Z" fill="#FFC727"/>
<path d="M105.995 68.1633C105.995 68.1633 105.995 68.1811 105.974 68.1882L105.002 69.1708C104.982 69.1913 104.957 69.2074 104.93 69.2184C104.903 69.2294 104.875 69.235 104.846 69.2349C104.803 69.2337 104.761 69.2202 104.726 69.1959C104.691 69.1715 104.663 69.1375 104.647 69.0979C104.631 69.0583 104.627 69.0148 104.635 68.9727C104.643 68.9307 104.663 68.8919 104.692 68.8611L105.511 68.0352L104.692 67.2092C104.671 67.1893 104.655 67.1653 104.643 67.1386C104.632 67.112 104.626 67.0833 104.626 67.0544C104.626 67.0254 104.632 66.9967 104.643 66.9701C104.655 66.9435 104.671 66.9195 104.692 66.8995C104.734 66.8597 104.79 66.8375 104.847 66.8375C104.905 66.8375 104.96 66.8597 105.002 66.8995L105.974 67.8856C105.974 67.8856 105.974 67.8856 105.995 67.907C106.002 67.9173 106.008 67.928 106.013 67.939C106.012 67.9497 106.012 67.9604 106.013 67.9711V67.9924C106.013 67.9924 106.013 67.9924 106.013 68.0102V68.0565C106.013 68.0672 106.013 68.0779 106.013 68.0885L105.995 68.1633Z" fill="#FFC727"/>
<path d="M60.2528 75.0128H42.1003V51.3032H55.785L60.2528 55.771V75.0128Z" fill="#FFC727"/>
<path opacity="0.6" d="M60.2528 75.0128H42.1003V51.3032H55.785L60.2528 55.771V75.0128Z" fill="white"/>
<path d="M60.253 55.771H55.7852V51.3032L60.253 55.771Z" fill="#FFC727"/>
<path d="M46.2976 59.6585C46.2983 59.926 46.3784 60.1874 46.5276 60.4095C46.6768 60.6315 46.8886 60.8044 47.136 60.9061C47.3835 61.0078 47.6556 61.0339 47.9178 60.981C48.1801 60.9281 48.4208 60.7987 48.6095 60.609C48.7982 60.4193 48.9264 60.1779 48.9779 59.9154C49.0294 59.6528 49.0019 59.3809 48.8989 59.1339C48.7958 58.887 48.6219 58.6762 48.399 58.5281C48.1762 58.3801 47.9144 58.3014 47.6469 58.3021C47.4691 58.3021 47.293 58.3373 47.1289 58.4055C46.9647 58.4738 46.8157 58.5738 46.6903 58.6998C46.5649 58.8259 46.4657 58.9754 46.3983 59.14C46.3309 59.3045 46.2967 59.4807 46.2976 59.6585Z" fill="#FFC727"/>
<path d="M48.3838 65.6713H57.565L52.9762 60.0679L48.3838 65.6713Z" fill="#FFC727"/>
<path d="M44.7847 65.6713H52.3639L48.5761 62.0223L44.7847 65.6713Z" fill="#FFC727"/>
<path opacity="0.1" d="M44.7847 65.6713H52.3639L48.5761 62.0223L44.7847 65.6713Z" fill="black"/>
<path d="M57.5615 56.7037H44.7847V65.6713H57.5615V56.7037Z" stroke="#FFC727" stroke-width="2" stroke-miterlimit="10"/>
<path d="M50.73 66.6396H37.6897V72.0366H50.73V66.6396Z" fill="#455A64"/>
<path d="M41.5203 68.1099V70.7265H41.0148V69.6087H39.8257V70.7265H39.3167V68.1099H39.8257V69.1779H41.0148V68.1099H41.5203Z" fill="white"/>
<path d="M44.0194 68.5549H43.1828V70.7265H42.6808V68.5549H41.8442V68.1099H44.0194V68.5549Z" fill="white"/>
<path d="M46.4792 70.7265V68.9928L45.8028 70.2851H45.5287L44.8559 68.9928V70.7265H44.3503V68.1099H44.895L45.6675 69.598L46.4507 68.1099H46.9919V70.7265H46.4792Z" fill="white"/>
<path d="M47.533 70.7265V68.1099H48.0598V70.2815H49.3948V70.7265H47.533Z" fill="white"/>
<path d="M60.2529 103.813H42.0791V80.0786H55.7815L60.2529 84.55V103.813Z" fill="#FFC727"/>
<path opacity="0.6" d="M60.2529 103.813H42.0791V80.0786H55.7815L60.2529 84.55V103.813Z" fill="white"/>
<path d="M60.2529 84.55H55.7815V80.0786L60.2529 84.55Z" fill="#FFC727"/>
<path d="M46.2798 88.441C46.2805 88.7093 46.3607 88.9713 46.5104 89.194C46.66 89.4166 46.8723 89.5899 47.1204 89.6919C47.3685 89.794 47.6413 89.8201 47.9042 89.7671C48.1672 89.714 48.4086 89.5842 48.5977 89.394C48.7869 89.2039 48.9155 88.9618 48.9671 88.6986C49.0188 88.4354 48.9912 88.1627 48.8879 87.9151C48.7846 87.6676 48.6102 87.4562 48.3867 87.3077C48.1633 87.1593 47.9008 87.0804 47.6326 87.0811C47.2731 87.083 46.9291 87.2271 46.6756 87.4819C46.4221 87.7368 46.2798 88.0816 46.2798 88.441Z" fill="#FFC727"/>
<path d="M48.3733 94.461H57.5617L52.9657 88.8505L48.3733 94.461Z" fill="#FFC727"/>
<path d="M44.7705 94.461H52.3569L48.5619 90.8085L44.7705 94.461Z" fill="#FFC727"/>
<path opacity="0.1" d="M44.7705 94.461H52.3569L48.5619 90.8085L44.7705 94.461Z" fill="black"/>
<path d="M57.5616 85.4863H44.7705V94.461H57.5616V85.4863Z" stroke="#FFC727" stroke-width="2" stroke-miterlimit="10"/>
<path d="M50.7192 95.4293H37.6682V100.83H50.7192V95.4293Z" fill="#455A64"/>
<path d="M40.7512 98.1919C40.7516 98.0303 40.7805 97.87 40.8367 97.7184C40.8935 97.5636 40.9793 97.4211 41.0894 97.2984C41.2045 97.1738 41.3422 97.0723 41.4953 96.9993C41.6662 96.9217 41.8522 96.8828 42.04 96.8854C42.2597 96.8793 42.4767 96.9348 42.6665 97.0456C42.8338 97.1431 42.9696 97.2864 43.0581 97.4586L42.6665 97.7291C42.6111 97.5976 42.5117 97.4893 42.3853 97.423C42.3294 97.3922 42.2695 97.3694 42.2073 97.3553C42.1474 97.3441 42.0866 97.3382 42.0257 97.3375C41.9097 97.3348 41.7949 97.3605 41.6911 97.4123C41.6004 97.4641 41.5206 97.533 41.4561 97.6152C41.3913 97.6991 41.343 97.7945 41.3137 97.8964C41.2474 98.1061 41.2474 98.3311 41.3137 98.5408C41.3485 98.6432 41.4016 98.7385 41.4704 98.822C41.538 98.9034 41.6216 98.97 41.716 99.0178C41.8113 99.0683 41.9178 99.094 42.0257 99.0926C42.088 99.0923 42.1501 99.0852 42.2108 99.0712C42.2745 99.0566 42.3357 99.0326 42.3924 99C42.4532 98.969 42.5075 98.9267 42.5526 98.8754C42.6037 98.8228 42.6447 98.7613 42.6736 98.6939L43.0902 98.9324C43.0481 99.0305 42.9863 99.119 42.9086 99.1923C42.8322 99.2692 42.7446 99.334 42.6487 99.3845C42.549 99.4353 42.4439 99.4747 42.3354 99.502C42.2296 99.5288 42.1207 99.542 42.0115 99.5412C41.8337 99.5429 41.6581 99.5027 41.4988 99.4237C41.348 99.3474 41.2128 99.2435 41.1001 99.1175C40.987 98.9897 40.8977 98.8426 40.8367 98.6832C40.7769 98.5265 40.7479 98.3597 40.7512 98.1919Z" fill="white"/>
<path d="M44.9984 97.5867C44.9702 97.5596 44.9392 97.5357 44.9058 97.5155C44.7882 97.4454 44.6611 97.3927 44.5284 97.3589C44.4518 97.3387 44.3727 97.3291 44.2935 97.3304C44.1839 97.3229 44.0746 97.349 43.9802 97.4051C43.9465 97.4309 43.9195 97.4644 43.9015 97.5028C43.8836 97.5413 43.8751 97.5835 43.877 97.6259C43.8757 97.6728 43.8894 97.719 43.9161 97.7576C43.9475 97.7967 43.9862 97.8293 44.03 97.8537C44.0894 97.8831 44.1514 97.907 44.2152 97.9249C44.2899 97.9498 44.3789 97.9712 44.475 97.9961C44.5712 98.021 44.7207 98.0673 44.831 98.1065C44.9278 98.141 45.0181 98.1915 45.098 98.256C45.169 98.3124 45.2262 98.3842 45.2654 98.466C45.3079 98.5623 45.3286 98.6669 45.3259 98.7722C45.3282 98.8958 45.3 99.018 45.244 99.1282C45.1923 99.2242 45.1192 99.307 45.0304 99.3703C44.9362 99.4337 44.8313 99.4795 44.7207 99.5055C44.6037 99.5307 44.4844 99.5438 44.3647 99.5447C44.167 99.5445 43.9703 99.5157 43.7809 99.4593C43.5962 99.4035 43.4219 99.3182 43.2646 99.2065L43.4889 98.7686C43.5272 98.7999 43.5676 98.8285 43.61 98.8541C43.7557 98.9412 43.9126 99.0083 44.0763 99.0534C44.1729 99.0777 44.2722 99.0897 44.3718 99.089C44.653 99.089 44.7919 99 44.7919 98.8185C44.7941 98.767 44.7777 98.7164 44.7456 98.6761C44.7076 98.6317 44.6602 98.5965 44.6068 98.5728C44.5381 98.5392 44.4667 98.5118 44.3932 98.4909L44.1119 98.4091C44.0013 98.3804 43.893 98.3435 43.788 98.2987C43.7035 98.2627 43.6254 98.2135 43.5566 98.1527C43.4965 98.0999 43.449 98.0342 43.4177 97.9605C43.3862 97.8775 43.3705 97.7894 43.3714 97.7006C43.3687 97.5778 43.3943 97.456 43.4462 97.3446C43.4943 97.2443 43.5635 97.1557 43.6491 97.0847C43.7409 97.0145 43.8446 96.9614 43.9553 96.9281C44.0708 96.8932 44.1907 96.8752 44.3113 96.8747C44.485 96.8731 44.6575 96.9032 44.8204 96.9637C44.9591 97.0231 45.0905 97.0984 45.212 97.188L44.9984 97.5867Z" fill="white"/>
<path d="M47.2624 97.5867C47.2321 97.5607 47.2 97.5369 47.1663 97.5155C47.0497 97.4436 46.9223 97.3907 46.7889 97.3589C46.7135 97.3387 46.6356 97.3291 46.5575 97.3304C46.4479 97.322 46.3383 97.3481 46.2443 97.4051C46.2101 97.4305 46.1828 97.4639 46.1647 97.5025C46.1467 97.541 46.1386 97.5834 46.141 97.6259C46.1387 97.6724 46.1511 97.7185 46.1766 97.7576C46.208 97.7967 46.2467 97.8293 46.2905 97.8537C46.3499 97.8831 46.4119 97.907 46.4757 97.9249C46.5504 97.9498 46.6394 97.9712 46.7355 97.9961C46.8317 98.021 46.9812 98.0673 47.0915 98.1065C47.1887 98.1402 47.2791 98.1908 47.3585 98.256C47.4295 98.3124 47.4867 98.3842 47.5259 98.466C47.5684 98.5623 47.5891 98.6669 47.5864 98.7722C47.5887 98.8958 47.5605 99.018 47.5045 99.1282C47.4554 99.226 47.3818 99.3094 47.2909 99.3703C47.1967 99.4337 47.0918 99.4795 46.9812 99.5055C46.8642 99.5309 46.7449 99.544 46.6252 99.5447C46.4275 99.5445 46.2308 99.5157 46.0413 99.4593C45.8571 99.4027 45.6829 99.3174 45.5251 99.2065L45.753 98.7686C45.7891 98.801 45.8285 98.8297 45.8705 98.8541C45.9374 98.8933 46.0063 98.9289 46.0769 98.9609C46.1607 98.9992 46.2477 99.0302 46.3368 99.0534C46.4334 99.0777 46.5327 99.0897 46.6323 99.089C46.9135 99.089 47.0524 99 47.0524 98.8185C47.0546 98.767 47.0382 98.7164 47.0061 98.6761C46.9687 98.6326 46.9226 98.5975 46.8708 98.5728C46.8007 98.5399 46.7281 98.5125 46.6537 98.4909L46.376 98.4091C46.2641 98.381 46.1546 98.3441 46.0485 98.2987C45.964 98.2627 45.8859 98.2135 45.8171 98.1527C45.757 98.0999 45.7095 98.0342 45.6782 97.9605C45.6467 97.8775 45.631 97.7894 45.6319 97.7006C45.6292 97.5778 45.6548 97.456 45.7067 97.3446C45.7549 97.2434 45.8255 97.1545 45.9132 97.0847C46.0037 97.0145 46.1062 96.9614 46.2158 96.9281C46.3314 96.8936 46.4512 96.8757 46.5718 96.8747C46.7456 96.8723 46.9182 96.9025 47.0809 96.9637C47.2235 97.0154 47.3597 97.0835 47.4867 97.1666L47.2624 97.5867Z" fill="white"/>
<path d="M40.3667 91.702H40.0107" stroke="#263238" stroke-width="0.75" stroke-miterlimit="10"/>
<path d="M39.3592 91.702H37.0808" stroke="#263238" stroke-width="0.75" stroke-miterlimit="10" stroke-dasharray="1.83 1.83"/>
<path d="M36.7569 91.702H36.4009V91.346" stroke="#263238" stroke-width="0.75" stroke-miterlimit="10"/>
<path d="M36.4009 90.6411V59.9717" stroke="#263238" stroke-width="0.75" stroke-miterlimit="10" stroke-dasharray="1.98 1.98"/>
<path d="M36.4009 59.6193V59.2633H36.7569" stroke="#263238" stroke-width="0.75" stroke-miterlimit="10"/>
<path d="M37.3301 59.2633H39.3486" stroke="#263238" stroke-width="0.75" stroke-miterlimit="10" stroke-dasharray="1.62 1.62"/>
<path d="M39.6333 59.2633H39.9893" stroke="#263238" stroke-width="0.75" stroke-miterlimit="10"/>
<path d="M40.3491 91.2997C40.4286 91.2997 40.5064 91.3233 40.5726 91.3675C40.6387 91.4118 40.6903 91.4746 40.7207 91.5481C40.7512 91.6216 40.7591 91.7025 40.7436 91.7805C40.7281 91.8585 40.6898 91.9302 40.6335 91.9865C40.5773 92.0427 40.5056 92.081 40.4275 92.0966C40.3495 92.1121 40.2686 92.1041 40.1951 92.0737C40.1216 92.0432 40.0588 91.9917 40.0146 91.9255C39.9704 91.8594 39.9468 91.7816 39.9468 91.702C39.9477 91.5956 39.9904 91.4938 40.0656 91.4186C40.1409 91.3434 40.2427 91.3007 40.3491 91.2997Z" fill="#263238"/>
<path d="M39.9716 59.6656C40.1938 59.6656 40.3739 59.4855 40.3739 59.2633C40.3739 59.0411 40.1938 58.861 39.9716 58.861C39.7494 58.861 39.5693 59.0411 39.5693 59.2633C39.5693 59.4855 39.7494 59.6656 39.9716 59.6656Z" fill="#263238"/>
<path d="M36.4009 75.4613H32.0435V38.3198H78.6154" stroke="#263238" stroke-width="0.75" stroke-miterlimit="10" stroke-dasharray="2 2"/>
<path d="M78.459 38.8503L79.381 38.3198L78.459 37.7858V38.8503Z" fill="#263238"/>
<path d="M244.839 28.0421H110.011V113.411H244.839V28.0421Z" fill="white"/>
<path d="M244.882 113.454H109.958V28.0136H244.882V113.454ZM110.054 113.365H244.793V28.0848H110.054V113.365Z" fill="#263238"/>
<path d="M244.839 28.0421H110.011V31.328H244.839V28.0421Z" fill="#FFC727"/>
<path d="M113.101 29.6832C113.102 29.8073 113.065 29.9288 112.996 30.0321C112.928 30.1354 112.829 30.2157 112.715 30.2629C112.6 30.31 112.473 30.3218 112.352 30.2967C112.23 30.2715 112.119 30.2107 112.032 30.1219C111.946 30.0331 111.887 29.9205 111.865 29.7984C111.843 29.6763 111.858 29.5503 111.907 29.4366C111.957 29.3229 112.04 29.2267 112.145 29.1603C112.249 29.0938 112.372 29.0602 112.496 29.0638C112.658 29.0675 112.812 29.1344 112.925 29.2502C113.038 29.3659 113.101 29.5214 113.101 29.6832Z" fill="#C7C7C7"/>
<path d="M115.639 29.6832C115.64 29.8067 115.604 29.9277 115.536 30.0307C115.467 30.1337 115.37 30.2141 115.256 30.2617C115.142 30.3093 115.017 30.3219 114.895 30.298C114.774 30.2741 114.663 30.2147 114.576 30.1273C114.488 30.04 114.429 29.9286 114.405 29.8075C114.381 29.6863 114.394 29.5607 114.441 29.4467C114.489 29.3327 114.569 29.2355 114.672 29.1673C114.775 29.0991 114.896 29.0631 115.02 29.0638C115.184 29.0638 115.341 29.1291 115.458 29.2452C115.574 29.3614 115.639 29.5189 115.639 29.6832Z" fill="white"/>
<path d="M118.192 29.6832C118.192 29.8067 118.156 29.9277 118.088 30.0307C118.02 30.1337 117.923 30.2141 117.809 30.2617C117.695 30.3093 117.569 30.3219 117.448 30.298C117.327 30.2741 117.216 30.2147 117.128 30.1273C117.041 30.04 116.982 29.9286 116.958 29.8075C116.934 29.6863 116.946 29.5607 116.994 29.4467C117.042 29.3327 117.122 29.2355 117.225 29.1673C117.328 29.0991 117.449 29.0631 117.572 29.0638C117.737 29.0638 117.894 29.1291 118.01 29.2452C118.127 29.3614 118.192 29.5189 118.192 29.6832Z" fill="#455A64"/>
<path d="M123.813 31.3244H113.845V75.6072H123.813V31.3244Z" fill="#EBEBEB"/>
<path d="M236.477 36.7855H118.374V47.5117H236.477V36.7855Z" fill="#FFC727"/>
<path d="M126.533 40.9364H123.813V41.3778H126.533V40.9364Z" fill="white"/>
<path d="M126.533 42.9193H123.813V43.3608H126.533V42.9193Z" fill="white"/>
<path d="M126.533 41.9403H123.813V42.3817H126.533V41.9403Z" fill="white"/>
<path d="M158.797 40.5377H132.617V43.7631H158.797V40.5377Z" fill="white"/>
<path d="M158.829 43.788H132.585V40.495H158.829V43.788Z" fill="white"/>
<path d="M158.829 40.5021H155.536V43.7951H158.829V40.5021Z" fill="#455A64"/>
<path d="M158.206 43.0546L157.907 43.2789L157.356 42.5669L157.156 42.2999C157.197 42.2821 157.235 42.2594 157.27 42.2322C157.338 42.1816 157.39 42.1141 157.423 42.0364L157.637 42.3177L158.206 43.0546Z" fill="white"/>
<path d="M157.619 41.3387C157.524 41.2164 157.397 41.1235 157.251 41.0712C157.106 41.0188 156.948 41.0091 156.798 41.0431C156.647 41.0771 156.509 41.1535 156.4 41.2633C156.291 41.3731 156.216 41.5117 156.183 41.6627C156.15 41.8138 156.161 41.9711 156.215 42.1161C156.268 42.2612 156.362 42.3879 156.485 42.4813C156.609 42.5748 156.756 42.6312 156.91 42.6438C157.064 42.6565 157.218 42.6248 157.355 42.5527C157.395 42.5311 157.433 42.5061 157.469 42.4779C157.534 42.4289 157.59 42.37 157.636 42.3035C157.738 42.1621 157.791 41.9919 157.787 41.8181C157.784 41.6443 157.725 41.4762 157.619 41.3387ZM157.263 42.218C157.228 42.2452 157.189 42.2679 157.149 42.2857C157.039 42.3291 156.918 42.3316 156.807 42.2925C156.696 42.2535 156.603 42.1756 156.544 42.0732C156.486 41.9709 156.467 41.8509 156.491 41.7356C156.514 41.6202 156.578 41.5172 156.672 41.4455C156.756 41.3811 156.859 41.346 156.965 41.3456C157.071 41.3451 157.175 41.3793 157.26 41.4429C157.345 41.5065 157.407 41.5961 157.436 41.6981C157.465 41.8001 157.461 41.9089 157.423 42.008C157.392 42.0908 157.339 42.1635 157.27 42.218H157.263Z" fill="white"/>
<path d="M133.468 41.1714H133.293V43.1294H133.468V41.1714Z" fill="#C7C7C7"/>
<path d="M231.019 41.6591H219.705V42.6417H231.019V41.6591Z" fill="white"/>
<path d="M213.657 41.6591H202.343V42.6417H213.657V41.6591Z" fill="white"/>
<path opacity="0.1" d="M196.295 41.6591H184.981V42.6417H196.295V41.6591Z" fill="black"/>
<path d="M178.932 41.6591H167.619V42.6417H178.932V41.6591Z" fill="white"/>
<path d="M244.839 80.933H110.011V91.6593H244.839V80.933Z" fill="#FFC727"/>
<path d="M144.468 96.7252H118.374V97.932H144.468V96.7252Z" fill="#455A64"/>
<path d="M118.374 100.862L122.56 100.798L126.747 100.759L135.12 100.727L143.493 100.759L147.679 100.794L151.866 100.862L147.679 100.926L143.493 100.965L135.12 100.994L126.747 100.965L122.56 100.926L118.374 100.862Z" fill="#A6A6A6"/>
<path d="M118.374 102.507L122.56 102.443L126.747 102.407L135.12 102.375L143.493 102.403L147.679 102.443L151.866 102.507L147.679 102.574L143.493 102.61L135.12 102.642L126.747 102.61L122.56 102.574L118.374 102.507Z" fill="#A6A6A6"/>
<path d="M118.374 104.155L122.56 104.091L126.747 104.052L135.12 104.02L143.493 104.052L147.679 104.091L151.866 104.155L147.679 104.219L143.493 104.258L135.12 104.287L126.747 104.258L122.56 104.219L118.374 104.155Z" fill="#A6A6A6"/>
<path d="M118.374 105.8L122.56 105.736L126.747 105.7L135.12 105.668L143.493 105.7L147.679 105.736L151.866 105.8L147.679 105.867L143.493 105.903L135.12 105.935L126.747 105.903L122.56 105.867L118.374 105.8Z" fill="#A6A6A6"/>
<path d="M118.374 107.448C119.769 107.394 121.165 107.366 122.56 107.345L126.747 107.316L130.933 107.345C132.329 107.366 133.724 107.391 135.12 107.448C133.724 107.505 132.329 107.53 130.933 107.551L126.736 107.583L122.549 107.551C121.165 107.53 119.769 107.512 118.374 107.448Z" fill="#A6A6A6"/>
<path d="M186.772 96.7252H160.677V97.932H186.772V96.7252Z" fill="#455A64"/>
<path d="M160.677 100.862L164.863 100.798L169.05 100.759L177.423 100.727L185.796 100.759L189.983 100.794L194.169 100.862L189.983 100.926L185.796 100.965L177.423 100.994L169.05 100.965L164.863 100.926L160.677 100.862Z" fill="#A6A6A6"/>
<path d="M160.677 102.507L164.863 102.443L169.05 102.407L177.423 102.375L185.796 102.403L189.983 102.443L194.169 102.507L189.983 102.574L185.796 102.61L177.423 102.642L169.05 102.61L164.863 102.574L160.677 102.507Z" fill="#A6A6A6"/>
<path d="M160.677 104.155L164.863 104.091L169.05 104.052L177.423 104.02L185.796 104.052L189.983 104.091L194.169 104.155L189.983 104.219L185.796 104.258L177.423 104.287L169.05 104.258L164.863 104.219L160.677 104.155Z" fill="#A6A6A6"/>
<path d="M160.677 105.8L164.863 105.736L169.05 105.7L177.423 105.668L185.796 105.7L189.983 105.736L194.169 105.8L189.983 105.867L185.796 105.903L177.423 105.935L169.05 105.903L164.863 105.867L160.677 105.8Z" fill="#A6A6A6"/>
<path d="M160.677 107.448C162.072 107.394 163.468 107.366 164.863 107.345L169.05 107.316L173.236 107.345C174.632 107.366 176.027 107.391 177.423 107.448C176.027 107.505 174.632 107.53 173.236 107.551L169.05 107.583L164.863 107.551C163.468 107.53 162.072 107.512 160.677 107.448Z" fill="#A6A6A6"/>
<path d="M229.075 96.7252H202.98V97.932H229.075V96.7252Z" fill="#455A64"/>
<path d="M202.98 100.862L207.167 100.798L211.354 100.759L219.727 100.727L228.103 100.759L232.29 100.794L236.477 100.862L232.29 100.926L228.103 100.965L219.727 100.994L211.354 100.965L207.167 100.926L202.98 100.862Z" fill="#A6A6A6"/>
<path d="M202.98 102.507L207.167 102.443L211.354 102.407L219.727 102.375L228.103 102.403L232.29 102.443L236.477 102.507L232.29 102.574L228.103 102.61L219.727 102.642L211.354 102.61L207.167 102.574L202.98 102.507Z" fill="#A6A6A6"/>
<path d="M202.98 104.155L207.167 104.091L211.354 104.052L219.727 104.02L228.103 104.052L232.29 104.091L236.477 104.155L232.29 104.219L228.103 104.258L219.727 104.287L211.354 104.258L207.167 104.219L202.98 104.155Z" fill="#A6A6A6"/>
<path d="M202.98 105.8L207.167 105.736L211.354 105.7L219.727 105.668L228.103 105.7L232.29 105.736L236.477 105.8L232.29 105.867L228.103 105.903L219.727 105.935L211.354 105.903L207.167 105.867L202.98 105.8Z" fill="#A6A6A6"/>
<path d="M202.98 107.448C204.376 107.394 205.772 107.366 207.167 107.345L211.354 107.316L215.54 107.345C216.936 107.366 218.331 107.391 219.727 107.448C218.331 107.505 216.936 107.53 215.54 107.551L211.354 107.583L207.167 107.551C205.768 107.53 204.376 107.512 202.98 107.448Z" fill="#A6A6A6"/>
<path d="M133.222 76.9493H156.042V54.1297H133.222V76.9493Z" fill="#EBEBEB"/>
<path d="M134.564 75.6072H154.7V55.4719H134.564V75.6072Z" fill="#455A64"/>
<path d="M137.807 60.2744C137.727 60.6744 137.778 61.0896 137.952 61.4585C138.127 61.8275 138.415 62.1306 138.775 62.3231C139.134 62.5155 139.546 62.5872 139.95 62.5274C140.354 62.4676 140.727 62.2796 141.016 61.9911C141.304 61.7026 141.492 61.329 141.552 60.9254C141.612 60.5218 141.54 60.1097 141.348 59.75C141.155 59.3903 140.852 59.102 140.483 58.9278C140.114 58.7536 139.699 58.7028 139.299 58.7827C138.931 58.8563 138.593 59.0372 138.327 59.3027C138.062 59.5681 137.881 59.9062 137.807 60.2744Z" fill="#37474F"/>
<path d="M140.146 70.3812H154.7L147.423 62.2217L140.146 70.3812Z" fill="#37474F"/>
<path d="M134.564 70.3812H146.579L140.57 65.0661L134.564 70.3812Z" fill="#263238"/>
<path d="M154.7 70.3812H134.564V75.6072H154.7V70.3812Z" fill="#263238"/>
<path d="M198.808 76.9493H221.627V54.1297H198.808V76.9493Z" fill="#EBEBEB"/>
<path d="M200.15 75.6072H220.286V55.4719H200.15V75.6072Z" fill="#455A64"/>
<path d="M203.393 60.2743C203.314 60.6735 203.365 61.0877 203.539 61.4556C203.713 61.8235 204.001 62.1256 204.36 62.3174C204.719 62.5092 205.13 62.5805 205.533 62.5207C205.936 62.461 206.308 62.2733 206.596 61.9855C206.884 61.6977 207.072 61.325 207.131 60.9224C207.191 60.5198 207.12 60.1086 206.928 59.7497C206.736 59.3907 206.434 59.1029 206.066 58.9287C205.698 58.7546 205.284 58.7034 204.885 58.7827C204.517 58.8558 204.178 59.0366 203.913 59.3021C203.647 59.5676 203.466 59.906 203.393 60.2743Z" fill="#37474F"/>
<path d="M205.732 70.3812H220.286L213.009 62.2217L205.732 70.3812Z" fill="#37474F"/>
<path d="M200.146 70.3812H212.161L206.156 65.0661L200.146 70.3812Z" fill="#263238"/>
<path d="M220.282 70.3812H200.146V75.6072H220.282V70.3812Z" fill="#263238"/>
<path d="M166.01 76.9493H188.833V54.1297H166.01V76.9493Z" fill="#EBEBEB"/>
<path d="M167.355 75.6072H187.491V55.4719H167.355V75.6072Z" fill="#FFC727"/>
<path opacity="0.1" d="M170.598 60.2744C170.518 60.6744 170.569 61.0896 170.743 61.4585C170.918 61.8275 171.206 62.1306 171.566 62.3231C171.925 62.5155 172.338 62.5872 172.741 62.5274C173.145 62.4676 173.518 62.2796 173.807 61.9911C174.095 61.7026 174.283 61.329 174.343 60.9254C174.403 60.5218 174.331 60.1097 174.139 59.75C173.946 59.3903 173.643 59.102 173.274 58.9278C172.905 58.7536 172.49 58.7028 172.09 58.7827C171.722 58.8563 171.384 59.0372 171.118 59.3027C170.853 59.5681 170.672 59.9062 170.598 60.2744Z" fill="black"/>
<path opacity="0.1" d="M172.938 70.3812H187.491L180.214 62.2217L172.938 70.3812Z" fill="black"/>
<path d="M167.355 70.3812H179.37L173.365 65.0661L167.355 70.3812Z" fill="#FFC727"/>
<g opacity="0.2">
<path d="M167.355 70.3812H179.37L173.365 65.0661L167.355 70.3812Z" fill="black"/>
</g>
<path d="M187.491 70.3812H167.355V75.6072H187.491V70.3812Z" fill="#FFC727"/>
<path opacity="0.2" d="M187.491 70.3812H167.355V75.6072H187.491V70.3812Z" fill="black"/>
<path d="M134.564 83.8273L140.136 83.7632L145.707 83.7241L156.854 83.692L167.996 83.7241L173.568 83.7597L179.143 83.8273L173.568 83.8914L167.996 83.9305L156.854 83.959L145.707 83.9305L140.136 83.8914L134.564 83.8273Z" fill="white"/>
<path d="M134.564 85.472L140.136 85.4079L145.707 85.3723L156.854 85.3403L167.996 85.3723L173.568 85.4079L179.143 85.472L173.568 85.5396L167.996 85.5752L156.854 85.6073L145.707 85.5752L140.136 85.5396L134.564 85.472Z" fill="white"/>
<path d="M134.564 87.1203L140.136 87.0562L145.707 87.0171L156.854 86.9886L167.996 87.0171L173.568 87.0562L179.143 87.1203L173.568 87.1844L167.996 87.2235L156.854 87.252L145.707 87.2235L140.136 87.1844L134.564 87.1203Z" fill="white"/>
<path d="M134.568 88.7686C136.423 88.7116 138.281 88.6867 140.139 88.6653L145.711 88.6333L151.282 88.6653C153.14 88.6867 154.999 88.7116 156.857 88.7686C154.999 88.822 153.14 88.8469 151.282 88.8683L145.711 88.9003L140.139 88.8683C138.277 88.8469 136.419 88.822 134.568 88.7686Z" fill="white"/>
<path d="M120 87.932V84.6639L118.413 86.1804L120 87.932Z" fill="white"/>
<path d="M234.931 84.6639V87.932L236.519 86.4154L234.931 84.6639Z" fill="white"/>
<path d="M89.5946 36.0201C89.5946 37.3897 90.0008 38.7286 90.7618 39.8674C91.5228 41.0061 92.6044 41.8936 93.8698 42.4176C95.1353 42.9415 96.5277 43.0785 97.871 42.811C99.2142 42.5435 100.448 41.8837 101.416 40.915C102.384 39.9463 103.044 38.7122 103.31 37.3688C103.577 36.0254 103.44 34.633 102.915 33.3679C102.39 32.1027 101.502 31.0215 100.363 30.2611C99.224 29.5007 97.8849 29.0952 96.5152 29.0959C94.68 29.0987 92.9208 29.8293 91.6235 31.1273C90.3261 32.4253 89.5965 34.1849 89.5946 36.0201ZM91.0684 36.0201C91.0677 34.9418 91.3869 33.8876 91.9855 32.9907C92.5841 32.0939 93.4353 31.3947 94.4314 30.9818C95.4275 30.5688 96.5236 30.4605 97.5812 30.6707C98.6388 30.8809 99.6103 31.4001 100.373 32.1626C101.135 32.925 101.654 33.8965 101.865 34.9541C102.075 36.0117 101.967 37.1079 101.554 38.1039C101.141 39.1 100.441 39.9512 99.5446 40.5498C98.6478 41.1485 97.5935 41.4676 96.5152 41.4669C95.0707 41.4669 93.6852 40.893 92.6638 39.8716C91.6423 38.8501 91.0684 37.4647 91.0684 36.0201ZM89.5946 36.0201C89.5946 37.3897 90.0008 38.7286 90.7618 39.8674C91.5228 41.0061 92.6044 41.8936 93.8698 42.4176C95.1353 42.9415 96.5277 43.0785 97.871 42.811C99.2142 42.5435 100.448 41.8837 101.416 40.915C102.384 39.9463 103.044 38.7122 103.31 37.3688C103.577 36.0254 103.44 34.633 102.915 33.3679C102.39 32.1027 101.502 31.0215 100.363 30.2611C99.224 29.5007 97.8849 29.0952 96.5152 29.0959C94.68 29.0987 92.9208 29.8293 91.6235 31.1273C90.3261 32.4253 89.5965 34.1849 89.5946 36.0201ZM91.0684 36.0201C91.0677 34.9418 91.3869 33.8876 91.9855 32.9907C92.5841 32.0939 93.4353 31.3947 94.4314 30.9818C95.4275 30.5688 96.5236 30.4605 97.5812 30.6707C98.6388 30.8809 99.6103 31.4001 100.373 32.1626C101.135 32.925 101.654 33.8965 101.865 34.9541C102.075 36.0117 101.967 37.1079 101.554 38.1039C101.141 39.1 100.441 39.9512 99.5446 40.5498C98.6478 41.1485 97.5935 41.4676 96.5152 41.4669C95.0707 41.4669 93.6852 40.893 92.6638 39.8716C91.6423 38.8501 91.0684 37.4647 91.0684 36.0201ZM84.8491 36.0201C84.8498 38.3281 85.5349 40.5842 86.8178 42.5028C88.1007 44.4215 89.9237 45.9167 92.0563 46.7993C94.1889 47.6819 96.5354 47.9123 98.7989 47.4613C101.062 47.0103 103.141 45.8983 104.773 44.2657C106.405 42.6332 107.515 40.5535 107.965 38.2897C108.415 36.0259 108.183 33.6795 107.299 31.5475C106.415 29.4154 104.919 27.5933 102.999 26.3116C101.08 25.0299 98.8233 24.3462 96.5152 24.3469C94.9826 24.3469 93.465 24.6489 92.0492 25.2356C90.6333 25.8223 89.3469 26.6823 88.2635 27.7663C87.1801 28.8504 86.321 30.1373 85.7351 31.5535C85.1493 32.9697 84.8482 34.4875 84.8491 36.0201ZM88.9324 36.0201C88.9324 34.5195 89.3775 33.0526 90.2112 31.805C91.045 30.5573 92.23 29.585 93.6164 29.0109C95.0029 28.4368 96.5284 28.2868 98.0001 28.5798C99.4719 28.8728 100.824 29.5957 101.884 30.657C102.945 31.7183 103.668 33.0704 103.96 34.5423C104.252 36.0141 104.101 37.5396 103.527 38.9257C102.952 40.3119 101.979 41.4965 100.731 42.3297C99.4829 43.1628 98.0158 43.6072 96.5152 43.6065C94.5047 43.6027 92.5776 42.8021 91.1563 41.3801C89.735 39.9581 88.9353 38.0306 88.9324 36.0201ZM89.5946 36.0201C89.5946 37.3897 90.0008 38.7286 90.7618 39.8674C91.5228 41.0061 92.6044 41.8936 93.8698 42.4176C95.1353 42.9415 96.5277 43.0785 97.871 42.811C99.2142 42.5435 100.448 41.8837 101.416 40.915C102.384 39.9463 103.044 38.7122 103.31 37.3688C103.577 36.0254 103.44 34.633 102.915 33.3679C102.39 32.1027 101.502 31.0215 100.363 30.2611C99.224 29.5007 97.8849 29.0952 96.5152 29.0959C94.68 29.0987 92.9208 29.8293 91.6235 31.1273C90.3261 32.4253 89.5965 34.1849 89.5946 36.0201ZM91.0684 36.0201C91.0677 34.9418 91.3869 33.8876 91.9855 32.9907C92.5841 32.0939 93.4353 31.3947 94.4314 30.9818C95.4275 30.5688 96.5236 30.4605 97.5812 30.6707C98.6388 30.8809 99.6103 31.4001 100.373 32.1626C101.135 32.925 101.654 33.8965 101.865 34.9541C102.075 36.0117 101.967 37.1079 101.554 38.1039C101.141 39.1 100.441 39.9512 99.5446 40.5498C98.6478 41.1485 97.5935 41.4676 96.5152 41.4669C95.0707 41.4669 93.6852 40.893 92.6638 39.8716C91.6423 38.8501 91.0684 37.4647 91.0684 36.0201Z" fill="#FFC727"/>
<path d="M95.1479 24.5604H97.8179L97.5509 21.894H95.4114L95.1479 24.5604Z" fill="#FFC727"/>
<path d="M101.061 25.4113L103.375 26.7463L104.475 24.3041L102.624 23.2325L101.061 25.4113Z" fill="#FFC727"/>
<path d="M105.757 29.103L107.092 31.417L109.267 29.8506L108.199 27.9994L105.757 29.103Z" fill="#FFC727"/>
<path d="M107.975 34.6459V37.3195L110.641 37.0525V34.9129L107.975 34.6459Z" fill="#FFC727"/>
<path d="M107.128 40.5591L105.789 42.8731L108.231 43.9767L109.303 42.1255L107.128 40.5591Z" fill="#FFC727"/>
<path d="M103.432 45.2547L101.118 46.5933L102.685 48.7684L104.536 47.6969L103.432 45.2547Z" fill="#FFC727"/>
<path d="M97.8894 47.4762H95.2158L95.4828 50.1426H97.6224L97.8894 47.4762Z" fill="#FFC727"/>
<path d="M91.9762 46.6253L89.6622 45.2903L88.5586 47.7325L90.4134 48.8041L91.9762 46.6253Z" fill="#FFC727"/>
<path d="M87.2803 42.9336L85.9418 40.6196L83.7666 42.1825L84.8382 44.0372L87.2803 42.9336Z" fill="#FFC727"/>
<path d="M85.059 37.3871V34.7171L82.3926 34.9841V37.1237L85.059 37.3871Z" fill="#FFC727"/>
<path d="M85.9097 31.4775L87.2447 29.1635L84.8025 28.0599L83.731 29.9111L85.9097 31.4775Z" fill="#FFC727"/>
<path d="M89.6016 26.7783L91.9156 25.4433L90.3528 23.2682L88.498 24.3362L89.6016 26.7783Z" fill="#FFC727"/>
<path d="M67.3945 25.4184C67.359 26.7615 67.7226 28.0849 68.4394 29.2213C69.1561 30.3577 70.1937 31.256 71.4211 31.8026C72.6484 32.3492 74.0102 32.5196 75.3343 32.2921C76.6585 32.0647 77.8854 31.4497 78.86 30.5249C79.8346 29.6001 80.5131 28.4071 80.8096 27.0967C81.1061 25.7863 81.0073 24.4174 80.5258 23.1631C80.0442 21.9089 79.2015 20.8256 78.1043 20.0503C77.007 19.275 75.7045 18.8425 74.3614 18.8075C73.4698 18.7838 72.5822 18.9361 71.7495 19.2555C70.9167 19.575 70.1551 20.0554 69.5081 20.6694C68.8611 21.2833 68.3414 22.0187 67.9787 22.8336C67.6161 23.6485 67.4175 24.5268 67.3945 25.4184ZM71.0114 25.5145C71.0278 24.8874 71.2299 24.2791 71.592 23.7668C71.9541 23.2544 72.4601 22.8609 73.0458 22.6362C73.6316 22.4114 74.2709 22.3653 74.8828 22.5039C75.4947 22.6425 76.0518 22.9594 76.4836 23.4146C76.9154 23.8698 77.2025 24.4428 77.3086 25.0612C77.4147 25.6796 77.335 26.3155 77.0796 26.8886C76.8243 27.4617 76.4047 27.9462 75.8739 28.2808C75.3432 28.6154 74.7251 28.7851 74.0979 28.7684C73.2572 28.746 72.4598 28.3907 71.881 27.7805C71.3022 27.1703 70.9894 26.3553 71.0114 25.5145Z" fill="#EBEBEB"/>
<path d="M73.0513 19.0531L75.6608 19.1243L75.5646 17.2731L73.2435 17.209L73.0513 19.0531Z" fill="#EBEBEB"/>
<path d="M77.9961 20.0641L79.7939 21.9616L81.0363 20.5839L79.4379 18.9L77.9961 20.0641Z" fill="#EBEBEB"/>
<path d="M80.7797 24.2792L80.7085 26.8887L82.5597 26.7925L82.6238 24.4714L80.7797 24.2792Z" fill="#EBEBEB"/>
<path d="M79.7691 29.2241L77.8716 31.0219L79.2493 32.2643L80.9367 30.6659L79.7691 29.2241Z" fill="#EBEBEB"/>
<path d="M75.5538 32.008L72.9443 31.9368L73.0405 33.7915L75.3616 33.852L75.5538 32.008Z" fill="#EBEBEB"/>
<path d="M70.6091 30.9969L68.8113 29.0994L67.5688 30.4771L69.1673 32.1646L70.6091 30.9969Z" fill="#EBEBEB"/>
<path d="M67.825 26.7819L67.8962 24.1724L66.045 24.2685L65.981 26.5897L67.825 26.7819Z" fill="#EBEBEB"/>
<path d="M68.8361 21.8371L70.7336 20.0393L69.3559 18.7968L67.6685 20.3988L68.8361 21.8371Z" fill="#EBEBEB"/>
<path d="M75.9881 23.9339L73.7596 23.2717L72.0757 24.8702L72.6239 27.1272L74.8489 27.7894L76.5399 26.1909L75.9881 23.9339ZM74.2829 26.2657C74.1369 26.2621 73.9953 26.2152 73.876 26.1309C73.7567 26.0467 73.6652 25.9289 73.6129 25.7926C73.5607 25.6562 73.5502 25.5074 73.5826 25.365C73.6151 25.2227 73.6892 25.0932 73.7954 24.993C73.9016 24.8928 74.0352 24.8264 74.1792 24.8022C74.3232 24.7781 74.4712 24.7973 74.6043 24.8573C74.7374 24.9174 74.8496 25.0157 74.9268 25.1397C75.0039 25.2636 75.0425 25.4077 75.0376 25.5537C75.0311 25.7479 74.9481 25.9317 74.8068 26.065C74.6654 26.1984 74.4771 26.2705 74.2829 26.2657Z" fill="#EBEBEB"/>
<path d="M96.4829 20.0143V18.1525H138.53V25.2547" stroke="#263238" stroke-width="0.75" stroke-miterlimit="10" stroke-dasharray="2 2"/>
<path d="M137.996 25.1016L138.53 26.0236L139.061 25.1016H137.996Z" fill="#263238"/>
<path d="M233.223 132.916C233.57 134.186 233.8 135.485 233.91 136.797C233.874 136.861 233.881 137.103 233.91 137.035C233.91 137.249 234.241 137.209 234.241 136.999C234.241 136.864 234.241 136.725 234.241 136.594C234.999 135.65 236.103 135.056 236.989 134.237C237.706 133.596 238.228 132.765 238.495 131.841C239.236 129.299 238.541 126.604 239.431 124.066C240.197 121.88 241.567 119.979 242.728 117.996C243.953 115.903 244.864 113.699 244.949 111.232C245.021 109.353 244.796 106.85 243.365 105.44C241.849 103.948 239.969 105.066 238.805 106.398C235.437 110.264 233.878 115.148 233.248 120.143C232.892 122.909 232.536 125.689 232.625 128.48C232.676 129.975 232.877 131.461 233.223 132.916Z" fill="#FFC727"/>
<path d="M233.892 137.811C233.707 135.202 233.738 132.583 233.985 129.979C233.985 129.979 233.985 129.979 233.985 129.951C233.942 127.836 233.775 125.725 233.856 123.607C233.96 121.314 234.272 119.036 234.789 116.8C234.789 116.775 234.835 116.8 234.832 116.8C234.417 118.997 234.171 121.223 234.095 123.457C234.052 124.653 234.059 125.85 234.123 127.042C234.145 127.434 234.18 127.825 234.205 128.217C235.086 122.274 237.234 116.59 240.503 111.549C240.549 111.481 240.67 111.549 240.628 111.624C238.291 115.454 236.562 119.624 235.501 123.984C237.121 120.983 239.567 118.512 241.382 115.629C241.382 115.629 241.418 115.629 241.411 115.647C239.78 118.851 237.085 121.389 235.359 124.547C235.06 125.839 234.814 127.138 234.647 128.463C234.403 130.25 234.27 132.052 234.248 133.856C235.234 132.012 236.256 130.25 237.064 128.299C237.085 128.249 237.16 128.281 237.142 128.334C236.455 130.36 235.533 132.542 234.241 134.269C234.241 135.554 234.273 136.836 234.348 138.117C234.551 141.535 235.134 144.91 235.416 148.317C235.416 148.337 235.407 148.357 235.393 148.372C235.378 148.387 235.358 148.395 235.337 148.395C235.317 148.395 235.297 148.387 235.282 148.372C235.267 148.357 235.259 148.337 235.259 148.317C234.565 144.85 234.108 141.34 233.892 137.811Z" fill="#263238"/>
<path d="M237.527 111.428C237.527 111.403 237.573 111.428 237.562 111.428C236.939 113.155 236.587 114.906 236.138 116.675C236.135 116.692 236.126 116.708 236.112 116.718C236.098 116.728 236.081 116.732 236.064 116.729C236.047 116.726 236.031 116.717 236.021 116.703C236.011 116.689 236.007 116.671 236.01 116.654C236.188 114.888 236.833 113.098 237.527 111.428Z" fill="#263238"/>
<path d="M221.667 118.68C222.08 119.692 222.556 120.677 223.091 121.631C224.216 123.674 225.391 125.547 225.583 127.921C225.621 128.986 225.772 130.043 226.035 131.076C226.333 131.954 226.757 132.785 227.292 133.543C228.513 135.323 230.037 136.846 231.165 138.69C232.35 140.61 233.228 142.702 233.767 144.892C233.792 145.013 233.981 144.981 233.953 144.86C233.953 144.86 233.953 144.842 233.953 144.835C233.954 144.827 233.954 144.818 233.953 144.81C234.131 139.709 233.725 134.572 232.173 129.687C231.485 127.539 230.66 125.438 229.702 123.397C228.918 121.592 227.785 119.961 226.366 118.598C225.416 117.743 223.358 116.124 222.009 116.982C221.364 117.395 221.411 118.046 221.667 118.68Z" fill="#FFC727"/>
<path d="M226.79 130.239C227.689 131.723 228.679 133.15 229.755 134.511C230.247 135.155 230.748 135.793 231.243 136.441C231.475 136.743 231.735 137.049 231.955 137.377C231.82 136.839 231.692 136.309 231.553 135.768C230.894 133.19 230.264 130.591 229.282 128.114C228.28 125.715 227.097 123.395 225.743 121.175C225.708 121.115 225.804 121.072 225.839 121.129C226.907 122.909 228.011 124.671 228.915 126.54C229.415 127.581 229.852 128.651 230.222 129.744C229.806 127.42 229.225 125.129 228.484 122.888C228.484 122.866 228.506 122.852 228.513 122.888C229.485 125.151 230.094 127.554 230.318 130.008C230.538 130.67 230.743 131.338 230.93 132.012C231.735 134.86 232.439 137.747 233.095 140.638C233.105 138.738 232.941 136.84 232.603 134.97C232.603 134.924 232.657 134.917 232.667 134.97C233.166 136.921 233.333 138.941 233.162 140.948C233.408 142.048 233.65 143.151 233.874 144.251C234.373 146.601 234.988 148.993 235.298 151.371C235.295 151.382 235.289 151.391 235.28 151.398C235.272 151.404 235.261 151.408 235.25 151.408C235.239 151.408 235.229 151.404 235.22 151.398C235.211 151.391 235.205 151.382 235.202 151.371C234.846 150.086 234.643 148.751 234.355 147.455C234.066 146.159 233.774 144.846 233.468 143.539C233.027 141.641 232.568 139.742 232.091 137.843C231.774 137.149 231.165 136.533 230.706 135.953C230.204 135.316 229.702 134.678 229.214 134.03C228.297 132.831 227.477 131.561 226.761 130.232C226.733 130.232 226.772 130.214 226.79 130.239Z" fill="#263238"/>
<path d="M226.573 128.06C227.696 129.492 228.668 131.036 229.474 132.667C229.474 132.688 229.453 132.71 229.439 132.688C228.463 131.161 227.502 129.62 226.53 128.089C226.512 128.064 226.555 128.035 226.573 128.06Z" fill="#263238"/>
<path d="M248.278 123.532C247.619 124.671 246.854 126.024 247.149 127.405C247.327 128.27 247.961 128.972 248.075 129.855C248.331 131.802 246.391 133.087 244.985 134.009C241.485 136.305 236.683 138.352 236.046 143.044C236.021 143.212 235.736 143.169 235.757 143.005C235.757 143.005 235.757 143.005 235.757 142.977C235.757 142.948 235.757 142.977 235.757 142.948C235.296 140.58 235.318 138.142 235.821 135.782C236.345 133.365 237.398 131.193 238.644 129.068C240.752 125.472 242.984 121.791 246.17 119.039C247.053 118.277 248.858 116.903 249.559 118.626C250.261 120.349 249.089 122.129 248.278 123.532Z" fill="#FFC727"/>
<path d="M245.074 131.136C242.753 133.65 239.065 135.052 237.064 137.872C238.18 133.587 240.29 129.626 243.223 126.309C243.298 126.223 243.177 126.099 243.095 126.181C240.957 128.258 239.247 130.733 238.061 133.468C238.615 131.56 239.34 129.706 240.229 127.929C240.261 127.861 240.165 127.8 240.126 127.868C239.03 129.808 238.248 131.91 237.808 134.095C235.177 140.467 234.932 147.943 235.484 154.661C235.487 154.678 235.497 154.694 235.511 154.705C235.525 154.716 235.542 154.722 235.56 154.722C235.578 154.722 235.595 154.716 235.609 154.705C235.623 154.694 235.633 154.678 235.637 154.661C235.484 149.367 235.569 143.981 236.84 138.812C236.865 138.701 236.893 138.594 236.922 138.488C239.097 135.458 242.771 134.055 245.135 131.175C245.138 131.15 245.099 131.108 245.074 131.136Z" fill="#263238"/>
<path d="M245.611 128.979C244.394 130.097 243.194 131.239 241.973 132.357C241.973 132.357 241.973 132.389 241.973 132.379C243.356 131.449 244.6 130.328 245.668 129.05C245.672 129.041 245.672 129.032 245.671 129.023C245.669 129.014 245.666 129.006 245.66 128.998C245.654 128.991 245.647 128.986 245.638 128.982C245.63 128.979 245.621 128.978 245.611 128.979Z" fill="#263238"/>
<path d="M245.807 124.134C244.729 125.902 243.509 127.58 242.158 129.15C242.156 129.152 242.155 129.154 242.154 129.157C242.153 129.16 242.153 129.162 242.153 129.165C242.153 129.168 242.154 129.171 242.155 129.173C242.156 129.176 242.158 129.178 242.16 129.18C242.162 129.182 242.165 129.183 242.167 129.184C242.17 129.185 242.173 129.185 242.176 129.185C242.178 129.185 242.181 129.184 242.184 129.183C242.186 129.182 242.188 129.18 242.19 129.178C243.704 127.741 244.951 126.046 245.871 124.173C245.893 124.13 245.832 124.091 245.807 124.134Z" fill="#263238"/>
<path d="M240.318 159.399H229.645L231.083 145.038H238.677L240.318 159.399Z" fill="#455A64"/>
<path d="M238.944 147.373H230.848L231.083 145.038H238.677L238.944 147.373Z" fill="#263238"/>
<path d="M239.983 143.447H229.979V145.739H239.983V143.447Z" fill="#455A64"/>
</svg>
