<svg width="249" height="249" viewBox="0 0 249 249" fill="none" xmlns="http://www.w3.org/2000/svg">
<path d="M214.902 59.7451C222.171 59.7451 228.064 53.8522 228.064 46.5829C228.064 39.3137 222.171 33.4208 214.902 33.4208C207.633 33.4208 201.74 39.3137 201.74 46.5829C201.74 53.8522 207.633 59.7451 214.902 59.7451Z" fill="#EBEBEB"/>
<path d="M215.504 59.4363C222.441 59.4363 228.064 53.8131 228.064 46.8767C228.064 39.9402 222.441 34.3171 215.504 34.3171C208.568 34.3171 202.945 39.9402 202.945 46.8767C202.945 53.8131 208.568 59.4363 215.504 59.4363Z" fill="#DBDBDB"/>
<path d="M227.221 47.8429C227.754 41.3684 222.938 35.6874 216.463 35.154C209.989 34.6205 204.308 39.4367 203.774 45.9111C203.241 52.3856 208.057 58.0666 214.532 58.6C221.006 59.1335 226.687 54.3173 227.221 47.8429Z" fill="white"/>
<path opacity="0.5" d="M227.003 44.3817C221.65 47.6237 212.845 52.9523 207.92 55.8706C206.531 54.6964 205.431 53.217 204.708 51.5479L220.983 36.4635C222.504 37.2634 223.831 38.3868 224.871 39.7548C225.911 41.1228 226.639 42.7022 227.003 44.3817Z" fill="#EBEBEB"/>
<path opacity="0.5" d="M227.262 47.3099C227.221 48.6195 226.959 49.9127 226.486 51.1346L211.814 58.0717C211.175 57.8633 210.555 57.5983 209.962 57.2799C214.394 54.6903 222.492 50.029 227.262 47.3099Z" fill="#EBEBEB"/>
<path d="M215.624 35.9656H215.395V37.7484H215.624V35.9656Z" fill="#C7C7C7"/>
<path d="M210.151 37.3613L209.953 37.4758L210.844 39.0198L211.042 38.9053L210.151 37.3613Z" fill="#C7C7C7"/>
<path d="M206.103 41.3106L205.989 41.509L207.533 42.4005L207.647 42.2021L206.103 41.3106Z" fill="#C7C7C7"/>
<path d="M206.381 46.7622H204.599V46.9913H206.381V46.7622Z" fill="#C7C7C7"/>
<path d="M207.541 51.3323L205.997 52.2238L206.111 52.4221L207.655 51.5307L207.541 51.3323Z" fill="#C7C7C7"/>
<path d="M210.854 54.7341L209.964 56.2786L210.162 56.393L211.053 54.8485L210.854 54.7341Z" fill="#C7C7C7"/>
<path d="M215.624 56.0051H215.395V57.788H215.624V56.0051Z" fill="#C7C7C7"/>
<path d="M220.173 54.7227L219.975 54.8373L220.866 56.3813L221.064 56.2667L220.173 54.7227Z" fill="#C7C7C7"/>
<path d="M223.458 51.3299L223.344 51.5283L224.888 52.4197L225.002 52.2214L223.458 51.3299Z" fill="#C7C7C7"/>
<path d="M226.416 46.7622H224.633V46.9913H226.416V46.7622Z" fill="#C7C7C7"/>
<path d="M224.898 41.3151L223.354 42.2068L223.469 42.4052L225.012 41.5135L224.898 41.3151Z" fill="#C7C7C7"/>
<path d="M220.862 37.3713L219.971 38.9158L220.17 39.0302L221.06 37.4858L220.862 37.3713Z" fill="#C7C7C7"/>
<path d="M215.679 36.7723L216.067 47.6686L214.947 47.6536L215.375 36.7673L215.679 36.7723Z" fill="#C7C7C7"/>
<path d="M222.466 43.077L215.136 47.7532L214.603 46.7772L222.322 42.8081L222.466 43.077Z" fill="#A6A6A6"/>
<path d="M215.888 46.8767C215.888 46.9526 215.866 47.0267 215.823 47.0898C215.781 47.1528 215.721 47.202 215.651 47.231C215.581 47.26 215.504 47.2676 215.43 47.2528C215.355 47.238 215.287 47.2015 215.233 47.1479C215.18 47.0943 215.143 47.0259 215.128 46.9516C215.114 46.8772 215.121 46.8001 215.15 46.73C215.179 46.6599 215.228 46.6 215.292 46.5579C215.355 46.5158 215.429 46.4933 215.505 46.4933C215.606 46.4933 215.704 46.5337 215.776 46.6056C215.848 46.6775 215.888 46.775 215.888 46.8767Z" fill="#C7C7C7"/>
<path d="M171.232 165.49C171.232 165.49 179.031 163.722 183.304 159.788C187.577 155.854 189.962 148.797 189.962 148.797C186.999 149.364 184.077 150.131 181.217 151.093C180.147 152.195 179.255 153.457 178.573 154.833C178.507 153.943 178.507 153.049 178.573 152.159C177.576 152.59 176.642 153.157 175.799 153.842C172.233 156.945 171.232 165.49 171.232 165.49Z" fill="#DBDBDB"/>
<path d="M185.097 152.224C186.157 151.487 187.238 150.78 188.299 150.037C188.313 150.029 188.323 150.015 188.326 149.999C188.33 149.983 188.327 149.967 188.319 149.953C188.31 149.939 188.296 149.929 188.281 149.925C188.265 149.922 188.248 149.924 188.234 149.933C186.242 151.133 184.25 152.423 182.328 153.758C181.66 154.226 181.003 154.714 180.336 155.212L180.47 154.978C180.704 154.589 180.968 154.206 181.197 153.822C181.687 153.04 182.241 152.3 182.856 151.611C182.856 151.586 182.856 151.546 182.816 151.576C182.208 152.274 181.601 152.966 181.048 153.708C180.784 154.061 180.55 154.43 180.306 154.803C180.186 154.998 180.067 155.192 179.957 155.391L179.838 155.59C178.842 156.382 177.846 157.209 176.915 158.08C176.337 158.621 175.777 159.179 175.236 159.753C175.54 158.812 175.804 157.856 176.153 156.93C176.153 156.923 176.15 156.917 176.145 156.912C176.141 156.908 176.134 156.905 176.128 156.905C176.121 156.905 176.115 156.908 176.11 156.912C176.105 156.917 176.103 156.923 176.103 156.93C175.764 157.926 175.391 158.882 175.107 159.888C174.509 160.532 173.942 161.196 173.404 161.88C173.404 161.84 173.404 161.795 173.429 161.755C173.518 161.387 173.613 161.018 173.707 160.655C173.897 159.948 174.106 159.251 174.345 158.558C174.793 157.121 175.502 155.779 176.436 154.599C176.461 154.574 176.436 154.539 176.402 154.564C174.939 156.385 173.916 158.519 173.414 160.799C173.327 161.131 173.248 161.463 173.175 161.795C173.135 161.97 173.09 162.154 173.06 162.333C172.821 162.665 172.592 162.989 172.373 163.304C171.042 165.337 169.935 167.507 169.071 169.778C168.102 172.328 167.27 174.928 166.581 177.567C166.581 177.578 166.585 177.588 166.593 177.595C166.6 177.603 166.61 177.607 166.621 177.607C166.631 177.607 166.642 177.603 166.649 177.595C166.657 177.588 166.661 177.578 166.661 177.567C168.19 173.005 169.743 168.379 172.353 164.3C172.905 163.441 173.5 162.61 174.136 161.81C175.426 161.723 176.7 161.469 177.925 161.053C179.264 160.603 180.541 159.985 181.725 159.216C182.402 158.763 183.052 158.273 183.672 157.747C183.702 157.722 183.672 157.682 183.643 157.707C182.553 158.584 181.35 159.31 180.067 159.868C178.806 160.446 177.487 160.889 176.133 161.188C175.56 161.312 174.977 161.407 174.39 161.487C175.112 160.597 175.88 159.746 176.69 158.937C176.954 158.673 177.223 158.439 177.497 158.17C178.405 157.534 179.368 156.983 180.376 156.521C181.656 155.904 182.91 155.247 184.175 154.604C184.893 154.241 185.6 153.872 186.317 153.519C186.347 153.519 186.317 153.459 186.292 153.474C185.007 154.091 183.707 154.674 182.412 155.266C181.197 155.819 179.967 156.382 178.797 157.039L178.648 157.124C179.703 156.208 180.799 155.331 181.919 154.485C182.972 153.718 184.031 152.964 185.097 152.224Z" fill="#A6A6A6"/>
<path d="M184.653 156.243C184.016 156.521 183.374 156.765 182.746 157.059C182.119 157.353 181.486 157.717 180.874 158.08C180.849 158.08 180.874 158.13 180.898 158.12C181.521 157.821 182.148 157.542 182.766 157.234C183.384 156.925 184.021 156.576 184.668 156.292C184.698 156.282 184.683 156.228 184.653 156.243Z" fill="#A6A6A6"/>
<path d="M145.914 126.203C147.353 128.061 148.168 130.328 148.24 132.677C148.27 133.374 148.155 134.35 148.075 135.496C150.022 136.624 151.746 138.097 153.165 139.843C151.607 138.94 149.819 138.512 148.021 138.613C148.064 139.396 148.164 140.175 148.319 140.944C149.454 140.942 150.577 141.164 151.626 141.596C150.6 141.583 149.582 141.785 148.638 142.189C150.028 146.611 154.161 151.153 165.57 153.08C166.777 147.657 166.063 141.984 163.548 137.03C160.132 130.307 145.914 126.203 145.914 126.203Z" fill="#DBDBDB"/>
<path d="M169.514 171.999C169.322 170.11 169.076 168.228 168.777 166.352C168.2 162.594 167.432 158.867 166.476 155.187C166.033 153.459 165.486 151.759 164.838 150.097C164.873 149.795 164.888 149.49 164.883 149.186C164.883 148.817 164.883 148.454 164.883 148.085C164.883 147.358 164.843 146.626 164.778 145.899C164.662 144.456 164.427 143.025 164.076 141.621C163.867 140.809 163.628 140.008 163.389 139.206C163.389 139.199 163.386 139.193 163.381 139.188C163.377 139.184 163.37 139.181 163.364 139.181C163.357 139.181 163.351 139.184 163.346 139.188C163.342 139.193 163.339 139.199 163.339 139.206C163.716 140.608 163.998 142.034 164.181 143.474C164.383 144.894 164.511 146.323 164.564 147.757C164.564 148.15 164.564 148.538 164.564 148.932C164.564 149.096 164.564 149.265 164.564 149.43C164.006 148.064 163.366 146.734 162.647 145.446C161.486 143.407 160.179 141.455 158.737 139.604C158.735 139.389 158.705 139.175 158.648 138.967C158.593 138.713 158.538 138.469 158.478 138.205C158.362 137.684 158.233 137.166 158.09 136.651C157.806 135.615 157.433 134.619 157.094 133.598C157.094 133.592 157.091 133.585 157.087 133.581C157.082 133.576 157.076 133.574 157.069 133.574C157.063 133.574 157.056 133.576 157.052 133.581C157.047 133.585 157.044 133.592 157.044 133.598C157.348 134.594 157.542 135.655 157.776 136.681C157.891 137.179 158.005 137.677 158.115 138.21L158.279 138.977C158.277 138.995 158.277 139.013 158.279 139.032C157.816 138.449 157.348 137.876 156.865 137.313C154.689 134.759 152.298 132.403 149.893 130.063C149.599 129.774 149.295 129.495 148.997 129.211C148.972 129.186 148.937 129.211 148.962 129.251C151.257 131.646 153.518 134.072 155.66 136.606C156.158 137.209 156.656 137.821 157.154 138.439C156.895 138.26 156.656 138.09 156.377 137.941C155.715 137.508 155.042 137.084 154.35 136.696C153.658 136.308 152.961 135.929 152.248 135.58C151.536 135.232 150.754 134.918 150.027 134.51C149.998 134.51 149.973 134.545 150.003 134.555C150.723 134.889 151.419 135.276 152.084 135.71C152.776 136.123 153.474 136.537 154.151 136.97C154.828 137.403 155.495 137.811 156.143 138.245C156.701 138.608 157.243 139.002 157.821 139.33C159.143 141.031 160.364 142.809 161.476 144.654C162.165 145.815 162.795 147.01 163.364 148.235L162.955 148.055L161.91 147.592L159.893 146.711C158.613 146.158 157.313 145.645 156.058 145.032C155.351 144.701 154.667 144.322 154.011 143.897C153.982 143.897 153.957 143.922 153.987 143.942C156.322 145.555 158.967 146.691 161.536 147.836L162.657 148.334C162.965 148.469 163.274 148.623 163.593 148.743C164.359 150.456 165.003 152.222 165.52 154.026C166.544 157.659 167.375 161.342 168.01 165.062C168.663 168.787 169.106 172.532 169.449 176.307C169.489 176.775 169.534 177.248 169.584 177.716C169.584 177.756 169.6 177.794 169.628 177.822C169.656 177.85 169.694 177.866 169.733 177.866C169.773 177.866 169.811 177.85 169.839 177.822C169.867 177.794 169.883 177.756 169.883 177.716C169.913 175.794 169.713 173.902 169.514 171.999Z" fill="#A6A6A6"/>
<path d="M162.577 140.496C162.368 139.34 162.079 138.205 161.746 137.07C161.746 137.063 161.743 137.057 161.738 137.052C161.734 137.047 161.727 137.045 161.721 137.045C161.714 137.045 161.708 137.047 161.703 137.052C161.698 137.057 161.696 137.063 161.696 137.07C161.985 138.185 162.194 139.321 162.398 140.451C162.602 141.581 162.801 142.762 162.966 143.937H162.996C162.921 142.783 162.781 141.634 162.577 140.496Z" fill="#A6A6A6"/>
<path d="M157.662 143.643C156.865 143.122 156.033 142.656 155.172 142.249C154.754 142.035 154.33 141.83 153.912 141.626C153.494 141.422 153.026 141.238 152.597 141.024C152.567 141.024 152.537 141.054 152.572 141.068C152.986 141.278 153.384 141.532 153.792 141.756L155.057 142.448C155.878 142.925 156.723 143.361 157.587 143.753C157.602 143.763 157.62 143.766 157.637 143.763C157.654 143.76 157.669 143.75 157.679 143.735C157.689 143.721 157.693 143.703 157.69 143.686C157.686 143.668 157.676 143.653 157.662 143.643Z" fill="#A6A6A6"/>
<path opacity="0.1" d="M171.377 151.985C171.377 151.985 178.588 150.262 181.9 145.421C185.067 140.8 186.088 132.921 186.168 132.229C186.038 132.866 184.549 139.749 179.639 142.956C175.879 145.416 172.243 147.438 171.377 151.985Z" fill="#A6A6A6"/>
<path d="M178.035 139.52C176.752 140.7 175.83 142.219 175.376 143.902C175.908 142.26 176.825 140.77 178.05 139.555C178.095 139.535 178.06 139.495 178.035 139.52Z" fill="#A6A6A6"/>
<path d="M171.377 151.985C171.377 151.985 178.588 150.262 181.899 145.421C185.067 140.8 186.088 132.921 186.167 132.229C186.17 132.212 186.17 132.196 186.167 132.179C186.167 132.179 182.681 137.099 179.071 138.354C175.46 139.609 170.316 143.947 171.377 151.985Z" fill="#DBDBDB"/>
<path d="M184.898 134.893C184.252 136.22 183.506 137.495 182.667 138.708C181.819 139.861 180.813 140.888 179.679 141.761C178.683 142.538 177.687 143.255 176.691 144.007L176.715 143.972C176.9 143.693 177.099 143.429 177.308 143.165C177.716 142.637 178.17 142.139 178.623 141.646C179.519 140.675 180.435 139.719 181.237 138.658C181.685 138.076 182.073 137.45 182.398 136.791C182.398 136.761 182.363 136.746 182.348 136.791C181.178 139.231 178.837 140.775 177.174 142.846C176.935 143.138 176.712 143.442 176.506 143.758C176.34 143.987 176.2 144.234 176.088 144.495C175.175 145.228 174.35 146.063 173.628 146.985C173.691 146.512 173.787 146.044 173.917 145.585C174.084 144.943 174.342 144.327 174.684 143.758C174.684 143.728 174.654 143.698 174.639 143.728C174.288 144.299 174.006 144.909 173.797 145.546C173.645 146.052 173.556 146.576 173.533 147.104C173.179 147.581 172.854 148.08 172.562 148.598L172.652 148.135C172.791 147.418 172.951 146.701 173.15 145.989C173.489 144.544 174.075 143.17 174.883 141.925C174.883 141.925 174.858 141.87 174.838 141.895C174.012 143.126 173.365 144.467 172.916 145.879C172.687 146.586 172.502 147.308 172.343 148.031C172.263 148.389 172.189 148.743 172.124 149.101C172.089 149.285 172.049 149.475 172.019 149.664C171.304 151.236 170.746 152.873 170.351 154.554C169.647 157.563 169.136 160.614 168.822 163.688C168.447 166.902 168.281 170.138 168.324 173.374C168.324 173.777 168.354 174.185 168.374 174.589C168.374 174.693 168.538 174.708 168.543 174.589C168.613 172.985 168.653 171.387 168.747 169.788C168.842 168.19 168.981 166.586 169.156 164.992C169.479 161.858 169.978 158.744 170.65 155.665C171.232 153.03 171.989 150.371 173.434 148.06C174.151 146.912 175.028 145.87 176.038 144.968C177.034 144.061 178.155 143.265 179.22 142.423C180.3 141.603 181.281 140.66 182.144 139.614C183.024 138.448 183.791 137.201 184.434 135.889L184.932 134.893C184.957 134.893 184.913 134.863 184.898 134.893Z" fill="#A6A6A6"/>
<path d="M144.918 148.797C144.918 148.797 144.804 159.046 150.934 162.004C157.064 164.962 160.346 162.502 164.514 163.498C164.355 163.254 161.382 158.981 156.651 157.801C151.766 156.581 146.377 153.065 144.918 148.797Z" fill="#DBDBDB"/>
<path opacity="0.1" d="M144.918 148.797C144.918 148.797 144.804 159.046 150.934 162.004C157.064 164.962 160.346 162.502 164.514 163.498C162.314 162.448 159.961 161.754 157.542 161.442C153.658 160.968 146.273 158.449 144.918 148.797Z" fill="#A6A6A6"/>
<path d="M164.903 163.673C164.173 163.009 163.351 162.454 162.462 162.024C162.333 161.96 162.199 161.91 162.064 161.855C161.93 161.8 161.93 161.696 161.86 161.616C161.676 161.427 161.481 161.242 161.282 161.068C160.897 160.737 160.484 160.44 160.047 160.182C159.051 159.584 157.921 159.186 156.88 158.613C156.85 158.613 156.825 158.643 156.88 158.658C157.378 158.922 157.876 159.216 158.374 159.509C158.872 159.803 159.37 160.062 159.828 160.366C160.256 160.638 160.662 160.943 161.043 161.277C161.153 161.372 161.252 161.477 161.357 161.581C160.68 161.35 159.988 161.165 159.285 161.028C158.165 160.799 157.029 160.64 155.909 160.401C155.359 160.284 154.815 160.138 154.28 159.963C153.782 159.554 153.284 159.146 152.786 158.703C152.203 158.168 151.671 157.579 151.198 156.945C151.198 156.945 151.133 156.945 151.153 156.975C151.897 157.98 152.74 158.909 153.668 159.748C153.404 159.644 153.14 159.539 152.886 159.42C150.78 158.478 148.973 156.976 147.662 155.077C147.662 155.047 147.597 155.077 147.617 155.102C148.729 156.733 150.167 158.115 151.84 159.161C152.678 159.685 153.574 160.109 154.509 160.426C155.598 160.761 156.707 161.022 157.831 161.208C158.93 161.388 160.015 161.646 161.078 161.979C162.055 162.313 162.974 162.797 163.802 163.414C165.364 164.627 166.623 166.187 167.477 167.97C168.571 170.328 169.254 172.854 169.499 175.44C169.499 175.55 169.683 175.55 169.673 175.44C169.375 171.153 168.224 166.666 164.903 163.673Z" fill="#A6A6A6"/>
<path d="M157.786 160.356C157.467 159.878 157.034 159.486 156.527 159.216C155.947 158.911 155.438 158.489 155.033 157.976C155.033 157.946 154.968 157.976 154.988 158C155.356 158.47 155.805 158.871 156.312 159.186C156.87 159.482 157.361 159.889 157.757 160.381L157.786 160.356Z" fill="#A6A6A6"/>
<path d="M161.043 171.242L161.322 176.88L162.174 194.105H175.032L175.889 176.88L176.168 171.242H161.043Z" fill="#EBEBEB"/>
<path d="M161.043 171.242L161.322 176.88H175.889L176.168 171.242H161.043Z" fill="#DBDBDB"/>
<path d="M160.142 174.27H177.074V168.892H160.142V174.27Z" fill="#EBEBEB"/>
<path d="M39.84 83.8283L37.6289 88.7037L39.1229 89.376C39.337 89.4755 39.5193 89.6324 39.6494 89.8294C39.7795 90.0263 39.8524 90.2556 39.8599 90.4915C39.8599 90.7555 39.8998 91.0194 39.9396 91.2883C39.9764 91.5193 39.9495 91.7559 39.8617 91.9726C39.774 92.1894 39.6287 92.3781 39.4416 92.5184L38.107 93.4696L41.2245 97.8221L42.5591 96.8709C42.7507 96.7342 42.9764 96.6535 43.2112 96.6376C43.446 96.6218 43.6806 96.6715 43.8888 96.7813C44.1249 96.9055 44.3676 97.0169 44.6158 97.1149C44.8359 97.1987 45.0286 97.3416 45.1727 97.5279C45.3168 97.7142 45.4067 97.9366 45.4326 98.1707L45.5919 99.8041L50.9155 99.2762L50.7562 97.6378C50.7348 97.404 50.7788 97.1688 50.8835 96.9586C50.9882 96.7484 51.1493 96.5714 51.3488 96.4476L51.6775 96.2235C51.7821 96.1488 51.8916 96.0691 51.9912 95.9845C52.1723 95.8358 52.3911 95.7402 52.6232 95.7086C52.8553 95.6769 53.0917 95.7104 53.3059 95.8052L54.7999 96.4874L57.0111 91.612L55.5171 90.9347C55.3031 90.8346 55.1207 90.6776 54.9899 90.4809C54.859 90.2842 54.7847 90.0553 54.775 89.8192C54.765 89.5541 54.74 89.2897 54.7003 89.0274C54.663 88.7964 54.6897 88.5596 54.7775 88.3428C54.8653 88.1259 55.0108 87.9373 55.1983 87.7973L56.533 86.8412L53.4155 82.4887L52.0809 83.4448C51.8888 83.5807 51.6628 83.6606 51.428 83.6755C51.1933 83.6905 50.9589 83.6399 50.7512 83.5295C50.5161 83.4094 50.2751 83.3014 50.0291 83.2058C49.8136 83.1227 49.625 82.9823 49.4837 82.7997C49.3424 82.6171 49.2537 82.3993 49.2273 82.1699L49.063 80.5365L43.7394 81.0644L43.8987 82.6978C43.9175 82.9257 43.8742 83.1544 43.7733 83.3596C43.6725 83.5648 43.5179 83.7388 43.326 83.8631C43.2126 83.9321 43.1029 84.0069 42.9973 84.0872C42.8878 84.1619 42.7832 84.2416 42.6786 84.3213C42.4979 84.4723 42.2784 84.5696 42.0451 84.6022C41.8119 84.6347 41.5741 84.6013 41.3589 84.5056L39.84 83.8283ZM44.7652 86.5922C45.4692 86.0839 46.3081 85.796 47.1758 85.7647C48.0435 85.7335 48.901 85.9605 49.6396 86.4169C50.3783 86.8733 50.9649 87.5385 51.3252 88.3285C51.6856 89.1185 51.8034 89.9976 51.6638 90.8546C51.5243 91.7115 51.1336 92.5078 50.5412 93.1426C49.9488 93.7774 49.1814 94.2222 48.3361 94.4206C47.4908 94.619 46.6057 94.5621 45.7927 94.2572C44.9797 93.9523 44.2755 93.413 43.7692 92.7076C43.0912 91.7639 42.8157 90.5894 43.0034 89.4426C43.1911 88.2958 43.8267 87.2705 44.7702 86.5922H44.7652Z" fill="#EBEBEB"/>
<path d="M217.128 132.856L213.881 134.729L214.454 135.725C214.536 135.868 214.577 136.032 214.572 136.197C214.566 136.363 214.515 136.523 214.424 136.661C214.324 136.816 214.23 136.98 214.145 137.159C214.072 137.307 213.959 137.432 213.819 137.52C213.679 137.608 213.518 137.655 213.353 137.657H212.203V141.407H213.353C213.518 141.409 213.679 141.457 213.819 141.545C213.959 141.633 214.072 141.757 214.145 141.905C214.229 142.076 214.322 142.242 214.424 142.403C214.515 142.541 214.566 142.702 214.572 142.867C214.577 143.032 214.536 143.196 214.454 143.339L213.881 144.335L217.128 146.208L217.706 145.212C217.79 145.07 217.911 144.954 218.057 144.876C218.203 144.799 218.367 144.763 218.532 144.774H218.806H219.085C219.248 144.764 219.411 144.799 219.556 144.875C219.701 144.952 219.822 145.066 219.907 145.207L220.484 146.203L223.731 144.33L223.159 143.334C223.076 143.191 223.035 143.027 223.041 142.861C223.048 142.696 223.1 142.535 223.194 142.398C223.296 142.237 223.389 142.071 223.472 141.9C223.545 141.752 223.657 141.626 223.797 141.538C223.937 141.45 224.099 141.403 224.264 141.402H225.41V137.652H224.264C224.099 137.651 223.937 137.604 223.797 137.516C223.657 137.428 223.545 137.303 223.472 137.154C223.388 136.99 223.293 136.83 223.194 136.656C223.101 136.52 223.048 136.36 223.042 136.196C223.036 136.031 223.076 135.868 223.159 135.725L223.731 134.729L220.484 132.856L219.912 133.852C219.828 133.995 219.706 134.111 219.56 134.188C219.414 134.265 219.25 134.301 219.085 134.291H218.806H218.532C218.367 134.301 218.203 134.265 218.057 134.188C217.911 134.111 217.79 133.995 217.706 133.852L217.128 132.856ZM218.806 136.442C219.414 136.442 220.008 136.622 220.514 136.96C221.019 137.298 221.413 137.778 221.645 138.34C221.878 138.902 221.938 139.52 221.819 140.116C221.7 140.712 221.407 141.26 220.977 141.689C220.547 142.119 219.999 142.411 219.403 142.529C218.806 142.647 218.188 142.585 217.627 142.352C217.065 142.119 216.586 141.724 216.249 141.218C215.912 140.712 215.732 140.118 215.733 139.51C215.735 139.106 215.816 138.706 215.972 138.333C216.129 137.96 216.357 137.622 216.644 137.338C216.932 137.054 217.272 136.829 217.647 136.677C218.021 136.525 218.422 136.449 218.826 136.452L218.806 136.442Z" fill="#EBEBEB"/>
<path d="M27.6739 74.3514L29.9498 77.3394L30.8611 76.6422C30.992 76.5409 31.149 76.4786 31.3138 76.4628C31.4786 76.4469 31.6446 76.4781 31.7924 76.5526C31.9617 76.6323 32.136 76.702 32.2904 76.7667C32.446 76.821 32.5837 76.9171 32.6882 77.0445C32.7928 77.1719 32.8602 77.3256 32.883 77.4888L33.0324 78.6293L36.7525 78.1313L36.6031 76.9958C36.5825 76.8318 36.6079 76.6653 36.6765 76.515C36.7451 76.3646 36.8542 76.2362 36.9915 76.1442C37.1459 76.0397 37.2903 75.9251 37.4347 75.8056C37.559 75.6972 37.7109 75.6253 37.8735 75.5981C38.0362 75.5708 38.2032 75.5892 38.356 75.6512L39.4168 76.0944L40.856 72.6084L39.8102 72.21C39.6593 72.1446 39.5292 72.0389 39.4344 71.9045C39.3395 71.7701 39.2835 71.6122 39.2724 71.4481C39.2724 71.3535 39.2724 71.2638 39.2425 71.1692C39.2126 71.0746 39.2425 70.9899 39.2026 70.9003C39.169 70.7386 39.1816 70.5706 39.2388 70.4156C39.296 70.2607 39.3957 70.1249 39.5263 70.0238L40.4427 69.3216L38.1668 66.3336L37.2505 67.0308C37.1191 67.1311 36.9622 67.1927 36.7976 67.2085C36.6331 67.2244 36.4674 67.1939 36.3192 67.1205C36.1575 67.0395 35.9912 66.968 35.8212 66.9063C35.6656 66.8521 35.528 66.756 35.4234 66.6286C35.3189 66.5012 35.2515 66.3474 35.2286 66.1842L35.0792 65.0438L31.3591 65.5418L31.5085 66.6822C31.5285 66.8457 31.5033 67.0114 31.4357 67.1616C31.3681 67.3117 31.2607 67.4404 31.1251 67.5338C30.9711 67.6383 30.8232 67.7514 30.6819 67.8725C30.5566 67.9808 30.4038 68.0526 30.2404 68.0798C30.077 68.107 29.9092 68.0887 29.7556 68.0268L28.6948 67.5836L27.2556 71.0696L28.3164 71.5128C28.4562 71.5742 28.5778 71.6706 28.6694 71.7927C28.761 71.9149 28.8195 72.0586 28.8393 72.21L28.8691 72.4839C28.8691 72.5786 28.894 72.6682 28.914 72.7578C28.9458 72.92 28.932 73.0879 28.8739 73.2427C28.8159 73.3975 28.7159 73.5331 28.5853 73.6343L27.6739 74.3514ZM31.0105 72.22C30.9328 71.6173 31.0355 71.0051 31.3057 70.4608C31.5759 69.9165 32.0015 69.4645 32.5285 69.162C33.0556 68.8596 33.6605 68.7202 34.2668 68.7615C34.873 68.8028 35.4535 69.0229 35.9346 69.394C36.4158 69.7652 36.7761 70.2707 36.97 70.8466C37.1639 71.4225 37.1827 72.043 37.024 72.6296C36.8652 73.2162 36.5361 73.7425 36.0783 74.1421C35.6204 74.5416 35.0544 74.7965 34.4517 74.8743C34.0506 74.9267 33.6432 74.8992 33.2527 74.7934C32.8623 74.6876 32.4967 74.5057 32.1769 74.2581C31.857 74.0104 31.5893 73.702 31.3892 73.3505C31.189 72.9991 31.0603 72.6115 31.0105 72.21V72.22Z" fill="#EBEBEB"/>
<path d="M18.2168 194.105L44.7901 193.981L71.3584 193.941L124.5 193.856L177.642 193.936L204.21 193.981L230.783 194.105L204.21 194.225L177.642 194.27L124.5 194.354L71.3584 194.27L44.7901 194.225L18.2168 194.105Z" fill="#263238"/>
<path d="M192.771 215.221C215.657 215.221 234.209 212.273 234.209 208.637C234.209 205.001 215.657 202.054 192.771 202.054C169.885 202.054 151.332 205.001 151.332 208.637C151.332 212.273 169.885 215.221 192.771 215.221Z" fill="#EBEBEB"/>
<path d="M109.759 233.692C158.636 233.692 198.259 228.211 198.259 221.451C198.259 214.69 158.636 209.21 109.759 209.21C60.8821 209.21 21.2595 214.69 21.2595 221.451C21.2595 228.211 60.8821 233.692 109.759 233.692Z" fill="#EBEBEB"/>
<path d="M192.094 32.5394H56.8271V121.945H192.094V32.5394Z" fill="#EBEBEB"/>
<path d="M195.395 28.157H53.6099V32.5344H195.395V28.157Z" fill="#455A64"/>
<path d="M84.7049 44.7852H63.3457V70.0935H84.7049V44.7852Z" fill="white"/>
<path d="M74.7948 46.5083C74.7957 46.6614 74.7512 46.8113 74.6668 46.939C74.5823 47.0667 74.4618 47.1664 74.3206 47.2254C74.1793 47.2845 74.0237 47.3002 73.8735 47.2705C73.7233 47.2409 73.5853 47.1673 73.4771 47.0591C73.3688 46.9508 73.2952 46.8128 73.2656 46.6626C73.2359 46.5124 73.2516 46.3568 73.3107 46.2155C73.3697 46.0743 73.4694 45.9538 73.5971 45.8694C73.7248 45.7849 73.8748 45.7404 74.0278 45.7413C74.1286 45.7413 74.2283 45.7612 74.3213 45.7997C74.4144 45.8383 74.4989 45.8948 74.5701 45.966C74.6413 46.0372 74.6978 46.1217 74.7364 46.2148C74.7749 46.3078 74.7948 46.4076 74.7948 46.5083Z" fill="#455A64"/>
<path d="M67.4097 49.8549C69.571 49.6906 71.7323 49.6806 73.8837 49.6557C76.035 49.6308 78.2013 49.6906 80.3577 49.8549C78.1963 50.0242 76.04 50.0342 73.8837 50.0591C71.7273 50.084 69.571 50.0242 67.4097 49.8549Z" fill="#EBEBEB"/>
<path d="M67.4097 51.8568C69.7507 51.5845 72.1154 51.5845 74.4564 51.8568C72.115 52.1224 69.7511 52.1224 67.4097 51.8568Z" fill="#EBEBEB"/>
<path d="M67.4097 53.8538C68.9037 53.6994 70.3977 53.6645 71.8917 53.6546C73.3857 53.6446 74.8797 53.6994 76.3737 53.8538C74.8797 54.0131 73.3857 54.048 71.8917 54.058C70.3977 54.0679 68.9136 54.0131 67.4097 53.8538Z" fill="#EBEBEB"/>
<path d="M67.4097 55.8557C69.2871 55.7013 71.1646 55.6615 73.042 55.6565C74.9195 55.6515 76.797 55.6963 78.6694 55.8557C76.797 56.0151 74.9195 56.0499 73.042 56.0549C71.1646 56.0599 69.2871 56.0101 67.4097 55.8557Z" fill="#EBEBEB"/>
<path d="M67.4097 57.8577C69.0431 57.6983 70.6716 57.6634 72.3 57.6535C73.9285 57.6435 75.5619 57.6983 77.1954 57.8577C75.5619 58.012 73.9335 58.0519 72.3 58.0569C70.6666 58.0618 69.0431 58.012 67.4097 57.8577Z" fill="#EBEBEB"/>
<path d="M67.4097 59.8547C69.4963 59.6903 71.5829 59.6804 73.6695 59.6555C75.7561 59.6306 77.8477 59.6903 79.9344 59.8547C77.8477 60.024 75.7611 60.0339 73.6695 60.0588C71.5779 60.0837 69.4963 60.024 67.4097 59.8547Z" fill="#EBEBEB"/>
<path d="M67.4097 61.8567C70.0986 61.5844 72.8082 61.5844 75.4972 61.8567C72.8079 62.1222 70.099 62.1222 67.4097 61.8567Z" fill="#EBEBEB"/>
<path d="M67.4097 63.8537C69.571 63.6893 71.7323 63.6794 73.8837 63.6545C76.035 63.6296 78.2013 63.6893 80.3577 63.8537C78.1963 64.023 76.04 64.033 73.8837 64.0579C71.7273 64.0828 69.571 64.023 67.4097 63.8537Z" fill="#EBEBEB"/>
<path d="M67.4097 65.8555C69.571 65.6912 71.7323 65.6812 73.8837 65.6563C76.035 65.6314 78.2013 65.6862 80.3577 65.8555C78.1963 66.0249 76.04 66.0348 73.8837 66.0547C71.7273 66.0747 69.571 66.0199 67.4097 65.8555Z" fill="#EBEBEB"/>
<path d="M185.779 66.5278H169.056V86.3433H185.779V66.5278Z" fill="white"/>
<path d="M177.995 68.261C177.996 68.3754 177.963 68.4876 177.9 68.5832C177.837 68.6789 177.748 68.7537 177.642 68.7982C177.537 68.8427 177.42 68.8548 177.308 68.8331C177.195 68.8114 177.092 68.7568 177.011 68.6762C176.93 68.5956 176.874 68.4927 176.851 68.3805C176.829 68.2683 176.84 68.1519 176.883 68.046C176.927 67.9402 177.001 67.8497 177.096 67.786C177.191 67.7223 177.303 67.6883 177.418 67.6883C177.493 67.6876 177.568 67.7019 177.638 67.7304C177.708 67.7589 177.772 67.801 177.826 67.8542C177.879 67.9075 177.922 67.9708 177.951 68.0406C177.98 68.1104 177.995 68.1853 177.995 68.261Z" fill="#455A64"/>
<path d="M171.735 71.9312C172.892 71.7677 174.065 71.7677 175.221 71.9312C174.065 72.0947 172.892 72.0947 171.735 71.9312Z" fill="#EBEBEB"/>
<path d="M171.735 73.3455C173.244 73.1729 174.768 73.1729 176.277 73.3455C174.768 73.5115 173.245 73.5115 171.735 73.3455Z" fill="#EBEBEB"/>
<path d="M171.735 74.7549C173.133 74.5889 174.546 74.5889 175.943 74.7549C174.546 74.9275 173.133 74.9275 171.735 74.7549Z" fill="#EBEBEB"/>
<path d="M171.735 76.1941C173.133 76.0281 174.546 76.0281 175.943 76.1941C174.546 76.36 173.133 76.36 171.735 76.1941Z" fill="#EBEBEB"/>
<path d="M171.735 77.5835C172.948 77.4106 174.178 77.4106 175.391 77.5835C174.178 77.7495 172.948 77.7495 171.735 77.5835Z" fill="#EBEBEB"/>
<path d="M171.735 78.9928C173.291 78.8268 174.861 78.8268 176.417 78.9928C174.861 79.1654 173.291 79.1654 171.735 78.9928Z" fill="#EBEBEB"/>
<path d="M171.735 80.4071C173.018 80.2411 174.317 80.2411 175.6 80.4071C174.317 80.5731 173.018 80.5731 171.735 80.4071Z" fill="#EBEBEB"/>
<path d="M171.735 81.8215C173.344 81.6489 174.967 81.6489 176.576 81.8215C174.967 81.9875 173.345 81.9875 171.735 81.8215Z" fill="#EBEBEB"/>
<path d="M171.735 83.2308C173.345 83.0648 174.967 83.0648 176.576 83.2308C174.967 83.4035 173.344 83.4035 171.735 83.2308Z" fill="#EBEBEB"/>
<path d="M178.648 71.9311C180.174 71.7651 181.713 71.7651 183.24 71.9311C181.713 72.0971 180.174 72.0971 178.648 71.9311Z" fill="#EBEBEB"/>
<path d="M178.648 73.3455C179.647 73.1729 180.667 73.1729 181.666 73.3455C180.667 73.5115 179.647 73.5115 178.648 73.3455Z" fill="#EBEBEB"/>
<path d="M178.648 74.7549C180.084 74.5889 181.534 74.5889 182.971 74.7549C181.535 74.9275 180.084 74.9275 178.648 74.7549Z" fill="#EBEBEB"/>
<path d="M178.648 76.1941C180.044 76.0281 181.455 76.0281 182.851 76.1941C181.455 76.3601 180.044 76.3601 178.648 76.1941Z" fill="#EBEBEB"/>
<path d="M178.648 77.5835C180.174 77.4108 181.714 77.4108 183.24 77.5835C181.713 77.7495 180.174 77.7495 178.648 77.5835Z" fill="#EBEBEB"/>
<path d="M178.648 78.9928C179.861 78.8268 181.09 78.8268 182.303 78.9928C181.091 79.1657 179.86 79.1657 178.648 78.9928Z" fill="#EBEBEB"/>
<path d="M178.648 80.4072C180.084 80.2412 181.534 80.2412 182.971 80.4072C181.534 80.5732 180.084 80.5732 178.648 80.4072Z" fill="#EBEBEB"/>
<path d="M178.648 81.8215C179.755 81.6489 180.882 81.6489 181.99 81.8215C180.882 81.9875 179.756 81.9875 178.648 81.8215Z" fill="#EBEBEB"/>
<path d="M178.648 83.2308C179.711 83.0648 180.792 83.0648 181.855 83.2308C180.793 83.4035 179.71 83.4035 178.648 83.2308Z" fill="#EBEBEB"/>
<path d="M93.679 60.3826H80.8306V73.231H93.679V60.3826Z" fill="#BA68C8"/>
<path d="M88.0216 61.6873C88.0216 61.839 87.9767 61.9873 87.8924 62.1134C87.8081 62.2395 87.6883 62.3378 87.5482 62.3959C87.4081 62.4539 87.2539 62.4691 87.1051 62.4395C86.9563 62.4099 86.8197 62.3369 86.7124 62.2296C86.6052 62.1224 86.5321 61.9857 86.5025 61.8369C86.4729 61.6882 86.4881 61.534 86.5462 61.3938C86.6042 61.2537 86.7025 61.1339 86.8286 61.0497C86.9548 60.9654 87.103 60.9204 87.2547 60.9204C87.3554 60.9204 87.4552 60.9402 87.5482 60.9788C87.6412 61.0173 87.7258 61.0738 87.797 61.145C87.8682 61.2163 87.9247 61.3008 87.9633 61.3938C88.0018 61.4869 88.0216 61.5866 88.0216 61.6873Z" fill="#455A64"/>
<path d="M192.094 32.5394H56.8271V38.2266H192.094V32.5394Z" fill="#DBDBDB"/>
<path d="M99.6997 45.2732L121.388 45.2284L143.08 45.2732L121.388 45.318L99.6997 45.2732Z" fill="#C7C7C7"/>
<path d="M99.6997 47.0412L121.388 46.9963L143.08 47.0412L121.388 47.091L99.6997 47.0412Z" fill="#C7C7C7"/>
<path d="M99.6997 48.814L121.388 48.7642L143.08 48.814L121.388 48.8588L99.6997 48.814Z" fill="#C7C7C7"/>
<path d="M99.6997 50.5819L121.388 50.5321L143.08 50.5819L121.388 50.6267L99.6997 50.5819Z" fill="#C7C7C7"/>
<path d="M99.6997 52.3499L121.388 52.3051L143.08 52.3499L121.388 52.3947L99.6997 52.3499Z" fill="#C7C7C7"/>
<path d="M99.6997 54.1177L121.388 54.0729L143.08 54.1177L121.388 54.1675L99.6997 54.1177Z" fill="#C7C7C7"/>
<path d="M99.6997 55.8856L121.388 55.8408L143.08 55.8856L121.388 55.9354L99.6997 55.8856Z" fill="#C7C7C7"/>
<path d="M99.6997 57.6584L121.388 57.6086L143.08 57.6584L121.388 57.7033L99.6997 57.6584Z" fill="#C7C7C7"/>
<path d="M99.6997 59.4264L121.388 59.3766L143.08 59.4264L121.388 59.4712L99.6997 59.4264Z" fill="#C7C7C7"/>
<path d="M99.6997 61.1944L121.388 61.1495L143.08 61.1944L121.388 61.2392L99.6997 61.1944Z" fill="#C7C7C7"/>
<path d="M99.6997 62.9622L121.388 62.9174L143.08 62.9622L121.388 63.012L99.6997 62.9622Z" fill="#C7C7C7"/>
<path d="M99.6997 64.7351L121.388 64.6853L143.08 64.7351L121.388 64.7799L99.6997 64.7351Z" fill="#C7C7C7"/>
<path d="M99.6997 66.5029L121.388 66.4531L143.08 66.5029L121.388 66.5477L99.6997 66.5029Z" fill="#C7C7C7"/>
<path d="M99.6997 68.2709L121.388 68.2261L143.08 68.2709L121.388 68.3157L99.6997 68.2709Z" fill="#C7C7C7"/>
<path d="M99.6997 70.0388L121.388 69.994L143.08 70.0388L121.388 70.0886L99.6997 70.0388Z" fill="#C7C7C7"/>
<path d="M107.578 57.6584H104.286V72.1054H107.578V57.6584Z" fill="#BA68C8"/>
<path d="M113.678 51.5481H110.387V72.1055H113.678V51.5481Z" fill="white"/>
<path d="M119.784 48.7742H116.492V72.1055H119.784V48.7742Z" fill="#BA68C8"/>
<path d="M125.885 52.3896H122.593V72.1005H125.885V52.3896Z" fill="white"/>
<path d="M131.99 53.4653H128.698V72.1005H131.99V53.4653Z" fill="#BA68C8"/>
<path d="M138.091 64.028H134.799V72.1055H138.091V64.028Z" fill="white"/>
<path d="M100.875 44.0332L100.95 51.05L100.999 58.0668C101.033 62.748 101.049 67.4259 101.049 72.1005L100.875 71.9312H111.428H121.975L132.528 71.9909L143.08 72.0905L132.528 72.1951L121.975 72.2549H111.428H100.875H100.701V72.0806C100.701 67.4027 100.717 62.7248 100.75 58.0469L100.8 51.0301L100.875 44.0332Z" fill="#C7C7C7"/>
<path d="M107.578 73.5846H104.286V73.8834H107.578V73.5846Z" fill="#C7C7C7"/>
<path d="M113.678 73.5846H110.387V73.8834H113.678V73.5846Z" fill="#C7C7C7"/>
<path d="M119.784 73.5846H116.492V73.8834H119.784V73.5846Z" fill="#C7C7C7"/>
<path d="M125.885 73.5846H122.593V73.8834H125.885V73.5846Z" fill="#C7C7C7"/>
<path d="M131.99 73.5846H128.698V73.8834H131.99V73.5846Z" fill="#C7C7C7"/>
<path d="M138.091 73.5846H134.799V73.8834H138.091V73.5846Z" fill="#C7C7C7"/>
<path d="M82.0557 110.7H68.9932V111.821H82.0557V110.7Z" fill="#C7C7C7"/>
<path d="M86.6423 113.041H68.9932V114.162H86.6423V113.041Z" fill="#C7C7C7"/>
<path d="M78.3606 115.387H68.9932V116.507H78.3606V115.387Z" fill="#C7C7C7"/>
<path d="M66.08 110.7H63.356V113.425H66.08V110.7Z" fill="#BA68C8"/>
<path d="M166.407 45.2234H153.344V46.3439H166.407V45.2234Z" fill="#C7C7C7"/>
<path d="M170.993 47.5641H153.344V48.6846H170.993V47.5641Z" fill="#C7C7C7"/>
<path d="M162.712 49.9097H153.344V51.0302H162.712V49.9097Z" fill="#C7C7C7"/>
<path d="M150.431 45.2234H147.707V47.9474H150.431V45.2234Z" fill="#BA68C8"/>
<path d="M168.872 54.292H153.344V55.4125H168.872V54.292Z" fill="#C7C7C7"/>
<path d="M165.625 56.6326H153.344V57.7531H165.625V56.6326Z" fill="#C7C7C7"/>
<path d="M170.993 58.9781H153.344V60.0986H170.993V58.9781Z" fill="#C7C7C7"/>
<path d="M150.431 54.292H147.707V57.0161H150.431V54.292Z" fill="white"/>
<path d="M121.891 81.926H63.3457V107.533H121.891V81.926Z" fill="#DBDBDB"/>
<path d="M118.783 85.1581H66.4585V87.3692H118.783V85.1581Z" fill="white"/>
<path d="M93.2111 85.1581H66.4585V87.3692H93.2111V85.1581Z" fill="#BA68C8"/>
<path d="M118.783 89.3911H66.4585V91.6022H118.783V89.3911Z" fill="white"/>
<path d="M114.456 89.3911H66.4585V91.6022H114.456V89.3911Z" fill="#BA68C8"/>
<path d="M118.783 93.624H66.4585V95.8351H118.783V93.624Z" fill="white"/>
<path d="M81.9413 93.624H66.4585V95.8351H81.9413V93.624Z" fill="#BA68C8"/>
<path d="M118.783 97.8571H66.4585V100.068H118.783V97.8571Z" fill="white"/>
<path d="M107.578 97.8571H66.4585V100.068H107.578V97.8571Z" fill="#BA68C8"/>
<path d="M118.783 102.09H66.4585V104.301H118.783V102.09Z" fill="white"/>
<path d="M96.6921 102.09H66.4585V104.301H96.6921V102.09Z" fill="#BA68C8"/>
<path d="M159.828 95.88C159.646 98.33 158.863 100.697 157.547 102.772L153.713 100.556C154.629 99.1501 155.202 97.5483 155.386 95.88H159.828Z" fill="#455A64"/>
<path d="M159.858 94.7246C159.858 94.889 159.858 95.0483 159.858 95.2226H155.426C155.426 95.0633 155.426 94.9039 155.426 94.7246C155.427 92.9574 154.988 91.2177 154.149 89.6624C153.31 88.107 152.098 86.785 150.62 85.8154L152.841 81.9758C154.99 83.3373 156.761 85.2199 157.987 87.4488C159.214 89.6777 159.858 92.1805 159.858 94.7246Z" fill="#A6A6A6"/>
<path d="M152.283 81.6273L150.072 85.4669C148.553 84.5962 146.842 84.1154 145.092 84.0675V79.6403C147.618 79.6862 150.092 80.3697 152.283 81.6273Z" fill="#455A64"/>
<path d="M144.445 79.6403V84.0675C142.645 84.1231 140.889 84.6342 139.341 85.553C137.792 86.4718 136.502 87.7684 135.591 89.3214L131.751 87.1103C133.051 84.8833 134.901 83.0272 137.124 81.7194C139.346 80.4115 141.867 79.6957 144.445 79.6403Z" fill="#BA68C8"/>
<path d="M135.267 89.909C134.535 91.3445 134.143 92.9291 134.122 94.5404H129.694C129.714 92.1519 130.308 89.8032 131.427 87.6929L135.267 89.909Z" fill="#A6A6A6"/>
<path d="M138.838 103.584L136.621 107.424C134.562 106.103 132.855 104.301 131.648 102.172C130.442 100.044 129.773 97.6531 129.699 95.2076H134.126C134.2 96.8754 134.665 98.5025 135.483 99.9576C136.302 101.413 137.451 102.655 138.838 103.584Z" fill="#455A64"/>
<path d="M157.174 103.33C155.012 106.447 151.754 108.635 148.05 109.459C144.347 110.282 140.469 109.68 137.189 107.772L139.406 103.938C141.671 105.265 144.346 105.71 146.919 105.187C149.492 104.664 151.782 103.21 153.35 101.104L157.174 103.33Z" fill="#DBDBDB"/>
<path d="M152.672 95.2076C152.67 96.5812 152.265 97.9241 151.506 99.069C150.747 100.214 149.668 101.11 148.404 101.647L145.67 95.2076H152.672Z" fill="#BA68C8"/>
<path d="M144.784 94.7296L147.513 101.169C147.298 101.253 147.084 101.338 146.87 101.403C146.198 101.611 145.498 101.717 144.794 101.717C144.09 101.715 143.39 101.61 142.717 101.403C141.283 100.971 140.025 100.088 139.132 98.8858C138.238 97.6834 137.756 96.2252 137.756 94.7271C137.756 93.2291 138.238 91.7709 139.132 90.5685C140.025 89.3661 141.283 88.4835 142.717 88.0514C144.07 87.6332 145.517 87.6332 146.87 88.0514C147.953 88.3859 148.938 88.9793 149.74 89.7803C150.542 90.5812 151.136 91.5655 151.472 92.648C151.678 93.321 151.784 94.0208 151.785 94.7246L144.784 94.7296Z" fill="#BA68C8"/>
<path d="M144.784 94.7296L147.513 101.169C147.298 101.253 147.084 101.338 146.87 101.403C146.198 101.611 145.498 101.717 144.794 101.717C143.302 101.719 141.848 101.243 140.647 100.358C139.446 99.4734 138.56 98.2267 138.12 96.8013C137.696 95.4494 137.696 93.9998 138.12 92.648C138.561 91.2235 139.447 89.9779 140.648 89.0941C141.85 88.2103 143.302 87.7349 144.794 87.7377C146.643 87.7377 148.416 88.4722 149.724 89.7797C151.031 91.0872 151.766 92.8606 151.766 94.7097L144.784 94.7296Z" fill="#DBDBDB"/>
<path d="M144.784 94.7297L140.227 100.028C139.348 99.2634 138.674 98.2903 138.268 97.1979C137.862 96.1056 137.737 94.929 137.903 93.7755C138.069 92.6221 138.521 91.5286 139.219 90.5952C139.916 89.6617 140.837 88.918 141.896 88.432C142.955 87.9461 144.119 87.7333 145.282 87.8133C146.445 87.8933 147.569 88.2634 148.551 88.8898C149.534 89.5162 150.344 90.3789 150.907 91.3991C151.47 92.4193 151.769 93.5643 151.775 94.7297H144.784Z" fill="#A6A6A6"/>
<path d="M164.808 111.403H155.062L142.991 99.3312L143.17 99.1569L155.167 111.154H164.808V111.403Z" fill="#263238"/>
<path d="M143.763 98.5642H142.403V99.9237H143.763V98.5642Z" fill="#263238"/>
<path d="M164.808 102.065H153.827L148.613 96.8512L148.788 96.6719L153.927 101.816H164.808V102.065Z" fill="#263238"/>
<path d="M149.375 96.0842H148.021V97.4438H149.375V96.0842Z" fill="#263238"/>
<path d="M164.808 92.8223H148.2V93.0713H164.808V92.8223Z" fill="#263238"/>
<path d="M148.703 92.2695H147.343V93.6291H148.703V92.2695Z" fill="#263238"/>
<path d="M182.148 91.5873H169.086V92.7078H182.148V91.5873Z" fill="#DBDBDB"/>
<path d="M186.735 93.9279H169.086V95.0484H186.735V93.9279Z" fill="#DBDBDB"/>
<path d="M178.453 96.2734H169.086V97.3939H178.453V96.2734Z" fill="#DBDBDB"/>
<path d="M166.173 91.5873H163.449V94.3113H166.173V91.5873Z" fill="#BA68C8"/>
<path d="M184.614 100.656H169.086V101.776H184.614V100.656Z" fill="#DBDBDB"/>
<path d="M181.367 102.996H169.086V104.117H181.367V102.996Z" fill="#DBDBDB"/>
<path d="M186.735 105.342H169.086V106.463H186.735V105.342Z" fill="#DBDBDB"/>
<path d="M166.173 100.656H163.449V103.38H166.173V100.656Z" fill="#A6A6A6"/>
<path d="M184.614 109.724H169.086V110.845H184.614V109.724Z" fill="#DBDBDB"/>
<path d="M181.367 112.065H169.086V113.185H181.367V112.065Z" fill="#DBDBDB"/>
<path d="M186.735 114.411H169.086V115.531H186.735V114.411Z" fill="#DBDBDB"/>
<path d="M166.173 109.724H163.449V112.448H166.173V109.724Z" fill="#C7C7C7"/>
<path d="M127.448 168.633L128.414 174.444L134.983 209.897H136.039L131.263 174.444L130.561 168.633H127.448Z" fill="#DBDBDB"/>
<path d="M130.561 168.633H127.448L128.414 174.444H131.263L130.561 168.633Z" fill="#A6A6A6"/>
<path d="M106.831 209.897H107.892L114.455 174.444L115.427 168.633H112.314L111.607 174.444L106.831 209.897Z" fill="#DBDBDB"/>
<path d="M112.314 168.633L111.607 174.444H114.455L115.427 168.633H112.314Z" fill="#A6A6A6"/>
<path d="M87.145 209.897H88.2008L94.7644 174.444L95.7355 168.633H92.623L91.9159 174.444L87.145 209.897Z" fill="#DBDBDB"/>
<path d="M91.916 174.444H94.7646L95.7357 168.633H92.6232L91.916 174.444Z" fill="#A6A6A6"/>
<path d="M88.8184 171.367H136.92V166.297H118.917L112.862 131.089H90.656L88.8184 171.367Z" fill="#DBDBDB"/>
<path d="M88.8184 171.367H91.4428L93.151 131.089H90.656L88.8184 171.367Z" fill="#A6A6A6"/>
<path d="M216.754 180.495C216.754 180.495 216.61 197.616 216.61 197.626C216.61 200.903 216.53 203.777 216.356 205.256C216.35 205.602 216.267 205.942 216.112 206.252C215.116 206.909 188.961 207.586 188.04 207.302C187.118 207.019 187.855 204.374 188.851 203.538C189.847 202.701 199.752 197.96 199.752 197.96L200.061 180.844L216.754 180.495Z" fill="#AD6359"/>
<path d="M216.63 194.115L216.6 197.601C216.6 200.878 216.52 203.752 216.346 205.231C216.301 205.571 216.219 205.905 216.102 206.227C215.106 206.884 188.951 207.561 188.03 207.278C187.108 206.994 187.845 204.349 188.841 203.513C189.837 202.676 199.743 197.935 199.743 197.935V194.364L216.63 194.115Z" fill="white"/>
<path d="M198.129 198.03C199.872 197.741 201.989 198.055 203.293 199.319C203.343 199.369 203.293 199.439 203.214 199.419C201.567 198.848 199.864 198.455 198.134 198.249C198.105 198.249 198.077 198.239 198.056 198.218C198.035 198.198 198.023 198.171 198.022 198.142C198.021 198.113 198.032 198.085 198.052 198.064C198.072 198.043 198.1 198.03 198.129 198.03Z" fill="#263238"/>
<path d="M196.859 198.757C198.602 198.468 200.724 198.782 202.023 200.047C202.073 200.096 202.023 200.166 201.944 200.146C200.297 199.577 198.594 199.185 196.864 198.976C196.85 198.976 196.835 198.974 196.822 198.968C196.809 198.963 196.796 198.955 196.786 198.946C196.775 198.936 196.767 198.924 196.761 198.911C196.755 198.897 196.752 198.883 196.752 198.869C196.752 198.854 196.754 198.84 196.759 198.827C196.765 198.813 196.772 198.801 196.782 198.791C196.792 198.78 196.804 198.772 196.817 198.766C196.83 198.76 196.845 198.757 196.859 198.757Z" fill="#263238"/>
<path d="M195.589 199.484C197.332 199.2 199.454 199.509 200.754 200.774C200.803 200.823 200.754 200.893 200.679 200.878C199.031 200.304 197.327 199.908 195.594 199.698C195.57 199.693 195.547 199.68 195.531 199.661C195.515 199.642 195.506 199.618 195.505 199.593C195.505 199.568 195.513 199.543 195.528 199.524C195.543 199.504 195.565 199.49 195.589 199.484Z" fill="#263238"/>
<path d="M188.02 207.367C188.941 207.651 215.111 206.969 216.092 206.311C216.471 206.067 216.59 202.248 216.59 197.631V197.482L199.698 197.736V198.02C199.698 198.02 189.798 202.761 188.797 203.597C187.796 204.434 187.099 207.083 188.02 207.367Z" fill="#37474F"/>
<path d="M216.63 197.482V197.631C216.63 202.248 216.49 206.067 216.132 206.311C215.773 206.555 210.016 206.914 203.886 207.133C196.55 207.392 188.562 207.522 188.059 207.367C187.138 207.083 187.88 204.434 188.871 203.597C189.862 202.761 199.772 198.02 199.772 198.02V197.736L205.405 197.651L216.63 197.482Z" fill="#37474F"/>
<path d="M188.289 206.341C192.701 206.117 210.505 205.639 214.877 205.754C214.912 205.754 214.912 205.754 214.877 205.754C210.515 206.072 192.706 206.411 188.294 206.391C188.199 206.416 188.199 206.346 188.289 206.341Z" fill="#263238"/>
<path d="M205.35 197.651C204.937 200.48 204.309 204.648 203.856 207.113C196.521 207.372 188.533 207.502 188.03 207.347C187.108 207.063 187.85 204.414 188.841 203.577C189.832 202.741 199.743 198 199.743 198V197.716L205.35 197.651Z" fill="#263238"/>
<path d="M218.826 197.706L199.095 197.885C199.095 197.885 193.832 128.076 198.513 109.789H212.671C212.671 109.789 216.476 117.553 214.299 126.293L218.826 197.706Z" fill="#455A64"/>
<path d="M217.461 194.409C216.944 194.342 216.424 194.302 215.903 194.29C215.325 194.25 214.747 194.21 214.165 194.185C213.054 194.14 211.938 194.12 210.823 194.115C208.577 194.115 206.341 194.115 204.08 194.19C202.8 194.23 201.52 194.28 200.245 194.35C200.235 194.35 200.225 194.354 200.217 194.361C200.21 194.369 200.206 194.379 200.206 194.389C200.206 194.4 200.21 194.41 200.217 194.418C200.225 194.425 200.235 194.429 200.245 194.429C202.476 194.509 204.727 194.539 206.934 194.584C209.14 194.628 211.416 194.668 213.622 194.623C214.259 194.623 214.897 194.623 215.539 194.574C216.181 194.524 216.829 194.574 217.451 194.484C217.491 194.479 217.506 194.419 217.461 194.409Z" fill="#263238"/>
<path d="M200.56 177.388C200.336 172.288 200.176 167.189 200.032 162.084C199.753 151.885 199.68 141.679 199.813 131.467C199.887 125.74 200.037 120.013 200.211 114.291C200.211 114.226 200.111 114.231 200.106 114.291C199.564 124.535 199.359 134.804 199.349 145.067C199.339 155.331 199.549 165.485 200.052 175.679C200.336 181.401 200.684 187.133 201.222 192.831C201.222 192.88 201.302 192.88 201.302 192.831C201.073 187.686 200.779 182.537 200.56 177.388Z" fill="#263238"/>
<path d="M182.322 200.251C184.065 199.962 186.187 200.276 187.487 201.541C187.537 201.59 187.487 201.66 187.407 201.64C185.761 201.069 184.058 200.676 182.327 200.47C182.298 200.471 182.27 200.46 182.249 200.44C182.228 200.419 182.216 200.392 182.215 200.363C182.215 200.334 182.226 200.306 182.246 200.285C182.266 200.264 182.293 200.251 182.322 200.251Z" fill="#263238"/>
<path d="M181.053 200.978C182.796 200.694 184.917 201.003 186.217 202.268C186.267 202.317 186.217 202.387 186.142 202.367C184.494 201.797 182.789 201.403 181.058 201.192C181.033 201.187 181.011 201.174 180.995 201.155C180.979 201.136 180.969 201.112 180.969 201.087C180.968 201.062 180.976 201.037 180.991 201.018C181.007 200.998 181.028 200.984 181.053 200.978Z" fill="#263238"/>
<path d="M179.778 201.69C181.521 201.406 183.637 201.715 184.937 202.98C184.987 203.03 184.937 203.104 184.862 203.084C183.214 202.519 181.509 202.131 179.778 201.929C179.746 201.929 179.716 201.916 179.693 201.894C179.671 201.872 179.658 201.841 179.658 201.81C179.658 201.778 179.671 201.747 179.693 201.725C179.716 201.703 179.746 201.69 179.778 201.69Z" fill="#263238"/>
<path d="M172.213 209.588C173.135 209.872 199.304 209.19 200.285 208.533C200.664 208.288 200.783 204.469 200.783 199.852V199.698L183.891 199.947V200.231C183.891 200.231 173.991 204.972 172.99 205.808C171.989 206.645 171.312 209.304 172.213 209.588Z" fill="#37474F"/>
<path d="M172.482 208.562C176.894 208.343 194.698 207.86 199.07 207.975C199.105 207.975 199.105 208 199.07 208C194.708 208.318 176.899 208.657 172.487 208.637C172.393 208.662 172.393 208.567 172.482 208.562Z" fill="#263238"/>
<path d="M204.045 127.936C204.045 127.936 202.656 156.252 202.606 156.925C202.606 157.184 201.959 200.878 201.959 200.878L182.233 201.058C182.233 201.058 184.932 160.097 185.221 156.098C185.256 155.635 186.371 128.096 191.053 109.809H212.257C212.257 109.809 212.073 119.385 207.721 126.313C206.466 126.784 205.239 127.326 204.045 127.936Z" fill="#455A64"/>
<path d="M202.512 128.484C203.557 127.916 204.623 127.403 205.719 126.935C206.814 126.467 207.93 126.044 209.02 125.561C209.06 125.561 209.095 125.601 209.055 125.621C207.985 126.173 206.934 126.766 205.848 127.289C204.784 127.801 203.686 128.241 202.561 128.604C202.545 128.61 202.528 128.61 202.512 128.604C202.496 128.597 202.483 128.585 202.477 128.569C202.47 128.553 202.47 128.535 202.477 128.519C202.483 128.503 202.496 128.491 202.512 128.484Z" fill="#263238"/>
<path d="M203.966 127.906C203.966 127.866 204.036 127.876 204.031 127.906C203.319 133.215 202.357 196.307 202.193 197.816C202.193 197.839 202.184 197.862 202.167 197.879C202.15 197.896 202.127 197.905 202.103 197.905C202.08 197.905 202.057 197.896 202.04 197.879C202.023 197.862 202.014 197.839 202.014 197.816C201.979 195.146 202.103 145.56 203.966 127.906Z" fill="#263238"/>
<path d="M194.22 111.816C193.677 114.545 193.299 117.294 192.89 120.063C192.482 122.832 192.089 125.581 191.72 128.345C190.993 133.783 190.346 139.229 189.778 144.684C188.636 155.723 187.806 166.789 187.288 177.881C186.992 184.116 186.813 190.357 186.75 196.605C186.75 196.655 186.83 196.65 186.83 196.605C187.208 185.51 187.746 174.42 188.588 163.349C189.429 152.278 190.535 141.268 191.884 130.272C192.26 127.224 192.651 124.18 193.06 121.139C193.483 118.041 193.981 114.953 194.34 111.846C194.325 111.771 194.22 111.741 194.22 111.816Z" fill="#263238"/>
<path d="M200.888 198.154C200.371 198.085 199.851 198.044 199.329 198.03C198.752 197.99 198.174 197.95 197.596 197.925C196.481 197.88 195.37 197.86 194.255 197.86C192.004 197.86 189.773 197.86 187.507 197.935C186.232 197.975 184.952 198.025 183.672 198.094C183.622 198.094 183.627 198.169 183.672 198.169C185.898 198.249 188.129 198.284 190.36 198.323C192.591 198.363 194.817 198.408 197.044 198.368C197.686 198.368 198.323 198.368 198.961 198.314C199.598 198.259 200.256 198.314 200.878 198.224C200.918 198.204 200.933 198.159 200.888 198.154Z" fill="#263238"/>
<path d="M186.177 104.884C188.244 103.843 196.311 100.063 196.635 99.4805C196.959 98.8978 200.066 87.6431 200.898 85.5664C201.73 83.4897 204.195 84.6351 204.18 87.912C204.165 91.1888 204.389 102.533 203.916 104.346C203.443 106.159 194.593 113.31 192.96 114.844C191.73 116.064 185.022 105.461 186.177 104.884Z" fill="#AD6359"/>
<path d="M194.608 113.325C193.477 114.455 192.272 115.51 191.003 116.482C189.972 117.209 186.939 119.216 186.023 118.155C185.4 117.433 187.019 116.049 188.179 115.038C188.782 114.51 189.394 113.479 189.031 113.101C188.403 112.438 186.869 113.843 185.923 114.938C184.086 117.055 181.854 120.491 180.057 119.809C179.379 119.55 179.718 118.539 180.346 117.448C179.2 118.863 177.905 120.143 177.138 119.884C176.939 119.818 176.772 119.678 176.673 119.492C176.575 119.306 176.552 119.09 176.611 118.888C176.456 119.036 176.261 119.135 176.05 119.172C175.839 119.21 175.621 119.183 175.425 119.097C174.783 118.763 174.763 117.951 175.022 117.02C174.93 117.041 174.833 117.04 174.742 117.017C174.65 116.994 174.565 116.949 174.494 116.886C172.97 115.7 176.486 109.585 178.09 108.579C181.3 106.655 184.761 105.182 188.373 104.202C190.943 105.133 194.613 113.32 194.608 113.325Z" fill="#AD6359"/>
<path d="M185.46 111.129C184.302 111.73 183.292 112.581 182.502 113.619C181.585 114.849 181.008 116.288 180.236 117.603C180.236 117.638 180.276 117.672 180.291 117.633C180.649 116.98 181.072 116.353 181.451 115.71C181.829 115.068 182.178 114.44 182.591 113.843C183.338 112.744 184.323 111.83 185.475 111.169C185.475 111.169 185.475 111.124 185.46 111.129Z" fill="#263238"/>
<path d="M183.762 109.286C182.508 110.074 181.34 110.991 180.276 112.02C179.145 113.18 178.468 114.679 177.786 116.129C177.377 117.002 176.991 117.882 176.625 118.768C176.625 118.808 176.66 118.838 176.68 118.798C177.363 117.304 178.085 115.81 178.852 114.391C179.557 113.042 180.522 111.845 181.69 110.87C182.362 110.317 183.07 109.809 183.782 109.311C183.792 109.301 183.762 109.276 183.762 109.286Z" fill="#263238"/>
<path d="M181.685 107.882C180.484 108.492 179.402 109.313 178.493 110.307C177.49 111.614 176.653 113.041 176.003 114.555C175.639 115.362 175.306 116.178 174.982 117.005C174.982 117.035 175.027 117.06 175.042 117.005C175.804 115.182 176.684 113.41 177.676 111.701C178.136 110.88 178.719 110.135 179.404 109.49C180.119 108.888 180.882 108.345 181.685 107.867C181.685 107.867 181.69 107.877 181.685 107.882Z" fill="#263238"/>
<path d="M187.577 103.111L197.591 113.185C197.591 113.185 203.657 107.324 204.309 104.366C204.962 101.408 204.982 90.0285 204.309 86.6022C203.637 83.176 201.426 82.0505 199.942 86.7715C198.458 91.4926 196.655 98.8879 196.516 99.1618C196.376 99.4357 187.577 103.111 187.577 103.111Z" fill="#BA68C8"/>
<path d="M199.334 110.058C198.706 109.347 198.041 108.668 197.342 108.026C196.665 107.359 195.968 106.721 195.266 106.079C193.861 104.799 192.417 103.554 190.938 102.359C190.893 102.319 190.824 102.359 190.868 102.424C192.198 103.803 193.578 105.148 194.982 106.448C195.679 107.09 196.381 107.727 197.103 108.345C197.795 108.979 198.52 109.576 199.275 110.133C199.324 110.148 199.369 110.083 199.334 110.058Z" fill="#263238"/>
<path d="M198.149 88.6888C199.294 88.7785 201.745 86.6968 202.731 84.9439C202.698 83.9443 202.615 82.947 202.482 81.9559C202.397 80.9997 202.327 79.934 202.337 78.9679C202.337 78.7637 201.65 79.1272 201.65 79.1272L200.385 79.426L196.192 80.422C196.533 81.6475 196.722 82.9103 196.755 84.1819C196.75 84.3157 196.735 84.449 196.71 84.5803C196.71 84.5803 196.71 84.6202 196.71 84.6501C196.57 85.3871 196.361 88.5494 198.149 88.6888Z" fill="#AD6359"/>
<path d="M196.71 84.5604C196.71 84.5604 196.71 84.6003 196.71 84.6301C196.919 84.6576 197.131 84.6693 197.342 84.665C201.47 84.6052 202.028 79.3563 202.028 79.3563L200.395 79.4161L196.202 80.4121C196.543 81.6376 196.732 82.9003 196.764 84.172C196.756 84.3027 196.738 84.4326 196.71 84.5604Z" fill="#263238"/>
<path d="M202.506 70.6662C203.413 72.7528 203.004 79.1322 201.605 80.6959C199.613 82.9668 195.983 83.5743 193.961 81.0893C192.004 78.684 192.711 70.3873 194.284 68.9281C196.6 66.7768 201.192 67.5835 202.506 70.6662Z" fill="#AD6359"/>
<path d="M193.03 72.4142C193.03 72.4142 192.532 74.8046 192.034 77.18L192.84 77.0755L192.656 78.1511C192.946 78.2165 193.246 78.2201 193.536 78.1617C193.827 78.1034 194.103 77.9844 194.344 77.8125L193.03 72.4142Z" fill="#AD6359"/>
<path d="M193.896 75.0088C193.896 75.0088 193.931 75.0088 193.926 75.0486C193.866 75.4769 193.871 75.9749 194.245 76.1592C193.772 76.0645 193.772 75.4022 193.896 75.0088Z" fill="#263238"/>
<path d="M194.329 74.6003C195.021 74.6003 194.927 76.0097 194.284 75.9898C193.642 75.9698 193.747 74.5854 194.329 74.6003Z" fill="#263238"/>
<path d="M194.917 74.1025C194.733 74.0427 194.568 73.9531 194.419 73.8784C194.221 73.8244 194.046 73.7072 193.921 73.5447C193.893 73.4866 193.884 73.4207 193.898 73.3575C193.912 73.2943 193.946 73.2375 193.996 73.1961C194.104 73.1253 194.23 73.0852 194.36 73.0799C194.49 73.0747 194.618 73.1045 194.733 73.1662C194.982 73.2546 195.189 73.432 195.315 73.6642C195.346 73.7214 195.359 73.7868 195.351 73.8514C195.343 73.916 195.315 73.9765 195.272 74.0247C195.228 74.0728 195.17 74.1061 195.107 74.1201C195.043 74.134 194.977 74.1279 194.917 74.1025Z" fill="#263238"/>
<path d="M194.284 79.0475C194.175 79.1421 194.06 79.2716 193.906 79.2766C193.745 79.2607 193.59 79.2133 193.448 79.1371C193.503 79.2266 193.582 79.2991 193.676 79.3465C193.77 79.3939 193.876 79.4145 193.981 79.406C194.069 79.3894 194.151 79.347 194.216 79.2841C194.28 79.2212 194.325 79.1407 194.344 79.0525L194.284 79.0475Z" fill="#263238"/>
<path d="M194.464 77.7328C194.284 77.9436 194.049 78.1012 193.786 78.189C193.523 78.2767 193.241 78.2912 192.97 78.2308C192.94 78.2308 192.925 78.191 192.935 78.191C193.472 78.1806 193.993 78.0069 194.429 77.693C194.479 77.688 194.494 77.688 194.464 77.7328Z" fill="#263238"/>
<path d="M193.508 70.3724C192.063 69.9391 191.057 66.7519 191.56 65.5717C192.063 64.3914 193.249 66.2539 193.249 66.2539C193.249 66.2539 193.368 65.1384 193.876 65.0139C194.384 64.8894 195.33 66.4232 195.33 66.4232C195.33 66.4232 200.181 66.732 201.217 67.1055C202.252 67.479 202.566 68.8734 202.566 68.8734C202.998 69.065 203.383 69.3489 203.694 69.705C204.004 70.0612 204.233 70.4811 204.364 70.9351C204.862 72.5486 203.258 78.6093 202.257 79.431C201.256 80.2527 198.483 75.6412 198.483 75.6412C198.483 75.6412 197.736 75.7408 197.427 74.2468C196.974 72.0307 196.849 70.6214 195.749 70.3973C195.004 70.314 194.254 70.3056 193.508 70.3724Z" fill="#263238"/>
<path d="M198.254 75.9052C198.254 75.9052 199.479 73.7538 200.445 74.1721C201.411 74.5904 200.619 77.6183 199.579 78.1213C199.45 78.195 199.307 78.2419 199.16 78.2593C199.013 78.2766 198.863 78.2639 198.721 78.2221C198.579 78.1802 198.446 78.11 198.332 78.0156C198.217 77.9213 198.123 77.8048 198.055 77.6731L198.254 75.9052Z" fill="#AD6359"/>
<path d="M200.196 75.0337C200.196 75.0337 200.221 75.0337 200.196 75.0636C199.865 75.2684 199.581 75.5405 199.362 75.8622C199.143 76.184 198.995 76.5481 198.926 76.9311C198.962 76.8507 199.016 76.7793 199.083 76.7217C199.149 76.6641 199.228 76.6218 199.313 76.5976C199.398 76.5734 199.487 76.568 199.574 76.5818C199.661 76.5955 199.744 76.628 199.817 76.6771V76.7219C199.681 76.6911 199.538 76.7038 199.41 76.7583C199.281 76.8128 199.173 76.9064 199.1 77.0257C198.977 77.2244 198.876 77.4366 198.801 77.6582C198.772 77.7329 198.647 77.7079 198.662 77.6233C198.547 76.6472 199.17 75.2279 200.196 75.0337Z" fill="#263238"/>
<path d="M197.88 90.7854C194.065 98.126 187.317 106.373 180.739 109.45C176.73 111.318 173.767 110.312 172.577 108.823C170.848 106.687 174.215 92.9567 176.81 88.8183C177.656 87.4787 190.196 90.9946 189.354 92.4637C188.513 93.9328 192.342 89.5355 196.481 86.2337C200.728 82.8224 200.196 86.3532 197.88 90.7854Z" fill="#AD6359"/>
<path d="M180.824 81.4977C182.318 80.3822 183.976 78.9778 185.868 78.435C187.761 77.8922 190.087 79.8991 190.306 80.6063C190.525 81.3134 191.177 85.9797 189.31 86.5574C187.442 87.1351 187.517 83.3752 187.318 83.0066C187.118 82.6381 186.899 82.16 186.556 82.3045C186.212 82.4489 180.898 87.2845 180.898 87.2845L180.824 81.4977Z" fill="#AD6359"/>
<path d="M181.023 81.7218C181.128 81.6919 185.56 78.1512 187.457 77.6083C189.354 77.0655 191.675 79.0725 191.894 79.7846C192.113 80.4967 192.766 85.153 190.898 85.7307C189.031 86.3084 189.105 82.5485 188.906 82.18C188.707 81.8115 188.493 81.3334 188.149 81.4828C187.806 81.6322 182.492 86.4628 182.492 86.4628L181.023 81.7218Z" fill="#AD6359"/>
<path d="M190.171 85.6908C189.871 85.4204 189.644 85.0775 189.514 84.6948C189.35 84.3047 189.249 83.8913 189.215 83.4697C189.215 83.0994 189.185 82.7296 189.125 82.3642C189.015 82.0165 188.82 81.7016 188.558 81.4478C188.329 81.2287 188.06 81.403 187.87 81.5624C187.559 81.8012 187.265 82.0607 186.989 82.3393L186.083 83.2157C185.761 83.5079 185.458 83.8206 185.176 84.152C185.176 84.1769 185.176 84.2167 185.216 84.1968C185.503 83.9709 185.777 83.7298 186.038 83.4747C186.343 83.1958 186.652 82.9219 186.964 82.653C187.253 82.399 187.532 82.1301 187.826 81.8811C187.93 81.7915 188.129 81.5923 188.279 81.5773C188.428 81.5624 188.612 81.901 188.677 82.0056C188.861 82.3185 188.948 82.6791 188.926 83.0414C188.928 83.4081 188.969 83.7736 189.046 84.1321C189.115 84.4705 189.243 84.7941 189.424 85.0882C189.63 85.3382 189.864 85.5638 190.121 85.7605C190.156 85.7755 190.206 85.7157 190.171 85.6908Z" fill="#263238"/>
<path d="M176.75 88.9628C176.75 88.9628 178.996 83.5396 181.122 80.8653C183 78.4948 185.415 76.6024 187.447 75.955C189.479 75.3076 194.519 80.5864 192.845 81.433C191.082 82.3095 188.732 79.6203 188.005 80.2876C187.193 81.0346 186.242 82.2796 186.625 83.3254C187.009 84.3712 188.617 85.9847 190.335 85.3971C192.054 84.8094 191.874 82.4688 193.398 81.692C194.922 80.9151 195.315 83.6292 194.703 85.676C194.017 87.6905 192.774 89.4691 191.117 90.8054C189.778 91.8362 185.704 95.2874 185.704 95.2874L176.75 88.9628Z" fill="#AD6359"/>
<path d="M192.183 81.6023C191.519 81.628 190.86 81.4749 190.276 81.1591C189.713 80.8471 189.13 80.571 188.533 80.3324C188.474 80.3107 188.411 80.3027 188.349 80.3087C188.287 80.3147 188.227 80.3347 188.174 80.3672C188.052 80.4517 187.938 80.5485 187.835 80.6561C187.616 80.8847 187.416 81.1312 187.238 81.3931C186.899 81.8911 186.571 82.5236 186.74 83.0664C186.927 83.6556 187.271 84.1826 187.736 84.5903C188.189 85.0186 188.766 85.2924 189.384 85.3721C189.692 85.3905 190.001 85.3534 190.296 85.2626C190.592 85.1524 190.863 84.983 191.092 84.7646C191.554 84.31 191.909 83.759 192.133 83.1511C191.972 83.7975 191.659 84.3965 191.222 84.899C190.983 85.1449 190.694 85.3368 190.375 85.4618C190.057 85.5828 189.719 85.642 189.379 85.6361C188.688 85.5823 188.035 85.2962 187.527 84.8243C186.993 84.3832 186.593 83.802 186.371 83.1461C186.278 82.7898 186.308 82.4126 186.456 82.0754C186.585 81.7575 186.752 81.4565 186.954 81.179C187.148 80.9039 187.364 80.6457 187.601 80.4071C187.728 80.2822 187.866 80.1704 188.015 80.0734C188.105 80.0281 188.204 80.0013 188.305 79.9944C188.405 79.9876 188.507 80.0009 188.602 80.0336C188.919 80.1534 189.223 80.3053 189.509 80.4868L190.355 80.9848C190.903 81.341 191.532 81.5534 192.183 81.6023Z" fill="#263238"/>
<path d="M175.231 89.4458L189.628 92.13L189.429 92.5832C189.429 92.5832 195.331 86.4628 197.895 84.5355C200.883 82.2846 200.734 85.4867 199.324 88.7835C197.915 92.0802 189.364 107 181.461 111.064C178.702 112.478 172.776 110.631 172.119 108.529C170.924 104.764 175.231 89.4458 175.231 89.4458Z" fill="#BA68C8"/>
<path d="M189.464 92.5035C188.81 93.0077 188.19 93.5533 187.606 94.137C186.84 94.8591 186.088 95.5911 185.336 96.3282C183.832 97.7923 182.338 99.2747 180.854 100.775C180.669 100.965 180.49 101.159 180.311 101.348C179.997 101.487 179.698 101.652 179.394 101.806C179.091 101.961 178.667 102.185 178.294 102.364C178.287 102.37 178.282 102.378 178.28 102.387C178.278 102.395 178.279 102.405 178.283 102.413C178.287 102.421 178.294 102.428 178.302 102.431C178.31 102.435 178.32 102.436 178.329 102.434C178.697 102.274 179.071 102.12 179.429 101.936C179.635 101.836 179.839 101.731 180.042 101.622C179.484 102.2 178.926 102.777 178.378 103.365C178.349 103.4 178.378 103.45 178.438 103.42C181.521 100.626 184.509 97.7126 187.402 94.7196C187.816 94.2913 189.13 93.0214 189.489 92.5483C189.529 92.5284 189.499 92.4786 189.464 92.5035Z" fill="#263238"/>
<path d="M187.048 94.4806C186.141 94.2025 185.22 93.9715 184.29 93.7884C183.363 93.5742 182.432 93.39 181.501 93.2157C179.633 92.8571 177.751 92.5533 175.868 92.3043C175.804 92.3043 175.779 92.384 175.868 92.3989C177.721 92.8969 179.598 93.3003 181.476 93.6738C182.407 93.8581 183.338 94.0374 184.28 94.1718C185.2 94.3507 186.129 94.4804 187.063 94.5603C187.093 94.5752 187.093 94.4955 187.048 94.4806Z" fill="#263238"/>
<path d="M197.836 91.7217C195.669 95.128 193.463 98.5044 191.083 101.766C190.385 102.718 189.708 103.684 189.001 104.635C189.001 104.675 189.026 104.729 189.061 104.69C191.651 101.561 194.006 98.2453 196.107 94.7694C196.72 93.7734 197.313 92.7774 197.865 91.7416L197.836 91.7217Z" fill="#263238"/>
<path d="M215.843 118.579C215.778 118.649 188.612 119.171 188.358 118.898C188.005 118.509 192.447 91.2735 196.764 85.3373C197.845 83.8433 201.7 82.8473 203.303 84.3413C207.954 88.7088 208.931 92.3741 210.141 95.372C211.32 98.6095 212.308 101.914 213.099 105.267C214.722 111.672 216.062 118.32 215.843 118.579Z" fill="#BA68C8"/>
<path d="M194.763 90.0285C193.966 92.1051 193.269 94.2266 192.626 96.358C191.984 98.4895 191.411 100.601 190.988 102.767C190.869 103.38 190.754 103.992 190.649 104.605C190.545 105.217 190.46 105.88 190.301 106.502C190.301 106.552 190.366 106.567 190.375 106.502C190.57 105.415 190.829 104.341 191.152 103.285C191.436 102.2 191.735 101.119 192.009 100.028C192.537 97.8869 193.119 95.7604 193.737 93.6439C194.096 92.4338 194.474 91.2336 194.848 90.0285C194.862 89.9936 194.783 89.9787 194.763 90.0285Z" fill="#263238"/>
<path d="M71.1343 176.551L72.1851 182.876L79.3314 221.456H80.4817L75.2876 182.876L74.5207 176.551H71.1343Z" fill="#DBDBDB"/>
<path d="M74.5207 176.551H71.1343L72.1851 182.876H75.2876L74.5207 176.551Z" fill="#A6A6A6"/>
<path d="M48.6992 221.456H49.8496L56.9959 182.876L58.0467 176.551H54.6603L53.8934 182.876L48.6992 221.456Z" fill="#DBDBDB"/>
<path d="M54.6605 176.551L53.8936 182.876H56.9961L58.0469 176.551H54.6605Z" fill="#A6A6A6"/>
<path d="M27.2754 221.456H28.4258L35.5671 182.876L36.6229 176.551H33.2364L32.4695 182.876L27.2754 221.456Z" fill="#DBDBDB"/>
<path d="M32.4695 182.876H35.567L36.6228 176.551H33.2364L32.4695 182.876Z" fill="#A6A6A6"/>
<path d="M29.0981 179.524H81.4429V174.006H61.8466L55.2631 135.695H31.0951L29.0981 179.524Z" fill="#DBDBDB"/>
<path d="M29.0981 179.524H31.9517L33.8142 135.695H31.0951L29.0981 179.524Z" fill="#A6A6A6"/>
<path d="M137.413 217.013C136.442 217.347 108.694 217.442 107.633 216.774C107.224 216.525 106.975 212.482 106.816 207.591L92.5186 190.784L113.793 190.664L124.709 207.477C124.709 207.477 135.347 212.193 136.437 213.049C137.528 213.906 138.379 216.69 137.413 217.013Z" fill="#DD6A57"/>
<path d="M137.413 217.013C136.442 217.347 108.693 217.442 107.632 216.774C107.269 216.555 107.035 213.358 106.875 209.23C109.54 209.693 132.024 213.557 133.09 212.965C134.156 212.372 130.77 210.236 130.77 210.236H130.809C133.399 211.431 135.934 212.651 136.437 213.044C137.512 213.901 138.379 216.69 137.413 217.013Z" fill="#263238"/>
<path d="M122.598 212.203C122.598 212.203 125.451 208.891 130.77 210.236L122.598 212.203Z" fill="#263238"/>
<path d="M126.562 207.287L115.75 208.348L105.078 209.399C105.078 209.399 83.6639 178.956 82.3641 177.627C79.3761 174.639 55.3277 169.788 48.8388 163.339C41.9664 156.511 44.9643 147.876 44.9643 147.876H62.8923C62.8923 147.876 65.1632 153.633 66.1194 153.932C76.4728 157.149 90.2624 161.193 94.7444 165.147C102.782 172.253 126.562 207.287 126.562 207.287Z" fill="#263238"/>
<path d="M123.195 203.991C120.152 204.275 121.019 204.15 117.986 204.489C116.492 204.643 106.736 205.684 105.377 206.077C105.342 206.077 105.377 206.137 105.377 206.137C106.791 206.207 116.532 204.997 118.016 204.812C121.049 204.429 120.172 204.509 123.2 204.095C123.214 204.095 123.227 204.089 123.236 204.078C123.246 204.068 123.251 204.054 123.25 204.041C123.249 204.027 123.243 204.014 123.233 204.004C123.223 203.995 123.209 203.99 123.195 203.991Z" fill="#455A64"/>
<path d="M105.651 204.245C102.135 199.439 98.5393 194.474 94.9437 189.723L89.5504 182.597C88.6474 181.405 87.7443 180.218 86.8413 179.036C86.0816 177.97 85.2229 176.978 84.2766 176.073C83.2912 175.247 82.1864 174.576 80.9997 174.081C79.7498 173.523 78.4649 173.045 77.1701 172.587C74.4809 171.661 71.7419 170.909 69.0179 170.097C63.9632 168.603 58.8437 166.964 54.4912 163.917C50.5769 161.173 47.31 157.099 46.3788 152.323C46.2636 151.717 46.2003 151.102 46.1895 150.486C46.1895 150.475 46.1853 150.465 46.1779 150.457C46.1704 150.45 46.1603 150.446 46.1497 150.446C46.1391 150.446 46.129 150.45 46.1215 150.457C46.1141 150.465 46.1099 150.475 46.1099 150.486C46.2077 152.805 46.8093 155.075 47.8728 157.139C48.9889 159.252 50.4865 161.139 52.29 162.707C56.1744 166.148 61.0897 168.135 65.9801 169.679C68.6892 170.53 71.4581 171.267 74.1522 172.094C75.5317 172.517 76.8962 172.96 78.2458 173.458C79.5399 173.906 80.7998 174.447 82.0157 175.077C83.1986 175.717 84.2523 176.572 85.1232 177.597C86.0445 178.677 86.8612 179.853 87.7128 180.988C89.5056 183.369 91.3034 185.746 93.1061 188.119C96.7266 192.905 100.322 197.716 103.997 202.462C104.456 203.055 104.919 203.637 105.377 204.225C105.501 204.414 105.8 204.449 105.651 204.245Z" fill="#455A64"/>
<path d="M91.6616 222.775C90.6905 223.089 62.942 222.731 61.8962 222.043C61.4928 221.794 65.7407 194.768 65.7407 194.768L84.3062 194.952L79.122 213.034C79.122 213.034 89.6796 217.92 90.7503 218.796C91.821 219.673 92.6277 222.467 91.6616 222.775Z" fill="#DD6A57"/>
<path d="M91.6619 222.775C90.6908 223.089 62.9422 222.731 61.8964 222.043C61.7669 221.964 62.1205 219.085 62.6633 215.226C63.7938 207.168 65.736 194.768 65.736 194.768L84.3014 194.952L79.1173 213.034C79.1173 213.034 82.3991 214.553 85.4867 216.047C87.9368 217.233 90.2625 218.403 90.7356 218.791C91.8163 219.668 92.628 222.467 91.6619 222.775Z" fill="#DD6A57"/>
<path d="M91.6619 222.775C90.6908 223.089 62.9422 222.73 61.8964 222.043C61.7669 221.964 62.1205 219.085 62.6633 215.226C65.4023 215.694 71.9461 216.804 77.683 217.676L78.3503 217.775C83.2307 218.502 87.3741 219.025 87.8123 218.771C88.9129 218.154 85.6759 216.152 85.4966 216.047C87.9468 217.233 90.2725 218.403 90.7456 218.791C91.8163 219.668 92.628 222.467 91.6619 222.775Z" fill="#263238"/>
<path d="M77.3296 218.019C77.3296 218.019 80.1831 214.703 85.4968 216.027L77.3296 218.019Z" fill="#263238"/>
<path d="M80.3871 212.79L60.9153 212.696C60.9153 212.696 70.0337 178.194 69.5954 175.59C69.3913 174.385 47.7581 176.197 39.9893 168.05C33.3062 161.038 39.4615 147.906 39.4615 147.906L60.2978 147.408C60.2978 147.408 58.3755 153.045 57.0658 156.541C57.0658 156.541 85.636 158.558 88.8431 164.823C92.2644 171.516 80.3871 212.79 80.3871 212.79Z" fill="#263238"/>
<path d="M59.7599 148.792C59.5507 149.898 59.3714 151.008 59.1174 152.104C58.9979 152.602 58.8884 153.145 58.734 153.653C58.6864 153.877 58.5633 154.077 58.3854 154.221C58.1747 154.339 57.934 154.392 57.6932 154.375C57.5824 154.391 57.4695 154.381 57.3631 154.347C57.2566 154.312 57.1595 154.254 57.0792 154.176C56.9989 154.098 56.9375 154.003 56.8998 153.897C56.862 153.792 56.8489 153.679 56.8615 153.568C56.8615 152.542 57.5487 149.046 57.5886 148.758C57.5886 148.703 57.4093 148.678 57.3944 148.758C56.8964 150.954 56.2141 153.738 56.6324 154.29C56.8588 154.567 57.1766 154.753 57.5283 154.815C57.8801 154.877 58.2424 154.811 58.5497 154.629C58.8146 154.414 58.9917 154.109 59.0477 153.772C59.1722 153.274 59.2469 152.776 59.3366 152.313C59.5457 151.158 59.7698 150.007 59.9192 148.827C59.9141 148.812 59.905 148.798 59.8927 148.786C59.8805 148.775 59.8656 148.768 59.8495 148.764C59.8334 148.761 59.8167 148.761 59.8009 148.766C59.7852 148.771 59.7711 148.78 59.7599 148.792Z" fill="#455A64"/>
<path d="M57.3697 154.778C57.3339 154.918 57.3056 155.059 57.285 155.202C57.2552 155.346 57.2253 155.485 57.1904 155.625C57.1556 155.764 57.1257 155.909 57.0858 156.053C57.046 156.198 57.0261 156.332 56.9962 156.476C56.9954 156.488 56.9986 156.5 57.0052 156.51C57.0118 156.52 57.0215 156.528 57.0328 156.532C57.0441 156.536 57.0563 156.536 57.0677 156.532C57.0791 156.528 57.089 156.521 57.0958 156.511C57.161 156.382 57.2192 156.249 57.2701 156.113C57.3149 155.969 57.3597 155.829 57.3996 155.685C57.4394 155.54 57.4693 155.401 57.4992 155.256C57.5417 155.112 57.5668 154.963 57.5739 154.813C57.5739 154.714 57.4046 154.674 57.3697 154.778Z" fill="#455A64"/>
<path d="M73.0167 174.649C72.6183 173.573 71.4779 173.424 70.477 173.359C69.0427 173.266 67.6101 173.145 66.1792 172.995C63.3207 172.696 60.4755 172.285 57.6435 171.76C54.9506 171.316 52.2891 170.699 49.6755 169.913C47.2612 169.213 45.0305 167.991 43.1417 166.332C41.372 164.772 40.204 162.642 39.84 160.311C39.7063 158.891 39.7447 157.459 39.9545 156.048C40.1189 154.629 40.323 153.22 40.6069 151.82C40.7513 151.128 40.9107 150.446 41.1049 149.769C41.1021 149.761 41.097 149.754 41.0903 149.75C41.0836 149.745 41.0757 149.743 41.0676 149.743C41.0594 149.743 41.0515 149.745 41.0448 149.75C41.0381 149.754 41.033 149.761 41.0302 149.769C40.309 152.493 39.8093 155.271 39.5362 158.075C39.4123 159.358 39.5152 160.653 39.84 161.9C40.1644 162.974 40.6697 163.984 41.334 164.888C44.2821 168.971 49.3568 170.45 54.0479 171.461C56.8566 172.069 59.6786 172.567 62.5139 172.955C63.8934 173.14 65.2778 173.304 66.6623 173.453C68.0467 173.603 69.466 173.663 70.8654 173.787C71.1641 173.778 71.4614 173.832 71.7384 173.944C72.0153 174.056 72.2658 174.225 72.4739 174.439C72.6245 174.689 72.7244 174.965 72.768 175.253C72.8115 175.541 72.7979 175.835 72.7279 176.118C72.6233 176.77 72.4291 177.413 72.2697 178.055C72.1104 178.697 71.9261 179.424 71.7717 180.107C71.0546 182.959 70.3425 185.815 69.6353 188.677C68.226 194.369 66.7818 200.062 65.4671 205.779C65.3027 206.486 65.1434 207.193 64.994 207.905C64.9907 207.918 64.9927 207.932 64.9998 207.944C65.0068 207.956 65.0181 207.964 65.0313 207.967C65.0445 207.971 65.0585 207.969 65.0702 207.962C65.0819 207.955 65.0903 207.943 65.0936 207.93C65.9203 205.106 66.5876 202.238 67.3296 199.384C68.0716 196.531 68.7838 193.677 69.4959 190.824C70.208 187.97 70.9202 185.151 71.6224 182.313C71.9544 180.882 72.3063 179.453 72.6781 178.025C72.9221 176.974 73.4102 175.699 73.0167 174.649Z" fill="#455A64"/>
<path d="M80.5962 209.484C78.3402 209.344 76.0793 209.289 73.8184 209.215C71.5575 209.14 69.3065 209.11 67.0506 209.15C65.7657 209.15 64.4859 209.26 63.201 209.28C63.1512 209.28 63.1562 209.354 63.201 209.354C65.462 209.354 67.7179 209.533 69.9788 209.543C72.2397 209.553 74.4907 209.543 76.7466 209.543C78.0265 209.543 79.3113 209.588 80.5962 209.578C80.6759 209.568 80.6759 209.489 80.5962 209.484Z" fill="#455A64"/>
<path d="M49.1275 150.949C49.0997 151.047 49.0613 151.142 49.013 151.233C49.0073 151.24 49.0042 151.248 49.0042 151.257C49.0042 151.267 49.0073 151.275 49.013 151.282C48.5498 152.826 47.9672 154.415 46.6126 155.391C45.9169 155.885 45.1422 156.257 44.3218 156.491C43.3656 156.77 42.3696 156.85 41.4085 157.114C41.3875 157.124 41.3703 157.14 41.3596 157.16C41.3489 157.181 41.3452 157.204 41.3492 157.227C41.3532 157.25 41.3646 157.271 41.3816 157.286C41.3987 157.302 41.4204 157.311 41.4434 157.313C42.5227 157.361 43.6033 157.25 44.6505 156.984C45.5535 156.782 46.4026 156.388 47.1405 155.829C48.6345 154.619 49.0578 152.796 49.257 150.959C49.252 150.894 49.1474 150.894 49.1275 150.949Z" fill="#455A64"/>
<path d="M88.2653 163.787C87.3639 162.577 86.0392 161.925 84.6348 161.466C75.1728 158.359 63.5744 156.984 57.2448 156.462C57.195 156.462 57.1751 156.531 57.2448 156.536C64.0874 157.567 81.602 159.913 86.5521 162.866C88.6736 164.131 89.6049 167.164 89.0123 172.154C88.5392 176.138 88.0163 180.42 87.3639 184.36C87.3639 184.499 87.4336 184.489 87.4635 184.36C88.2155 180.804 88.8629 176.914 89.321 173.309C89.6895 170.191 90.2772 166.486 88.2653 163.787Z" fill="#455A64"/>
<path d="M49.6854 107.458C47.4444 110.302 47.1954 114.565 47.1954 114.565C47.1954 114.565 45.2632 119.047 46.1994 121.253C46.4586 121.879 46.866 122.433 47.3864 122.866C47.9069 123.3 48.525 123.601 49.1874 123.743L48.8289 122.508C48.8289 122.508 49.8249 124.032 52.6585 124.356C55.4921 124.679 58.9931 123.399 60.761 122.219C61.8177 121.528 62.676 120.574 63.251 119.45L62.753 121.368C63.6319 121.16 64.446 120.739 65.1228 120.141C65.7997 119.544 66.3182 118.788 66.6324 117.941C67.8674 114.923 62.8476 111.408 62.3595 110.581C61.8715 109.754 60.6116 103.44 54.038 105.347C54.033 105.352 51.2292 105.506 49.6854 107.458Z" fill="#263238"/>
<path d="M48.236 123.698C47.4191 123.368 46.7236 122.794 46.244 122.055C45.7322 121.34 45.476 120.473 45.5169 119.595C45.6386 118.551 45.9491 117.539 46.4332 116.607C46.8715 115.611 47.3794 114.669 47.7977 113.678C47.7977 113.624 47.738 113.589 47.7031 113.634C47.1949 114.407 46.731 115.208 46.3137 116.034C45.871 116.793 45.5199 117.602 45.2679 118.444C45.039 119.223 45.039 120.051 45.2679 120.83C45.4633 121.464 45.8122 122.041 46.2838 122.508C46.8679 123.009 47.5139 123.432 48.2061 123.768C48.2459 123.783 48.3057 123.713 48.236 123.698Z" fill="#263238"/>
<path d="M66.8417 114.968C65.7561 112.717 63.4653 111.482 61.9364 109.595C61.1048 108.569 60.4175 107.409 59.3966 106.557C59.3966 106.532 59.3319 106.557 59.3568 106.602C60.1379 107.424 60.8291 108.327 61.4185 109.296C62.1062 110.214 62.8854 111.06 63.7442 111.821C65.268 113.255 67.0857 114.948 67.0509 117.214C67.0509 118.265 66.5529 119.475 65.5569 119.923C65.517 119.923 65.5569 120.008 65.5917 119.983C65.9877 119.766 66.3351 119.47 66.6126 119.114C66.8901 118.758 67.0918 118.348 67.2053 117.911C67.4438 116.919 67.3147 115.873 66.8417 114.968Z" fill="#263238"/>
<path d="M67.0156 115.591C66.9846 114.688 66.673 113.818 66.1242 113.101C65.5324 112.434 64.8037 111.902 63.9878 111.542C63.0814 111.084 62.1352 110.665 61.4978 109.844C61.4978 109.809 61.4231 109.844 61.448 109.889C62.4738 111.243 64.1621 111.731 65.3971 112.827C66.8114 114.082 67.0554 116.124 66.3931 117.807C65.9662 118.85 65.2991 119.779 64.4459 120.516C64.4459 120.516 64.4459 120.551 64.4459 120.516C65.925 119.341 67.1301 117.578 67.0156 115.591Z" fill="#263238"/>
<path d="M60.6565 129.978C64.3517 133.315 77.5188 143.499 82.3444 142.323C85.5067 141.551 96.5324 134.809 97.1948 131.098C97.4836 129.485 91.9707 121.88 90.5913 122.961C89.2118 124.042 80.5267 129.779 79.2269 130.003C77.9271 130.227 64.6056 124.525 60.2282 123.658C52.6785 122.124 58.6695 128.18 60.6565 129.978Z" fill="#DD6A57"/>
<path d="M92.0602 119.306C93.6638 118.31 95.4267 117.08 97.3639 116.711C99.3011 116.343 101.433 118.554 101.587 119.281C101.741 120.008 101.965 124.709 100.033 125.113C98.1009 125.516 98.5392 121.781 98.3848 121.397C98.2304 121.014 98.0462 120.516 97.6926 120.631C97.339 120.745 91.6021 125.113 91.6021 125.113L92.0602 119.306Z" fill="#DD6A57"/>
<path d="M92.2393 119.545C92.3488 119.545 97.0848 116.403 99.022 116.034C100.959 115.666 103.091 117.877 103.24 118.609C103.389 119.341 103.619 124.032 101.691 124.435C99.764 124.839 100.197 121.104 100.038 120.72C99.8786 120.337 99.7043 119.839 99.3457 119.953C98.9872 120.068 93.2602 124.435 93.2602 124.435L92.2393 119.545Z" fill="#DD6A57"/>
<path d="M100.984 124.331C100.709 124.028 100.516 123.659 100.427 123.26C100.3 122.857 100.236 122.437 100.237 122.015C100.267 121.645 100.267 121.274 100.237 120.904C100.155 120.547 99.9839 120.216 99.7394 119.943C99.5352 119.699 99.2713 119.854 99.0422 119.988C98.7132 120.201 98.3972 120.434 98.096 120.685C97.7623 120.944 97.4386 121.213 97.1 121.477C96.7511 121.739 96.4185 122.021 96.104 122.324C96.104 122.349 96.104 122.393 96.1389 122.373C96.4526 122.184 96.7315 121.945 97.0253 121.726C97.3191 121.507 97.6876 121.228 98.0213 120.994C98.355 120.76 98.6338 120.526 98.9526 120.302C99.0621 120.227 99.2812 120.043 99.4506 120.043C99.6199 120.043 99.7494 120.391 99.8091 120.506C99.9631 120.835 100.015 121.203 99.9585 121.562C99.9295 121.927 99.9378 122.294 99.9834 122.657C100.015 123.005 100.113 123.343 100.272 123.653C100.454 123.922 100.666 124.17 100.905 124.39C100.964 124.41 101.019 124.361 100.984 124.331Z" fill="#263238"/>
<path d="M87.1846 125.884C87.1846 125.884 91.5022 119.908 92.4136 118.698C94.2363 116.293 102.832 110.486 104.112 110.073C105.391 109.66 106.427 112.244 100.626 116.368C97.5679 118.544 97.3736 120.596 97.6376 121.646C97.9015 122.697 99.3607 124.475 101.124 124.052C102.887 123.628 103.524 120.765 105.108 120.128C106.691 119.49 106.238 122.742 105.441 124.729C104.575 126.673 103.175 128.331 101.402 129.51C99.9732 130.416 95.6057 133.494 95.6057 133.494L87.1846 125.884Z" fill="#DD6A57"/>
<path d="M103.141 122.324C102.578 122.986 101.951 123.818 101.069 124.047C100.188 124.276 99.4358 123.803 98.8531 123.14C98.2288 122.504 97.8724 121.652 97.8571 120.76C97.9014 119.941 98.1816 119.152 98.6639 118.489C99.2544 117.683 99.959 116.966 100.755 116.363C100.76 116.36 100.765 116.357 100.768 116.352C100.771 116.348 100.773 116.343 100.774 116.338C100.775 116.333 100.775 116.327 100.774 116.322C100.772 116.317 100.77 116.312 100.766 116.308C100.763 116.304 100.758 116.301 100.753 116.299C100.748 116.297 100.743 116.296 100.737 116.297C100.732 116.297 100.727 116.299 100.722 116.302C100.717 116.304 100.714 116.308 100.711 116.313C99.9587 116.851 97.6131 118.444 97.5732 120.82C97.5948 121.729 97.9637 122.595 98.6041 123.24C99.1519 123.872 99.874 124.44 100.76 124.331C101.836 124.191 102.568 123.14 103.196 122.339C103.231 122.299 103.171 122.289 103.141 122.324Z" fill="#263238"/>
<path d="M86.7963 124.067L93.1258 136.452C93.1258 136.452 84.7694 142.587 80.1081 142.976C74.4508 143.474 60.5517 131.437 58.4601 129.375C55.0338 125.989 54.3814 123.31 56.9362 122.901C57.9322 122.737 59.4262 122.901 61.4182 123.544C63.4948 124.196 75.8602 128.917 79.3063 129.326C81.1987 129.55 86.7963 124.067 86.7963 124.067Z" fill="#455A64"/>
<path d="M86.7914 124.067L93.126 136.452C93.126 136.452 91.7416 137.448 89.7794 138.698C86.9259 140.491 82.8672 142.742 80.1083 142.971C74.456 143.469 60.5468 131.432 58.4602 129.37C55.9702 126.92 54.9742 124.839 55.5469 123.723C55.6964 123.485 55.9003 123.286 56.1419 123.142C56.3835 122.998 56.6558 122.914 56.9363 122.896C57.9323 122.737 59.4263 122.896 61.4183 123.544C63.495 124.196 75.8603 128.917 79.3065 129.326C81.1989 129.55 86.7914 124.067 86.7914 124.067Z" fill="#455A64"/>
<path d="M93.126 136.452C93.126 136.452 91.7416 137.448 89.7794 138.698C88.5295 139.48 87.0604 140.351 85.5614 141.103C83.6291 142.069 81.662 142.841 80.0834 142.971C74.4311 143.469 60.5219 131.432 58.4353 129.37C55.9453 126.92 54.9493 124.839 55.522 123.723C55.5924 123.585 55.6908 123.463 55.8109 123.365C56.1246 123.105 56.507 122.943 56.9114 122.896C57.9074 122.737 59.4014 122.896 61.3934 123.544C63.4701 124.196 75.8354 128.917 79.2816 129.326C81.1989 129.555 86.7914 124.072 86.7914 124.072L93.126 136.452Z" fill="#455A64"/>
<path d="M90.5414 137.045C89.5454 135.242 85.7706 127.727 85.0634 126.044C85.0136 125.929 85.0634 125.869 85.1431 125.984C88.2406 131.308 89.7297 135.187 90.6211 137.005C90.636 137.05 90.5663 137.089 90.5414 137.045Z" fill="#263238"/>
<path d="M85.5565 141.098C83.6243 142.064 81.6572 142.836 80.0785 142.966C74.4262 143.464 60.5171 131.427 58.4304 129.365C55.9404 126.915 54.9444 124.834 55.5171 123.718C55.5876 123.58 55.6859 123.458 55.806 123.359L85.5565 141.098Z" fill="#263238"/>
<path d="M37.2153 153.324C39.2073 153.613 43.9632 154.041 49.0279 154.47C57.1054 155.137 66.0097 155.784 66.0097 155.784L64.5157 140.346C64.5157 140.346 66.5824 137.358 66.2039 134.465C65.7657 131.198 60.5466 124.48 59.9889 123.962C58.1014 122.204 55.3774 121.158 52.7679 122.563C52.2221 122.86 51.7194 123.23 51.2739 123.663C51.2416 123.691 51.2116 123.721 51.1842 123.753C51.0398 123.892 50.8854 124.042 50.741 124.206C44.2521 131.213 37.2153 153.324 37.2153 153.324Z" fill="#455A64"/>
<path d="M48.8886 125.944C43.56 133.195 36.6228 146.706 39.058 148.852C44.3866 153.563 55.492 159.126 60.8555 159.584C62.4242 159.718 65.3375 149.455 64.2768 148.13C63.216 146.805 49.8348 143.075 49.7152 142.054C49.6356 141.472 51.3835 135.013 52.8875 128.778C54.6255 121.621 50.4124 123.867 48.8886 125.944Z" fill="#DD6A57"/>
<path d="M61.5227 147.378C61.5227 147.378 66.3184 147.244 69.4558 147.303C71.2038 147.338 74.2018 147.662 75.4767 148.274C77.384 149.191 84.7693 154.25 83.5841 156.063C82.5084 157.707 76.7117 152.577 76.7117 152.577C76.7117 152.577 83.0214 157.248 81.363 158.996C79.7047 160.744 73.9329 154.051 73.9329 154.051C73.9329 154.051 80.3073 159.001 78.3103 160.525C76.8163 161.681 71.2337 155.919 71.2337 155.919C71.2337 155.919 76.6918 160.202 75.1978 161.457C73.5295 162.846 68.0515 157.866 68.0515 157.866C63.7039 160.416 60.5815 159.858 58.4301 159.186C57.9072 159.001 61.5227 147.378 61.5227 147.378Z" fill="#DD6A57"/>
<path d="M74.6352 150.804C75.3972 151.327 76.1691 151.85 76.8812 152.438C77.5934 153.025 78.2856 153.638 78.938 154.29C79.8088 155.127 80.5823 156.059 81.2437 157.069C79.8753 155.45 78.3581 153.963 76.7119 152.627C76.0047 152.039 75.3225 151.417 74.6104 150.829L74.6352 150.804Z" fill="#263238"/>
<path d="M72.4641 153.334C73.4103 154.046 74.3714 154.714 75.2827 155.466C76.1941 156.218 76.9859 156.999 77.8375 157.806C77.9022 157.871 77.8375 157.886 77.7777 157.806C76.8963 157.034 76.0148 156.387 75.1234 155.625C74.232 154.863 73.3654 154.061 72.4441 153.334C72.4342 153.344 72.4491 153.324 72.4641 153.334Z" fill="#263238"/>
<path d="M70.2177 155.172C71.6883 156.225 73.0466 157.426 74.2715 158.757C74.3362 158.822 74.2715 158.832 74.1968 158.757C72.8671 157.542 71.8362 156.576 70.1829 155.212C70.148 155.202 70.1779 155.152 70.2177 155.172Z" fill="#263238"/>
<path d="M55.5119 159.594L62.7478 146.805C62.7478 146.805 50.3924 142.488 50.0837 142.089C49.7749 141.691 52.235 133.623 53.2709 128.315C54.3067 123.006 51.9064 121.741 47.9722 126.751C44.038 131.761 36.797 145.008 38.0122 148.235C39.2273 151.462 55.5119 159.594 55.5119 159.594Z" fill="#455A64"/>
<path d="M60.1183 146.676C59.8255 147.07 59.5609 147.484 59.3264 147.916L58.4998 149.27C57.942 150.192 57.4042 151.123 56.8763 152.059C55.8355 153.917 54.8046 155.784 53.7588 157.637C53.7588 157.682 53.7986 157.717 53.8285 157.677C54.9739 155.874 56.1044 154.071 57.195 152.234C57.7378 151.327 58.2607 150.411 58.7537 149.48C59.0027 149.012 59.2517 148.543 59.4908 148.075C59.7449 147.633 59.9679 147.174 60.1581 146.701C60.1681 146.676 60.1332 146.661 60.1183 146.676Z" fill="#263238"/>
<path d="M55.4622 159.499C53.1963 158.299 50.9802 157.009 48.7491 155.715C46.5181 154.42 44.2671 153.115 42.1606 151.656C41.563 151.243 40.9604 150.834 40.3728 150.406C39.7851 149.978 39.2473 149.509 38.6397 149.136C38.5949 149.106 38.5551 149.171 38.5899 149.201C39.0375 149.658 39.5222 150.078 40.0391 150.456C40.5371 150.864 41.075 151.262 41.6028 151.656C42.5988 152.418 43.6895 153.15 44.7651 153.812C46.9265 155.197 49.1774 156.437 51.4632 157.602C52.778 158.269 54.1176 158.892 55.4472 159.569C55.4544 159.567 55.4609 159.563 55.4661 159.558C55.4712 159.553 55.4747 159.546 55.4763 159.539C55.4778 159.532 55.4773 159.524 55.4748 159.517C55.4723 159.51 55.468 159.504 55.4622 159.499Z" fill="#263238"/>
<path d="M62.7479 146.716C61.6324 146.282 50.6913 142.114 50.2381 142.03C50.2381 141.691 51.2043 137.782 51.4184 136.875C51.4682 136.661 51.513 136.452 51.5578 136.243C51.7222 135.829 51.8815 135.411 52.0558 134.993C52.2802 134.426 52.5397 133.874 52.8327 133.339C52.838 133.33 52.8394 133.319 52.8366 133.309C52.8338 133.299 52.827 133.29 52.8178 133.285C52.8085 133.279 52.7976 133.278 52.7873 133.281C52.777 133.284 52.7683 133.29 52.763 133.3C52.4791 133.847 52.1903 134.4 51.9313 134.958L51.7969 135.252L52.0359 134.206C52.2401 133.28 52.4791 132.348 52.6136 131.407C52.6105 131.398 52.6048 131.391 52.5972 131.385C52.5897 131.38 52.5806 131.377 52.5713 131.377C52.562 131.377 52.5529 131.38 52.5453 131.385C52.5377 131.391 52.532 131.398 52.5289 131.407C52.1953 132.343 51.9612 133.315 51.6973 134.271C51.4333 135.227 49.9144 142.119 49.9692 142.164C50.3726 142.463 61.6623 146.407 62.7429 146.81C62.7479 146.805 62.7778 146.731 62.7479 146.716Z" fill="#263238"/>
<path d="M82.8272 161.317H57.23V162.468H82.8272V161.317Z" fill="#BA68C8"/>
<path opacity="0.1" d="M82.8271 161.317H69.9438V162.468H82.8271V161.317Z" fill="black"/>
<path d="M71.3335 162.462H96.2783L99.5402 145.521H74.5904L71.3335 162.462Z" fill="#BA68C8"/>
<path d="M83.9178 153.991C83.9003 154.183 83.9233 154.376 83.9852 154.557C84.0471 154.739 84.1465 154.906 84.2771 155.047C84.4077 155.188 84.5664 155.3 84.743 155.375C84.9196 155.451 85.1102 155.488 85.3022 155.485C85.7116 155.478 86.1044 155.322 86.4082 155.048C86.7121 154.773 86.9064 154.398 86.9556 153.991C86.9761 153.798 86.9552 153.602 86.8944 153.417C86.8336 153.233 86.7343 153.063 86.6029 152.919C86.4716 152.776 86.3112 152.662 86.1325 152.585C85.9538 152.508 85.7608 152.469 85.5662 152.473C85.1532 152.48 84.7573 152.639 84.4535 152.919C84.1498 153.199 83.9592 153.58 83.9178 153.991Z" fill="white"/>
<path d="M53.5448 123.006C53.6992 123.399 56.0348 125.76 57.8625 125.406C58.4601 125.287 57.972 121.985 57.972 121.985V121.731L58.2459 118.2L53.8585 116.208L53.2261 115.949C53.2261 115.949 53.2261 116.92 53.2261 118.131V118.305C53.2261 118.37 53.2261 118.434 53.2261 118.499C53.2261 118.678 53.2261 118.863 53.2261 119.047C53.2261 119.231 53.2261 119.326 53.2261 119.47C53.2261 119.615 53.2261 119.764 53.2261 119.908C53.2647 120.947 53.3712 121.982 53.5448 123.006Z" fill="#DD6A57"/>
<path d="M53.2363 118.121C53.7189 119.032 54.3944 119.827 55.2157 120.451C56.0371 121.074 56.9847 121.511 57.9922 121.731L58.2661 118.2L53.8787 116.208L53.2463 115.949C53.2463 115.949 53.2363 116.91 53.2363 118.121Z" fill="#263238"/>
<path d="M62.1403 112.05C63.5795 118.096 60.1184 119.639 58.8137 119.948C57.6284 120.227 53.5648 121.034 51.508 115.167C49.4513 109.301 51.8068 106.701 54.496 105.934C57.1852 105.168 60.7011 106.014 62.1403 112.05Z" fill="#DD6A57"/>
<path d="M61.3236 111.054C61.181 111.061 61.038 111.061 60.8954 111.054C60.7434 111.067 60.5912 111.031 60.4621 110.949C60.4265 110.917 60.4028 110.873 60.3947 110.825C60.3866 110.777 60.3945 110.728 60.4173 110.685C60.4742 110.609 60.5502 110.549 60.6376 110.512C60.725 110.474 60.8208 110.46 60.9153 110.471C61.1163 110.467 61.3117 110.538 61.4631 110.671C61.4901 110.702 61.5083 110.74 61.5158 110.781C61.5233 110.822 61.5197 110.864 61.5055 110.903C61.4913 110.942 61.467 110.977 61.435 111.003C61.4031 111.03 61.3646 111.047 61.3236 111.054Z" fill="#263238"/>
<path d="M57.4094 111.796C57.545 111.752 57.678 111.7 57.8078 111.642C57.9566 111.608 58.0899 111.526 58.1863 111.408C58.2103 111.364 58.219 111.314 58.2108 111.265C58.2027 111.216 58.1782 111.172 58.1415 111.139C58.0612 111.083 57.9677 111.051 57.8705 111.044C57.7733 111.037 57.6761 111.056 57.5887 111.099C57.3993 111.162 57.2387 111.291 57.1355 111.462C57.114 111.503 57.105 111.549 57.1096 111.595C57.1142 111.641 57.1323 111.685 57.1615 111.72C57.1908 111.756 57.2299 111.782 57.274 111.796C57.3181 111.809 57.3652 111.809 57.4094 111.796Z" fill="#263238"/>
<path d="M58.4799 113.21C58.4799 113.21 58.455 113.21 58.455 113.255C58.5496 113.668 58.5844 114.157 58.2358 114.366C58.689 114.236 58.6342 113.589 58.4799 113.21Z" fill="#263238"/>
<path d="M58.0268 112.847C57.3496 112.921 57.5288 114.276 58.1812 114.201C58.8336 114.127 58.5946 112.782 58.0268 112.847Z" fill="#263238"/>
<path d="M57.7681 112.956C57.6635 113.051 57.5689 113.205 57.4245 113.24C57.28 113.275 57.1207 113.155 56.9912 113.036C57.0261 113.295 57.1655 113.534 57.4494 113.534C57.7332 113.534 57.8528 113.275 57.8777 113.006C57.8677 112.986 57.8179 112.921 57.7681 112.956Z" fill="#263238"/>
<path d="M60.7559 112.697C60.7559 112.697 60.7907 112.697 60.7907 112.727C60.8355 113.151 60.96 113.624 61.3584 113.723C60.9053 113.733 60.7559 113.101 60.7559 112.697Z" fill="#263238"/>
<path d="M61.0797 112.204C61.747 112.06 61.991 113.405 61.3735 113.539C60.756 113.673 60.5219 112.329 61.0797 112.204Z" fill="#263238"/>
<path d="M61.3783 112.244C61.4978 112.294 61.6273 112.404 61.7518 112.389C61.8763 112.374 61.9859 112.209 62.0556 112.05C62.1104 112.304 62.0556 112.588 61.8365 112.682C61.6174 112.777 61.4132 112.578 61.3086 112.329C61.3086 112.299 61.3285 112.224 61.3783 112.244Z" fill="#263238"/>
<path d="M58.8588 116.457C58.9733 116.547 59.0879 116.671 59.2422 116.666C59.3973 116.648 59.5467 116.597 59.6805 116.517C59.6805 116.517 59.7104 116.517 59.6805 116.517C59.6309 116.605 59.5584 116.678 59.4707 116.728C59.383 116.778 59.2834 116.803 59.1825 116.801C59.0943 116.787 59.0122 116.748 58.9466 116.688C58.8809 116.627 58.8347 116.549 58.814 116.462C58.814 116.457 58.8438 116.447 58.8588 116.457Z" fill="#263238"/>
<path d="M60.3625 114.665C60.4559 114.962 60.534 115.265 60.5965 115.571C60.5965 115.601 60.5318 115.621 60.4322 115.646C60.1868 115.732 59.9222 115.75 59.6675 115.696C59.4128 115.643 59.1777 115.52 58.988 115.342C58.9631 115.317 58.988 115.282 59.0278 115.297C59.4445 115.491 59.912 115.546 60.3625 115.456C60.3625 115.372 60.0089 114.42 60.0537 114.411C60.2854 114.394 60.5183 114.409 60.7459 114.455C60.3973 113.171 59.8396 111.965 59.5109 110.676C59.5101 110.667 59.512 110.659 59.5163 110.651C59.5206 110.644 59.5271 110.639 59.5349 110.635C59.5426 110.632 59.5512 110.631 59.5594 110.633C59.5677 110.635 59.5751 110.639 59.5806 110.646C60.2111 111.93 60.7116 113.275 61.0746 114.66C61.1294 114.819 60.492 114.699 60.3625 114.665Z" fill="#263238"/>
<path d="M60.3722 115.421C60.2695 115.696 60.098 115.939 59.8742 116.129C59.7444 116.226 59.5881 116.281 59.426 116.288C59.0725 116.288 58.9778 115.989 58.9679 115.715C58.963 115.568 58.9747 115.421 59.0027 115.277C59.4329 115.467 59.9119 115.518 60.3722 115.421Z" fill="#263238"/>
<path d="M59.8497 116.129C59.7199 116.226 59.5636 116.281 59.4015 116.288C59.0479 116.288 58.9533 115.989 58.9434 115.715C59.1189 115.672 59.304 115.689 59.4685 115.764C59.6331 115.839 59.7674 115.968 59.8497 116.129Z" fill="#FFA2BE"/>
<path d="M51.5581 115.202C52.2553 115.048 53.7642 112.817 53.2613 109.416C53.2613 109.416 53.5003 112.498 53.3459 112.981C53.1915 113.464 54.1875 111.726 53.819 108.997C54.782 109.473 55.8084 109.809 56.8668 109.993C58.2164 110.143 59.0032 109.993 59.0779 109.894C59.1526 109.794 57.1606 109.495 56.5481 108.987C56.5481 108.987 60.2432 110.018 61.8468 109.879C62.031 109.879 61.6326 106.064 58.9185 104.869C56.2044 103.674 52.6188 106.039 51.7424 107.214C51.7424 107.214 50.5472 107.593 49.5163 109.62C48.4854 111.647 50.7962 115.372 51.5581 115.202Z" fill="#263238"/>
<path d="M60.4968 113.046C60.2827 112.005 60.6661 111.054 61.3584 110.895C62.0506 110.735 62.7876 111.482 63.0067 112.528C63.2259 113.574 62.8374 114.52 62.1452 114.684C61.453 114.849 60.7159 114.067 60.4968 113.046ZM60.7508 112.996C60.94 113.898 61.5426 114.54 62.0904 114.43C62.6382 114.321 62.937 113.484 62.7528 112.578C62.5685 111.671 61.9609 111.034 61.4082 111.149C60.8554 111.263 60.5665 112.05 60.7558 112.971L60.7508 112.996Z" fill="#BA68C8"/>
<path d="M55.7361 114.012C55.688 113.662 55.7433 113.305 55.8952 112.986C56.0471 112.667 56.2889 112.4 56.591 112.216C56.893 112.033 57.2421 111.942 57.5953 111.954C57.9484 111.966 58.2903 112.082 58.5788 112.286C58.8673 112.49 59.0899 112.774 59.2191 113.103C59.3483 113.431 59.3786 113.791 59.3062 114.137C59.2338 114.483 59.0619 114.8 58.8116 115.049C58.5613 115.299 58.2436 115.47 57.8974 115.541C57.4081 115.625 56.9055 115.511 56.5002 115.224C56.0949 114.937 55.8201 114.501 55.7361 114.012ZM55.9901 113.957C56.0746 114.246 56.2414 114.504 56.4701 114.7C56.6988 114.895 56.9795 115.02 57.2779 115.058C57.5763 115.097 57.8795 115.048 58.1504 114.917C58.4213 114.786 58.6482 114.579 58.8034 114.321C58.9586 114.063 59.0353 113.766 59.0243 113.465C59.0132 113.165 58.9148 112.874 58.741 112.628C58.5673 112.382 58.3257 112.193 58.0459 112.082C57.7661 111.971 57.4601 111.945 57.1654 112.005C56.7517 112.11 56.3961 112.374 56.176 112.739C55.9559 113.105 55.8891 113.543 55.9901 113.957Z" fill="#BA68C8"/>
<path d="M59.1525 113.126C60.034 112.593 60.527 112.817 60.532 112.817L60.6465 112.588C60.6465 112.588 60.034 112.289 59.0181 112.902L59.1525 113.126Z" fill="#BA68C8"/>
<path d="M55.8256 113.818V113.544C55.6563 113.544 52.7778 113.584 52.3396 113.649C51.9014 113.713 50.9751 114.51 50.8755 114.6L51.0448 114.794C51.4323 114.429 51.8763 114.13 52.3595 113.907C52.7131 113.868 54.3864 113.853 55.8256 113.818Z" fill="#BA68C8"/>
<path d="M52.5789 115.416C52.5789 115.416 50.9504 113.698 50.1536 114.306C49.3568 114.913 50.7711 117.543 51.8518 117.792C51.9878 117.831 52.1305 117.843 52.2712 117.826C52.4118 117.809 52.5475 117.763 52.67 117.692C52.7925 117.62 52.8992 117.525 52.9837 117.411C53.0682 117.298 53.1287 117.168 53.1615 117.03L52.5789 115.416Z" fill="#DD6A57"/>
<path d="M50.5767 115.038C50.5767 115.038 50.5767 115.038 50.5767 115.068C50.9302 115.183 51.2556 115.371 51.5318 115.62C51.8081 115.868 52.029 116.172 52.1802 116.512C52.1282 116.446 52.0624 116.392 51.9875 116.355C51.9126 116.317 51.8303 116.296 51.7464 116.293C51.6625 116.29 51.579 116.305 51.5017 116.338C51.4244 116.371 51.3551 116.42 51.2988 116.482C51.2988 116.482 51.2988 116.522 51.2988 116.517C51.4186 116.457 51.5543 116.436 51.6866 116.458C51.8189 116.479 51.9411 116.542 52.0358 116.637C52.1927 116.787 52.333 116.954 52.4541 117.135C52.4989 117.194 52.6085 117.135 52.5736 117.07C52.474 116.168 51.5727 114.993 50.5767 115.038Z" fill="#263238"/>
<path d="M58.0021 121.965L57.3447 125.352L53.3906 121.9L52.29 123.235C52.29 123.235 56.8617 129.211 56.8318 128.907L57.6037 125.949L59.8347 127.473L58.8636 123.215L58.0021 121.965Z" fill="#EBEBEB"/>
<path d="M58.9032 123.25C58.9032 123.225 58.8434 123.22 58.8484 123.25C58.933 123.977 59.5306 126.527 59.6651 127.234C59.5705 127.164 57.6133 125.909 57.6034 125.939C57.4042 126.437 56.8365 128.579 56.8066 128.768C56.0048 127.881 53.1463 124.042 52.2449 123.23C52.2393 123.227 52.2331 123.227 52.227 123.228C52.2209 123.229 52.2153 123.232 52.2109 123.236C52.2065 123.24 52.2036 123.246 52.2026 123.252C52.2015 123.258 52.2024 123.264 52.2051 123.27C52.9421 124.226 56.7966 129.186 56.8414 129.161C57.1651 128.136 57.4328 127.093 57.6432 126.039C58.3882 126.633 59.1717 127.177 59.9888 127.667C59.8643 126.885 59.1422 124.002 58.9032 123.25Z" fill="#263238"/>
</svg>
