<svg width="197" height="105" viewBox="0 0 197 105" fill="none" xmlns="http://www.w3.org/2000/svg">
<path d="M158.465 68.3617V53.953L159.111 46.9123C159.134 46.8079 159.143 46.6988 159.143 46.5849C159.143 46.5802 159.143 46.5754 159.143 46.5707C159.143 46.5707 159.143 46.5612 159.143 46.5565C159.13 45.6882 158.452 44.9908 157.619 44.9861H151.032C150.195 44.9861 149.522 45.6882 149.508 46.5565C149.508 46.5565 149.508 46.566 149.508 46.5707C149.508 46.5754 149.508 46.5802 149.508 46.5849C149.508 46.6988 149.522 46.8079 149.54 46.9123L150.186 53.953V70.1598L149.54 77.2005C149.517 77.3049 149.508 77.414 149.508 77.5279C149.508 77.5326 149.508 77.5374 149.508 77.5421C149.508 77.5421 149.508 77.5516 149.508 77.5563C149.522 78.4246 150.2 79.122 151.032 79.1267H157.619C158.456 79.1267 159.13 78.4246 159.143 77.5563C159.143 77.5563 159.143 77.5469 159.143 77.5421C159.143 77.5374 159.143 77.5326 159.143 77.5279C159.143 77.414 159.13 77.3049 159.111 77.2005L158.465 70.1598V68.3617Z" fill="#4A1D4E"/>
<path d="M159.107 81.3376C159.093 80.4741 158.42 79.7767 157.592 79.772C157.592 79.772 157.587 79.772 157.583 79.772H150.995C150.995 79.772 150.991 79.772 150.986 79.772C150.154 79.7815 149.485 80.4741 149.472 81.3376C149.472 81.3376 149.472 81.3471 149.472 81.3518C149.472 81.3566 149.472 81.3613 149.472 81.3661C149.472 81.4799 149.485 81.5891 149.503 81.6934L150.149 88.7341V90.1005C149.808 93.5782 146.983 96.3014 143.562 96.3014C140.141 96.3014 137.371 93.6303 136.984 90.2049C138.049 90.3377 139.104 90.0246 139.959 89.3414C140.842 88.6392 141.406 87.6239 141.551 86.4758C141.697 85.3277 141.41 84.1937 140.737 83.2781L136.088 76.9301C135.005 75.4546 133.149 74.8663 131.461 75.4593C129.778 76.0571 128.646 77.7034 128.646 79.5585V89.3936C128.646 97.9715 135.337 104.95 143.562 104.95C145.928 104.95 148.161 104.357 150.149 103.328C150.213 103.295 150.277 103.266 150.336 103.233C154.585 100.96 157.665 96.6288 158.338 91.5049L158.442 90.2998V88.7389L159.088 81.6982C159.111 81.5938 159.12 81.4847 159.12 81.3708C159.12 81.3661 159.12 81.3613 159.12 81.3566C159.12 81.3566 159.12 81.3471 159.12 81.3424L159.107 81.3376Z" fill="#4A1D4E"/>
<path d="M158.465 33.5995V19.1908L159.111 12.1501C159.134 12.0457 159.143 11.9366 159.143 11.8228C159.143 11.8228 159.143 11.8133 159.143 11.8085C160.226 10.5892 160.89 8.96188 160.89 7.1685C160.89 3.38247 157.947 0.317596 154.321 0.317596C150.695 0.317596 147.752 3.38722 147.752 7.1685C147.752 8.96188 148.416 10.5892 149.499 11.8085V11.818C149.499 11.9319 149.512 12.041 149.531 12.1454L150.177 19.1861V35.3929L149.531 42.4336C149.508 42.538 149.499 42.6471 149.499 42.7609C149.499 42.7657 149.499 42.7704 149.499 42.7752C149.499 42.7752 149.499 42.7847 149.499 42.7894C149.512 43.6576 150.19 44.3551 151.023 44.3598H157.61C158.447 44.3598 159.12 43.6576 159.134 42.7894C159.134 42.7894 159.134 42.7799 159.134 42.7752C159.134 42.7704 159.134 42.7657 159.134 42.7609C159.134 42.6471 159.12 42.538 159.102 42.4336L158.456 35.3929V33.5948L158.465 33.5995ZM155.827 10.2286C155.376 10.4706 154.862 10.6129 154.321 10.6129C153.78 10.6129 153.266 10.4753 152.815 10.2286C151.751 9.65931 151.023 8.50642 151.023 7.17325C151.023 5.27549 152.501 3.73356 154.321 3.73356C156.141 3.73356 157.619 5.27549 157.619 7.17325C157.619 8.50642 156.891 9.65931 155.827 10.2286Z" fill="#4A1D4E"/>
<path d="M45.1731 42.2818C45.1731 40.1705 44.9684 38.4768 44.5589 37.1911C44.1495 35.9101 43.6082 34.9043 42.9304 34.1736C42.2571 33.4477 41.5065 32.9543 40.6876 32.7029C39.8688 32.4514 39.0499 32.328 38.2311 32.328C37.4122 32.328 36.6025 32.4561 35.8109 32.7029C35.0148 32.9543 34.2915 33.443 33.641 34.1736C32.9905 34.9043 32.4582 35.9053 32.0488 37.1911C31.6394 38.472 31.4346 40.1705 31.4346 42.2818V53.9672C31.4346 55.4759 31.4574 56.7047 31.5074 57.6631C31.5529 58.6167 31.603 59.3711 31.653 59.9262C31.6985 60.5287 31.7485 60.9794 31.7986 61.2831C28.8098 61.2831 26.5216 60.6284 24.9339 59.3237C23.3417 58.0189 22.5501 55.884 22.5501 52.914L22.6229 42.2865C22.6229 40.1753 22.4182 38.4815 22.0088 37.1958C21.5994 35.9148 21.058 34.909 20.3802 34.1784C19.7069 33.4525 18.9563 32.959 18.1375 32.7076C17.3186 32.4561 16.4998 32.3328 15.6809 32.3328C14.8621 32.3328 14.0523 32.4609 13.2608 32.7076C12.4647 32.959 11.7414 33.4477 11.0908 34.1784C10.4403 34.909 9.9217 35.9101 9.53502 37.1958C9.14835 38.4768 8.95728 40.1753 8.95728 42.2865V53.972C8.95728 55.4807 8.96638 56.7095 8.99367 57.6679C9.01642 58.6215 9.05281 59.3758 9.10285 59.9309C9.14834 60.5335 9.19839 60.9842 9.24843 61.2878C6.25963 61.2878 3.97141 60.6331 2.38376 59.3284C0.791553 58.0237 0 55.8887 0 52.9187L0.0727864 42.2913C0.0727864 38.9228 0.54135 36.171 1.48302 34.036C2.4247 31.9011 3.63932 30.231 5.13144 29.0212C6.62357 27.8161 8.29766 27.0001 10.1537 26.5731C12.0098 26.1461 13.8522 25.9326 15.6855 25.9326C17.7099 25.9326 19.7069 26.1841 21.6858 26.687C23.6601 27.1899 25.4207 28.1435 26.9628 29.5526C28.505 28.1482 30.261 27.1899 32.2398 26.687C34.2142 26.1841 36.2158 25.9326 38.2402 25.9326C40.0689 25.9326 41.925 26.1461 43.8038 26.5731C45.6826 27.0001 47.384 27.8161 48.8988 29.0212C50.4183 30.2263 51.6465 31.8963 52.5837 34.036C53.5253 36.171 53.9939 38.9228 53.9939 42.2913V53.9767C53.9939 55.4854 54.003 56.7142 54.0303 57.6726C54.053 58.6262 54.0894 59.3806 54.1395 59.9357C54.185 60.5382 54.235 60.9889 54.285 61.2926C51.2962 61.2926 49.0217 60.6378 47.4522 59.3331C45.8873 58.0284 45.1048 55.8935 45.1048 52.9235L45.1776 42.296L45.1731 42.2818Z" fill="#FBBA00"/>
<path d="M61.1998 41.9497C62.5008 41.0957 63.9702 40.4552 65.6079 40.0282C67.2456 39.6012 68.9561 39.3877 70.7394 39.3877C73.2459 39.3877 75.6297 39.7625 77.8952 40.5169C77.7496 38.9607 77.4357 37.5753 76.9535 36.3703C76.3257 34.8141 75.3886 33.6802 74.133 32.978C73.6508 32.7266 73.1322 32.5368 72.5772 32.4134C72.0222 32.2901 71.3853 32.2237 70.662 32.2237H69.8659C69.1926 32.2759 68.5148 32.385 67.8415 32.5605C67.1683 32.7361 66.4905 32.9496 65.8172 33.201C65.1439 33.4525 64.4661 33.666 63.7928 33.8415C63.1195 34.017 62.469 34.1072 61.8412 34.1072C61.1679 34.1072 60.5174 33.9554 59.8896 33.6565C59.3119 33.3054 58.8069 32.7266 58.3702 31.9248L58.2246 31.6211L58.3702 31.3934C59.8168 29.7851 61.5137 28.4898 63.4653 27.5125C65.4169 26.5304 67.5504 25.9658 69.8614 25.814C70.1025 25.7665 70.3072 25.7381 70.4755 25.7381H71.0896C73.3051 25.7381 75.3295 26.1508 77.1628 26.9811C78.9915 27.8114 80.5837 28.9548 81.9348 30.4113C84.6825 33.5284 86.1018 37.6228 86.1974 42.6993V43.3018C86.1974 48.5302 84.9191 52.7764 82.367 56.0405C81.1114 57.6489 79.6057 58.9536 77.8497 59.9594C76.0892 60.9652 74.1285 61.5915 71.9585 61.8429C71.6674 61.8904 71.3808 61.9188 71.0896 61.9188H70.148C69.1381 61.9188 68.0736 61.8287 66.9681 61.6531C65.8581 61.4776 64.7754 61.1408 63.7155 60.6331C62.6055 60.1824 61.5956 59.5893 60.6812 58.8634C59.7668 58.1328 58.9934 57.1934 58.3702 56.0358C57.4558 54.5793 56.9736 52.7954 56.9236 50.6841V50.2334C56.9236 48.274 57.3103 46.6419 58.0791 45.3324C58.7523 44.0277 59.7895 42.8938 61.1861 41.9402L61.1998 41.9497ZM76.1619 45.5696C75.5342 45.47 74.8245 45.3704 74.0284 45.2708C73.2323 45.1711 72.4271 45.1189 71.6082 45.1189C70.935 45.1189 70.2844 45.1569 69.6567 45.2328C69.0289 45.3087 68.4511 45.4463 67.9234 45.6456C66.7179 46.0488 65.8035 46.6751 65.1757 47.5291C64.9346 47.828 64.7436 48.1696 64.598 48.5444C64.4524 48.9192 64.3569 49.3367 64.3069 49.7874C64.2568 49.9392 64.2341 50.1622 64.2341 50.4659C64.2341 50.9688 64.3069 51.5096 64.4524 52.0884C64.598 52.6673 64.8846 53.2081 65.3213 53.711C65.708 54.2139 66.2721 54.6409 67.0182 54.992C67.7642 55.3431 68.765 55.5186 70.016 55.5186C70.4027 55.5186 70.6893 55.4949 70.8849 55.4427C72.2315 55.3953 73.4143 54.992 74.4287 54.2377C74.9109 53.934 75.3204 53.5734 75.657 53.1465C75.9936 52.7195 76.2848 52.2545 76.5259 51.7516C77.0536 50.798 77.4175 49.8159 77.6086 48.8101C77.7996 47.8043 77.8997 46.8744 77.8997 46.0204C77.8497 46.0204 77.8133 46.0061 77.7905 45.9824C77.7678 45.9587 77.7314 45.9445 77.6814 45.9445C77.4903 45.897 77.2719 45.8448 77.0308 45.7926C76.7897 45.7452 76.4986 45.6693 76.1619 45.5649V45.5696Z" fill="#FBBA00"/>
<path d="M89.2725 43.0029C89.2725 39.6344 89.741 36.8874 90.6827 34.7477C91.6244 32.6127 92.839 30.9427 94.3311 29.7329C95.8232 28.5278 97.4973 27.7118 99.3534 27.2848C101.209 26.8578 103.052 26.6443 104.885 26.6443H108.429C108.67 27.6975 108.72 28.6796 108.575 29.5858C108.479 30.3402 108.151 31.0708 107.596 31.773C107.041 32.4751 106.136 32.9021 104.885 33.0539C104.066 33.1536 103.257 33.3434 102.465 33.6185C101.669 33.8937 100.959 34.3729 100.331 35.0513C99.7037 35.7298 99.1851 36.6976 98.7756 37.9549C98.3662 39.2122 98.1615 40.8964 98.1615 43.0077V53.9388C98.1615 55.4475 98.1706 56.6668 98.1979 57.5967C98.2206 58.5266 98.257 59.2667 98.3071 59.8218C98.3526 60.4244 98.4026 60.8751 98.4526 61.1787C95.5139 61.1787 93.2484 60.5382 91.6562 59.2572C90.064 57.9763 89.2725 55.827 89.2725 52.8144V43.0124V43.0029Z" fill="#FBBA00"/>
<path d="M143.167 45.6456C143.167 49.0141 142.684 51.7516 141.72 53.8629C140.755 55.9741 139.514 57.6299 137.999 58.8397C136.479 60.0448 134.782 60.8751 132.904 61.3258C131.025 61.7765 129.169 62.0042 127.34 62.0042C125.511 62.0042 123.655 61.7765 121.772 61.3258C119.893 60.8751 118.192 60.0448 116.677 58.8397C115.157 57.6346 113.929 55.9741 112.992 53.8629C112.05 51.7516 111.582 49.0141 111.582 45.6456L111.655 35.0181C111.655 32.0007 112.437 29.8562 114.002 28.5705C115.567 27.2895 117.846 26.649 120.835 26.649C120.785 26.9526 120.739 27.4034 120.689 28.0059C120.639 28.561 120.603 29.3154 120.58 30.269C120.557 31.2226 120.544 32.4561 120.544 33.9649L120.616 45.6503C120.616 47.7616 120.807 49.4553 121.194 50.741C121.581 52.022 122.099 53.0136 122.75 53.7205C123.4 54.4274 124.124 54.9019 124.92 55.1533C125.716 55.4048 126.521 55.5281 127.34 55.5281C128.159 55.5281 128.964 55.4048 129.76 55.1533C130.556 54.9019 131.28 54.4274 131.93 53.7205C132.581 53.0183 133.099 52.0268 133.486 50.741C133.873 49.4601 134.064 47.7616 134.064 45.6503L134.136 35.0229C134.136 32.0054 134.933 29.861 136.52 28.5752C138.112 27.2942 140.401 26.6537 143.385 26.6537C143.335 26.9574 143.289 27.4081 143.239 28.0106C143.189 28.5657 143.153 29.3201 143.13 30.2737C143.107 31.2273 143.094 32.4609 143.094 33.9696L143.167 45.655V45.6456Z" fill="#FBBA00"/>
<path d="M191.911 31.1704C193.403 32.7788 194.572 34.6765 195.418 36.8637C196.26 39.0508 196.683 41.3993 196.683 43.9138C196.683 46.4284 196.296 48.7769 195.527 50.964C194.754 53.1512 193.671 55.0489 192.274 56.6573C190.878 58.3178 189.176 59.6225 187.179 60.5762C185.178 61.5298 182.949 62.009 180.492 62.009C178.277 62.009 176.193 61.5298 174.242 60.5762C172.29 59.6225 170.566 58.3131 169.074 56.6573C167.627 55.0489 166.481 53.1512 165.639 50.964C164.798 48.7769 164.375 46.4284 164.375 43.9138C164.375 41.3993 164.748 39.0508 165.494 36.8637C166.24 34.6765 167.313 32.7835 168.71 31.1704C170.106 29.5099 171.803 28.2052 173.805 27.2515C175.802 26.2979 178.036 25.8187 180.492 25.8187C182.758 25.8187 184.864 26.2979 186.815 27.2515C188.767 28.2052 190.464 29.5146 191.911 31.1704ZM180.492 55.5186C181.12 55.5186 181.852 55.3668 182.698 55.0679C183.54 54.7643 184.35 54.1902 185.119 53.3362C185.887 52.4822 186.538 51.3009 187.07 49.7922C187.598 48.2834 187.866 46.324 187.866 43.9138C187.866 41.5037 187.602 39.53 187.07 37.9976C186.538 36.4651 185.887 35.2838 185.119 34.4535C184.345 33.6233 183.54 33.0587 182.698 32.755C181.857 32.4514 181.12 32.3043 180.492 32.3043C179.864 32.3043 179.132 32.4561 178.286 32.755C177.444 33.0587 176.634 33.6233 175.866 34.4535C175.092 35.2838 174.442 36.4651 173.914 37.9976C173.382 39.53 173.118 41.5037 173.118 43.9138C173.118 46.324 173.382 48.2882 173.914 49.7922C174.442 51.3009 175.092 52.4822 175.866 53.3362C176.634 54.1902 177.444 54.769 178.286 55.0679C179.127 55.3716 179.864 55.5186 180.492 55.5186Z" fill="#FBBA00"/>
<path d="M4.18066 84.5543C4.18066 83.7525 4.31259 83.0076 4.58099 82.3102C4.84939 81.6128 5.21332 81.0103 5.67279 80.4979C6.13225 79.9712 6.6736 79.5537 7.29229 79.2501C7.91552 78.9464 8.58424 78.7946 9.30301 78.7946C10.0855 78.7946 10.7951 78.9464 11.432 79.2501C12.0689 79.5537 12.6102 79.9712 13.0515 80.4979C13.4973 81.0103 13.8431 81.6128 14.0887 82.3102C14.3344 83.0076 14.4572 83.7525 14.4572 84.5543C14.4572 85.3561 14.3207 86.101 14.0569 86.7984C13.7885 87.4958 13.4154 88.0984 12.9423 88.6108C12.4829 89.1374 11.9415 89.5549 11.3228 89.8586C10.7042 90.1622 10.0309 90.314 9.31211 90.314C8.43867 90.314 7.66531 90.129 6.98749 89.7637L7.01024 93.4121C7.01024 93.8913 7.01024 94.2851 7.02388 94.5887C7.03298 94.8924 7.04208 95.1343 7.06028 95.3099C7.07393 95.4996 7.09212 95.6467 7.10577 95.7416C6.155 95.7416 5.43168 95.5329 4.93127 95.1153C4.43087 94.6978 4.18521 94.0147 4.18521 93.0515V84.5591L4.18066 84.5543ZM9.30756 88.2502C9.50772 88.2502 9.73973 88.2028 10.0081 88.1079C10.2765 88.013 10.5313 87.8327 10.7769 87.567C11.0226 87.3013 11.2273 86.9265 11.4002 86.4379C11.5685 85.9492 11.6549 85.3229 11.6549 84.5543C11.6549 83.7857 11.5685 83.1642 11.4002 82.685C11.2319 82.2059 11.0226 81.8358 10.7769 81.5701C10.5313 81.3044 10.2765 81.1289 10.0081 81.0292C9.73973 80.9343 9.50772 80.8869 9.30756 80.8869C9.1074 80.8869 8.87539 80.9343 8.60699 81.0292C8.33859 81.1241 8.07929 81.3044 7.83818 81.5701C7.59253 81.8358 7.38782 82.2059 7.21495 82.685C7.04663 83.1642 6.9602 83.7905 6.9602 84.5543C6.9602 85.3182 7.04208 85.9492 7.21495 86.4379C7.38327 86.9265 7.59253 87.3013 7.83818 87.567C8.08384 87.8327 8.33859 88.013 8.60699 88.1079C8.87539 88.2028 9.1074 88.2502 9.30756 88.2502Z" fill="#4A1D4E"/>
<path d="M25.1477 87.7188C25.3297 87.8327 25.5071 88.0225 25.6754 88.2929L25.7437 88.3641L25.6754 88.4352C25.1705 89.0093 24.5654 89.4648 23.8694 89.7921C23.1734 90.1195 22.4182 90.2856 21.6039 90.2856C20.8988 90.2856 20.2347 90.1385 19.616 89.8396C18.9973 89.5407 18.4468 89.1327 17.9692 88.606C17.5097 88.0936 17.1458 87.4911 16.8774 86.7937C16.609 86.0963 16.4771 85.3514 16.4771 84.5496C16.4771 83.7478 16.5953 83.0029 16.8319 82.3055C17.0684 81.6081 17.4096 81.0008 17.8554 80.4694C18.3013 79.957 18.8426 79.549 19.4749 79.2454C20.1118 78.9417 20.8215 78.7899 21.6039 78.7899C22.0316 78.7899 22.5047 78.8563 23.0187 78.9939C23.5328 79.1315 24.0104 79.345 24.4563 79.6439C24.9021 79.938 25.2706 80.3271 25.5617 80.8063C25.8529 81.2854 25.9984 81.8643 25.9984 82.5332C25.9984 83.2022 25.8392 83.7193 25.5162 84.1273C25.1932 84.5353 24.8111 84.8532 24.3653 85.0857C23.9195 85.3182 23.4509 85.4795 22.9505 85.5649C22.4501 85.6503 22.0179 85.6977 21.6494 85.6977C21.0808 85.6977 20.5895 85.6598 20.1664 85.5886C19.7433 85.5174 19.4567 85.4652 19.3021 85.432C19.3612 86.0061 19.484 86.4758 19.6706 86.8364C19.8571 87.197 20.0618 87.4816 20.2938 87.6904C20.5258 87.8991 20.7533 88.0367 20.9853 88.1079C21.2173 88.179 21.422 88.217 21.6085 88.217C21.9315 88.217 22.2363 88.1838 22.5274 88.1221C22.8186 88.0604 23.0779 87.9845 23.3099 87.9039C23.5419 87.8232 23.7602 87.7426 23.965 87.6619C24.1742 87.5813 24.3744 87.5433 24.5745 87.5433C24.7884 87.5433 24.9794 87.6002 25.1477 87.7093V87.7188ZM21.6085 80.8347C21.4402 80.849 21.24 80.8964 21.0126 80.9676C20.7805 81.0387 20.5576 81.1716 20.3347 81.3613C20.1118 81.5559 19.9071 81.8263 19.7251 82.1774C19.5432 82.5285 19.4113 82.9792 19.3339 83.52C19.5796 83.6007 19.9299 83.6766 20.3802 83.7478C20.8306 83.819 21.2855 83.8332 21.7359 83.7857C22.1862 83.7383 22.5866 83.6007 22.9323 83.3777C23.278 83.1547 23.4645 82.7799 23.4964 82.2486C23.5282 81.85 23.3781 81.5037 23.046 81.219C22.7139 80.9296 22.2363 80.8015 21.6085 80.8347Z" fill="#4A1D4E"/>
<path d="M27.9453 84.2649C27.9453 83.1927 28.0954 82.3197 28.3957 81.6365C28.6959 80.9581 29.0826 80.4267 29.5557 80.0424C30.0288 79.6581 30.5656 79.3972 31.1525 79.2643C31.7439 79.1267 32.3307 79.0603 32.913 79.0603H34.0412C34.1185 79.3972 34.1322 79.7056 34.0867 79.995C34.0548 80.2369 33.9502 80.4647 33.7773 80.6924C33.6045 80.9201 33.3133 81.053 32.913 81.1004C32.6537 81.1336 32.3944 81.1905 32.1442 81.2807C31.894 81.3708 31.6665 81.5227 31.4664 81.7362C31.2662 81.9544 31.1024 82.258 30.9705 82.6613C30.8386 83.0598 30.7749 83.596 30.7749 84.2697V87.7473C30.7749 88.2265 30.7749 88.6155 30.7885 88.9097C30.7976 89.2038 30.8067 89.4411 30.8249 89.6166C30.8386 89.8064 30.8568 89.9535 30.8704 90.0483C29.9333 90.0483 29.2145 89.8443 28.7096 89.4363C28.2046 89.0283 27.9499 88.3451 27.9499 87.3867V84.2697L27.9453 84.2649Z" fill="#4A1D4E"/>
<path d="M38.7498 87.7189C38.7498 88.198 38.7498 88.5918 38.7635 88.8955C38.7726 89.1991 38.7817 89.4411 38.7999 89.6166C38.8135 89.8064 38.8317 89.9535 38.8454 90.0483C37.8946 90.0483 37.1713 89.8396 36.6709 89.4268C36.1705 89.0093 35.9248 88.3309 35.9248 87.3867L35.9476 78.8706C35.9476 78.0687 36.0567 77.3286 36.2796 76.6407C36.5025 75.9527 36.8346 75.3455 37.2804 74.8188C37.7081 74.2922 38.2312 73.8794 38.8454 73.5853C39.4595 73.2911 40.1555 73.1393 40.938 73.1393C41.3974 73.1393 41.7887 73.22 42.1117 73.3813C42.4619 73.5236 42.7394 73.7656 42.9396 74.1024C43.0624 74.3586 43.1216 74.6148 43.1216 74.871C43.1216 75.0466 43.0988 75.2126 43.0533 75.3739L43.0078 75.5163L42.8941 75.4688C42.6803 75.3882 42.4301 75.3217 42.148 75.2648C41.866 75.2079 41.5476 75.1794 41.1927 75.1794C41.0699 75.1794 40.9152 75.1936 40.7333 75.2269C40.5513 75.2601 40.3511 75.3312 40.1373 75.4451C39.9235 75.559 39.7188 75.7155 39.5277 75.9148C39.3367 76.1141 39.1729 76.3845 39.0319 76.7166C38.9409 76.9396 38.8681 77.2053 38.8135 77.5089C38.7589 77.8126 38.7316 78.1541 38.7316 78.5384V78.8041H41.8387C41.8387 79.5253 41.6476 80.0993 41.2655 80.5311C40.8834 80.9628 40.3375 81.1763 39.6324 81.1763H38.7362L38.7589 87.7236L38.7498 87.7189Z" fill="#4A1D4E"/>
<path d="M51.1734 80.5026C51.6466 81.015 52.0196 81.6176 52.288 82.315C52.5564 83.0124 52.6883 83.7573 52.6883 84.5591C52.6883 85.3609 52.5655 86.1058 52.3198 86.8032C52.0742 87.5006 51.7284 88.1032 51.2826 88.6155C50.8368 89.1422 50.2955 89.5597 49.6631 89.8633C49.0262 90.167 48.3166 90.3188 47.5341 90.3188C46.829 90.3188 46.1648 90.167 45.5461 89.8633C44.9275 89.5597 44.377 89.1422 43.8993 88.6155C43.4399 88.1032 43.076 87.5006 42.8076 86.8032C42.5392 86.1058 42.4072 85.3609 42.4072 84.5591C42.4072 83.7573 42.5255 83.0124 42.7621 82.315C42.9986 81.6176 43.3398 81.015 43.7856 80.5026C44.2314 79.976 44.7728 79.5585 45.4051 79.2549C46.042 78.9512 46.7517 78.7994 47.5341 78.7994C48.2529 78.7994 48.9262 78.9512 49.5448 79.2549C50.1681 79.5585 50.7049 79.976 51.1643 80.5026H51.1734ZM47.5387 88.2502C47.7388 88.2502 47.9708 88.2028 48.2392 88.1079C48.5076 88.013 48.7624 87.828 49.0081 87.5575C49.2537 87.2871 49.4584 86.9123 49.6313 86.4284C49.7996 85.9492 49.886 85.3229 49.886 84.5591C49.886 83.7952 49.7996 83.1642 49.6313 82.6756C49.463 82.1869 49.2537 81.8121 49.0081 81.5464C48.7624 81.2807 48.5076 81.1004 48.2392 81.0055C47.9708 80.9106 47.7388 80.8632 47.5387 80.8632C47.3385 80.8632 47.1065 80.9106 46.8381 81.0055C46.5697 81.1004 46.3104 81.2807 46.0693 81.5464C45.8236 81.8121 45.6189 82.1869 45.4461 82.6756C45.2777 83.1642 45.1913 83.7905 45.1913 84.5591C45.1913 85.3277 45.2732 85.9492 45.4461 86.4284C45.6144 86.9076 45.8236 87.2824 46.0693 87.5575C46.3149 87.828 46.5697 88.013 46.8381 88.1079C47.1065 88.2028 47.3385 88.2502 47.5387 88.2502Z" fill="#4A1D4E"/>
<path d="M54.708 84.2649C54.708 83.1927 54.8581 82.3197 55.1584 81.6365C55.4586 80.9581 55.8453 80.4267 56.3184 80.0424C56.7915 79.6581 57.3283 79.3972 57.9152 79.2643C58.5065 79.1267 59.0934 79.0603 59.6757 79.0603H60.8039C60.8812 79.3972 60.8949 79.7056 60.8494 79.995C60.8175 80.2369 60.7129 80.4647 60.54 80.6924C60.3671 80.9201 60.076 81.053 59.6757 81.1004C59.4164 81.1336 59.1571 81.1905 58.9069 81.2807C58.6567 81.3708 58.4292 81.5227 58.229 81.7362C58.0289 81.9544 57.8651 82.258 57.7332 82.6613C57.6013 83.0598 57.5376 83.596 57.5376 84.2697V87.7473C57.5376 88.2265 57.5376 88.6155 57.5512 88.9097C57.5603 89.2038 57.5694 89.4411 57.5876 89.6166C57.6013 89.8064 57.6195 89.9535 57.6331 90.0483C56.696 90.0483 55.9772 89.8443 55.4723 89.4363C54.9673 89.0283 54.7126 88.3451 54.7126 87.3867V84.2697L54.708 84.2649Z" fill="#4A1D4E"/>
<path d="M76.4076 84.004C76.4076 83.335 76.3439 82.7942 76.2119 82.3862C76.08 81.9781 75.9071 81.6603 75.6933 81.4278C75.4795 81.1953 75.243 81.0387 74.9791 80.9581C74.7198 80.8774 74.456 80.8395 74.1967 80.8395C73.9374 80.8395 73.6781 80.8774 73.4279 80.9581C73.1731 81.0387 72.9456 81.1953 72.7364 81.4278C72.5271 81.6603 72.3588 81.9781 72.2314 82.3862C72.0995 82.7942 72.0358 83.335 72.0358 84.004V87.7236C72.0358 88.2028 72.0449 88.5966 72.0586 88.9002C72.0722 89.2039 72.0904 89.4458 72.104 89.6214C72.1177 89.8111 72.1359 89.9582 72.1495 90.0531C71.1988 90.0531 70.4709 89.8443 69.9659 89.4316C69.461 89.0141 69.2062 88.3356 69.2062 87.3915L69.229 84.0087C69.229 83.3398 69.1653 82.7989 69.0334 82.3909C68.9014 81.9829 68.7286 81.665 68.5148 81.4325C68.301 81.2001 68.0644 81.0435 67.8006 80.9628C67.5413 80.8822 67.2774 80.8442 67.0181 80.8442C66.7588 80.8442 66.4995 80.8822 66.2493 80.9628C65.9945 81.0435 65.7671 81.2001 65.5578 81.4325C65.3486 81.665 65.1848 81.9829 65.062 82.3909C64.9391 82.7989 64.88 83.3398 64.88 84.0087V87.7283C64.88 88.2075 64.88 88.6013 64.8936 88.905C64.9027 89.2086 64.9118 89.4506 64.93 89.6261C64.9437 89.8159 64.9619 89.963 64.9755 90.0578C64.0248 90.0578 63.2969 89.8491 62.7919 89.4363C62.287 89.0188 62.0322 88.3404 62.0322 87.3962L62.055 84.0135C62.055 82.9413 62.2051 82.0683 62.5053 81.3851C62.8056 80.7066 63.1923 80.1753 63.6654 79.791C64.1385 79.4067 64.6753 79.1457 65.2621 79.0129C65.8535 78.8753 66.4404 78.8089 67.0226 78.8089C67.6686 78.8089 68.301 78.8895 68.9333 79.0508C69.5611 79.2122 70.1206 79.5158 70.6119 79.9618C71.1032 79.5158 71.6628 79.2122 72.2906 79.0508C72.9183 78.8895 73.5552 78.8089 74.2012 78.8089C74.7835 78.8089 75.3749 78.8753 75.9708 79.0129C76.5668 79.1505 77.1081 79.4067 77.5903 79.791C78.0725 80.1753 78.4638 80.7066 78.764 81.3851C79.0643 82.0635 79.2144 82.9413 79.2144 84.0135V87.7331C79.2144 88.2123 79.2144 88.6061 79.228 88.9097C79.2371 89.2133 79.2462 89.4553 79.2644 89.6308C79.2781 89.8206 79.2963 89.9677 79.3099 90.0626C78.3591 90.0626 77.6358 89.8538 77.1354 89.4411C76.635 89.0236 76.3893 88.3451 76.3893 87.401L76.4121 84.0182L76.4076 84.004Z" fill="#4A1D4E"/>
<path d="M82.5489 83.9328C82.9629 83.6624 83.4314 83.4584 83.95 83.3208C84.4732 83.1832 85.0145 83.1168 85.5832 83.1168C86.3793 83.1168 87.139 83.2354 87.8623 83.4774C87.8168 82.9839 87.7167 82.5427 87.5621 82.1584C87.3619 81.665 87.0617 81.3044 86.6659 81.0814C86.5112 81.0008 86.3474 80.9439 86.17 80.9012C85.9926 80.8632 85.7924 80.8395 85.5604 80.8395H85.3057C85.0919 80.8537 84.8781 80.8917 84.6597 80.9486C84.4459 81.0055 84.2321 81.072 84.0137 81.1526C83.7999 81.2333 83.5861 81.2997 83.3677 81.3566C83.1539 81.4136 82.9447 81.442 82.7445 81.442C82.5307 81.442 82.3214 81.3946 82.1213 81.2997C81.9393 81.1858 81.7755 81.0055 81.6391 80.7493L81.5936 80.6544L81.6391 80.5833C82.0985 80.0709 82.6399 79.6581 83.2586 79.3497C83.8772 79.0414 84.5596 78.8563 85.292 78.8089C85.3694 78.7946 85.4331 78.7852 85.4876 78.7852H85.6833C86.3884 78.7852 87.0344 78.918 87.6167 79.1789C88.1989 79.4446 88.7039 79.8052 89.1361 80.2702C90.0095 81.2617 90.4644 82.5664 90.4917 84.1795V84.3693C90.4917 86.0346 90.0868 87.382 89.2725 88.4258C88.8722 88.9382 88.3946 89.3557 87.835 89.6735C87.2755 89.9914 86.6522 90.1907 85.9608 90.2713C85.8698 90.2856 85.7788 90.2951 85.6833 90.2951H85.383C85.06 90.2951 84.7234 90.2666 84.3731 90.2097C84.0183 90.1527 83.6771 90.0436 83.3359 89.887C82.9811 89.7447 82.6626 89.5549 82.3715 89.3225C82.0803 89.09 81.8347 88.7911 81.6345 88.421C81.3434 87.9561 81.1887 87.3915 81.175 86.7178V86.5755C81.175 85.9539 81.2979 85.4321 81.5435 85.0145C81.7573 84.597 82.0894 84.2412 82.5307 83.9328H82.5489ZM87.3119 85.081C87.1117 85.0478 86.8842 85.0193 86.634 84.9861C86.3793 84.9529 86.1245 84.9386 85.8652 84.9386C85.6514 84.9386 85.4422 84.9481 85.242 84.9766C85.0418 85.0003 84.8599 85.043 84.6915 85.1094C84.3094 85.2375 84.0183 85.4368 83.8181 85.7072C83.7408 85.8021 83.6816 85.9112 83.6361 86.0298C83.5907 86.1485 83.5588 86.2813 83.5452 86.4236C83.5315 86.4711 83.5224 86.5422 83.5224 86.6371C83.5224 86.7984 83.5452 86.9692 83.5906 87.1543C83.6361 87.3393 83.7271 87.5101 83.8681 87.6714C83.991 87.8327 84.1729 87.9656 84.4095 88.0794C84.6461 88.1933 84.9645 88.2455 85.3648 88.2455C85.4876 88.2455 85.5786 88.236 85.6423 88.2218C86.0699 88.2075 86.4475 88.0794 86.7705 87.8375C86.9252 87.7426 87.0526 87.624 87.1617 87.4911C87.2709 87.3535 87.3619 87.2065 87.4392 87.0451C87.6076 86.7415 87.7213 86.4284 87.785 86.1105C87.8441 85.7926 87.8759 85.4937 87.8759 85.2233C87.8623 85.2233 87.8487 85.2233 87.8396 85.2138C87.8305 85.2043 87.8214 85.1996 87.8032 85.1996C87.7395 85.1853 87.6712 85.1664 87.5939 85.1521C87.5166 85.1379 87.4256 85.1142 87.3164 85.081H87.3119Z" fill="#4A1D4E"/>
<path d="M92.548 84.004C92.548 82.9318 92.6981 82.0588 92.9983 81.3756C93.2986 80.6972 93.6807 80.1658 94.1493 79.7815C94.6178 79.3972 95.1455 79.1362 95.7369 79.0034C96.3283 78.8658 96.9197 78.7994 97.5202 78.7994C98.1207 78.7994 98.6939 78.8658 99.2898 79.0034C99.8858 79.141 100.427 79.3972 100.909 79.7815C101.392 80.1658 101.783 80.6972 102.083 81.3756C102.383 82.0541 102.533 82.9318 102.533 84.004L102.624 90.0484C101.687 90.0484 100.968 89.8396 100.464 89.4268C99.9586 89.0093 99.7038 88.3309 99.7038 87.3868L99.7265 84.004C99.7265 83.335 99.6628 82.7942 99.5309 82.3862C99.399 81.9781 99.2261 81.6603 99.0123 81.4278C98.7985 81.1953 98.562 81.0387 98.2981 80.9581C98.0388 80.8774 97.775 80.8395 97.5157 80.8395C97.2564 80.8395 96.997 80.8774 96.7468 80.9581C96.4921 81.0387 96.2646 81.1953 96.0554 81.4278C95.8461 81.6603 95.6778 81.9781 95.5504 82.3862C95.4185 82.7942 95.3548 83.335 95.3548 84.004V87.7236C95.3685 88.2028 95.3821 88.5966 95.3912 88.9002C95.4003 89.2039 95.4094 89.4458 95.4276 89.6214C95.4412 89.8111 95.4594 89.9582 95.4731 90.0531C94.5223 90.0531 93.7944 89.8443 93.2895 89.4316C92.7845 89.0141 92.5298 88.3356 92.5298 87.3915L92.5525 84.0087L92.548 84.004Z" fill="#4A1D4E"/>
<path d="M109.589 80.8347C109.389 80.8347 109.157 80.8822 108.888 80.9771C108.62 81.0719 108.365 81.2522 108.12 81.5179C107.874 81.7836 107.669 82.1584 107.496 82.6471C107.328 83.1358 107.242 83.762 107.242 84.5306C107.242 85.2992 107.324 85.9255 107.496 86.4141C107.665 86.9028 107.874 87.2776 108.12 87.5433C108.365 87.809 108.62 87.9845 108.888 88.0842C109.157 88.1838 109.389 88.2265 109.589 88.2265C109.912 88.2265 110.217 88.1933 110.508 88.1316C110.799 88.0699 111.058 87.994 111.29 87.9134C111.518 87.8185 111.741 87.7331 111.946 87.6619C112.155 87.5907 112.355 87.5528 112.555 87.5528C112.755 87.5528 112.955 87.6097 113.151 87.7188C113.319 87.8327 113.497 88.013 113.679 88.2692L113.724 88.3641L113.656 88.4352C113.151 89.0093 112.546 89.4648 111.85 89.7921C111.154 90.1195 110.403 90.2856 109.607 90.2856C108.888 90.2856 108.215 90.1337 107.597 89.8301C106.978 89.5265 106.427 89.1184 105.954 88.606C105.495 88.0936 105.131 87.4911 104.862 86.7937C104.594 86.0963 104.462 85.3514 104.462 84.5496C104.462 83.7478 104.585 83.0029 104.831 82.3055C105.076 81.6081 105.422 81.0008 105.868 80.4694C106.314 79.957 106.85 79.549 107.478 79.2454C108.106 78.9417 108.811 78.7899 109.594 78.7899C110.376 78.7899 111.163 78.9559 111.859 79.2833C112.555 79.6107 113.16 80.0614 113.665 80.6402L113.733 80.7114L113.665 80.8063C113.497 81.0957 113.319 81.276 113.137 81.3566C112.937 81.4847 112.746 81.5416 112.564 81.5227C112.364 81.5227 112.164 81.4847 111.955 81.4135C111.75 81.3424 111.527 81.2665 111.3 81.1858C111.068 81.0909 110.808 81.0055 110.517 80.9344C110.226 80.8632 109.921 80.8252 109.598 80.8252L109.589 80.8347Z" fill="#4A1D4E"/>
<path d="M123.537 87.7188C123.719 87.8327 123.896 88.0225 124.065 88.2929L124.133 88.3641L124.065 88.4352C123.56 89.0093 122.955 89.4648 122.259 89.7921C121.563 90.1195 120.807 90.2856 119.993 90.2856C119.288 90.2856 118.624 90.1385 118.005 89.8396C117.386 89.5454 116.836 89.1327 116.363 88.606C115.903 88.0936 115.539 87.4911 115.271 86.7937C115.003 86.0963 114.866 85.3514 114.866 84.5496C114.866 83.7478 114.984 83.0029 115.221 82.3055C115.458 81.6081 115.799 81.0008 116.245 80.4694C116.69 79.957 117.232 79.549 117.864 79.2454C118.501 78.9417 119.211 78.7899 119.993 78.7899C120.421 78.7899 120.894 78.8563 121.408 78.9939C121.922 79.1315 122.4 79.345 122.845 79.6439C123.291 79.938 123.66 80.3271 123.951 80.8063C124.242 81.2854 124.388 81.8643 124.388 82.5332C124.388 83.2022 124.228 83.7193 123.905 84.1273C123.582 84.5353 123.2 84.8532 122.754 85.0857C122.309 85.3182 121.84 85.4795 121.34 85.5649C120.839 85.6503 120.407 85.6977 120.039 85.6977C119.47 85.6977 118.979 85.6598 118.556 85.5886C118.132 85.5174 117.846 85.4652 117.691 85.432C117.75 86.0061 117.873 86.4758 118.06 86.8364C118.246 87.197 118.451 87.4816 118.678 87.6904C118.906 87.8991 119.138 88.0367 119.37 88.1079C119.602 88.179 119.807 88.217 119.993 88.217C120.316 88.217 120.621 88.1838 120.912 88.1221C121.203 88.0604 121.462 87.9845 121.694 87.9039C121.922 87.8232 122.145 87.7426 122.35 87.6619C122.559 87.5813 122.759 87.5433 122.959 87.5433C123.173 87.5433 123.364 87.6002 123.532 87.7093L123.537 87.7188ZM119.998 80.8347C119.829 80.849 119.629 80.8964 119.397 80.9676C119.17 81.0387 118.942 81.1716 118.719 81.3613C118.496 81.5559 118.296 81.8263 118.11 82.1774C117.923 82.5285 117.796 82.9792 117.719 83.52C117.964 83.6007 118.314 83.6766 118.765 83.7478C119.215 83.819 119.67 83.8332 120.12 83.7857C120.571 83.7383 120.971 83.6007 121.317 83.3777C121.663 83.1547 121.849 82.7799 121.881 82.2486C121.913 81.85 121.763 81.5037 121.431 81.219C121.099 80.9296 120.621 80.8015 119.993 80.8347H119.998Z" fill="#4A1D4E"/>
</svg>
