<svg width="907" height="606" viewBox="0 0 907 606" fill="none" xmlns="http://www.w3.org/2000/svg">
<path d="M343.935 545.206C343.035 541.37 341.229 537.806 338.671 534.813C336.112 531.821 332.874 529.487 329.229 528.008C328.366 531.681 328.699 535.534 330.178 539.004C331.658 542.474 334.207 545.378 337.453 547.291C334.443 548.978 331.961 551.471 330.285 554.491C328.608 557.512 327.803 560.94 327.959 564.392C331.798 564.145 335.468 562.718 338.469 560.307C341.47 557.896 343.657 554.616 344.733 550.915" fill="#E0E0E0"/>
<path d="M372.971 566.295C372.365 567.745 371.464 569.053 370.325 570.134C369.186 571.216 367.834 572.046 366.356 572.573C365.632 572.904 364.809 572.943 364.058 572.682C363.88 572.609 363.72 572.498 363.589 572.356C363.458 572.215 363.36 572.046 363.301 571.863C363.242 571.679 363.225 571.485 363.249 571.293C363.273 571.102 363.339 570.918 363.441 570.755C362.297 571.614 360.874 572.016 359.45 571.882C359.104 571.831 358.772 571.71 358.473 571.528C358.174 571.345 357.915 571.104 357.711 570.82C357.506 570.535 357.361 570.212 357.284 569.869C357.207 569.527 357.199 569.173 357.261 568.828C355.629 569.276 353.561 569.591 352.557 568.234C352.258 567.744 352.111 567.176 352.134 566.602C352.158 566.028 352.351 565.474 352.69 565.01C353.377 564.094 354.246 563.331 355.242 562.768" fill="#E0E0E0"/>
<path d="M379.295 533.28C374.643 525.968 367.784 520.334 359.716 517.197C359.254 516.94 358.733 516.805 358.205 516.805C357.676 516.805 357.156 516.94 356.693 517.197C356.399 517.48 356.19 517.841 356.09 518.237C355.989 518.633 356.001 519.049 356.125 519.439C356.388 520.21 356.799 520.922 357.334 521.536C356.663 521.166 355.914 520.961 355.149 520.938C354.384 520.915 353.624 521.074 352.932 521.402C351.626 522.202 351.275 524.432 352.593 525.208C352.323 525.007 352.011 524.868 351.681 524.802C351.351 524.735 351.01 524.743 350.683 524.824C350.356 524.905 350.051 525.058 349.789 525.271C349.528 525.484 349.317 525.752 349.171 526.057C348.926 526.702 348.863 527.402 348.992 528.08C349.12 528.759 349.433 529.388 349.896 529.899C350.836 530.912 351.961 531.735 353.21 532.323" fill="#E0E0E0"/>
<path d="M394.485 549.036C394.485 549.036 383.105 529.123 364.868 529.123C346.632 529.123 342.242 547.824 342.242 547.824C342.242 547.824 348.748 563.931 364.832 566.646C380.916 569.361 394.485 549.036 394.485 549.036Z" fill="#F5F5F5"/>
<path d="M374.724 547.23C372.228 550.082 369.457 552.68 366.452 554.987C365.13 556.222 363.419 556.955 361.615 557.059C360.827 556.98 360.069 556.721 359.398 556.3C358.726 555.88 358.161 555.31 357.745 554.635C356.92 553.284 356.45 551.746 356.379 550.163C356.182 547.548 356.622 544.923 357.66 542.515C357.885 541.831 358.256 541.203 358.747 540.675C359.237 540.148 359.836 539.734 360.502 539.461C362.087 539.013 363.683 539.97 365.049 540.891L374.724 547.4" fill="#E0E0E0"/>
<path d="M381.049 539.17C381.049 539.17 380.783 539.376 380.408 539.849C379.897 540.52 379.451 541.238 379.078 541.994C377.817 544.509 377.263 547.32 377.476 550.125C377.689 552.931 378.661 555.626 380.287 557.92C380.775 558.608 381.325 559.249 381.932 559.835C382.14 560.064 382.386 560.257 382.657 560.405C382.742 560.32 381.775 559.423 380.662 557.665C379.183 555.391 378.297 552.782 378.086 550.075C377.875 547.369 378.345 544.653 379.453 542.176C380.323 540.273 381.134 539.231 381.049 539.17Z" fill="#E0E0E0"/>
<path d="M383.528 543.388C383.106 543.455 382.721 543.665 382.437 543.984C382.152 544.303 381.987 544.711 381.968 545.138C381.949 545.565 382.078 545.986 382.333 546.328C382.588 546.671 382.954 546.915 383.367 547.019C383.781 547.123 384.218 547.08 384.604 546.897C384.99 546.715 385.302 546.405 385.486 546.019C385.67 545.633 385.715 545.196 385.614 544.78C385.513 544.365 385.271 543.997 384.931 543.74" fill="#E0E0E0"/>
<path d="M641.854 519.863C638.07 522.927 633.938 525.531 629.543 527.62C625.08 529.535 619.965 530.347 615.333 528.832C614.124 528.456 612.818 527.717 612.649 526.469C612.431 524.978 613.93 523.863 615.261 523.16C621.209 520.053 627.649 518.002 634.296 517.1C630.676 516.337 627.286 514.733 624.398 512.417C621.51 510.102 619.204 507.139 617.667 503.768C616.966 502.204 616.458 500.132 617.667 498.92C618.076 498.541 618.564 498.258 619.095 498.09C619.626 497.922 620.187 497.875 620.739 497.95C623.799 498.156 626.435 500.12 628.745 502.132C634.449 507.081 639.449 512.79 643.607 519.1" fill="#E0E0E0"/>
<path d="M695.851 504.459L683.6 497.381C682.879 496.88 682.05 496.557 681.181 496.435C680.738 496.387 680.292 496.491 679.916 496.731C679.54 496.972 679.257 497.333 679.114 497.756C678.98 498.423 679.319 499.114 679.259 499.792C679.138 501.15 677.493 501.865 676.139 501.756C674.784 501.647 673.49 501.004 672.124 500.932C671.374 500.932 670.455 501.162 670.273 501.901C670.092 502.641 670.539 503.113 670.697 503.659C671.18 505.343 669.487 507.004 667.782 507.21C666.031 507.251 664.302 506.806 662.788 505.925C661.269 505.045 659.515 504.66 657.769 504.822C656.064 505.162 654.564 507.04 655.29 508.628C653.602 508.015 651.768 507.926 650.029 508.373C648.36 509.004 646.788 512.009 647.828 513.512C663.489 508.422 680.287 504.798 696.746 504.507" fill="#E0E0E0"/>
<path d="M698.995 527.535C697.985 529.537 696.523 531.275 694.725 532.61C692.927 533.946 690.842 534.841 688.638 535.226C686.433 535.611 684.169 535.475 682.026 534.828C679.883 534.18 677.921 533.04 676.295 531.498C675.852 530.958 675.277 530.541 674.627 530.286C673.417 529.971 672.28 530.965 671.18 531.62C670.282 532.141 669.276 532.449 668.241 532.521C667.205 532.592 666.167 532.425 665.206 532.032C664.153 531.402 662.985 530.99 661.771 530.82C660.777 530.966 659.826 531.322 658.978 531.862C657.064 532.8 654.922 533.17 652.805 532.927C650.688 532.685 648.685 531.84 647.031 530.493C645.378 529.146 644.144 527.352 643.475 525.325C642.806 523.297 642.73 521.12 643.256 519.051" fill="#E0E0E0"/>
<path d="M729.01 517.669C719.59 508.313 705.827 504.337 692.561 504.337C679.295 504.337 666.27 507.731 653.499 511.367C648.36 512.821 642.773 514.652 639.955 519.197C654.914 525.729 671.398 528.335 687.663 528.626C694.927 528.894 702.197 528.3 709.322 526.856C716.468 525.401 723.181 522.311 728.938 517.827" fill="#EBEBEB"/>
<path d="M711.741 512.034C711.105 512.115 710.52 512.423 710.093 512.901C709.666 513.38 709.425 513.997 709.416 514.64C709.407 515.282 709.629 515.906 710.042 516.397C710.455 516.888 711.03 517.213 711.664 517.313C712.297 517.413 712.944 517.28 713.488 516.939C714.031 516.599 714.433 516.073 714.62 515.459C714.808 514.844 714.768 514.183 714.508 513.596C714.248 513.009 713.785 512.536 713.204 512.264" fill="#E0E0E0"/>
<path d="M706.843 524.299C706.928 524.226 706.19 523.487 705.356 522.069C704.271 520.247 703.668 518.177 703.604 516.056C703.541 513.935 704.019 511.833 704.993 509.949C705.743 508.483 706.432 507.707 706.348 507.634C705.611 508.187 705.015 508.905 704.606 509.731C703.458 511.652 702.884 513.862 702.95 516.1C703.017 518.338 703.721 520.511 704.981 522.36C705.453 523.135 706.089 523.796 706.843 524.299Z" fill="#E0E0E0"/>
<path d="M702.175 516.603C698.161 519.569 693.572 521.662 688.703 522.748C686.844 523.224 684.912 523.348 683.007 523.111C681.091 522.858 679.353 521.856 678.17 520.324C677.003 520.901 675.657 520.997 674.421 520.59C672.837 519.803 672.583 517.548 673.212 515.912C674.421 512.991 677.698 511.367 680.855 511.185C684.02 511.208 687.153 511.82 690.094 512.991C694.266 514.361 697.979 515.233 702.188 516.627" fill="#E0E0E0"/>
<path d="M88.0397 450.246C85.8592 452.017 83.4762 453.523 80.9409 454.73C78.3754 455.937 75.4665 456.195 72.7296 455.457C72.0402 455.227 71.2783 454.815 71.1695 454.088C71.0606 453.361 71.9193 452.585 72.6811 452.173C76.12 450.375 79.8431 449.185 83.6861 448.658C81.5826 448.225 79.6104 447.302 77.9295 445.963C76.2486 444.624 74.9064 442.906 74.0115 440.95C73.7501 440.528 73.6115 440.041 73.6115 439.544C73.6115 439.047 73.7501 438.56 74.0115 438.138C74.25 437.922 74.5324 437.76 74.8393 437.664C75.1462 437.568 75.4702 437.539 75.7891 437.58C77.5495 437.879 79.1707 438.727 80.4209 440.004C83.7043 442.869 86.5882 446.163 88.9951 449.797" fill="#E0E0E0"/>
<path d="M119.24 441.35L112.166 437.265C111.739 436.972 111.251 436.781 110.739 436.708C110.481 436.691 110.224 436.757 110.007 436.896C109.789 437.036 109.622 437.242 109.529 437.484C109.445 437.859 109.65 438.259 109.614 438.696C109.541 439.483 108.598 439.908 107.812 439.835C107.026 439.762 106.276 439.399 105.49 439.362C105.055 439.362 104.535 439.495 104.426 439.92C104.317 440.344 104.571 440.598 104.668 440.938C104.946 441.907 103.978 442.865 102.987 442.986C101.975 443.005 100.976 442.749 100.097 442.247C99.2238 441.735 98.213 441.51 97.2062 441.604C96.2146 441.798 95.356 442.889 95.7671 443.81C94.7934 443.455 93.7348 443.404 92.7317 443.665C91.7642 444.028 90.8572 445.786 91.4619 446.634C100.574 443.523 110.092 441.767 119.712 441.423" fill="#E0E0E0"/>
<path d="M121.055 454.682C120.468 455.835 119.62 456.834 118.58 457.601C117.539 458.367 116.334 458.88 115.061 459.098C113.788 459.316 112.482 459.232 111.247 458.855C110.011 458.478 108.881 457.816 107.946 456.924C107.687 456.618 107.354 456.384 106.978 456.245C106.265 456.063 105.624 456.633 104.995 457.009C104.475 457.31 103.893 457.488 103.293 457.53C102.694 457.572 102.093 457.477 101.536 457.251C100.929 456.882 100.255 456.639 99.5528 456.536C98.9793 456.619 98.4306 456.826 97.9443 457.142C96.838 457.68 95.6014 457.891 94.3797 457.749C93.1581 457.607 92.0024 457.118 91.0484 456.34C90.0944 455.563 89.3819 454.528 88.9947 453.358C88.6074 452.188 88.5614 450.932 88.8622 449.737" fill="#E0E0E0"/>
<path d="M138.396 448.985C132.954 443.568 125.009 441.289 117.342 441.265C109.675 441.241 102.153 443.228 94.7758 445.325C91.8009 446.174 88.5841 447.228 86.9515 449.846C95.6921 453.459 105.057 455.313 114.512 455.3C118.706 455.453 122.903 455.112 127.017 454.282C131.147 453.446 135.027 451.657 138.348 449.058" fill="#EBEBEB"/>
<path d="M128.419 445.725C128.052 445.772 127.715 445.95 127.468 446.226C127.222 446.503 127.083 446.859 127.078 447.23C127.072 447.6 127.201 447.96 127.439 448.244C127.677 448.527 128.01 448.715 128.375 448.773C128.74 448.83 129.114 448.754 129.428 448.557C129.741 448.361 129.974 448.057 130.082 447.703C130.19 447.348 130.167 446.967 130.017 446.628C129.868 446.289 129.601 446.016 129.266 445.858" fill="#E0E0E0"/>
<path d="M125.59 452.815C125.662 452.743 125.263 452.294 124.816 451.47C124.221 450.417 123.885 449.237 123.836 448.028C123.817 446.821 124.078 445.626 124.598 444.537C125.009 443.689 125.372 443.228 125.299 443.156C125.227 443.083 124.743 443.471 124.211 444.368C123.518 445.485 123.169 446.782 123.208 448.097C123.246 449.412 123.671 450.687 124.429 451.761C125.021 452.524 125.541 452.864 125.59 452.815Z" fill="#E0E0E0"/>
<path d="M122.893 448.367C120.575 450.078 117.927 451.283 115.117 451.906C114.039 452.184 112.92 452.258 111.815 452.125C111.265 452.055 110.733 451.876 110.252 451.599C109.77 451.323 109.348 450.953 109.009 450.513C108.336 450.845 107.559 450.901 106.845 450.67C106.427 450.376 106.13 449.94 106.008 449.443C105.886 448.947 105.947 448.422 106.18 447.967C106.595 447.151 107.226 446.464 108.005 445.983C108.783 445.502 109.679 445.245 110.594 445.24C112.421 445.25 114.23 445.603 115.927 446.283C118.345 447.07 120.474 447.567 122.893 448.367Z" fill="#E0E0E0"/>
<path d="M87.4473 212.355C87.4473 211.421 84.3151 150.361 84.3151 150.361L79.5504 177.982L87.4473 212.355Z" fill="#F5F5F5"/>
<path d="M88.6079 279.451C88.3781 278.748 83.2747 267.61 83.2747 267.61L60.8053 239.055L74.7006 270.397L88.6079 279.451Z" fill="#F5F5F5"/>
<path d="M91.1597 295.934L96.9282 282.238L95.7914 262.495L91.1597 287.814V295.934Z" fill="#F5F5F5"/>
<path d="M92.6233 330.488C92.7684 330.488 91.6316 299.728 90.1078 266.143C88.5841 232.559 87.2538 205.349 87.1087 205.349C86.9636 205.349 88.1003 232.583 89.612 266.167C91.1236 299.752 92.4902 330.5 92.6233 330.488Z" fill="#E0E0E0"/>
<path d="M98.8025 178.479C99.262 177.788 100.653 155.039 100.012 153.173C99.3709 151.306 91.8972 126.242 91.8972 126.242L93.9772 163.39L98.8025 178.479Z" fill="#EBEBEB"/>
<path d="M99.5527 207.47C99.5527 207.47 97.2308 197.495 95.3926 196.332C93.5544 195.168 69.005 176.588 69.005 176.588L56.5004 174.043L67.1547 179.376L99.5527 207.47Z" fill="#EBEBEB"/>
<path d="M110.013 176.394L103.289 217.021L100.52 220.269L99.5525 209.591L110.013 176.394Z" fill="#EBEBEB"/>
<path d="M123.545 211.191L109.42 239.515L101.076 242.994L107.788 229.989L123.545 211.191Z" fill="#EBEBEB"/>
<path d="M102.382 260.253C101.923 259.55 94.038 239.649 94.038 239.649L73.4793 225.25H64.6753L70.8792 226.644L102.382 260.253Z" fill="#EBEBEB"/>
<path d="M115.02 261.525L108.078 278.954L102.382 280.093V276.106L115.02 261.525Z" fill="#EBEBEB"/>
<path d="M104.765 327.834C104.91 327.834 103.555 293.655 101.802 251.478C100.048 209.3 98.4762 175.122 98.3432 175.122C98.2101 175.122 99.5525 209.312 101.306 251.478C103.06 293.643 104.632 327.846 104.765 327.834Z" fill="#E0E0E0"/>
<path d="M405.32 337.481C396.095 330.405 385.401 325.498 374.028 323.121C362.656 320.744 350.896 320.959 339.617 323.749C324.101 327.701 309.589 336.572 293.663 336.936C270.601 337.433 249.848 320.126 226.811 320.998C208.562 321.689 192.103 333.761 173.854 334.027C156.657 334.282 140.694 324.016 123.509 323.822C103.954 323.616 85.6693 336.439 66.1991 334.609C56.0527 333.664 46.753 328.803 36.9695 325.955C27.186 323.107 11.1623 328.379 3.48303 335.045" fill="white"/>
<path d="M3.48303 335.033L4.34171 334.379C4.88589 333.918 5.76865 333.324 6.91751 332.561C10.3686 330.42 14.0739 328.723 17.9467 327.507C20.7295 326.595 23.5923 325.95 26.4966 325.58C29.9358 325.094 33.4354 325.263 36.8123 326.076C40.4403 327.131 44.1771 328.5 48.1679 330.015C52.3706 331.652 56.6823 332.993 61.0715 334.027C65.9455 335.055 70.9566 335.26 75.8979 334.633C81.2323 333.909 86.493 332.716 91.6193 331.07C96.9524 329.47 102.406 327.628 108.127 326.222C113.986 324.628 120.058 323.966 126.121 324.258C132.475 324.884 138.738 326.222 144.794 328.246C151.14 330.362 157.6 332.119 164.143 333.506C167.543 334.116 170.993 334.392 174.446 334.33C177.952 334.207 181.436 333.732 184.847 332.912C191.74 331.324 198.391 328.682 205.188 326.295C208.586 325.083 211.984 323.968 215.431 323.119C218.834 322.211 222.317 321.638 225.831 321.41C232.821 320.913 239.678 322.356 246.172 324.246C252.666 326.137 258.797 328.658 265.001 330.876C270.979 333.228 277.155 335.037 283.456 336.282C289.49 337.415 295.682 337.415 301.717 336.282C307.362 335.151 312.897 333.529 318.26 331.434C323.473 329.482 328.455 327.482 333.353 325.858C338.022 324.252 342.832 323.091 347.72 322.392C352.165 321.802 356.65 321.575 361.131 321.713C365.13 321.893 369.111 322.359 373.043 323.107C383.349 325.102 393.149 329.154 401.862 335.021L404.437 336.936C405.018 337.348 405.32 337.542 405.32 337.542C405.32 337.542 405.042 337.312 404.474 336.888L401.934 334.985C393.259 328.998 383.444 324.872 373.104 322.865C364.743 321.173 356.16 320.894 347.708 322.041C342.773 322.73 337.915 323.882 333.196 325.483C328.286 327.095 323.291 329.119 318.079 331.021C312.745 333.118 307.238 334.74 301.62 335.869C295.649 336.984 289.524 336.984 283.553 335.869C277.291 334.616 271.152 332.812 265.207 330.476C259.076 328.21 252.872 325.628 246.329 323.725C239.787 321.822 232.869 320.356 225.771 320.853C222.216 321.083 218.692 321.659 215.249 322.574C211.779 323.446 208.368 324.574 204.958 325.773C198.149 328.197 191.51 330.803 184.689 332.379C177.991 334.054 171.01 334.252 164.228 332.961C157.708 331.587 151.272 329.843 144.951 327.737C138.856 325.659 132.549 324.272 126.146 323.604C120.032 323.306 113.909 323.981 108.006 325.604C102.249 327.058 96.7952 328.913 91.4863 330.525C86.3922 332.171 81.164 333.368 75.8616 334.1C70.9751 334.736 66.0168 334.548 61.1924 333.542C56.8132 332.556 52.5093 331.26 48.313 329.664C44.3102 328.197 40.537 326.804 36.909 325.761C33.4865 324.947 29.941 324.791 26.4604 325.301C23.5405 325.688 20.665 326.358 17.8741 327.301C13.9936 328.54 10.2901 330.28 6.85706 332.476C5.97314 333.055 5.12137 333.682 4.30539 334.354C3.74908 334.791 3.48303 335.033 3.48303 335.033Z" fill="#E0E0E0"/>
<path d="M744.212 139.38H630.849C630.849 139.38 640.874 121.103 670.056 123.757C697.87 126.303 699.346 114.764 713.507 113.346C727.668 111.928 739.496 122.751 744.212 139.38Z" fill="#EBEBEB"/>
<path d="M257.588 111.395H132.628C132.628 111.395 143.681 91.2394 175.85 94.1724C206.567 96.96 208.127 84.2582 223.727 82.6948C239.327 81.1313 252.376 93.1301 257.588 111.395Z" fill="#F5F5F5"/>
<path d="M170.794 181.691C170.794 181.861 301.995 182.006 463.816 182.006C625.637 182.006 756.874 181.861 756.874 181.691C756.874 181.521 625.685 181.376 463.816 181.376C301.947 181.376 170.794 181.521 170.794 181.691Z" fill="#E0E0E0"/>
<path d="M493.178 190.829C493.178 190.999 511.572 191.145 534.296 191.145C557.019 191.145 575.413 190.999 575.413 190.829C575.413 190.66 557.031 190.514 534.296 190.514C511.56 190.514 493.178 190.66 493.178 190.829Z" fill="#E0E0E0"/>
<path d="M512.14 199.107C512.14 199.289 522.045 199.435 534.259 199.435C546.473 199.435 556.378 199.289 556.378 199.107C556.378 198.926 546.473 198.792 534.259 198.792C522.045 198.792 512.14 198.938 512.14 199.107Z" fill="#E0E0E0"/>
<path d="M655.398 236.267L652.399 278.687C652.166 282.028 650.677 285.156 648.233 287.439C645.789 289.722 642.571 290.991 639.229 290.989C637.424 290.988 635.637 290.616 633.981 289.895C632.324 289.175 630.832 288.121 629.598 286.8C628.364 285.479 627.413 283.918 626.804 282.214C626.196 280.51 625.942 278.7 626.06 276.894C626.326 272.858 626.568 269.549 626.568 269.549C626.568 269.549 616.313 267.949 616.192 257.683C616.119 251.745 617.135 238.291 618.006 227.977C618.291 224.613 619.826 221.479 622.308 219.196C624.79 216.913 628.036 215.648 631.405 215.651H637.597C640.129 215.799 642.605 216.454 644.88 217.577C647.155 218.701 649.182 220.27 650.842 222.192C652.501 224.114 653.76 226.349 654.542 228.767C655.325 231.185 655.616 233.735 655.398 236.267Z" fill="#FFBE9D"/>
<path d="M626.544 269.415C631.255 269.489 635.883 268.165 639.846 265.61C639.846 265.61 636.69 273.003 626.459 272.07L626.544 269.415Z" fill="#EB996E"/>
<path d="M620.69 240.303C620.684 240.685 620.827 241.054 621.09 241.33C621.352 241.607 621.713 241.769 622.093 241.782C622.28 241.798 622.468 241.777 622.646 241.719C622.824 241.661 622.989 241.567 623.13 241.444C623.271 241.321 623.386 241.17 623.467 241.001C623.549 240.832 623.596 240.648 623.605 240.461C623.608 240.08 623.464 239.713 623.202 239.437C622.94 239.161 622.582 238.998 622.202 238.982C622.016 238.966 621.828 238.987 621.649 239.045C621.471 239.103 621.307 239.197 621.166 239.32C621.024 239.443 620.909 239.594 620.828 239.763C620.746 239.932 620.699 240.116 620.69 240.303Z" fill="#263238"/>
<path d="M619.783 238.279C619.965 238.473 621.065 237.649 622.65 237.661C624.234 237.673 625.371 238.449 625.54 238.255C625.709 238.061 625.443 237.831 624.935 237.455C624.253 236.984 623.442 236.734 622.613 236.74C621.797 236.744 621.003 237.002 620.34 237.479C619.856 237.855 619.687 238.194 619.783 238.279Z" fill="#263238"/>
<path d="M635.517 240.727C635.514 241.11 635.66 241.479 635.924 241.755C636.189 242.032 636.55 242.193 636.932 242.206C637.119 242.223 637.307 242.201 637.485 242.143C637.663 242.085 637.828 241.992 637.969 241.868C638.11 241.745 638.225 241.594 638.306 241.425C638.388 241.256 638.435 241.073 638.444 240.885C638.447 240.502 638.301 240.133 638.037 239.857C637.772 239.581 637.411 239.419 637.029 239.406C636.843 239.392 636.655 239.414 636.478 239.473C636.3 239.532 636.137 239.625 635.996 239.748C635.855 239.871 635.74 240.021 635.658 240.189C635.576 240.358 635.528 240.541 635.517 240.727Z" fill="#263238"/>
<path d="M635.263 238.582C635.444 238.764 636.557 237.952 638.129 237.952C639.701 237.952 640.85 238.74 641.032 238.558C641.213 238.376 640.923 238.122 640.427 237.758C639.748 237.279 638.936 237.024 638.105 237.031C637.285 237.032 636.486 237.291 635.819 237.77C635.336 238.146 635.166 238.497 635.263 238.582Z" fill="#263238"/>
<path d="M629.543 250.29C628.718 250.018 627.859 249.859 626.991 249.817C626.58 249.817 626.205 249.696 626.133 249.43C626.095 249.008 626.188 248.585 626.399 248.218C626.786 247.248 627.173 246.218 627.608 245.151C628.705 242.546 629.599 239.86 630.281 237.116C628.97 239.625 627.862 242.235 626.967 244.921C626.568 245.988 626.193 247.018 625.83 247.999C625.576 248.487 625.503 249.05 625.625 249.587C625.679 249.73 625.766 249.857 625.88 249.958C625.994 250.06 626.13 250.132 626.278 250.169C626.502 250.233 626.734 250.265 626.967 250.266C627.822 250.376 628.687 250.384 629.543 250.29Z" fill="#263238"/>
<path d="M634.175 251.381C633.921 251.381 633.921 253.078 632.457 254.29C630.994 255.502 629.168 255.32 629.156 255.562C629.144 255.805 629.567 255.89 630.365 255.914C631.364 255.925 632.335 255.587 633.11 254.956C633.855 254.356 634.333 253.484 634.441 252.532C634.489 251.793 634.296 251.369 634.175 251.381Z" fill="#263238"/>
<path d="M634.9 232.389C635.057 232.825 636.629 232.619 638.528 232.837C640.427 233.055 641.866 233.565 642.156 233.189C642.277 232.995 642.011 232.595 641.406 232.183C640.603 231.674 639.694 231.354 638.749 231.249C637.804 231.144 636.848 231.256 635.952 231.577C635.13 231.856 634.791 232.195 634.9 232.389Z" fill="#263238"/>
<path d="M620.388 233.71C620.666 234.074 621.755 233.71 623.061 233.71C624.367 233.71 625.479 233.952 625.721 233.577C625.83 233.395 625.721 233.031 625.177 232.692C624.528 232.288 623.774 232.086 623.01 232.109C622.247 232.133 621.507 232.382 620.884 232.825C620.388 233.177 620.231 233.54 620.388 233.71Z" fill="#263238"/>
<path d="M651.94 243.976C652.109 243.903 658.978 241.891 658.761 248.908C658.543 255.926 651.505 254.265 651.505 254.059C651.505 253.853 651.94 243.976 651.94 243.976Z" fill="#FFBE9D"/>
<path d="M653.766 251.466C653.766 251.466 653.887 251.563 654.08 251.66C654.376 251.775 654.704 251.775 654.999 251.66C655.459 251.385 655.838 250.994 656.099 250.526C656.361 250.058 656.494 249.529 656.487 248.993C656.519 248.389 656.42 247.785 656.196 247.224C656.137 247.002 656.024 246.797 655.868 246.628C655.713 246.459 655.518 246.331 655.301 246.254C655.163 246.216 655.015 246.226 654.883 246.283C654.751 246.34 654.643 246.441 654.576 246.569C654.479 246.763 654.515 246.909 654.479 246.921C654.443 246.933 654.334 246.787 654.394 246.509C654.44 246.335 654.542 246.181 654.685 246.072C654.782 246.003 654.891 245.953 655.008 245.926C655.124 245.899 655.244 245.895 655.362 245.915C655.641 245.987 655.898 246.127 656.11 246.324C656.321 246.521 656.479 246.768 656.571 247.042C656.85 247.661 656.974 248.339 656.934 249.018C656.973 249.657 656.818 250.292 656.49 250.842C656.162 251.391 655.676 251.828 655.096 252.096C654.906 252.147 654.707 252.153 654.514 252.116C654.322 252.078 654.14 251.996 653.983 251.878C653.766 251.635 653.741 251.478 653.766 251.466Z" fill="#EB996E"/>
<path d="M655.834 243.745C655.167 243.694 654.499 243.829 653.903 244.135C653.308 244.441 652.808 244.906 652.46 245.478C652.013 246.472 651.904 247.612 651.456 248.618C651.272 249.137 650.922 249.581 650.461 249.881C650 250.181 649.453 250.321 648.905 250.278C648.541 250.161 648.214 249.951 647.958 249.668C647.701 249.385 647.523 249.04 647.441 248.666C647.296 247.918 647.296 247.148 647.441 246.4C647.852 243.127 648.542 239.879 648.651 236.57C648.916 233.252 648.196 229.929 646.583 227.02C645.756 225.583 644.558 224.396 643.115 223.584C641.672 222.771 640.038 222.363 638.383 222.402C636.207 222.584 634.211 223.723 632.046 224.026C630.755 224.19 629.444 224.057 628.212 223.637C626.979 223.217 625.859 222.521 624.936 221.602C624.706 221.372 623.605 220.645 623.605 220.645C623.641 219.866 623.897 219.114 624.343 218.475C628.636 214.5 636.376 213.385 642.035 214.839C644.92 215.548 647.616 216.88 649.935 218.741C652.253 220.602 654.139 222.947 655.459 225.614C657.878 230.934 657.176 238.34 655.834 243.794" fill="#263238"/>
<path d="M621.211 223.662C624.681 215.675 628.854 207.7 639.121 204.501C642.749 203.361 649.836 202.259 653.064 204.319C655.132 205.64 656.547 207.761 658.422 209.361C660.611 211.239 663.38 212.33 665.678 214.124C666.336 214.588 666.868 215.208 667.226 215.93C667.397 216.296 667.46 216.704 667.409 217.105C667.358 217.507 667.193 217.885 666.935 218.196C666.435 218.612 665.818 218.862 665.17 218.911C662.503 219.382 659.799 219.605 657.092 219.578C657.734 219.882 658.246 220.407 658.535 221.057C658.823 221.707 658.869 222.44 658.664 223.121C658.459 223.803 658.016 224.388 657.417 224.77C656.817 225.151 656.101 225.305 655.398 225.202C656.16 228.632 657.079 228.935 655.967 232.268C655.967 232.268 646.002 223.517 637.658 222.111C632.129 221.358 626.502 221.889 621.211 223.662Z" fill="#FFC100"/>
<path d="M618.961 218.693C619.091 217.72 619.504 216.806 620.15 216.066C620.795 215.327 621.644 214.795 622.589 214.536C629.095 212.827 636.206 213.991 641.636 215.663C654.407 219.566 658.361 227.42 658.361 229.504C658.361 232.631 656.39 241.043 656.39 241.043C644.756 217.724 617.873 226.402 617.873 226.402L618.961 218.693Z" fill="#FFC100"/>
<path d="M622.347 214.318C622.347 214.439 624.524 213.954 628.043 213.663C632.618 213.27 637.226 213.68 641.66 214.875C644.073 215.595 646.385 216.617 648.542 217.918L649.956 218.851C650.416 219.154 650.815 219.505 651.226 219.82C651.979 220.413 652.694 221.053 653.367 221.735C654.35 222.72 655.264 223.773 656.1 224.887C656.378 225.324 656.703 225.73 657.067 226.099C656.857 225.628 656.598 225.181 656.293 224.765C655.533 223.575 654.663 222.459 653.693 221.432C653.025 220.718 652.31 220.05 651.553 219.433C651.142 219.105 650.743 218.73 650.283 218.402L648.844 217.433C646.656 216.074 644.297 215.015 641.83 214.282C637.327 213.05 632.63 212.7 627.995 213.251C626.599 213.387 625.214 213.614 623.847 213.93C623.334 213.999 622.83 214.13 622.347 214.318Z" fill="#263238"/>
<path d="M645.688 213.7C647.55 214.751 649.468 215.702 651.432 216.548C654.588 218.112 656.959 219.723 657.067 219.578C655.515 218.052 653.7 216.82 651.71 215.942C649.817 214.916 647.79 214.161 645.688 213.7Z" fill="#263238"/>
<path d="M640.947 226.983C640.471 227.755 639.822 228.406 639.051 228.883C638.281 229.361 637.41 229.652 636.508 229.735C635.606 229.817 634.698 229.688 633.854 229.357C633.01 229.027 632.255 228.505 631.647 227.832C631.375 228.496 630.904 229.059 630.298 229.444C629.693 229.828 628.984 230.015 628.268 229.977C627.552 229.94 626.866 229.681 626.304 229.236C625.741 228.791 625.331 228.181 625.129 227.492C624.394 228.301 623.501 228.949 622.505 229.395C622.003 229.61 621.448 229.666 620.914 229.555C620.38 229.445 619.893 229.173 619.518 228.777C619.218 228.308 619.075 227.756 619.109 227.2C619.144 226.644 619.355 226.114 619.711 225.687C620.438 224.841 621.378 224.205 622.432 223.844C625.618 222.44 629.12 221.908 632.578 222.305C636.055 222.719 639.241 224.454 641.479 227.153" fill="#263238"/>
<g opacity="0.2">
<path d="M657.067 219.578C655.689 217.699 655.193 216.051 653.584 214.379C652.018 212.642 650.044 211.325 647.84 210.549C647.523 210.431 647.186 210.382 646.849 210.403C646.679 210.421 646.518 210.485 646.381 210.587C646.245 210.69 646.139 210.827 646.075 210.985C646.051 211.066 646.045 211.15 646.057 211.233C646.068 211.316 646.097 211.396 646.142 211.467C646.187 211.538 646.246 211.599 646.315 211.645C646.385 211.691 646.464 211.723 646.546 211.736C645.498 211.373 644.387 211.229 643.281 211.312C643.011 211.31 642.749 211.404 642.543 211.579C642.443 211.721 642.394 211.894 642.405 212.068C642.416 212.243 642.486 212.408 642.604 212.536C642.84 212.792 643.135 212.988 643.462 213.106C648.167 215.227 652.363 217.445 657.067 219.578Z" fill="black"/>
</g>
<path d="M652.169 234.74C652.169 234.74 652.302 234.643 652.508 234.437C652.799 234.14 653.066 233.82 653.306 233.48C654.127 232.378 654.765 231.15 655.193 229.844C655.626 228.538 655.846 227.171 655.846 225.796C655.846 225.391 655.821 224.986 655.773 224.584C655.765 224.43 655.732 224.279 655.676 224.135C655.676 224.135 655.676 224.778 655.676 225.82C655.623 227.176 655.383 228.517 654.963 229.807C654.542 231.099 653.939 232.323 653.173 233.443C652.58 234.231 652.145 234.716 652.169 234.74Z" fill="#263238"/>
<path d="M646.328 229.068C646.328 229.068 646.413 228.462 646.606 227.505C646.838 226.242 647.245 225.018 647.816 223.869C648.407 222.733 649.151 221.685 650.029 220.754C650.694 220.039 651.178 219.663 651.153 219.627C651.022 219.685 650.9 219.763 650.791 219.857C650.476 220.096 650.177 220.355 649.896 220.632C648.032 222.467 646.799 224.848 646.377 227.432C646.303 227.832 646.262 228.237 646.256 228.644C646.304 228.91 646.304 229.068 646.328 229.068Z" fill="#263238"/>
<path d="M638.117 225.747C638.117 225.747 638.201 225.093 638.383 224.038C638.622 222.665 638.991 221.318 639.483 220.014C639.989 218.719 640.621 217.477 641.37 216.306C641.938 215.409 642.349 214.875 642.313 214.851C642.277 214.827 642.192 214.96 641.987 215.191C641.781 215.421 641.527 215.76 641.213 216.209C640.414 217.368 639.752 218.617 639.241 219.93C638.734 221.245 638.385 222.616 638.201 224.014C638.149 224.416 638.117 224.821 638.105 225.226C638.093 225.577 638.093 225.747 638.117 225.747Z" fill="#263238"/>
<path d="M629.18 223.82C629.18 223.82 629.18 223.214 629.18 222.232C629.164 220.964 629.237 219.697 629.398 218.439C629.57 217.185 629.833 215.946 630.184 214.73C630.361 214.23 630.51 213.72 630.631 213.203C630.552 213.324 630.487 213.454 630.438 213.591C630.317 213.833 630.184 214.209 630.015 214.669C629.611 215.888 629.319 217.142 629.144 218.415C628.974 219.684 628.93 220.967 629.011 222.244C629.011 222.729 629.083 223.129 629.12 223.396C629.156 223.662 629.156 223.82 629.18 223.82Z" fill="#263238"/>
<path d="M622.359 225.711C622.359 225.711 622.214 225.093 622.021 224.087C621.527 221.463 621.635 218.761 622.335 216.184C622.613 215.191 622.843 214.609 622.807 214.585C622.724 214.71 622.655 214.844 622.601 214.985C622.431 215.379 622.286 215.784 622.166 216.197C621.353 218.783 621.244 221.541 621.851 224.184C621.939 224.594 622.052 224.999 622.19 225.396C622.238 225.505 622.295 225.61 622.359 225.711Z" fill="#263238"/>
<path d="M643.22 215.057C643.552 214.817 643.909 214.614 644.285 214.451C645.312 214.014 646.468 213.988 647.514 214.379H647.635V214.257C647.762 213.634 648.079 213.066 648.543 212.632C649.007 212.198 649.594 211.918 650.223 211.833C651.751 211.711 653.288 211.93 654.721 212.476L663.658 214.9L666.343 215.736L667.081 215.918H667.347C667.269 215.87 667.183 215.837 667.093 215.821L666.367 215.591L663.67 214.791L654.745 212.245C653.278 211.701 651.709 211.49 650.15 211.627C649.482 211.721 648.86 212.019 648.369 212.482C647.877 212.944 647.541 213.547 647.405 214.209L647.538 214.124C646.448 213.732 645.248 213.789 644.2 214.282C643.822 214.467 643.488 214.732 643.22 215.057Z" fill="#263238"/>
<path d="M633.485 213.094C633.64 213.011 633.79 212.918 633.933 212.815C634.223 212.633 634.646 212.367 635.215 212.076C636.81 211.244 638.544 210.714 640.33 210.512H640.415V210.427C640.549 209.56 640.937 208.752 641.529 208.105C642.121 207.458 642.89 207.001 643.741 206.791C645.743 206.322 647.836 206.418 649.787 207.07C652.134 207.819 654.38 208.852 656.475 210.149C658.434 211.288 660.187 212.355 661.735 213.142C662.946 213.763 664.199 214.298 665.484 214.742C665.944 214.888 666.319 214.972 666.561 215.033L666.936 215.118C666.818 215.064 666.697 215.02 666.573 214.985L665.521 214.645C664.253 214.17 663.017 213.616 661.82 212.985C660.296 212.185 658.555 211.094 656.584 209.943C654.479 208.63 652.221 207.584 649.86 206.828C647.846 206.152 645.683 206.059 643.62 206.561C642.729 206.786 641.926 207.271 641.312 207.956C640.698 208.64 640.301 209.492 640.173 210.403L640.258 210.306C638.454 210.53 636.709 211.098 635.118 211.979C634.539 212.296 633.992 212.67 633.485 213.094Z" fill="#263238"/>
<path d="M626.52 275.742L653.04 270.021C659.365 270.459 665.561 272.023 671.338 274.639C680.71 278.942 698.402 300.006 703.058 326.61C705.477 340.705 707.352 361.552 708.198 371.878C708.198 371.878 715.539 380.362 708.887 382.592L708.621 384.325L648.034 369.781L640.56 334.27L631.115 312.029L613.06 337.59C611.198 340.216 608.735 342.357 605.877 343.833C603.02 345.309 599.852 346.078 596.637 346.075H595.537C592.055 346.111 588.657 345.005 585.862 342.923L552.46 313.714L558.204 304.285L596.008 322.392L615.914 287.559C617.726 284.405 620.028 281.562 622.734 279.136L626.52 275.742Z" fill="#FFC100"/>
<path d="M654.25 267.852C669.007 268.305 683.685 270.197 698.076 273.5C699.661 273.68 701.131 274.419 702.224 275.585C703.615 277.475 702.732 280.117 701.801 282.263C699.83 286.759 697.229 291.68 692.513 293.049C688.885 294.092 685.039 292.674 681.629 291.074C670.832 285.973 661.124 278.824 653.04 270.021" fill="#FFC100"/>
<path d="M624.391 294.831C624.222 294.892 626.652 301.388 629.809 309.375C632.965 317.362 635.662 323.725 635.856 323.653C636.049 323.58 633.594 317.096 630.438 309.108C627.281 301.121 624.548 294.758 624.391 294.831Z" fill="#263238"/>
<path d="M653.754 272.155V265.61L625.528 271.464L624.972 279.584L653.754 272.155Z" fill="#FFC100"/>
<path d="M663.622 272.324C663.622 272.433 665.641 272.967 668.749 274.324C670.57 275.119 672.335 276.034 674.034 277.063C678.195 279.589 681.909 282.787 685.027 286.529C686.301 288.066 687.473 289.686 688.534 291.377C690.336 294.261 691.17 296.225 691.279 296.225C691.16 295.742 690.986 295.274 690.759 294.831C690.539 294.288 690.288 293.758 690.01 293.243C689.695 292.637 689.369 291.934 688.909 291.207C687.886 289.473 686.738 287.817 685.475 286.25C683.901 284.354 682.182 282.583 680.335 280.954C678.439 279.361 676.417 277.927 674.288 276.663C672.558 275.639 670.751 274.751 668.882 274.009C668.108 273.67 667.359 273.439 666.718 273.221C666.171 273.025 665.614 272.859 665.049 272.724C664.592 272.531 664.113 272.396 663.622 272.324Z" fill="#263238"/>
<path d="M649.195 269.828C649.364 269.828 649.57 269.137 649.654 268.264C649.739 267.391 649.654 266.652 649.485 266.64C649.316 266.628 649.098 267.319 649.025 268.203C648.953 269.088 649.025 269.815 649.195 269.828Z" fill="#263238"/>
<path d="M643.366 271.173C643.535 271.173 643.68 270.458 643.68 269.585C643.68 268.713 643.535 267.985 643.366 267.985C643.196 267.985 643.051 268.7 643.051 269.585C643.051 270.47 643.209 271.173 643.366 271.173Z" fill="#263238"/>
<path d="M636.739 272.918C636.92 272.918 637.114 272.094 637.186 271.052C637.259 270.009 637.186 269.161 637.005 269.149C636.823 269.137 636.63 269.973 636.557 271.015C636.485 272.058 636.569 272.906 636.739 272.918Z" fill="#263238"/>
<path d="M630.257 274.263C630.426 274.263 630.631 273.427 630.716 272.361C630.801 271.294 630.716 270.421 630.559 270.409C630.402 270.397 630.172 271.246 630.087 272.312C630.003 273.379 630.063 274.251 630.257 274.263Z" fill="#263238"/>
<g opacity="0.3">
<path d="M631.066 312.066L622.601 323.968C622.601 323.968 625.213 297.061 625.322 297.304C625.431 297.546 631.066 312.066 631.066 312.066Z" fill="black"/>
</g>
<g opacity="0.3">
<path d="M699.878 286.238C695.633 287.196 691.207 285.644 687.386 283.547C683.564 281.451 680.009 278.808 675.921 277.306C680.408 280.76 685.027 284.372 687.724 289.365C688.438 290.698 688.643 292.722 689.986 293.425C691.967 293.491 693.914 292.899 695.524 291.741C696.734 290.807 699.503 288.371 699.878 286.238Z" fill="black"/>
</g>
<path d="M660.139 354.595C660.645 355.043 661.187 355.449 661.76 355.807C662.824 356.558 664.408 357.552 666.403 358.728C676.851 364.819 688.33 368.928 700.265 370.848C702.55 371.211 704.401 371.442 705.695 371.539C706.36 371.632 707.031 371.668 707.702 371.648C707.053 371.472 706.389 371.354 705.719 371.296C704.51 371.127 702.599 370.824 700.337 370.411C694.439 369.324 688.636 367.767 682.983 365.757C677.339 363.719 671.864 361.239 666.609 358.34C664.589 357.225 662.981 356.28 661.881 355.601C661.329 355.217 660.747 354.88 660.139 354.595Z" fill="#263238"/>
<path d="M652.895 369.018L588.691 344.778C582.962 344.331 577.253 345.863 572.514 349.12C567.775 352.377 564.291 357.162 562.642 362.679L552.387 397.039L583.588 400.53L587.978 380.338C587.978 380.338 640.233 405.184 641.527 404.372C642.011 404.069 662.376 399.269 662.34 392.846C662.267 382.398 652.895 369.018 652.895 369.018Z" fill="#263238"/>
<path d="M708.839 382.592L613.072 348.583C607.343 348.136 601.634 349.669 596.894 352.926C592.155 356.183 588.671 360.968 587.023 366.485L576.78 400.833L607.98 404.335L615.66 385.525L667.988 407.341C672.141 409.069 676.633 409.825 681.122 409.551C685.61 409.276 689.978 407.98 693.891 405.759C697.804 403.539 701.161 400.453 703.705 396.737C706.249 393.02 707.914 388.771 708.573 384.313L708.839 382.592Z" fill="#263238"/>
<path d="M577.348 402.941C577.438 402.757 577.503 402.561 577.541 402.36C577.65 401.911 577.795 401.354 577.965 400.687C578.352 399.148 578.872 397.051 579.5 394.53C580.831 389.331 582.778 382.192 585.269 374.399C586.367 370.73 587.729 367.145 589.344 363.673C590.677 360.848 592.403 358.228 594.472 355.892C595.873 354.322 597.47 352.941 599.225 351.783C600.434 350.971 601.232 350.571 601.208 350.571C601.008 350.608 600.816 350.677 600.64 350.777C600.107 351.011 599.59 351.278 599.092 351.577C597.259 352.669 595.593 354.02 594.145 355.589C591.998 357.918 590.205 360.552 588.824 363.406C587.169 366.896 585.778 370.506 584.664 374.205C582.173 382.01 580.286 389.197 579.077 394.421C578.46 397.039 578.013 399.16 577.723 400.639C577.602 401.317 577.493 401.851 577.408 402.335C577.358 402.533 577.338 402.738 577.348 402.941Z" fill="#455A64"/>
<path d="M608.235 411.813C608.488 411.026 613.652 390.434 613.652 390.434L579.271 379.065L575.643 410.371L608.235 411.813Z" fill="#FFC100"/>
<path d="M584.108 407.305C584.374 406.505 589.538 385.925 589.538 385.925L555.217 374.508L551.456 405.85L584.108 407.305Z" fill="#FFC100"/>
<path d="M574.93 410.395C575.099 410.395 576.139 403.523 577.288 395.003C578.437 386.483 579.199 379.562 579.029 379.538C578.86 379.514 577.82 386.398 576.611 394.918C575.401 403.438 574.748 410.371 574.93 410.395Z" fill="#263238"/>
<path d="M603.978 380.386C603.905 380.556 614.801 385.234 628.309 390.725C641.818 396.215 652.823 400.651 652.895 400.493C652.968 400.336 642.011 395.645 628.551 390.143C615.091 384.64 604.038 380.229 603.978 380.386Z" fill="#455A64"/>
<path d="M606.505 385.271C608.153 385.784 609.87 386.041 611.596 386.034C613.31 386.224 615.043 386.155 616.736 385.828C615.052 385.526 613.343 385.384 611.632 385.404C609.931 385.207 608.215 385.162 606.505 385.271Z" fill="#455A64"/>
<path d="M612.576 390.918C613.341 390.197 613.957 389.332 614.39 388.373C615.003 387.521 615.435 386.552 615.66 385.525C614.895 386.246 614.278 387.111 613.846 388.07C613.233 388.923 612.8 389.892 612.576 390.918Z" fill="#455A64"/>
<g opacity="0.3">
<path d="M579.029 382.435L570.515 393.997L577.348 394.555L579.029 382.435Z" fill="black"/>
</g>
<path d="M554.734 313.326L550.441 314.405C546.462 315.047 544.261 315.556 542.906 314.805C541.092 313.799 542.737 311.908 542.737 311.908C542.737 311.908 539.665 311.678 539.484 309.896C539.478 309.519 539.592 309.151 539.809 308.843C540.027 308.536 540.336 308.306 540.693 308.187C540.693 308.187 537.96 307.872 537.198 306.975C536.158 305.763 537.706 304.551 537.706 304.551C533.776 303.339 533.546 301.194 534.272 300.782C534.997 300.37 537.96 300.903 537.96 300.903C540.379 300.903 546.921 301.218 543.789 298.479C540.657 295.74 539.291 292.419 539.544 291.207C539.637 290.952 539.805 290.731 540.027 290.575C540.249 290.419 540.513 290.336 540.784 290.336C541.055 290.336 541.319 290.419 541.541 290.575C541.763 290.731 541.931 290.952 542.024 291.207C542.719 292.432 543.582 293.554 544.587 294.54C545.365 295.371 546.276 296.063 547.284 296.589C548.494 297.182 549.485 297.643 550.368 298.019L557.624 305.182L554.734 313.326Z" fill="#FFBE9D"/>
<path d="M223.727 211.7C292.659 199.241 361.143 208.973 426.617 233.698C492.449 258.671 550.353 300.957 594.242 356.11L597.072 351.577C553.264 296.342 495.337 254.039 429.451 229.168C363.566 204.296 292.187 197.787 222.905 210.33L223.727 211.7Z" fill="#263238"/>
<path d="M553.319 334.185C547.688 334.185 543.124 329.61 543.124 323.968C543.124 318.325 547.688 313.75 553.319 313.75C558.949 313.75 563.513 318.325 563.513 323.968C563.513 329.61 558.949 334.185 553.319 334.185Z" fill="#263238"/>
<path d="M555.955 334.185C550.324 334.185 545.76 329.61 545.76 323.968C545.76 318.325 550.324 313.75 555.955 313.75C561.585 313.75 566.149 318.325 566.149 323.968C566.149 329.61 561.585 334.185 555.955 334.185Z" fill="#455A64"/>
<path d="M554.262 327.264H572.765V328.476H554.262V327.264Z" fill="#E0E0E0"/>
<path d="M229.507 498.132C229.507 498.132 229.507 497.635 229.507 496.69C229.507 495.744 229.507 494.266 229.507 492.46C229.507 488.739 229.411 483.249 229.338 476.158C229.169 461.942 228.927 441.326 228.625 415.631C227.959 364.23 227.028 292.528 225.988 211.336L225.529 211.615C232.482 215.142 239.738 218.766 247.708 220.717C251.72 221.674 255.823 222.19 259.946 222.257C264.118 222.387 268.292 222.086 272.402 221.36C278.65 220.074 284.72 218.039 290.482 215.3C296.238 212.718 301.789 209.834 307.413 207.264H307.11C319.76 215.929 333.908 222.16 348.832 225.638C356.015 227.261 363.375 227.958 370.733 227.711C377.879 227.456 384.938 226.056 391.643 223.566L391.292 223.456C396.524 231.5 403.244 238.465 411.089 243.976C418.481 249.203 426.681 253.175 435.36 255.732C451.044 260.504 467.828 260.207 483.334 254.884L483.032 254.69C483.926 262.33 486.071 269.771 489.381 276.712C492.308 282.901 496.108 288.636 500.664 293.74C504.656 298.163 509.168 302.086 514.1 305.424C518.149 308.34 522.519 310.78 527.124 312.696C530.846 314.166 534.777 315.033 538.77 315.265C541.688 315.404 544.612 315.302 547.514 314.962C549.86 314.684 551.637 314.393 552.823 314.163C554.008 313.932 554.625 313.811 554.625 313.811C554.625 313.811 554.008 313.896 552.823 314.102C551.637 314.308 549.836 314.575 547.489 314.841C544.594 315.152 541.678 315.229 538.77 315.072C534.807 314.819 530.909 313.94 527.221 312.466C522.637 310.517 518.292 308.049 514.269 305.109C509.391 301.772 504.926 297.866 500.966 293.474C496.45 288.379 492.679 282.665 489.768 276.506C486.501 269.598 484.389 262.199 483.516 254.605V254.326L483.25 254.411C467.83 259.678 451.148 259.95 435.566 255.187C426.951 252.646 418.813 248.703 411.476 243.515C403.691 238.039 397.024 231.119 391.836 223.129L391.715 222.923L391.498 223.008C384.851 225.473 377.853 226.852 370.77 227.092C363.456 227.34 356.14 226.647 349.002 225.032C334.156 221.558 320.083 215.352 307.497 206.731L307.352 206.634L307.195 206.707C301.547 209.288 295.996 212.161 290.264 214.742C284.549 217.472 278.528 219.506 272.33 220.802C268.259 221.52 264.126 221.816 259.995 221.687C255.921 221.623 251.866 221.115 247.901 220.172C240.029 218.233 232.809 214.633 225.867 211.118L225.408 210.888V211.397C226.544 292.601 227.536 364.291 228.262 415.692C228.637 441.386 228.951 462.002 229.169 476.219C229.278 483.309 229.374 488.8 229.435 492.52C229.435 494.375 229.507 495.793 229.519 496.75C229.532 497.708 229.507 498.132 229.507 498.132Z" fill="#E0E0E0"/>
<path d="M534.332 300.988C537.96 300.903 541.383 300.685 544.986 300.794C545.571 300.782 546.153 300.877 546.704 301.073C546.98 301.176 547.225 301.348 547.416 301.573C547.606 301.798 547.736 302.068 547.792 302.358C547.8 302.72 547.694 303.076 547.49 303.376C547.287 303.676 546.995 303.904 546.655 304.03C545.967 304.245 545.245 304.327 544.527 304.273C541.758 304.273 537.549 304.697 537.549 304.697" fill="#FFBE9D"/>
<path d="M536.944 304.479C540.572 304.394 543.982 304.164 547.586 304.285C548.174 304.268 548.76 304.358 549.316 304.551C549.635 304.644 549.917 304.838 550.117 305.105C550.317 305.372 550.425 305.696 550.425 306.03C550.425 306.364 550.317 306.688 550.117 306.955C549.917 307.222 549.635 307.416 549.316 307.509C548.624 307.724 547.897 307.806 547.175 307.751C544.418 307.824 540.209 308.175 540.209 308.175" fill="#FFBE9D"/>
<path d="M540.451 307.848C543.499 307.775 546.377 307.593 549.4 307.69C549.894 307.675 550.386 307.753 550.851 307.921C551.125 307.993 551.367 308.154 551.54 308.379C551.713 308.604 551.807 308.879 551.807 309.163C551.807 309.447 551.713 309.722 551.54 309.947C551.367 310.172 551.125 310.333 550.851 310.405C550.273 310.584 549.666 310.654 549.062 310.611C546.74 310.611 543.196 310.963 543.196 310.963" fill="#FFBE9D"/>
<path d="M537.198 304.697C538.727 304.901 540.277 304.901 541.806 304.697C543.354 304.702 544.895 304.498 546.389 304.091C544.856 303.886 543.303 303.886 541.769 304.091C540.225 304.078 538.686 304.282 537.198 304.697Z" fill="#EB996E"/>
<path d="M540.089 308.66C541.534 308.893 543.011 308.852 544.442 308.539C545.889 308.426 547.322 308.178 548.723 307.8C547.274 307.559 545.793 307.596 544.357 307.909C542.913 308.014 541.483 308.266 540.089 308.66Z" fill="#EB996E"/>
<path d="M541.915 312.042C543.36 312.282 544.837 312.245 546.268 311.932C547.717 311.827 549.151 311.576 550.549 311.181C549.103 310.948 547.627 310.989 546.196 311.302C544.749 311.416 543.316 311.663 541.915 312.042Z" fill="#EB996E"/>
<path d="M584.423 328.028L573.079 322.089C571.305 321.208 569.264 321.031 567.365 321.593C565.467 322.155 563.849 323.414 562.836 325.119L562.437 325.773L564.517 339.36L580.48 343.141L584.423 328.028Z" fill="#FFBE9D"/>
<path d="M669.971 307.848C666.077 319.459 660.623 335.724 656.983 346.559C655.785 350.128 653.751 353.358 651.051 355.977C648.352 358.596 645.065 360.528 641.467 361.612C637.184 362.896 632.625 362.934 628.321 361.721L580.178 344.063L584.423 327.81L632.856 335.276L641.116 299.655C641.593 297.598 642.496 295.664 643.768 293.98C645.039 292.296 646.65 290.899 648.496 289.881C650.342 288.862 652.381 288.244 654.481 288.068C656.58 287.891 658.694 288.16 660.683 288.856C664.414 290.159 667.482 292.884 669.22 296.44C670.959 299.995 671.229 304.094 669.971 307.848Z" fill="#FFC100"/>
<path d="M624.343 360.146C624.579 360.329 624.835 360.488 625.104 360.618C625.421 360.799 625.748 360.961 626.084 361.103C626.531 361.315 626.992 361.497 627.463 361.649C630.475 362.676 633.687 362.971 636.835 362.509C641.523 361.844 645.924 359.851 649.521 356.764C653.873 352.974 657.345 348.274 659.691 342.996C661.997 337.735 663.818 332.275 665.133 326.682C666.439 321.58 667.492 316.986 668.423 313.072C669.354 309.157 670.043 306.115 670.563 303.873C670.793 302.842 670.974 302.006 671.12 301.376C671.2 301.087 671.249 300.79 671.265 300.491C671.153 300.766 671.064 301.05 670.999 301.34L670.333 303.824L667.987 312.963C667.008 316.829 665.907 321.447 664.577 326.537C663.237 332.075 661.416 337.485 659.135 342.705C656.828 347.917 653.42 352.565 649.146 356.328C645.641 359.37 641.355 361.365 636.774 362.085C633.685 362.574 630.525 362.35 627.535 361.431C625.431 360.74 624.379 360.073 624.343 360.146Z" fill="#263238"/>
<path d="M658.349 283.535C658.221 283.482 658.087 283.445 657.95 283.426L656.741 283.172C656.475 283.172 656.172 283.038 655.846 283.002H654.757C654.335 282.966 653.91 282.966 653.488 283.002L652.048 283.232C649.626 283.853 647.491 285.291 646.002 287.305C644.106 289.944 642.862 292.997 642.374 296.213C640.112 305.23 637.307 316.453 634.271 328.61C633.715 330.864 633.159 333.082 632.639 335.191L632.989 334.96L597.991 329.482L587.579 327.919L584.761 327.519L583.782 327.422C584.097 327.524 584.421 327.597 584.749 327.64L587.543 328.149L597.931 329.894L632.893 335.579H633.171L633.243 335.3C633.763 333.191 634.32 330.973 634.888 328.707C637.875 316.587 640.644 305.315 642.87 296.286C643.343 293.144 644.54 290.157 646.365 287.559C647.78 285.588 649.823 284.16 652.157 283.511L653.548 283.257C653.95 283.223 654.355 283.223 654.757 283.257H655.834C656.16 283.257 656.45 283.341 656.717 283.378L657.926 283.56C658.067 283.569 658.21 283.56 658.349 283.535Z" fill="#263238"/>
<g opacity="0.3">
<path d="M670.455 303.848C670.83 303.848 669.354 319.011 669.947 326.755C670.539 334.5 670.769 342.511 667.891 349.783C665.013 357.055 660.067 362.727 652.315 362.546L645.228 360.122C645.228 360.122 649.122 356.97 650.464 355.698C657.273 349.238 660.054 341.02 663.066 332.124C666.261 322.898 668.732 313.436 670.455 303.824" fill="black"/>
</g>
<path d="M786.2 414.104L798.003 376.75H740.644L744.974 416.952L786.2 414.104Z" fill="#EBEBEB"/>
<path d="M843.921 388.688C843.921 388.688 802.381 457.142 760.272 469.117L485.959 466.256C485.959 466.256 419.445 414.759 406.614 352.595H416.011L419.397 363.782C419.397 363.782 459.753 386.979 591.219 395.536C722.686 404.093 824.004 398.384 824.004 398.384L832.542 386.979L843.921 388.688Z" fill="#FFC100"/>
<g opacity="0.4">
<path d="M843.921 388.688C843.921 388.688 802.381 457.142 760.272 469.117L485.959 466.256C485.959 466.256 419.445 414.759 406.614 352.595H416.011L419.397 363.782C419.397 363.782 459.753 386.979 591.219 395.536C722.686 404.093 824.004 398.384 824.004 398.384L832.542 386.979L843.921 388.688Z" fill="black"/>
</g>
<path d="M744.949 466.802C746.342 466.926 747.745 466.865 749.122 466.62C752.883 465.944 756.483 464.558 759.728 462.536C764.495 459.535 769.049 456.206 773.357 452.573C778.291 448.573 783.576 443.992 788.909 438.95C798.006 430.343 806.492 421.109 814.305 411.316C817.292 407.547 819.626 404.432 821.186 402.251L822.964 399.718C823.185 399.431 823.383 399.127 823.556 398.809C823.304 399.068 823.074 399.348 822.867 399.645L820.992 402.069C819.36 404.202 816.989 407.28 813.966 411.001C806.067 420.7 797.556 429.881 788.485 438.489C783.177 443.519 777.916 448.101 773.006 452.112C768.717 455.757 764.192 459.113 759.461 462.16C756.271 464.181 752.744 465.609 749.049 466.378C748.039 466.569 747.017 466.687 745.99 466.729L744.949 466.802Z" fill="#263238"/>
<path d="M415.575 353.904C415.594 354.024 415.627 354.142 415.672 354.255L416.023 355.249C416.361 356.158 416.821 357.431 417.426 359.055C417.728 359.879 418.067 360.8 418.441 361.794C418.816 362.788 419.288 363.867 419.772 365.018C420.739 367.333 421.779 369.987 423.122 372.835L425.165 377.332C425.891 378.883 426.713 380.471 427.524 382.18C429.132 385.513 431.043 388.979 433.014 392.64C437.089 399.912 441.866 407.729 447.332 415.668C452.799 423.606 458.531 430.733 463.924 437.071C466.682 440.186 469.27 443.192 471.846 445.846C473.128 447.179 474.325 448.513 475.534 449.725L479.041 453.203C481.242 455.445 483.371 457.336 485.197 459.045L487.76 461.396L489.986 463.311L493.069 465.941L493.88 466.608L494.17 466.826L493.916 466.559L493.142 465.844L490.143 462.984L487.966 461.033L485.439 458.609C483.637 456.876 481.532 454.973 479.392 452.706L475.921 449.204C474.712 447.992 473.502 446.646 472.293 445.301C469.741 442.635 467.178 439.641 464.444 436.514C459.075 430.163 453.427 422.988 447.925 415.134C442.423 407.28 437.694 399.451 433.594 392.227C431.611 388.591 429.688 385.125 428.068 381.804C427.245 380.156 426.411 378.568 425.649 377.017L423.557 372.545C422.19 369.721 421.138 367.078 420.135 364.788L418.756 361.588C418.369 360.594 418.006 359.685 417.68 358.861C417.039 357.261 416.543 356.001 416.18 355.104L415.769 354.134C415.711 354.052 415.646 353.975 415.575 353.904Z" fill="#263238"/>
<path d="M474.288 447.979L475.062 448.064L477.336 448.246C479.331 448.404 482.282 448.585 486.079 448.816C493.674 449.252 504.679 449.713 518.272 449.931C531.865 450.149 548.082 450.088 566.053 450.1H624.56L730.861 449.943L763.077 449.822L771.833 449.761H774.106H774.88C774.88 449.761 774.626 449.761 774.106 449.761H771.833L763.077 449.7L730.861 449.616H624.56L566.053 449.676C548.07 449.676 531.877 449.81 518.284 449.676C504.691 449.543 493.686 449.119 486.092 448.767L477.348 448.307L475.062 448.185C474.555 447.967 474.288 447.979 474.288 447.979Z" fill="#263238"/>
<path d="M446.716 414.104L447.623 414.274L450.271 414.698L460.502 416.31C462.715 416.698 465.207 416.94 467.928 417.255L476.768 418.249C478.352 418.407 479.997 418.637 481.69 418.77L486.95 419.194L498.379 420.103C530.45 422.334 574.869 423.085 623.907 422.855L693.033 422.527C714.281 422.418 733.412 422.527 749.485 422.624C757.514 422.624 764.783 422.843 771.168 422.927C777.553 423.012 783.044 423.17 787.53 423.303L797.87 423.582H800.567L797.882 423.461L787.542 423.073C783.044 422.891 777.553 422.697 771.168 422.588C764.783 422.479 757.527 422.237 749.485 422.188C733.425 421.982 714.281 421.885 693.033 421.958L623.907 422.237C574.881 422.467 530.474 421.788 498.403 419.667L486.975 418.807L481.726 418.407C480.021 418.273 478.388 418.067 476.804 417.91L467.952 416.964C465.243 416.673 462.752 416.443 460.539 416.08L450.295 414.589L447.635 414.213L446.716 414.104Z" fill="#263238"/>
<path d="M641.636 449.834C641.865 448.525 641.975 447.199 641.963 445.871C642.048 443.447 642.035 440.029 641.963 436.296C641.89 432.563 641.818 429.363 641.757 426.733C641.802 425.411 641.765 424.087 641.649 422.77C641.403 424.076 641.29 425.404 641.31 426.733C641.225 429.157 641.237 432.575 641.31 436.308C641.382 440.041 641.443 443.241 641.503 445.871C641.462 447.193 641.506 448.517 641.636 449.834Z" fill="#263238"/>
<path d="M560.176 466.329C560.288 461.351 559.981 456.372 559.256 451.446C559.143 456.424 559.45 461.403 560.176 466.329Z" fill="#263238"/>
<path d="M537.827 389.828C537.658 389.828 537.633 396.857 537.827 405.511C538.02 414.165 538.238 421.182 538.419 421.17C538.601 421.158 538.613 414.153 538.419 405.499C538.226 396.845 537.996 389.828 537.827 389.828Z" fill="#263238"/>
<path d="M711.463 398.845C711.375 402.844 711.488 406.844 711.802 410.832C711.919 414.825 712.242 418.81 712.769 422.77C712.872 418.775 712.759 414.778 712.431 410.795C712.327 406.797 712.004 402.808 711.463 398.845Z" fill="#263238"/>
<path d="M827.281 471.977C818.9 461.748 803.675 460.439 790.662 462.693C777.65 464.947 764.915 469.965 751.734 469.311C730.437 468.293 710.689 452.731 689.683 456.367C676.549 458.645 664.831 468.305 651.54 467.275C635.952 466.063 624.572 450.719 609.117 448.282C588.232 444.998 570.213 466.232 549.074 465.747C531.127 465.323 515.466 449.204 497.689 451.749C484.592 453.627 474.579 465.275 461.542 467.565C450.755 469.456 440.101 464.632 429.64 461.421C419.179 458.209 390.143 455.13 381.146 476.461" fill="white"/>
<path d="M827.184 472.074C813.882 457.045 792.501 462.172 775.618 466.22C767.153 468.244 758.555 470.086 749.811 469.323C741.987 468.656 734.452 466.135 727.088 463.541C718.622 460.572 710.048 457.191 701.051 456.269C691.074 455.215 682.463 458.306 673.43 462.099C660.429 467.565 649.461 469.541 636.738 462.426C630.087 458.706 624.028 453.942 617.002 450.912C608.899 447.41 600.652 447.616 592.392 450.416C579.162 454.9 567.431 464.305 553.222 465.772C537.73 467.371 524.96 456.888 510.665 453.021C500.918 450.379 492.271 452.524 483.625 457.397C477.324 460.936 471.265 465.25 464.275 467.165C448.554 471.42 434.042 460.996 418.696 459.602C404.002 458.269 387.966 462.026 381.351 476.57C381.267 476.752 381.001 476.57 381.085 476.413C391.534 453.385 419.929 458.233 439.218 464.402C450.404 468.038 460.829 469.25 471.652 463.893C478.691 460.402 485.015 455.409 492.513 452.9C507.775 447.798 521.465 457.506 535.239 462.596C543.813 466.03 553.316 466.348 562.098 463.493C569.947 460.911 577.118 456.718 584.58 453.276C597.278 447.434 609.117 445.907 621.706 452.815C628.624 456.621 634.852 461.627 642.156 464.705C651.601 468.68 660.611 466.984 669.814 463.287C677.251 460.293 684.519 456.609 692.61 455.845C700.93 455.07 709.141 457.118 716.99 459.687C726.302 462.742 735.42 466.693 745.119 468.377C757.756 470.583 769.838 467.226 782.052 464.366C797.326 460.73 815.913 458.827 827.462 471.868C827.583 472.013 827.378 472.232 827.245 472.074H827.184Z" fill="#263238"/>
<path d="M225.686 501.974C225.841 502.062 226.008 502.128 226.182 502.168C226.509 502.265 226.98 502.423 227.609 502.58C229.391 503.035 231.201 503.371 233.027 503.586C239.067 504.315 245.19 503.863 251.058 502.253C252.729 501.832 254.35 501.235 255.895 500.471C257.42 499.751 258.648 498.521 259.366 496.993C259.929 495.564 259.929 493.974 259.366 492.545C258.901 491.324 258.165 490.226 257.214 489.333C255.822 488.102 254.231 487.118 252.509 486.424C251.917 486.17 251.445 485.988 251.131 485.867C250.816 485.745 250.635 485.697 250.623 485.721C251.198 486.072 251.796 486.384 252.412 486.654C254.054 487.412 255.568 488.422 256.899 489.648C257.782 490.51 258.457 491.563 258.87 492.727C259.379 494.028 259.379 495.473 258.87 496.775C258.189 498.167 257.049 499.281 255.641 499.926C254.114 500.667 252.513 501.244 250.865 501.647C245.068 503.232 239.03 503.737 233.051 503.138C231.237 502.965 229.432 502.698 227.645 502.338C227.001 502.172 226.347 502.051 225.686 501.974Z" fill="#263238"/>
<path d="M230.015 511.258C230.363 511.36 230.719 511.433 231.079 511.476C231.781 511.585 232.809 511.779 234.151 511.937C237.925 512.446 241.724 512.741 245.531 512.821C251.189 512.956 256.848 512.66 262.462 511.937C265.618 511.512 268.919 510.943 272.318 510.191C275.851 509.509 279.304 508.461 282.621 507.064C285.947 505.525 289.152 503.331 290.724 500.035C291.464 498.426 291.728 496.639 291.486 494.884C291.213 493.222 290.577 491.641 289.623 490.254C287.846 487.77 285.653 485.613 283.141 483.879C281.023 482.304 278.801 480.874 276.49 479.601C273.152 477.748 269.635 476.241 265.993 475.104C264.711 474.692 263.695 474.425 263.006 474.268C262.659 474.161 262.302 474.088 261.942 474.05C262.276 474.187 262.619 474.301 262.97 474.389C263.647 474.595 264.65 474.898 265.92 475.334C269.509 476.556 272.975 478.114 276.272 479.988C278.55 481.274 280.74 482.712 282.827 484.291C285.272 486.009 287.406 488.132 289.139 490.569C290.033 491.892 290.631 493.393 290.893 494.969C291.117 496.621 290.865 498.303 290.167 499.817C288.704 502.883 285.62 505.028 282.355 506.531C279.079 507.909 275.671 508.949 272.185 509.634C268.811 510.385 265.521 510.955 262.377 511.391C256.802 512.14 251.18 512.48 245.555 512.409C240.718 512.409 236.872 512.022 234.199 511.731C232.857 511.609 231.781 511.464 231.128 511.379C230.761 511.31 230.389 511.27 230.015 511.258Z" fill="#263238"/>
<path d="M211.549 495.381C211.081 495.092 210.587 494.849 210.074 494.654C208.715 494.057 207.394 493.377 206.119 492.617C204.233 491.525 202.682 489.937 201.633 488.024C201.027 486.907 200.699 485.659 200.677 484.388C200.669 483.042 201.093 481.729 201.886 480.643C203.599 478.606 205.986 477.255 208.61 476.837C210.783 476.509 212.981 476.383 215.177 476.461C216.675 476.495 218.173 476.438 219.664 476.292C220.215 476.265 220.76 476.163 221.284 475.989C220.739 475.971 220.194 475.991 219.652 476.049C218.599 476.049 217.076 476.049 215.189 476.049C212.957 475.909 210.717 475.994 208.502 476.304C207.188 476.521 205.912 476.929 204.716 477.516C203.408 478.159 202.266 479.097 201.379 480.255C200.495 481.447 200.016 482.891 200.012 484.376C200.044 485.743 200.405 487.081 201.064 488.278C202.201 490.269 203.879 491.896 205.901 492.969C207.214 493.711 208.585 494.344 210.001 494.86C210.496 495.091 211.015 495.266 211.549 495.381Z" fill="#263238"/>
<path d="M198.706 503.986C198.452 503.839 198.185 503.717 197.908 503.622L195.574 502.677C192.707 501.571 189.936 500.229 187.29 498.665C185.494 497.565 183.84 496.246 182.368 494.738C180.693 492.991 179.374 490.932 178.486 488.678C177.475 486.217 177.256 483.502 177.857 480.91C178.584 478.144 180.152 475.675 182.344 473.844C184.538 471.991 187.022 470.513 189.696 469.468C192.193 468.486 194.771 467.723 197.4 467.19C201.853 466.233 206.403 465.798 210.956 465.893C214.025 465.943 217.086 466.231 220.111 466.753C221.187 466.935 222.022 467.093 222.53 467.214L223.4 467.347C223.132 467.229 222.853 467.14 222.566 467.081C222.01 466.923 221.187 466.729 220.147 466.511C217.119 465.895 214.045 465.538 210.956 465.444C206.361 465.298 201.765 465.705 197.267 466.656C192.248 467.723 186.552 469.42 181.92 473.395C179.631 475.317 177.995 477.905 177.24 480.8C176.632 483.518 176.873 486.357 177.929 488.933C178.864 491.24 180.235 493.343 181.969 495.126C183.487 496.654 185.194 497.982 187.048 499.077C189.743 500.624 192.578 501.914 195.513 502.932C196.541 503.307 197.339 503.586 197.932 503.768C198.182 503.867 198.441 503.94 198.706 503.986Z" fill="#263238"/>
<path d="M533.908 132.835C518.46 132.835 505.937 120.284 505.937 104.802C505.937 89.3191 518.46 76.7681 533.908 76.7681C549.357 76.7681 561.88 89.3191 561.88 104.802C561.88 120.284 549.357 132.835 533.908 132.835Z" fill="#FFC100"/>
<g opacity="0.4">
<path d="M533.908 132.835C518.46 132.835 505.937 120.284 505.937 104.802C505.937 89.3191 518.46 76.7681 533.908 76.7681C549.357 76.7681 561.88 89.3191 561.88 104.802C561.88 120.284 549.357 132.835 533.908 132.835Z" fill="white"/>
</g>
<path d="M48.6033 401.172C49.4193 401.455 50.2511 401.69 51.0945 401.875C53.5236 402.419 56.0067 402.683 58.4956 402.663C62.4356 402.599 66.3553 402.083 70.1778 401.124C75.2145 399.841 80.1597 398.221 84.98 396.276C90.7904 393.875 96.7485 391.851 102.818 390.216C109.821 388.477 117.118 388.295 124.199 389.682C128.017 390.458 131.782 391.479 135.47 392.737C139.231 394.033 143.04 395.5 146.898 397.051C154.601 400.105 162.619 403.414 171.302 405.232C179.782 406.875 188.492 406.92 196.988 405.366C204.863 403.954 212.649 402.08 220.304 399.754C227.645 397.657 234.635 395.694 241.286 394.409C247.441 393.124 253.722 392.546 260.007 392.688C271.556 393.124 280.493 396.857 285.753 400.505C287.79 401.909 289.69 403.504 291.425 405.269L292.731 406.699C293.022 407.026 293.191 407.184 293.191 407.184C293.191 407.184 293.058 407.002 292.78 406.662L291.57 405.184C289.859 403.383 287.971 401.759 285.935 400.336C280.686 396.603 271.701 392.773 260.067 392.276C253.75 392.08 247.432 392.617 241.238 393.876C234.55 395.088 227.536 397.088 220.196 399.16C212.557 401.463 204.792 403.324 196.94 404.735C188.515 406.268 179.879 406.219 171.471 404.59C162.873 402.784 154.892 399.499 147.176 396.445C143.318 394.906 139.497 393.439 135.699 392.143C131.99 390.874 128.2 389.854 124.356 389.088C117.196 387.701 109.819 387.904 102.745 389.682C96.6615 391.358 90.6913 393.423 84.8712 395.863C80.0733 397.813 75.1528 399.445 70.1415 400.748C66.3491 401.727 62.4588 402.276 58.5439 402.384C56.0726 402.419 53.6043 402.196 51.1791 401.717C50.3326 401.572 49.7159 401.366 49.2926 401.281C48.8693 401.196 48.6033 401.172 48.6033 401.172Z" fill="#263238"/>
<path d="M145.712 271.488C144.914 270.749 133.837 241.103 134.139 238.522C134.441 235.94 136.001 201.701 136.001 201.701L145.011 249.624L145.712 271.488Z" fill="#FFC100"/>
<path d="M150.84 298.734C150.84 298.734 150.646 285.305 152.618 283.257C154.589 281.208 179.997 249.817 179.997 249.817L195.102 242.618L183.226 252.775L150.84 298.734Z" fill="#FFC100"/>
<path d="M130.136 272.13L151.457 321.713L156.016 324.974L153.888 311.072L130.136 272.13Z" fill="#FFC100"/>
<path d="M123.642 320.319L150.514 351.904L162.22 353.698L149.583 339.275L123.642 320.319Z" fill="#FFC100"/>
<path d="M184.726 326.646L175.643 367.139L166.126 374.205L170.588 355.54L184.726 326.646Z" fill="#FFC100"/>
<path d="M148.869 376.156L163.187 396.142L170.794 395.791L169.536 390.712L148.869 376.156Z" fill="#FFC100"/>
<path d="M173.032 407.729C172.814 407.729 166.138 375.756 158.12 336.221C150.103 296.685 143.79 264.58 144.008 264.531C144.225 264.483 150.913 296.504 158.931 336.039C166.949 375.575 173.261 407.68 173.032 407.729Z" fill="#263238"/>
<path d="M818.005 200.344C818.102 199.313 828.708 131.647 828.708 131.647L830.812 162.99L818.005 200.344Z" fill="#FFC100"/>
<g opacity="0.3">
<path d="M818.005 200.344C818.102 199.313 828.708 131.647 828.708 131.647L830.812 162.99L818.005 200.344Z" fill="black"/>
</g>
<path d="M808.887 274.966C809.237 274.215 816.143 262.398 816.143 262.398L844.574 233.213L825.43 266.507L808.887 274.966Z" fill="#FFC100"/>
<path d="M804.134 293.037L799.297 277.1L802.865 255.247L805.078 283.984L804.134 293.037Z" fill="#FFC100"/>
<path d="M798.898 327.422C798.74 327.422 803.167 297.195 808.766 259.974C814.365 222.753 819.033 192.575 819.19 192.599C819.347 192.623 814.921 222.814 809.31 260.059C803.699 297.304 799.043 327.446 798.898 327.422Z" fill="#263238"/>
<path d="M808.161 162.178C807.726 161.354 808.826 135.841 809.818 133.853C810.81 131.866 821.984 104.765 821.984 104.765L815.345 145.901L808.161 162.178Z" fill="#FFC100"/>
<path d="M803.385 193.326C803.385 193.326 807.133 182.418 809.31 181.388C811.487 180.358 841.007 162.493 841.007 162.493L855.241 161.111L842.748 165.814L803.385 193.326Z" fill="#FFC100"/>
<path d="M795.427 156.663L798.184 202.707L800.905 206.658L803.227 194.877L795.427 156.663Z" fill="#FFC100"/>
<path d="M775.545 194.587L787.989 227.795L796.878 232.656L790.904 217.372L775.545 194.587Z" fill="#FFC100"/>
<path d="M794.822 252.302C795.415 251.587 806.516 230.268 806.516 230.268L831.175 216.633L840.982 217.663L833.835 218.621L794.822 252.302Z" fill="#FFC100"/>
<path d="M779.029 250.654L784.724 270.882L790.94 272.821L791.412 268.373L779.029 250.654Z" fill="#FFC100"/>
<path d="M785.244 326.985C785.099 326.985 790.553 289.038 797.447 242.291C804.34 195.544 810.048 157.633 810.193 157.657C810.338 157.681 804.884 195.605 798.003 242.4C791.122 289.195 785.402 327.01 785.244 326.985Z" fill="#263238"/>
<g opacity="0.3">
<path d="M808.887 274.966C809.237 274.215 816.143 262.398 816.143 262.398L844.574 233.213L825.43 266.507L808.887 274.966Z" fill="black"/>
</g>
<g opacity="0.3">
<path d="M804.134 293.037L799.297 277.1L802.865 255.247L805.078 283.984L804.134 293.037Z" fill="black"/>
</g>
<path d="M742.833 319.326C743.979 318.26 745.255 317.344 746.63 316.599C750.544 314.855 754.904 314.384 759.099 315.253C761.995 315.75 764.815 316.618 767.491 317.835C770.406 319.12 773.405 320.732 776.622 322.356C779.956 324.128 783.471 325.534 787.107 326.549C791.067 327.524 795.188 327.648 799.2 326.913C803.184 326.159 807.073 324.968 810.798 323.362C814.426 321.859 817.824 320.235 821.089 318.756C826.789 315.941 832.922 314.105 839.229 313.326C841.644 313.085 844.08 313.129 846.485 313.46C848.298 313.738 850.07 314.243 851.758 314.962C852.826 315.408 853.847 315.96 854.805 316.611L855.567 317.108C855.748 317.217 855.833 317.265 855.845 317.253L855.615 317.047L854.878 316.502C853.935 315.806 852.922 315.213 851.854 314.732C850.159 313.962 848.37 313.416 846.533 313.108C844.1 312.737 841.632 312.66 839.181 312.878C832.828 313.61 826.645 315.417 820.895 318.223C817.606 319.689 814.208 321.301 810.604 322.792C806.917 324.375 803.069 325.55 799.127 326.295C795.197 327.011 791.16 326.895 787.276 325.955C783.678 324.953 780.196 323.572 776.888 321.834C773.683 320.235 770.66 318.623 767.721 317.362C764.993 316.145 762.119 315.286 759.171 314.805C754.9 313.946 750.467 314.481 746.521 316.332C745.487 316.889 744.527 317.578 743.667 318.38L743.039 319.047C742.957 319.129 742.888 319.223 742.833 319.326Z" fill="#263238"/>
<path d="M342.241 80.8283C342.54 80.9424 342.847 81.0315 343.16 81.0949C343.765 81.2767 344.672 81.4585 345.809 81.7979C359.887 85.7113 372.488 93.726 382.016 104.826L382.27 105.129L382.512 104.814L384.072 102.753C388.095 97.6843 392.939 93.3291 398.403 89.8698C405.888 85.1193 414.337 82.1048 423.133 81.0464C424.343 80.8768 425.371 80.8404 426.024 80.7677C426.364 80.7473 426.704 80.7068 427.04 80.6465C426.702 80.6173 426.362 80.6173 426.024 80.6465C425.359 80.6465 424.367 80.6465 423.109 80.8162C419.545 81.1445 416.021 81.8224 412.588 82.8402C407.474 84.3493 402.591 86.5556 398.076 89.3971C392.532 92.8577 387.623 97.2486 383.564 102.378L381.992 104.462H382.476C375.176 95.8521 365.947 89.095 355.544 84.743C352.405 83.4381 349.17 82.3765 345.869 81.5676C344.66 81.2525 343.801 81.107 343.184 80.9737C342.875 80.8988 342.559 80.8502 342.241 80.8283Z" fill="#263238"/>
<path d="M304.752 123.927C304.752 123.927 305.429 123.576 306.687 123.042C308.467 122.297 310.369 121.886 312.298 121.83C315.149 121.749 317.961 122.517 320.377 124.036C323.343 125.896 325.57 128.733 326.677 132.06L326.907 132.762L327.258 132.108L327.451 131.744C329.141 128.618 331.822 126.145 335.07 124.715C337.733 123.559 340.665 123.173 343.535 123.6C345.47 123.887 347.341 124.51 349.062 125.442C350.271 126.109 350.888 126.593 350.924 126.545C350.806 126.397 350.668 126.266 350.513 126.157C350.09 125.817 349.646 125.506 349.183 125.224C347.471 124.19 345.579 123.491 343.608 123.163C340.652 122.654 337.613 123.008 334.852 124.182C331.457 125.632 328.656 128.196 326.907 131.454L326.713 131.817H327.294C326.14 128.349 323.801 125.4 320.691 123.491C318.17 121.94 315.241 121.188 312.286 121.333C310.319 121.419 308.387 121.893 306.602 122.727C306.118 122.947 305.653 123.207 305.212 123.503C305.037 123.619 304.882 123.763 304.752 123.927Z" fill="#263238"/>
<path d="M377.699 318.756C368.43 318.833 359.329 316.269 351.457 311.363C353.155 311.958 354.966 312.161 356.754 311.957C354.336 311.241 352.255 309.68 350.888 307.557C359.08 308.977 367.395 309.554 375.704 309.278" fill="#263238"/>
<path d="M415.019 330.367V350.51L425.649 354.146C425.649 354.146 422.021 355.104 422.602 356.934C422.602 356.934 419.373 356.146 418.599 358.946L413.193 352.571V330.367H415.019Z" fill="#263238"/>
<path d="M411.657 339.687C411.519 340.168 411.532 340.681 411.696 341.154C411.86 341.627 412.166 342.038 412.572 342.329C412.978 342.621 413.464 342.78 413.964 342.783C414.464 342.787 414.952 342.635 415.362 342.349C415.773 342.063 416.084 341.657 416.255 341.186C416.425 340.715 416.446 340.203 416.314 339.72C416.183 339.237 415.905 338.807 415.519 338.488C415.134 338.17 414.659 337.979 414.161 337.942C413.599 337.849 413.023 337.98 412.556 338.306C412.089 338.632 411.766 339.127 411.657 339.687Z" fill="#263238"/>
<path d="M405.018 330.367V350.51L415.66 354.146C415.66 354.146 412.032 355.104 412.613 356.934C412.613 356.934 409.384 356.146 408.598 358.946L403.192 352.571V330.367H405.018Z" fill="#263238"/>
<path d="M401.668 339.687C401.53 340.169 401.543 340.682 401.707 341.155C401.871 341.629 402.178 342.04 402.585 342.332C402.991 342.623 403.479 342.781 403.979 342.784C404.479 342.787 404.968 342.634 405.378 342.347C405.788 342.06 406.099 341.652 406.268 341.18C406.437 340.709 406.456 340.196 406.323 339.713C406.189 339.23 405.909 338.8 405.522 338.483C405.135 338.166 404.659 337.977 404.16 337.942C403.599 337.85 403.025 337.981 402.56 338.307C402.094 338.633 401.774 339.128 401.668 339.687Z" fill="#263238"/>
<path d="M441.213 279.572C441.213 279.572 437.174 278.36 435.819 276.869C434.465 275.379 430.063 270.24 424.295 271.609C418.526 272.979 414.475 277.378 414.62 281.79C414.765 286.202 414.62 291.631 414.62 291.631L367.541 309.46C367.541 309.46 382.452 329.494 400.567 330.173C400.567 330.173 402.26 332.718 404.195 332.597C406.13 332.476 408.356 330.173 408.356 330.173C408.356 330.173 421.392 331.87 430.039 326.27C438.686 320.671 446.123 314.041 445.615 302.842C445.107 291.644 435.36 284.166 435.36 284.166L441.213 279.572Z" fill="#FAFAFA"/>
<path d="M441.213 279.572L435.239 284.081L435.13 284.166L435.239 284.25C438.29 286.788 440.831 289.886 442.725 293.377C443.965 295.665 444.808 298.149 445.216 300.721C445.659 303.665 445.466 306.67 444.648 309.533C443.709 312.696 442.053 315.6 439.81 318.017C437.322 320.663 434.524 322.999 431.478 324.974C429.918 326.074 428.249 327.008 426.496 327.761C424.654 328.486 422.746 329.03 420.8 329.385C416.725 330.116 412.568 330.263 408.452 329.822H408.307L408.198 329.919C407.177 330.987 405.892 331.765 404.474 332.173C403.071 332.427 401.753 331.167 400.846 329.967L400.749 329.834H400.592C393.553 329.47 386.624 326.319 380.662 321.81C375.847 318.206 371.525 313.985 367.807 309.254L367.661 309.727L414.729 291.85H414.886V291.68C414.971 288.286 414.983 285.038 414.886 281.984C414.828 280.522 415.179 279.074 415.902 277.803C416.592 276.603 417.498 275.543 418.574 274.676C420.518 273.1 422.841 272.064 425.31 271.67C427.433 271.461 429.564 271.978 431.357 273.136C432.799 274.033 434.106 275.131 435.239 276.397C436.059 277.376 437.111 278.135 438.299 278.602C439.242 279.015 439.992 279.257 440.487 279.427C440.741 279.511 441 279.58 441.261 279.633L440.512 279.354C440.016 279.172 439.302 278.893 438.371 278.469C437.215 277.987 436.197 277.225 435.408 276.251C434.273 274.951 432.957 273.82 431.502 272.894C429.673 271.687 427.492 271.132 425.31 271.318C422.766 271.703 420.368 272.752 418.357 274.36C417.235 275.255 416.292 276.353 415.575 277.596C414.8 278.929 414.418 280.455 414.475 281.996C414.571 285.062 414.535 288.298 414.475 291.692L414.632 291.462L367.468 309.23L367.069 309.375L367.323 309.702C371.069 314.484 375.428 318.751 380.287 322.392C386.334 326.937 393.348 330.161 400.567 330.525L400.326 330.391C400.805 331.088 401.398 331.698 402.079 332.197C402.418 332.463 402.807 332.659 403.222 332.773C403.637 332.888 404.071 332.919 404.498 332.864C406.036 332.433 407.431 331.595 408.537 330.44L408.283 330.525C412.464 330.966 416.687 330.807 420.824 330.052C422.803 329.685 424.743 329.129 426.616 328.391C428.407 327.611 430.113 326.649 431.708 325.519C434.778 323.509 437.595 321.137 440.101 318.453C442.403 315.947 444.092 312.939 445.035 309.666C445.853 306.737 446.034 303.666 445.567 300.661C445.128 298.046 444.249 295.526 442.967 293.207C441.035 289.692 438.434 286.592 435.312 284.081V284.25C437.238 282.723 438.702 281.552 439.701 280.736L440.802 279.863L441.213 279.572Z" fill="#263238"/>
<path d="M370.383 306.321C375.674 299.741 382.791 294.879 390.835 292.346C398.88 289.814 407.493 289.726 415.588 292.092L415.225 291.959C419.663 292.557 423.904 294.17 427.62 296.673C429.193 297.74 430.801 299.243 430.741 301.134C430.68 303.024 429.301 304.2 427.959 305.254C419.881 311.648 410.009 315.348 399.727 315.835C389.444 316.322 379.268 313.572 370.625 307.969C370.343 307.83 370.126 307.587 370.02 307.29C370.005 307.112 370.03 306.933 370.093 306.765C370.156 306.597 370.255 306.446 370.383 306.321Z" fill="#EBEBEB"/>
<path d="M426.895 278.821C426.929 279.197 427.102 279.548 427.38 279.803C427.659 280.059 428.023 280.2 428.4 280.2C428.778 280.2 429.142 280.059 429.42 279.803C429.699 279.548 429.872 279.197 429.906 278.821C429.925 278.611 429.9 278.4 429.833 278.201C429.766 278.001 429.658 277.818 429.516 277.663C429.374 277.508 429.202 277.384 429.01 277.299C428.818 277.214 428.61 277.17 428.4 277.17C428.191 277.17 427.983 277.214 427.791 277.299C427.599 277.384 427.426 277.508 427.285 277.663C427.143 277.818 427.035 278.001 426.968 278.201C426.901 278.4 426.876 278.611 426.895 278.821Z" fill="#263238"/>
<path d="M389.502 302.491C389.502 302.491 389.659 302.649 390.01 302.867C390.524 303.165 391.067 303.408 391.631 303.594C393.654 304.257 395.835 304.257 397.859 303.594L397.689 303.061C397.398 303.176 397.14 303.362 396.938 303.601C396.735 303.84 396.594 304.125 396.527 304.431C396.46 304.738 396.47 305.056 396.554 305.358C396.639 305.66 396.796 305.937 397.012 306.163C397.483 306.601 398.072 306.892 398.706 307C399.339 307.107 399.991 307.027 400.58 306.769C401.222 306.523 401.842 306.218 402.43 305.86L402.019 305.412C401.77 305.852 401.634 306.346 401.621 306.851C401.608 307.356 401.72 307.857 401.946 308.309C402.333 309.133 403.015 309.782 403.857 310.127C405.243 310.638 406.771 310.594 408.126 310.005C408.982 309.638 409.793 309.174 410.545 308.624C411.077 308.248 411.355 308.018 411.331 307.981C411.009 308.088 410.704 308.239 410.424 308.43C409.637 308.911 408.807 309.317 407.944 309.642C406.688 310.129 405.295 310.129 404.038 309.642C403.331 309.341 402.765 308.782 402.454 308.078C402.27 307.723 402.173 307.328 402.173 306.927C402.173 306.526 402.27 306.131 402.454 305.775L403.107 304.733L402.043 305.339C401.482 305.672 400.896 305.96 400.289 306.2C399.814 306.415 399.287 306.49 398.77 306.415C398.254 306.339 397.77 306.118 397.375 305.775C397.228 305.622 397.119 305.436 397.058 305.232C396.996 305.029 396.984 304.813 397.022 304.604C397.059 304.394 397.146 304.197 397.275 304.028C397.404 303.859 397.57 303.722 397.762 303.63L397.593 303.085C395.668 303.723 393.6 303.782 391.643 303.255C390.3 302.879 389.55 302.418 389.502 302.491Z" fill="#263238"/>
<path d="M372.124 308.478C372.124 308.478 372.185 308.575 372.33 308.709C372.475 308.842 372.693 309.06 372.995 309.315C373.882 310.037 374.838 310.67 375.849 311.205C379.522 313.156 383.735 313.838 387.834 313.144L387.701 312.635C386.547 313.037 385.538 313.771 384.798 314.744L384.532 315.084L384.967 315.193C388.58 316.028 392.343 315.962 395.924 314.999L397.738 314.514L395.851 314.393C395.614 314.389 395.382 314.465 395.192 314.607C395.001 314.75 394.863 314.951 394.799 315.181C394.652 315.571 394.652 316.002 394.799 316.393C395.012 316.759 395.33 317.053 395.712 317.237C396.093 317.421 396.521 317.485 396.94 317.423C405.222 315.958 413.232 313.232 420.691 309.339C423.533 307.848 425.758 306.503 427.258 305.509C428.02 305.024 428.576 304.612 428.975 304.297C429.176 304.163 429.367 304.013 429.543 303.848C429.314 303.929 429.098 304.044 428.903 304.188L427.125 305.254C425.601 306.175 423.34 307.46 420.486 308.89C417.133 310.564 413.68 312.025 410.146 313.266C405.843 314.803 401.417 315.967 396.916 316.744C396.275 316.744 395.549 316.562 395.38 316.102C395.21 315.641 395.38 314.89 395.803 314.89L395.731 314.284C392.242 315.221 388.578 315.3 385.052 314.514L385.221 314.962C385.891 314.073 386.802 313.396 387.846 313.011L387.701 312.502C383.707 313.2 379.596 312.61 375.958 310.817C374.618 310.145 373.336 309.362 372.124 308.478Z" fill="#263238"/>
<path d="M426.363 276.336C426.59 276.441 426.838 276.495 427.088 276.494C427.305 276.519 427.525 276.519 427.741 276.494C427.957 276.441 428.165 276.36 428.358 276.251C428.593 276.158 428.8 276.008 428.963 275.815C429.045 275.683 429.074 275.525 429.045 275.372C429.016 275.219 428.931 275.083 428.806 274.991C428.61 274.82 428.375 274.699 428.123 274.637C427.87 274.576 427.607 274.577 427.354 274.639C427.094 274.679 426.847 274.783 426.636 274.941C426.425 275.1 426.256 275.308 426.145 275.548C426.08 275.684 426.065 275.838 426.105 275.983C426.146 276.128 426.237 276.254 426.363 276.336Z" fill="#263238"/>
<path d="M441.213 279.572C441.213 279.572 453.029 278.821 454.867 289.389L453.125 288.444C452.223 287.948 451.225 287.651 450.199 287.571L437.779 286.25L435.263 284.166L441.213 279.572Z" fill="#FFC100"/>
<path d="M441.697 280.651C441.697 280.82 442.374 281.014 443.221 281.148C444.067 281.281 444.793 281.317 444.829 281.148C444.865 280.978 444.212 280.663 443.33 280.53C442.447 280.396 441.709 280.481 441.697 280.651Z" fill="#263238"/>
<path d="M436.57 285.341C437.473 285.598 438.402 285.757 439.339 285.814C441.056 286.02 443.439 286.274 446.075 286.505C447.393 286.638 448.663 286.699 449.764 286.868C450.746 286.982 451.703 287.261 452.593 287.692C453.389 288.144 454.105 288.726 454.71 289.413C454.782 289.413 454.383 288.201 452.811 287.305C451.894 286.796 450.896 286.451 449.86 286.287C448.711 286.093 447.442 286.008 446.136 285.874C443.499 285.644 441.117 285.462 439.375 285.365C438.445 285.244 437.502 285.235 436.57 285.341Z" fill="#263238"/>
</svg>
