<svg class="animated" id="freepik_stories-sail-boat" xmlns="http://www.w3.org/2000/svg" viewBox="0 0 500 500" version="1.1" xmlns:xlink="http://www.w3.org/1999/xlink" xmlns:svgjs="http://svgjs.com/svgjs"><style>svg#freepik_stories-sail-boat:not(.animated) .animable {opacity: 0;}svg#freepik_stories-sail-boat.animated #freepik--Birds--inject-63 {animation: 1.5s Infinite  linear floating;animation-delay: 0s;}svg#freepik_stories-sail-boat.animated #freepik--Character--inject-63 {animation: 6s Infinite  linear shake;animation-delay: 0s;}svg#freepik_stories-sail-boat.animated #freepik--Water--inject-63 {animation: 6s Infinite  linear heartbeat;animation-delay: 0s;}            @keyframes floating {                0% {                    opacity: 1;                    transform: translateY(0px);                }                50% {                    transform: translateY(-10px);                }                100% {                    opacity: 1;                    transform: translateY(0px);                }            }                    @keyframes shake {                10%, 90% {                    transform: translate3d(-1px, 0, 0);                  }                  20%, 80% {                    transform: translate3d(2px, 0, 0);                  }                  30%, 50%, 70% {                    transform: translate3d(-4px, 0, 0);                  }                  40%, 60% {                    transform: translate3d(4px, 0, 0);                  }            }                    @keyframes heartbeat {                0% {                    transform: scale(1);                }                10% {                    transform: scale(1.1);                }                30% {                    transform: scale(1);                }                40% {                    transform: scale(1);                }                50% {                    transform: scale(1.1);                }                60% {                    transform: scale(1);                }                100% {                    transform: scale(1);                }            }        </style><g id="freepik--background-complete--inject-63" class="animable" style="transform-origin: 249.997px 188.423px;"><path d="M42.65,340c-.59,0-.65-1.18,0-1.26,2.79-.35,5.58-2.85,8.36-3.22s5.53-.67,8-1.91c4.15-2.08,6.73-6.25,11-8.24,7.52-3.51,15.28-2,22.6,1.08a25.76,25.76,0,0,0,13.85,2c4.28-.54,8.44-1.72,12.71-2.33a25.28,25.28,0,0,1,11.41.54c3.82,1.24,7.11,3.64,10.71,5.37,4.74,2.29,9.42,1.9,14.53,2.05,3.68.11,11.37,2.43,11.37,4.91C167.25,340.65,50,340,42.65,340Z" style="fill: rgb(235, 235, 235); transform-origin: 104.687px 331.736px;" id="elh3f047lnfo6" class="animable"></path><path d="M457.64,211c-5.14,0-133.36-.89-169.58-.89-2.53,0,.67-4.39,2.06-4.69,4.46-1,9.1-1,13.62-1.49a44.76,44.76,0,0,0,13-3.26c3.56-1.5,7.12-3.24,11-3.84,7.46-1.17,14,2.87,21,4.66a15.88,15.88,0,0,0,12.72-1.74c3.23-1.94,6.17-4.27,9.56-6a52.42,52.42,0,0,1,41.9-1.92,48.56,48.56,0,0,1,9.16,4.69c3.42,2.24,6.37,5.11,9.8,7.32,7.59,4.92,17,3.32,25.26,6.14C457.57,210.13,458.08,211,457.64,211Z" style="fill: rgb(235, 235, 235); transform-origin: 372.462px 199.681px;" id="eltaav09e2dtm" class="animable"></path><path d="M259,150.53c-6.79,0-121.11.75-128.3.52-.51,0-.79-.78-.28-1,4.53-2.24,9.67-1.79,14.38-3.38,2.77-.93,4.47-2.74,6.39-4.82a13.26,13.26,0,0,1,6-3.88,12.57,12.57,0,0,1,6.47-.21c2.32.56,4.34,1.89,6.55,2.72,5.49,2.08,10.83.11,14.75-4,3.23-3.35,6.41-6.51,10.81-8.31a14.34,14.34,0,0,1,11.45-.16c4.19,1.9,7.07,5.72,11,8,4.67,2.73,10.25,2.08,15.41,2.9s9.12,5.17,13.64,7.67a9.63,9.63,0,0,0,4.93,1.53c1,0,2-.3,3-.42,1.56-.2,3-.15,4.08,1.15C259.45,149.18,259.4,150.53,259,150.53Z" style="fill: rgb(235, 235, 235); transform-origin: 194.761px 138.995px;" id="elgi49ety02bn" class="animable"></path><path d="M419.35,243.84c-5,0-88.42.55-93.67.38-.37,0-.58-.56-.2-.75,3.31-1.63,7.06-1.31,10.49-2.46a11.28,11.28,0,0,0,4.67-3.52,9.71,9.71,0,0,1,4.34-2.84,9.15,9.15,0,0,1,4.73-.15,42.28,42.28,0,0,1,4.78,2c4,1.51,7.91.07,10.77-2.89,2.36-2.45,4.68-4.76,7.89-6.07a10.44,10.44,0,0,1,8.36-.12c3.06,1.39,5.16,4.18,8,5.85,3.41,2,7.49,1.53,11.25,2.13s6.66,3.77,10,5.59a7,7,0,0,0,3.6,1.12c.74,0,1.46-.22,2.19-.31a3,3,0,0,1,3,.84C419.72,242.86,419.68,243.84,419.35,243.84Z" style="fill: rgb(235, 235, 235); transform-origin: 372.464px 235.429px;" id="elnzgwyxxcxlh" class="animable"></path><path d="M159.09,210.65c-5,0-88.42.55-93.67.38a.4.4,0,0,1-.2-.75c3.3-1.64,7-1.31,10.49-2.47a11.18,11.18,0,0,0,4.67-3.52,9.64,9.64,0,0,1,4.34-2.83,9.15,9.15,0,0,1,4.73-.15,38.89,38.89,0,0,1,4.78,2c4,1.51,7.9.07,10.77-2.9,2.36-2.44,4.68-4.75,7.89-6.07a10.48,10.48,0,0,1,8.36-.11c3.06,1.38,5.16,4.17,8,5.85,3.41,2,7.48,1.52,11.25,2.12s6.65,3.78,10,5.6a7.06,7.06,0,0,0,3.6,1.12c.74,0,1.47-.22,2.2-.31a3,3,0,0,1,3,.84C159.45,209.67,159.41,210.65,159.09,210.65Z" style="fill: rgb(235, 235, 235); transform-origin: 112.199px 202.238px;" id="eldkgbjah1lyq" class="animable"></path><path d="M376.13,91.52c-5,0-88.43.55-93.67.38-.38,0-.58-.56-.21-.75,3.31-1.64,7.06-1.31,10.5-2.47a11.09,11.09,0,0,0,4.66-3.52,9.67,9.67,0,0,1,4.35-2.83,9.11,9.11,0,0,1,4.72-.15,39.1,39.1,0,0,1,4.78,2c4,1.52,7.91.08,10.77-2.89,2.36-2.44,4.68-4.75,7.89-6.07a10.48,10.48,0,0,1,8.36-.11c3.07,1.38,5.17,4.17,8,5.85,3.41,2,7.49,1.52,11.25,2.12s6.66,3.78,10,5.6a7,7,0,0,0,3.6,1.12c.74,0,1.46-.22,2.19-.31a3,3,0,0,1,3,.84C376.49,90.54,376.45,91.52,376.13,91.52Z" style="fill: rgb(235, 235, 235); transform-origin: 329.236px 83.1135px;" id="ellencqrym5c" class="animable"></path><path d="M303.1,61.58H161.39c-.58,0-.79-.61-.22-.88,5.08-2.38,10.77-1.77,16-3.42,3.09-1,5-2.94,7.2-5.2a14.77,14.77,0,0,1,6.69-4.17,14,14,0,0,1,7.18-.07c2.56.66,4.77,2.18,7.2,3.16,6,2.43,12,.37,16.45-4,3.66-3.64,7.26-7.07,12.18-9a15.89,15.89,0,0,1,12.7.09c4.61,2.2,7.71,6.5,12,9.14,5.11,3.14,11.32,2.55,17,3.58s10.45,3.49,15.4,6.37A10.69,10.69,0,0,0,296.68,59c1.12,0,2.23-.29,3.34-.4,1.73-.18,3.37-.1,4.5,1.37C304.79,60.3,306.43,61.58,303.1,61.58Z" style="fill: rgb(235, 235, 235); transform-origin: 232.998px 49.1503px;" id="eld2me1sz1fyn" class="animable"></path></g><g id="freepik--Birds--inject-63" class="animable" style="transform-origin: 250.02px 186.407px;"><path d="M394.56,125a21.3,21.3,0,0,1,2.55-1.1,10.83,10.83,0,0,1,2.79-.64,2.26,2.26,0,0,1,.86.1,1.25,1.25,0,0,1,.27.12l.17.12c.11.08.2.17.3.25a13.85,13.85,0,0,1,1,1c.63.71,1.18,1.44,1.74,2.2l-.69-.25a22.74,22.74,0,0,1,2.84-.6,14.52,14.52,0,0,1,1.49-.1,4.4,4.4,0,0,1,.79.06,2.32,2.32,0,0,1,.42.1,4.14,4.14,0,0,1,.43.2,5,5,0,0,1,1.12,1.08,13.37,13.37,0,0,1,.84,1.18,19.12,19.12,0,0,1,1.32,2.54c-.61-.73-1.2-1.47-1.83-2.16a12.8,12.8,0,0,0-1-1,4.54,4.54,0,0,0-1-.78,2.5,2.5,0,0,0-1.11-.11,10.11,10.11,0,0,0-1.33.18c-.89.16-1.8.38-2.68.62l-.44.12-.25-.36c-.51-.74-1.07-1.46-1.62-2.16a11.81,11.81,0,0,0-.86-1,2.18,2.18,0,0,0-.22-.21l-.1-.09,0,0a1.34,1.34,0,0,0-.49-.1,13.52,13.52,0,0,0-2.62.26C396.37,124.63,395.47,124.82,394.56,125Z" style="fill: rgb(38, 50, 56); transform-origin: 403.68px 127.257px;" id="elhiz4gj1a794" class="animable"></path><path d="M404.6,152.11a29.71,29.71,0,0,1,3.43-2.35,16.28,16.28,0,0,1,3.9-1.76,3.51,3.51,0,0,1,1.3-.11,2.09,2.09,0,0,1,.43.11,1.82,1.82,0,0,1,.28.13,4.85,4.85,0,0,1,.51.27,20,20,0,0,1,1.79,1.21c1.13.85,2.16,1.77,3.2,2.71l-1.08-.15a31.44,31.44,0,0,1,4-1.71,17.33,17.33,0,0,1,2.15-.59,8.49,8.49,0,0,1,1.17-.15,5,5,0,0,1,.66,0,5.63,5.63,0,0,1,.68.17,7.35,7.35,0,0,1,2,1.26,18.75,18.75,0,0,1,1.58,1.5,26,26,0,0,1,2.68,3.34c-1.1-.9-2.19-1.81-3.31-2.64-.55-.42-1.11-.83-1.69-1.19a7.1,7.1,0,0,0-1.7-.85,3.75,3.75,0,0,0-1.66.17,15.8,15.8,0,0,0-1.9.65c-1.27.5-2.54,1.09-3.75,1.69l-.62.31-.47-.46c-1-.93-2-1.83-3-2.69a18.63,18.63,0,0,0-1.55-1.21,3.85,3.85,0,0,0-.38-.23l-.17-.1s0,0-.07,0a2.06,2.06,0,0,0-.75,0,20.52,20.52,0,0,0-3.78,1.14C407.15,151.06,405.89,151.59,404.6,152.11Z" style="fill: rgb(38, 50, 56); transform-origin: 418.94px 151.931px;" id="elalaxugupy3g" class="animable"></path><path d="M96.33,246.31a21.14,21.14,0,0,1,2.34-1.5,10.77,10.77,0,0,1,2.64-1.09,2.68,2.68,0,0,1,.87,0,1.21,1.21,0,0,1,.28.08l.19.09.33.19c.42.27.8.56,1.17.85.73.59,1.4,1.22,2.08,1.88l-.73-.13a21.69,21.69,0,0,1,2.71-1,11,11,0,0,1,1.45-.35,4.94,4.94,0,0,1,.79-.07,3.22,3.22,0,0,1,.43,0,2.32,2.32,0,0,1,.45.13,5.14,5.14,0,0,1,1.29.88c.36.33.69.68,1,1a19,19,0,0,1,1.72,2.29c-.72-.62-1.43-1.25-2.16-1.83a12.19,12.19,0,0,0-1.1-.83,4.24,4.24,0,0,0-1.12-.6,2.43,2.43,0,0,0-1.11.07,11.05,11.05,0,0,0-1.28.4c-.85.3-1.72.67-2.54,1l-.42.19-.3-.31c-.63-.64-1.29-1.27-2-1.86a12.84,12.84,0,0,0-1-.84c-.08-.05-.17-.12-.25-.16l-.11-.07s0,0-.05,0a1.29,1.29,0,0,0-.5,0,13.33,13.33,0,0,0-2.54.68C98.05,245.66,97.2,246,96.33,246.31Z" style="fill: rgb(38, 50, 56); transform-origin: 105.835px 246.622px;" id="elf9748z8xu2w" class="animable"></path><path d="M66.76,235.33a30.93,30.93,0,0,1,2.57-3.26,15.72,15.72,0,0,1,3.21-2.83,3.5,3.5,0,0,1,1.2-.5,3.1,3.1,0,0,1,.44,0l.32,0a5.22,5.22,0,0,1,.57.11,21.48,21.48,0,0,1,2.06.62c1.33.48,2.59,1,3.86,1.64l-1.08.18a31.79,31.79,0,0,1,3.31-2.82,17.17,17.17,0,0,1,1.88-1.2,8.22,8.22,0,0,1,1.08-.49,3.86,3.86,0,0,1,.63-.17,5.53,5.53,0,0,1,.71,0,7.6,7.6,0,0,1,2.24.62,19.75,19.75,0,0,1,2,1,27.55,27.55,0,0,1,3.55,2.39c-1.33-.52-2.63-1.07-4-1.53a20.47,20.47,0,0,0-2-.63,6.58,6.58,0,0,0-1.87-.31,3.9,3.9,0,0,0-1.54.65,16,16,0,0,0-1.62,1.19c-1.06.85-2.1,1.79-3.08,2.73l-.49.47-.59-.3c-1.2-.6-2.45-1.15-3.68-1.67a17.88,17.88,0,0,0-1.83-.69l-.43-.12-.2,0H74a2,2,0,0,0-.72.22A19.8,19.8,0,0,0,70,232.74C68.88,233.57,67.83,234.46,66.76,235.33Z" style="fill: rgb(38, 50, 56); transform-origin: 81.035px 230.964px;" id="elay4yt0udald" class="animable"></path><path d="M372.15,145.45a31.14,31.14,0,0,1,2.58-3.27,16.57,16.57,0,0,1,3.2-2.83,3.56,3.56,0,0,1,1.21-.49,2,2,0,0,1,.44,0l.31,0c.21,0,.38.07.57.11a18.5,18.5,0,0,1,2.07.63c1.33.48,2.58,1,3.86,1.64l-1.09.17a31.9,31.9,0,0,1,3.32-2.82,18.32,18.32,0,0,1,1.88-1.2,9,9,0,0,1,1.08-.49,5.26,5.26,0,0,1,.63-.16,4.05,4.05,0,0,1,.7,0,7.58,7.58,0,0,1,2.25.61c.68.29,1.32.62,1.95,1a27.73,27.73,0,0,1,3.56,2.4c-1.33-.53-2.63-1.08-3.95-1.54-.66-.23-1.31-.46-2-.63a7.44,7.44,0,0,0-1.87-.31,3.83,3.83,0,0,0-1.55.66,14.72,14.72,0,0,0-1.61,1.18c-1.06.85-2.1,1.79-3.08,2.73l-.5.47-.59-.29c-1.19-.6-2.44-1.16-3.67-1.68a17.88,17.88,0,0,0-1.83-.69c-.15,0-.31-.09-.44-.11l-.19,0s0,0-.08,0a2.21,2.21,0,0,0-.71.22,20.53,20.53,0,0,0-3.27,2.22C374.28,143.69,373.23,144.58,372.15,145.45Z" style="fill: rgb(38, 50, 56); transform-origin: 386.41px 141.087px;" id="el3pgp4umwe5" class="animable"></path></g><g id="freepik--Character--inject-63" class="animable animator-active" style="transform-origin: 250px 236.695px;"><polygon points="241.89 319.76 241.89 83.41 112 319.76 241.89 319.76" style="fill: rgb(255, 199, 39); transform-origin: 176.945px 201.585px;" id="el4tkl08tzjga" class="animable"></polygon><g id="ell6o4cpdp1d"><polygon points="241.89 319.76 241.89 83.41 112 319.76 241.89 319.76" style="fill: rgb(255, 255, 255); opacity: 0.8; transform-origin: 176.945px 201.585px;" class="animable"></polygon></g><g id="el00vk80o8dth5l"><path d="M112,319.76s96.83-9.12,110.61-33.82S241.89,83.41,241.89,83.41V319.76Z" style="fill: rgb(255, 199, 39); opacity: 0.1; transform-origin: 176.945px 201.585px;" class="animable"></path></g><rect x="87.61" y="356.22" width="6.61" height="8.77" style="fill: rgb(38, 50, 56); transform-origin: 90.915px 360.605px;" id="elwzup7qu7uxl" class="animable"></rect><g id="el244j1yqiec1"><rect x="9.66" y="219.27" width="313.48" height="3" style="fill: rgb(38, 50, 56); transform-origin: 166.4px 220.77px; transform: rotate(-61.2deg);" class="animable"></rect></g><rect x="102.15" y="317.26" width="139.75" height="5" style="fill: rgb(38, 50, 56); transform-origin: 172.025px 319.76px;" id="eln0bv1ppiunj" class="animable"></rect><rect x="137.1" y="272.6" width="104.75" height="3" style="fill: rgb(38, 50, 56); transform-origin: 189.475px 274.1px;" id="elp1tamph7on" class="animable"></rect><rect x="163.61" y="224.36" width="78.24" height="3" style="fill: rgb(38, 50, 56); transform-origin: 202.73px 225.86px;" id="el8262zabrq2v" class="animable"></rect><rect x="189.47" y="176.13" width="52.38" height="3" style="fill: rgb(38, 50, 56); transform-origin: 215.66px 177.63px;" id="el90464m93mke" class="animable"></rect><rect x="216.63" y="127.89" width="25.22" height="3" style="fill: rgb(38, 50, 56); transform-origin: 229.24px 129.39px;" id="elz66ab0jqb8i" class="animable"></rect><rect x="363.42" y="329.22" width="6.61" height="8.77" style="fill: rgb(38, 50, 56); transform-origin: 366.725px 333.605px;" id="elzes3mu67tld" class="animable"></rect><g id="elizvbc53k7a"><rect x="303.74" y="89.19" width="3" height="257" style="fill: rgb(38, 50, 56); transform-origin: 305.24px 217.69px; transform: rotate(-28.59deg);" class="animable"></rect></g><rect x="285.6" y="344.27" width="6.61" height="8.77" style="fill: rgb(38, 50, 56); transform-origin: 288.905px 348.655px;" id="elqw7p0ns0qpf" class="animable"></rect><g id="el2psfkq56xwu"><rect x="264.99" y="160.53" width="3" height="187.5" style="fill: rgb(38, 50, 56); transform-origin: 266.49px 254.28px; transform: rotate(-13.84deg);" class="animable"></rect></g><rect x="442.14" y="313.92" width="6.61" height="8.77" style="fill: rgb(38, 50, 56); transform-origin: 445.445px 318.305px;" id="elsbcq3hruqrf" class="animable"></rect><rect x="419.52" y="320.46" width="6.61" height="8.77" style="fill: rgb(38, 50, 56); transform-origin: 422.825px 324.845px;" id="elidsxg2ikejf" class="animable"></rect><g id="elpb088k0lslh"><rect x="344.37" y="39.38" width="3" height="313.05" style="fill: rgb(38, 50, 56); transform-origin: 345.87px 195.905px; transform: rotate(-39.82deg);" class="animable"></rect></g><rect x="51.01" y="358.14" width="6.61" height="8.77" style="fill: rgb(38, 50, 56); transform-origin: 54.315px 362.525px;" id="eliwtnq0lv63m" class="animable"></rect><g id="eld3r8nttpj48"><rect x="-22.55" y="216.35" width="340.86" height="3" style="fill: rgb(38, 50, 56); transform-origin: 147.88px 217.85px; transform: rotate(-56.54deg);" class="animable"></rect></g><polygon points="242.17 52.72 245.32 52.72 250 385.77 237.49 385.77 242.17 52.72" style="fill: rgb(255, 199, 39); transform-origin: 243.745px 219.245px;" id="elhoy2detozrp" class="animable"></polygon><g id="el7excsfrdy5g"><polygon points="242.17 52.72 245.32 52.72 250 385.77 237.49 385.77 242.17 52.72" style="opacity: 0.4; transform-origin: 243.745px 219.245px;" class="animable"></polygon></g><rect x="237.43" y="72.47" width="12.64" height="3.21" style="fill: rgb(255, 199, 39); transform-origin: 243.75px 74.075px;" id="eltg1hestmrw" class="animable"></rect><g id="elwts6v9xrggd"><rect x="237.43" y="72.47" width="12.64" height="3.21" style="opacity: 0.6; transform-origin: 243.75px 74.075px;" class="animable"></rect></g><rect x="237.43" y="81.81" width="12.64" height="3.21" style="fill: rgb(255, 199, 39); transform-origin: 243.75px 83.415px;" id="eldrpbubhnclo" class="animable"></rect><g id="elzdpkwprjy5a"><rect x="237.43" y="81.81" width="12.64" height="3.21" style="opacity: 0.6; transform-origin: 243.75px 83.415px;" class="animable"></rect></g><rect x="237.43" y="138.03" width="12.64" height="3.21" style="fill: rgb(255, 199, 39); transform-origin: 243.75px 139.635px;" id="elkdphouk1j2d" class="animable"></rect><g id="elofb1gnubag"><rect x="237.43" y="138.03" width="12.64" height="3.21" style="opacity: 0.6; transform-origin: 243.75px 139.635px;" class="animable"></rect></g><rect x="237.43" y="190.36" width="12.64" height="3.21" style="fill: rgb(255, 199, 39); transform-origin: 243.75px 191.965px;" id="elzdilw2wif1j" class="animable"></rect><g id="elwhziqoj0opi"><rect x="237.43" y="190.36" width="12.64" height="3.21" style="opacity: 0.6; transform-origin: 243.75px 191.965px;" class="animable"></rect></g><rect x="237.43" y="242.69" width="12.64" height="3.21" style="fill: rgb(255, 199, 39); transform-origin: 243.75px 244.295px;" id="elwa3q9vorp4f" class="animable"></rect><g id="el3aemalxl98x"><rect x="237.43" y="242.69" width="12.64" height="3.21" style="opacity: 0.6; transform-origin: 243.75px 244.295px;" class="animable"></rect></g><rect x="237.43" y="295.02" width="12.64" height="3.21" style="fill: rgb(255, 199, 39); transform-origin: 243.75px 296.625px;" id="elcu8cznpqg95" class="animable"></rect><g id="el5wcqolma29l"><rect x="237.43" y="295.02" width="12.64" height="3.21" style="opacity: 0.6; transform-origin: 243.75px 296.625px;" class="animable"></rect></g><polygon points="245.6 72.47 245.32 51.13 242.17 51.13 241.89 72.47 245.6 72.47" style="fill: rgb(38, 50, 56); transform-origin: 243.745px 61.8px;" id="el1m0hw8o35jl" class="animable"></polygon><path d="M80.88,422.25H357.39s52.39-43.35,88.71-94.71c0,0-130.8,26.09-155.64,30.61-45.65,8.3-236.56,14-236.56,14S57.53,387.79,80.88,422.25Z" style="fill: rgb(255, 199, 39); transform-origin: 250px 374.895px;" id="elc6alrar9o8s" class="animable"></path><path d="M46.89,375.08l-.21-8.95,5.68-.2c64.77-2.31,199.54-7.12,229.2-12.48,30.76-5.57,147.49-29,170.58-33.69l1.18,8.83c-23.11,4.73-139.92,28.14-170.71,33.71-30.09,5.44-165.14,10.26-230,12.58Z" style="fill: rgb(255, 199, 39); transform-origin: 250px 347.42px;" id="elhfk75j1gt8d" class="animable"></path><g id="elmfbr14ao6f8"><path d="M46.89,375.08l-.21-8.95,5.68-.2c64.77-2.31,199.54-7.12,229.2-12.48,30.76-5.57,147.49-29,170.58-33.69l1.18,8.83c-23.11,4.73-139.92,28.14-170.71,33.71-30.09,5.44-165.14,10.26-230,12.58Z" style="opacity: 0.6; transform-origin: 250px 347.42px;" class="animable"></path></g><g id="elf8ieoj7ph2c"><path d="M389.81,392.5c-18.49,18.22-32.42,29.76-32.42,29.76H80.88q-4.3-6.36-7.74-11.87c36.71-.62,175.51-3,190.35-3C305.35,407.43,360.24,398.15,389.81,392.5Z" style="opacity: 0.2; transform-origin: 231.475px 407.38px;" class="animable"></path></g><path d="M435.25,342.1q-2.92,3.72-5.89,7.34c-66.81,15.11-128.73,26.2-148.3,28.37-46.45,5.14-178.86,9.58-220.7,10.06-1.07-2.18-2-4.11-2.73-5.82,38.37-.3,175.44-4.82,222.78-10.06C300.55,369.76,366,358,435.25,342.1Z" style="fill: rgb(38, 50, 56); transform-origin: 246.44px 364.985px;" id="elax0j89sha4p" class="animable"></path><g id="eljt3q3k4gw4j"><rect x="93.58" y="390.89" width="36.86" height="5.85" style="fill: rgb(38, 50, 56); transform-origin: 112.01px 393.815px; transform: rotate(-2.02deg);" class="animable"></rect></g><g id="el6zl5jgzksx7"><rect x="163.62" y="388.35" width="36.86" height="5.85" style="fill: rgb(38, 50, 56); transform-origin: 182.05px 391.275px; transform: rotate(-2.29061deg);" class="animable"></rect></g><path d="M249.16,317.14s30.52-31.16,39.07-69.87S245.77,85,245.77,85,341.5,189.47,377.26,240s46.33,83.25,46.33,83.25-21.83-8.74-77.82-11S249.16,317.14,249.16,317.14Z" style="fill: rgb(255, 199, 39); transform-origin: 334.68px 204.125px;" id="elyp0we7c6qaa" class="animable"></path><g id="elpte8etfp0s"><path d="M249.16,317.14s30.52-31.16,39.07-69.87S245.77,85,245.77,85,341.5,189.47,377.26,240s46.33,83.25,46.33,83.25-21.83-8.74-77.82-11S249.16,317.14,249.16,317.14Z" style="fill: rgb(255, 255, 255); opacity: 0.8; transform-origin: 334.68px 204.125px;" class="animable"></path></g><g id="elwtx36cfk9an"><path d="M423.58,323.26c-.68-.26-22.7-8.77-77.81-11-56-2.25-96.61,4.86-96.61,4.86a173.08,173.08,0,0,0,19-24.46h0c.87.24,95,25,113.11-9.08,13.21-24.93-64.59-118.76-107.93-168,31.11,34.85,80.4,91.23,103.88,124.41C412.76,290.17,423.42,322.75,423.58,323.26Z" style="fill: rgb(255, 199, 39); opacity: 0.1; transform-origin: 336.37px 219.42px;" class="animable"></path></g><g id="el3zyave17sj3"><path d="M359.09,253c-4.08-.2-22.7,33.89-21.64,35.79s12.81,1.67,15.26-4S362.41,253.16,359.09,253Z" style="fill: rgb(255, 199, 39); opacity: 0.1; transform-origin: 348.676px 271.43px;" class="animable"></path></g><g id="el7omxx6990zm"><path d="M347.42,257.66c-1.88-.9-12.28,10.43-12.74,11.44-1.33,2.94-1.46,10,.81,7.84S348.94,258.38,347.42,257.66Z" style="fill: rgb(255, 199, 39); opacity: 0.1; transform-origin: 340.642px 267.477px;" class="animable"></path></g><path d="M253.32,356.52h0c-10.86.86-23.74,1.69-37.8,2.48-.53,0-1.06.07-1.6.09l-8.56.48h0c-.08,0-.17-.07-.25-.12l-.84-.37-1.56-.7h0l-.12-.05-.09,0c-2.32-1-4.56-2.1-6.6-3.12l-1.33-.67c-.65-.33-1.28-.65-1.88-1l-1.15-.63-.58-.33c-1-.54-1.8-1.06-2.52-1.55-.42-.29-.83-.59-1.21-.91a18,18,0,0,1-5.49-7.87c-.15-.39-.28-.79-.4-1.19l0-.06c-.12-.4-.23-.8-.33-1.19s-.23-1-.32-1.49c-.07-.31-.12-.62-.16-.93-.08-.47-.14-.94-.19-1.41,0-.3-.06-.6-.08-.9,0-.11,0-.21,0-.32-.06-.77-.08-1.52-.08-2.26h0c0-.32,0-.65,0-1h0v0q0-.4,0-.78a36,36,0,0,1,.4-4.09c0-.28.08-.55.12-.79,0-.08,0-.16,0-.25.06-.29.11-.55.15-.76s0-.22.06-.31,0-.18.06-.25.07-.32.07-.32h30.33s-.89,4.78-.42,7.49a2.82,2.82,0,0,0,.61,1.51c1.73,1.78,31.69,11.95,39.54,19.69.14.13.26.26.39.4a7.89,7.89,0,0,1,.78,1,4.59,4.59,0,0,1,.51.94C253,355.39,253.16,355.93,253.32,356.52Z" style="fill: rgb(55, 71, 79); transform-origin: 216.75px 341.76px;" id="elgjf5tgroe5p" class="animable"></path><path d="M215.51,359c-.53,0-1.06.07-1.6.09l-8.56.48h0c-.08,0-.17-.07-.25-.12l-.84-.37-1.56-.7-.12-.06-.09,0c-4.12-1.87-8-3.74-11-5.4l-.58-.33c-.7-.4-1.35-.78-1.93-1.16l-.59-.39c-6.77-4.63-8.29-12.47-8.3-18.53,0-.33,0-.65,0-1h0a37.65,37.65,0,0,1,.93-7.57h30.33s-.89,4.78-.42,7.49a2.82,2.82,0,0,0,.61,1.51c1.73,1.78,31.69,11.95,39.54,19.69.14.13.26.26.39.4a6.32,6.32,0,0,1,1.28,1.91c.18.48.36,1,.52,1.61C242.45,357.38,229.57,358.21,215.51,359Z" style="fill: rgb(55, 71, 79); transform-origin: 216.68px 341.755px;" id="el87y1oqfr5aq" class="animable"></path><path d="M203.79,354c3.86,1.77,7.79,3.4,11.72,5-.53,0-1.06.07-1.6.09-3.09-1.3-6.17-2.62-9.22-4l-1.05-.49-.68-.32c-4.4-2-8.87-4.12-12.72-7.11-2.94-2.77-4.44-7.22-5.25-11.79,0-.22-.07-.44-.1-.66a84.56,84.56,0,0,1-.91-9.34,63.73,63.73,0,0,0,1.18,9.35c0,.23.09.46.14.68.21,1,.46,2,.73,2.92a25.59,25.59,0,0,0,2.47,6c1,2,2.88,3.14,4.73,4.28,3.19,1.82,6.47,3.47,9.8,5Z" style="fill: rgb(38, 50, 56); transform-origin: 199.745px 342.235px;" id="eln9fm30nnr3" class="animable"></path><path d="M211.31,323.91l-8.62,34.47A109.74,109.74,0,0,1,188.42,351c-12.19-8.34-7.36-27.09-7.36-27.09Z" style="fill: rgb(38, 50, 56); transform-origin: 195.713px 341.145px;" id="elsnsrvk1seti" class="animable"></path><path d="M211,331.4c-.46,4-1.41,8.63-3.39,11.3a5,5,0,0,1-1.12.62,11.32,11.32,0,0,0-2.39,1.32.28.28,0,0,1,0,.06c-.05.51-.45,4-1,8.93,0,.21-.05.42-.07.64-.15,1.26-.31,2.6-.48,4-.06.47-.12,1-.17,1.44-7.35.39-14.92.77-22.62,1.13l-.65,0-2.88.14c.65-7.39,1.13-13.47,1-13.86-.8-2.37-1.75-4.17-1.6-6.75.38-6.6,3-16.5,3-16.5h32.8A64.87,64.87,0,0,1,211,331.4Z" style="fill: rgb(55, 71, 79); transform-origin: 193.522px 342.425px;" id="el1rbs8sb38k" class="animable"></path><path d="M207.58,342.7a49.91,49.91,0,0,0-7.85,3.65.09.09,0,0,0,.08.16c2.64-1.13,5.34-2.22,7.92-3.5A.17.17,0,0,0,207.58,342.7Z" style="fill: rgb(38, 50, 56); transform-origin: 203.758px 344.599px;" id="el2q7fbed8dx6" class="animable"></path><path d="M208.42,324.55c0-.09-.16-.11-.16,0a87,87,0,0,1-.45,8.84c-.12,1.36-1.21,8.89-3.58,8.34-.39-.09-.59-.48-.66-1.07a9.6,9.6,0,0,1,.32-2.31c.26-1.58.47-3.16.61-4.75a43.5,43.5,0,0,0-.1-8.91.08.08,0,0,0-.15,0,83,83,0,0,1-.72,12.3c-.3,1.95-1.28,4.9.76,5.2s3.44-4.63,3.69-6A45,45,0,0,0,208.42,324.55Z" style="fill: rgb(38, 50, 56); transform-origin: 205.82px 333.339px;" id="el17kmws4gki" class="animable"></path><path d="M204.3,341.92a12,12,0,0,0-.54,1.56,3.75,3.75,0,0,0-.22,1.28c0,.08.12.09.17,0a4.93,4.93,0,0,0,.55-1.24c.18-.49.37-1,.53-1.45A.26.26,0,0,0,204.3,341.92Z" style="fill: rgb(38, 50, 56); transform-origin: 204.166px 343.301px;" id="elj8s8z7j6muh" class="animable"></path><path d="M183.43,334.72c.57-.1,1.41.1,3.9-.07a14,14,0,0,0,2-.33,4.66,4.66,0,0,0,1.9-.77,10,10,0,0,0,2.16-3,14.94,14.94,0,0,0,1.51-3.68c0-.08.13,0,.12,0-.13.72-.2,1.45-.39,2.17a15,15,0,0,1-.73,2,7.91,7.91,0,0,1-2.22,3.28,7.52,7.52,0,0,1-4.05,1.1c-.79.06-3.87,0-4.28-.47C183.31,334.9,183.32,334.73,183.43,334.72Z" style="fill: rgb(38, 50, 56); transform-origin: 189.175px 331.137px;" id="el66qrboeet0b" class="animable"></path><path d="M179.18,341.87c.61,1.77,1.14,3.56,1.67,5.36,0,0-.65,7.86-1.16,13.62l-.65,0c.44-4.62.88-9.32,1.34-13.52-.5-1.8-1-3.6-1.58-5.36a3.49,3.49,0,0,1-.13-1.46,84.39,84.39,0,0,1,1.46-9.05h0c.42-2,.88-4.07,1.31-6.11-.44,2.36-.91,4.73-1.32,7.1-.47,2.68-.87,5.38-1.07,8.09A3.15,3.15,0,0,0,179.18,341.87Z" style="fill: rgb(38, 50, 56); transform-origin: 180.042px 343.1px;" id="elb3wzjz3tu9m" class="animable"></path><path d="M177,330.18c.08.11,34.37-3.7,34.77-4.06.56-.51-1.12-32.55-4.53-38.22-.73-1.22-6.09-4-9.34-1.14C185.27,297.77,176.73,329.78,177,330.18Z" style="fill: rgb(255, 199, 39); transform-origin: 194.435px 307.847px;" id="elh2b8dnsmjqn" class="animable"></path><path d="M212.6,316.69a7,7,0,0,0-.28-5.37c1-3.5-.4-5.3-.4-5.3-.66-7.45-1.83-14.93-4.08-18.18-1.43-2.07-8.14-3.74-11.31-.44-5,5.19-9.25,13.11-12.76,20.47A11.13,11.13,0,0,0,181,314.1a6.29,6.29,0,0,0-2.62,5.43s-2.78,4-2.53,7.24a3.86,3.86,0,0,0,1.27,2.52c.14,0,34.65-4.23,35-4.64a3.64,3.64,0,0,0,1-2A11.31,11.31,0,0,0,212.6,316.69ZM200.54,298c-1.18,2.84-5.29,5.26-7.15,5.1s-2.79-1.57-2.53-4.14,3.39-8.26,5.67-9.15C200,288.49,201.71,295.18,200.54,298Z" style="fill: rgb(69, 90, 100); transform-origin: 194.569px 307.411px;" id="elf45whq83vfu" class="animable"></path><path d="M213.36,320.28l-37,3.24a16.57,16.57,0,0,1,.92-2.14l35.75-3.13A11.33,11.33,0,0,1,213.36,320.28Z" style="fill: rgb(255, 255, 255); transform-origin: 194.86px 320.885px;" id="el1hjh2xt81aq" class="animable"></path><path d="M213,314.9l-34.44,3a5.92,5.92,0,0,1,.88-2.14l33.43-2.92A7.21,7.21,0,0,1,213,314.9Z" style="fill: rgb(255, 255, 255); transform-origin: 195.792px 315.37px;" id="el509tk837gwr" class="animable"></path><path d="M212.63,309.78l-31.37,2.74a9.92,9.92,0,0,1,.81-2.13l30.5-2.68A7.22,7.22,0,0,1,212.63,309.78Z" style="fill: rgb(255, 255, 255); transform-origin: 196.969px 310.115px;" id="elj0u8zio2fsp" class="animable"></path><path d="M193.39,303.12a210,210,0,0,1-4,25.05,216.21,216.21,0,0,1,4-25.05Z" style="fill: rgb(38, 50, 56); transform-origin: 191.39px 315.645px;" id="elsnoiiv9vkl" class="animable"></path><path d="M206,292.39c.74,5.57,1.18,11.17,1.57,16.77.21,5.6,1,11.3-.46,16.81.82-4.82,0-11.85-.29-16.76s-.71-11.93-.82-16.82Z" style="fill: rgb(38, 50, 56); transform-origin: 206.986px 309.18px;" id="elcbsr4u6c99e" class="animable"></path><path d="M178.73,319c9.49-1.2,23.88-2.16,33.54-2.87A256.09,256.09,0,0,1,178.73,319Z" style="fill: rgb(38, 50, 56); transform-origin: 195.5px 317.565px;" id="elj5hf95g47mj" class="animable"></path><path d="M181,314.1c8.67-1.1,21.82-1.92,30.65-2.53A211,211,0,0,1,181,314.1Z" style="fill: rgb(38, 50, 56); transform-origin: 196.325px 312.835px;" id="elk03infsoce9" class="animable"></path><g id="eljyreqr9g2e9"><rect x="202.72" y="304.52" width="6.71" height="2.18" style="fill: rgb(38, 50, 56); transform-origin: 206.075px 305.61px; transform: rotate(-7.56deg);" class="animable"></rect></g><g id="eldh34qjmnqge"><rect x="203.27" y="308.67" width="6.71" height="2.18" style="fill: rgb(38, 50, 56); transform-origin: 206.625px 309.76px; transform: rotate(-7.56deg);" class="animable"></rect></g><g id="elaswnsu2bn66"><rect x="204.11" y="319.53" width="6.71" height="2.18" style="fill: rgb(38, 50, 56); transform-origin: 207.465px 320.62px; transform: rotate(-7.56deg);" class="animable"></rect></g><path d="M206,292.39c-1.88,0-6.17-3-6.84-5.84a41.67,41.67,0,0,1,1.52-4.05c.49-1.29,1-2.75,1.37-4.11.08-.28,8,4.42,8,4.42a22.57,22.57,0,0,0-2.26,5,3,3,0,0,0-.09.58.64.64,0,0,0,0,.09C207.56,289.59,208,292.39,206,292.39Z" style="fill: rgb(235, 148, 129); transform-origin: 204.605px 285.384px;" id="elrwbwfb35hui" class="animable"></path><path d="M207.7,288.39s0,.06,0,.09a6.8,6.8,0,0,1-.89-.19c-5-1.49-4.6-8.15-4.41-9.82,1.45.64,7.67,4.34,7.67,4.34a22.57,22.57,0,0,0-2.26,5A3,3,0,0,0,207.7,288.39Z" style="fill: rgb(38, 50, 56); transform-origin: 206.187px 283.475px;" id="eliqpm22cwig" class="animable"></path><path d="M199.26,271.07c-.56,3.23,2.21,12,4.67,13.76,3.58,2.51,8.88,2.14,10.87-2s-1.88-15.45-4.58-17C206.24,263.6,200.1,266.29,199.26,271.07Z" style="fill: rgb(235, 148, 129); transform-origin: 207.267px 275.719px;" id="ela2w6utqc7ic" class="animable"></path><path d="M208.91,275.43s0,.05,0,.07c.2.59.34,1.3-.14,1.66,0,0,0,0,0,0C209.38,276.9,209.2,276,208.91,275.43Z" style="fill: rgb(38, 50, 56); transform-origin: 208.974px 276.295px;" id="el6ppki086enp" class="animable"></path><path d="M208.19,275c-1,.22-.46,2.16.44,1.95S209,274.79,208.19,275Z" style="fill: rgb(38, 50, 56); transform-origin: 208.376px 275.975px;" id="elnmgdhves8an" class="animable"></path><path d="M212.22,274.53s.05,0,.06.05c.14.6.41,1.27,1,1.32,0,0,0,0,0,0C212.6,276,212.26,275.13,212.22,274.53Z" style="fill: rgb(38, 50, 56); transform-origin: 212.75px 275.219px;" id="el0w6ocv7k7sj" class="animable"></path><path d="M212.59,273.76c.95-.33,1.54,1.59.66,1.9S211.8,274,212.59,273.76Z" style="fill: rgb(38, 50, 56); transform-origin: 212.948px 274.708px;" id="elzta4gbcyiod" class="animable"></path><path d="M207.19,274.3c.24-.14.45-.31.68-.47s.48-.3.6-.6a.42.42,0,0,0-.2-.48,1,1,0,0,0-1.05.17,1.53,1.53,0,0,0-.69.87A.46.46,0,0,0,207.19,274.3Z" style="fill: rgb(38, 50, 56); transform-origin: 207.502px 273.511px;" id="ely295nqeya" class="animable"></path><path d="M213.08,272.59a5.61,5.61,0,0,1-.82,0,1.38,1.38,0,0,1-.85-.15.44.44,0,0,1-.11-.51,1.08,1.08,0,0,1,1-.46,1.56,1.56,0,0,1,1.06.33A.45.45,0,0,1,213.08,272.59Z" style="fill: rgb(38, 50, 56); transform-origin: 212.388px 272.035px;" id="elmht7n0uavi8" class="animable"></path><path d="M209.65,281.08a.91.91,0,0,0,.6.22,1.74,1.74,0,0,0,.6-.32s.05,0,0,0a.85.85,0,0,1-.68.53.65.65,0,0,1-.61-.4S209.62,281.07,209.65,281.08Z" style="fill: rgb(38, 50, 56); transform-origin: 210.216px 281.245px;" id="elihkb9dsza6h" class="animable"></path><path d="M209.8,279.12a2.13,2.13,0,0,0,1.61.54,2.39,2.39,0,0,0,.74-.16l.14-.05.13-.06a.15.15,0,0,0,.08-.16h0s0,0,0-.06h0l0-.06c-.11-.46-.34-1.15-.34-1.15.19,0,1.15.19,1.07,0a31.29,31.29,0,0,0-2.44-6,.06.06,0,0,0-.1.05c.55,1.91,1.43,3.72,2,5.63a3.68,3.68,0,0,0-1,0c-.06,0,.47,1.33.5,1.54a0,0,0,0,1,0,0,2.92,2.92,0,0,1-2.29-.09C209.79,279,209.75,279.08,209.8,279.12Z" style="fill: rgb(38, 50, 56); transform-origin: 211.507px 275.806px;" id="elt0dudd2q2g" class="animable"></path><path d="M211.82,279.34a2.49,2.49,0,0,1-.77,1,1.13,1.13,0,0,1-.65.22c-.52,0-.65-.44-.66-.84a2.85,2.85,0,0,1,.06-.63A3.26,3.26,0,0,0,211.82,279.34Z" style="fill: rgb(38, 50, 56); transform-origin: 210.78px 279.825px;" id="elvcjdxkb4r1n" class="animable"></path><path d="M211.05,280.35a1.13,1.13,0,0,1-.65.22c-.52,0-.65-.44-.66-.84A1.18,1.18,0,0,1,211.05,280.35Z" style="fill: rgb(255, 155, 188); transform-origin: 210.395px 280.136px;" id="elztfne0kolwk" class="animable"></path><path d="M201.18,278.1c1.44-.22,1.14-3.54,1.14-3.54s3.75.43,3-4.38c0,0,4.44.71,6.82-1.12,2-1.57,2.6-5.55.6-7.53-1.13-1.12-3.9-1.86-7.17,2.5,0,0-5.59-2.65-6.48,3.73a3.43,3.43,0,0,0-2.46,3.32C196.82,275.15,199.93,278.28,201.18,278.1Z" style="fill: rgb(38, 50, 56); transform-origin: 205.302px 269.388px;" id="elbx02dim8z0n" class="animable"></path><path d="M205.3,269.84s-.09,0-.07,0c.41,1.14.84,2.37.07,3.46a2.84,2.84,0,0,1-3.27,1.14c-.07,0-.11.08,0,.11a3.09,3.09,0,0,0,3.31-.91C206.29,272.53,206,271,205.3,269.84Z" style="fill: rgb(38, 50, 56); transform-origin: 203.953px 272.274px;" id="el6galuvsglko" class="animable"></path><path d="M201.16,277.34a6.25,6.25,0,0,1-4.46-4.42,4.51,4.51,0,0,1,.3-3.25,7.61,7.61,0,0,1,2.17-2s0-.05,0,0c-5,2.18-2.81,9.05,2,10A.13.13,0,0,0,201.16,277.34Z" style="fill: rgb(38, 50, 56); transform-origin: 198.829px 272.659px;" id="eldypg8oweh8u" class="animable"></path><path d="M213.44,261.47c-2.7-2.76-6.69,0-7.95,2.83,0,0,0,0,0,0,1.2-2.14,4.05-4.5,6.61-3.39,3.08,1.36,2.75,6.61-.4,7.62-.09,0,0,.19.05.17C214.71,268,215.45,263.51,213.44,261.47Z" style="fill: rgb(38, 50, 56); transform-origin: 210.03px 264.515px;" id="elpxdeqa1qg8" class="animable"></path><path d="M202.47,278.22s-2.45-2.61-3.67-1.69.93,4.9,2.56,5.25a1.58,1.58,0,0,0,2-1.15Z" style="fill: rgb(235, 148, 129); transform-origin: 200.901px 279.091px;" id="elpmueu0nt46n" class="animable"></path><path d="M199.44,277.66s0,0,0,0a4,4,0,0,1,2.42,2.19.88.88,0,0,0-1.34-.05s0,.06,0,.05a1,1,0,0,1,1.12.19,5.25,5.25,0,0,1,.63.78c.07.09.23,0,.18-.09v0C202.3,279.36,201,277.58,199.44,277.66Z" style="fill: rgb(38, 50, 56); transform-origin: 200.95px 279.257px;" id="elo69vvrbpqe" class="animable"></path><path d="M195,297.05c1,10.29,8.09,29.79,13.44,32.13,4.33,1.89,21.86-1.82,26.33-3.75,2-.86.23-15.93-2.05-15.53-7.56,1.32-17.08,4.29-18,3.94-2-.77-8.23-12.41-12.5-19.29C196.85,285.91,194.54,292.44,195,297.05Z" style="fill: rgb(235, 148, 129); transform-origin: 215.292px 310.01px;" id="elcwj3m3nyqoc" class="animable"></path><path d="M256,316a2.41,2.41,0,0,1-1.63,2.21,3.58,3.58,0,0,1,.54,2.37c-.25,1.45-2.63,1.69-2.63,1.69a4.39,4.39,0,0,1,.16,2.59c-.38,1.36-2.74,1.94-2.74,1.94a3.89,3.89,0,0,1-1.29,2.37c-1.93,1.55-5.5.31-7.78-.46s-8-5.09-9.21-5.8l.09-12.71s12-3.23,14.61-2.12C248.36,309.05,256,314.14,256,316Z" style="fill: rgb(235, 148, 129); transform-origin: 243.71px 318.88px;" id="elotqhuld34fa" class="animable"></path><path d="M254.34,318a31.51,31.51,0,0,0-6.75-3.85c-.05,0-.09.05,0,.08,2.34,1.11,4.43,2.68,6.72,3.88C254.33,318.1,254.39,318,254.34,318Z" style="fill: rgb(38, 50, 56); transform-origin: 250.948px 316.13px;" id="elgr51jrr3j1" class="animable"></path><path d="M252.28,322.08a7,7,0,0,0-1.59-.82c-.59-.25-1.17-.49-1.77-.72-1.18-.46-2.38-.9-3.59-1.3-.05,0-.09.06,0,.08,1.19.46,2.36.95,3.52,1.46l1.73.78a8,8,0,0,0,1.67.68A.09.09,0,0,0,252.28,322.08Z" style="fill: rgb(38, 50, 56); transform-origin: 248.797px 320.74px;" id="el5j4quoqiwzg" class="animable"></path><path d="M249.64,326.8a4.82,4.82,0,0,0-1.48-.66l-1.63-.61c-1.08-.41-2.17-.82-3.24-1.27,0,0-.09.06,0,.08,1.08.46,2.16.94,3.25,1.39l1.6.66a4.57,4.57,0,0,0,1.51.47A0,0,0,0,0,249.64,326.8Z" style="fill: rgb(38, 50, 56); transform-origin: 246.45px 325.56px;" id="elogthil5t8o" class="animable"></path><path d="M211.25,308,199,315.26s-4.8-13.6-4.5-20.33,4.08-6.12,7.4-1.27C204.26,297.07,211.25,308,211.25,308Z" style="fill: rgb(255, 199, 39); transform-origin: 202.868px 302.605px;" id="elesnfyw4fuf6" class="animable"></path><path d="M199.42,312.56c1.42-1.06,3-1.95,4.51-2.87s3.17-1.78,4.74-2.69c0,0,.09,0,.05.07-1.51,1-3,2-4.5,2.89a51.72,51.72,0,0,1-4.78,2.64S199.4,312.57,199.42,312.56Z" style="fill: rgb(38, 50, 56); transform-origin: 204.072px 309.8px;" id="elj8kvtn4lm0m" class="animable"></path><path d="M194.61,297.39a18.92,18.92,0,0,1,.92,5.38,11.91,11.91,0,0,1-.92-5.38Z" style="fill: rgb(38, 50, 56); transform-origin: 195.059px 300.08px;" id="el33may8r69cs" class="animable"></path><path d="M194.36,299.27a5,5,0,0,1,.88,2,1.75,1.75,0,0,1-.88-2Z" style="fill: rgb(38, 50, 56); transform-origin: 194.771px 300.27px;" id="elhbwh5l24g1q" class="animable"></path></g><g id="freepik--Water--inject-63" class="animable" style="transform-origin: 250.06px 428.595px;"><path d="M458.32,422.72c-51.38,0-68.37-7.9-78.81-9.84S361,409,347.28,408.8s-31.17,5.45-40.67,4.93c-7.81-.43-38.88-7.72-49.16-7.5s-19.5,3-17.79,4.6,13.72,2,10.07,4.61-15.42,2.14-25.92,1.07-24.68,3.21-31.84,3.21-25.59-11.14-34.8-14.57-23.62-3.46-21.77-1.19,14.27,4.65,16.63,7.1,1.5,8-5.36,7.38-19.42-13.44-36.5-20.86-33.51-7.3-34.18-4.79,16.68,4.87,20.33,8.08,11.78,12.21,9,13.5-11.67-6.64-19.34-7.5-7,1.28-1.88,3,13.71,11.78,9.43,12.43-21.06-9.15-29.85-10.43-11,1.07-8.43,2.57S74,418.72,71.74,426.3c-1,3.52-26.63,1.57-30.06,1.57" style="fill: rgb(255, 255, 255); transform-origin: 250px 409.827px;" id="el2cmjecc61s9" class="animable"></path><path d="M458.32,422.72c-20.22,0-40.6-.93-60.43-5.15-6.62-1.32-13.06-3.46-19.68-4.69s-13.25-2.59-20-3.21a91.73,91.73,0,0,0-20.15,0c-10.06,1.07-19.89,4.07-30.06,4.43-6.48-.06-23.31-3.84-30-4.87s-13.3-2.4-20-2.59a54.59,54.59,0,0,0-14.88,2.06,8.81,8.81,0,0,0-3.2,1.54c-.1.12-.11.21-.1.22s.09.14.24.23a19.7,19.7,0,0,0,4.72,1.3c1.84.46,3.92.59,5.6,1.76,1.56,1.66-1.81,2.83-3,3.15-8.33,1.81-17,.55-25.34,0-10.14-.48-20,2.85-30.12,3.36-3.51-.16-6.67-1.56-9.85-2.84-9.36-3.83-18-9.39-27.57-12.54a53.08,53.08,0,0,0-9.86-1.76,33.83,33.83,0,0,0-7.46,0,3.5,3.5,0,0,0-1.5.49c0,.08,0-.07,0,0a2.6,2.6,0,0,0,.79.65c4.09,2.15,8.72,3,13,4.82,1.62.64,3.44,1.65,3.93,3.47,1.31,4.27-2.67,6.85-6.5,6.35a13.1,13.1,0,0,1-4.94-1.63c-10.24-5.87-19.32-13.68-30.15-18.51a79.57,79.57,0,0,0-19.14-6.12c-4.89-.8-10-1.57-14.93-.55-5.89,1.44,9.1,4.56,10.21,5.09a42,42,0,0,1,7.21,2.55c2.29,1.1,12.94,12.12,10.69,14.64-1.36,1.1-3.19,0-4.53-.56-3.06-1.5-5.91-3.29-9-4.66A21.17,21.17,0,0,0,82.7,407c-1.68,0-3.5.31-.69,1.75,1.5.74,3.24,1.12,4.62,2.12,3.41,2.44,6.85,5.52,8.25,9.59.6,2.64-2.39,2.29-4,1.8C79.69,419,69.5,411,57.43,411.75a6.53,6.53,0,0,0-2.37.61c-.34.19-.66.48-.66.83.25,1.22,1.83,1.48,2.87,1.9a61.82,61.82,0,0,1,9.47,3.58c2.85,1.41,6.42,4.27,5,7.85a3.71,3.71,0,0,1-2.25,1.17,40.86,40.86,0,0,1-7.56.73c-6.76.16-13.5-.28-20.24-.55,5.43,0,26.63,1.9,29.91-1.42,2-6.82-9.72-9.44-14.41-11.11-1.4-.36-4.6-1.71-2.27-3.25a10.7,10.7,0,0,1,5-.75,30.81,30.81,0,0,1,9.94,2c6.37,2.23,12.43,5.29,18.74,7.63,3.26,1.19,7.93,2.5,4.72-2.64a25.4,25.4,0,0,0-7-7c-1.92-1.41-4.58-1.45-6.2-3.28-.82-1.48,1.61-1.62,2.55-1.63,7-.34,13,3.87,18.92,6.86.9.4,3.63,1.77,4,.29,0-1.51-1.22-3-2-4.29a57.29,57.29,0,0,0-6.7-7.49c-2.38-2.34-5.94-2.93-9-3.94s-6.52-1.69-9.73-2.91c-2.11-.73-4-2.51-.47-3.52,5-1.07,10.23-.3,15.24.51,13.44,2.3,25.76,8.67,36.85,16.38,2.81,1.89,5.56,3.83,8.38,5.66s5.68,3.76,8.93,4.08,6.71-1.6,5.59-5.2c-.47-1.63-2-2.3-3.43-2.92-3.1-1.28-6.38-2.16-9.55-3.3-1.38-.5-7.1-2.44-3.83-4.1,2.92-.88,6-.57,9-.4a50,50,0,0,1,19.49,5.62c6.09,2.93,12.05,6.1,18.23,8.75,3,1.23,6.23,2.63,9.48,2.79,10.08-.51,19.93-3.81,30.16-3.31,6.75.59,13.45,1.26,20.16.85,2.43-.21,5-.38,7.13-1.64.32-.18.61-.51.6-.62s-.23-.35-.58-.5c-3.06-1.35-6.68-1.22-9.76-2.71a1.27,1.27,0,0,1-.58-.7,1.06,1.06,0,0,1,.27-.93c2.39-2,5.63-2.28,8.54-2.94,10.09-2,20.3,0,30.26,1.75,6.33,1,23.49,4.81,29.88,4.92,10.11-.34,19.93-3.32,30-4.36,13.53-1.6,27.09.66,40.27,3.33,6.64,1.27,13.05,3.45,19.67,4.81,19.79,4.34,40.14,5.37,60.35,5.51Z" style="fill: rgb(199, 199, 199); transform-origin: 250.065px 409.675px;" id="el5m22t9wf6i" class="animable"></path><path d="M69.68,384.69c-1.21,1.21,4.29,2.57,6.22,1.5S71.82,382.55,69.68,384.69Z" style="fill: rgb(255, 255, 255); transform-origin: 72.8923px 385.221px;" id="elapwjs7d52nu" class="animable"></path><path d="M69.68,384.69a.51.51,0,0,0,.11.81,7,7,0,0,0,4.58.63,2.91,2.91,0,0,0,1.4-.47c-1.21-1.35-4.43-2.47-6.09-1Zm0,0c1.74-1.47,4.81-1.24,6.6.07a1.14,1.14,0,0,1,.31,1.49,2.06,2.06,0,0,1-1.11.62,8.13,8.13,0,0,1-4.89-.82c-.47-.23-1.48-.76-.91-1.36Z" style="fill: rgb(199, 199, 199); transform-origin: 73.1271px 385.317px;" id="elddrgnbkph8" class="animable"></path><path d="M320.54,405.36c-1.21,1.21,4.29,2.57,6.21,1.5S322.68,403.21,320.54,405.36Z" style="fill: rgb(255, 255, 255); transform-origin: 323.746px 405.888px;" id="el2k1nchlrp16" class="animable"></path><path d="M320.54,405.36a.51.51,0,0,0,.11.81,7.15,7.15,0,0,0,4.58.63,3,3,0,0,0,1.4-.47c-1.21-1.36-4.44-2.47-6.09-1Zm0,0c1.74-1.48,4.8-1.25,6.6.07a1.11,1.11,0,0,1,.3,1.48,2,2,0,0,1-1.1.63,8.13,8.13,0,0,1-4.89-.82c-.47-.23-1.48-.76-.91-1.36Z" style="fill: rgb(199, 199, 199); transform-origin: 323.986px 405.983px;" id="elturxy81603" class="animable"></path><path d="M76.24,405.06c-.5,1.22,1.76,2.58,2.55,1.5S77.12,402.92,76.24,405.06Z" style="fill: rgb(255, 255, 255); transform-origin: 77.5563px 405.593px;" id="elw0izwtyjxfc" class="animable"></path><path d="M76.24,405.06c-.36,1,1.09,1.76,1.89,1.45s.17-1.26-.33-1.83a.9.9,0,0,0-1.56.38Zm0,0c.67-2,3.44-.48,3.18,1.26-.58,2.2-3.77.42-3.18-1.26Z" style="fill: rgb(199, 199, 199); transform-origin: 77.8024px 405.728px;" id="elcso7nvsxyoh" class="animable"></path><path d="M231.64,411.8c-.5,1.21,1.76,2.57,2.55,1.5S232.52,409.65,231.64,411.8Z" style="fill: rgb(255, 255, 255); transform-origin: 232.956px 412.328px;" id="eltntw5u4qta" class="animable"></path><path d="M231.64,411.8c-.36,1,1.09,1.76,1.89,1.44s.17-1.26-.33-1.83a.9.9,0,0,0-1.56.39Zm0,0c.67-2,3.44-.49,3.18,1.25-.58,2.21-3.76.42-3.18-1.25Z" style="fill: rgb(199, 199, 199); transform-origin: 233.203px 412.464px;" id="elrickoi6y5n" class="animable"></path><path d="M132.93,396.86c-1.08.93,1.74,3.25,3.19,2.59S134.84,395.23,132.93,396.86Z" style="fill: rgb(255, 255, 255); transform-origin: 134.609px 398.002px;" id="el9brfgh5uhak" class="animable"></path><path d="M132.93,396.86c-1,1.32,2,2.63,3,2.14.16-.11.15-.4,0-.83-.42-1.13-1.83-2.27-3-1.31Zm0,0c1.45-1.44,4.95.68,3.86,2.66-1.36,1.34-3.2-.2-3.89-1.4a1,1,0,0,1,0-1.26Z" style="fill: rgb(199, 199, 199); transform-origin: 134.837px 398.213px;" id="el0i1s32gz0lyc" class="animable"></path><path d="M71.39,393.27c1.6-.45-.23-2.77-1.91-1.61S69.79,393.71,71.39,393.27Z" style="fill: rgb(255, 255, 255); transform-origin: 70.4241px 392.362px;" id="elr0nk9amuaxk" class="animable"></path><path d="M71.39,393.27c.84-.24.61-1.11-.06-1.38a1.8,1.8,0,0,0-2,.59s-.07.06,0,.15a2,2,0,0,0,2.14.64Zm0,0c-.89.25-3.09.53-2.93-1a1.89,1.89,0,0,1,3.17-.75c.55.53.67,1.61-.24,1.77Z" style="fill: rgb(199, 199, 199); transform-origin: 70.2551px 392.203px;" id="ellams2pghw2" class="animable"></path><path d="M84.45,404.62c1.6-.45-.23-2.77-1.91-1.61S82.85,405.06,84.45,404.62Z" style="fill: rgb(255, 255, 255); transform-origin: 83.4841px 403.712px;" id="elzptzgzj4loq" class="animable"></path><path d="M84.45,404.62c.84-.24.61-1.11-.07-1.38a1.79,1.79,0,0,0-2,.59c0,.05-.07.06,0,.16a2,2,0,0,0,2.14.63Zm0,0c-.9.25-3.09.53-2.93-1a1.89,1.89,0,0,1,3.17-.75c.55.54.66,1.61-.24,1.77Z" style="fill: rgb(199, 199, 199); transform-origin: 83.3133px 403.553px;" id="elm58py13wtql" class="animable"></path><path d="M53.81,419.42c1.6-.44-.23-2.76-1.91-1.6S52.21,419.87,53.81,419.42Z" style="fill: rgb(255, 255, 255); transform-origin: 52.8441px 418.519px;" id="el2otwfhqzj62" class="animable"></path><path d="M53.81,419.42c.84-.23.61-1.1-.06-1.37a1.8,1.8,0,0,0-2,.58c0,.05-.07.07,0,.16a2,2,0,0,0,2.14.63Zm0,0c-.89.25-3.09.54-2.93-1a1.89,1.89,0,0,1,3.17-.75c.55.53.66,1.6-.24,1.76Z" style="fill: rgb(199, 199, 199); transform-origin: 52.6733px 418.354px;" id="elc1dm1wfb8w" class="animable"></path><path d="M61.83,408.53c.85-.24-.13-1.47-1-.86S61,408.76,61.83,408.53Z" style="fill: rgb(255, 255, 255); transform-origin: 61.3289px 408.045px;" id="elsbfn1r48hgl" class="animable"></path><path d="M61.83,408.53c.44-.13.26-.6-.11-.64s-.68.33-.82.27-.06-.1-.08-.07c0,.37.64.54,1,.44Zm0,0c-.44.08-1.1.37-1.57,0s0-1.1.32-1.28a1.08,1.08,0,0,1,1.45.26c.27.34.29,1-.2,1Z" style="fill: rgb(199, 199, 199); transform-origin: 61.1402px 407.896px;" id="el52zrmq5kyvp" class="animable"></path><path d="M79.73,402.8c.85-.24-.13-1.48-1-.86S78.88,403,79.73,402.8Z" style="fill: rgb(255, 255, 255); transform-origin: 79.2273px 402.309px;" id="el0m91pgxftfpd" class="animable"></path><path d="M79.73,402.8c.44-.13.26-.6-.11-.64s-.68.33-.82.27-.06-.1-.08-.07c0,.37.64.54,1,.44Zm0,0c-.54.17-1.88.45-1.76-.6a1.11,1.11,0,0,1,2-.44c.27.33.29,1-.2,1Z" style="fill: rgb(199, 199, 199); transform-origin: 79.0607px 402.127px;" id="elao7dvyg0h5v" class="animable"></path><path d="M233.47,408.43c.85-.24-.12-1.48-1-.86S232.62,408.66,233.47,408.43Z" style="fill: rgb(255, 255, 255); transform-origin: 232.966px 407.944px;" id="el917ikun8i5" class="animable"></path><path d="M233.47,408.43c.45-.13.26-.6-.11-.64s-.68.33-.81.27-.07-.1-.09-.07c0,.37.65.54,1,.44Zm0,0c-.44.08-1.1.37-1.57,0s0-1.1.33-1.28a1.06,1.06,0,0,1,1.44.26c.28.33.29,1-.2,1Z" style="fill: rgb(199, 199, 199); transform-origin: 232.782px 407.794px;" id="elaovxuucm1dc" class="animable"></path><path d="M132.2,401.06c1-.27-.14-1.66-1.15-1S131.24,401.33,132.2,401.06Z" style="fill: rgb(255, 255, 255); transform-origin: 131.627px 400.505px;" id="el7ucqyzmtep" class="animable"></path><path d="M132.2,401.06c.49-.14.32-.67-.1-.75a.93.93,0,0,0-.74.18c-.12.06-.24.18-.26.14s-.06-.07-.08,0c.09.41.76.57,1.18.46Zm0,0c-.49.1-1.22.38-1.74,0s0-1.17.37-1.37a1.18,1.18,0,0,1,1.57.27c.32.36.35,1.06-.2,1.14Z" style="fill: rgb(199, 199, 199); transform-origin: 131.435px 400.378px;" id="el0swsrbl5gc1" class="animable"></path><path d="M80.63,389.31c1-.27-.14-1.66-1.14-1S79.67,389.58,80.63,389.31Z" style="fill: rgb(255, 255, 255); transform-origin: 80.0632px 388.755px;" id="ell087qb1horb" class="animable"></path><path d="M80.63,389.31c.5-.14.33-.67-.1-.75a.89.89,0,0,0-.73.18c-.12.06-.24.18-.26.14s-.07-.08-.08,0c.09.41.75.57,1.17.46Zm0,0c-.49.1-1.22.38-1.73,0s0-1.17.36-1.37a1.18,1.18,0,0,1,1.58.27c.32.36.35,1.06-.21,1.14Z" style="fill: rgb(199, 199, 199); transform-origin: 79.8766px 388.626px;" id="elpe6wbtaqd3q" class="animable"></path><path d="M209.05,420.37c-1.22,1.21,4.28,2.57,6.21,1.5S211.19,418.22,209.05,420.37Z" style="fill: rgb(255, 199, 39); transform-origin: 212.256px 420.898px;" id="elcjy2ptqby26" class="animable"></path><path d="M124.76,411.8c-.49,1.21,1.77,2.57,2.56,1.5S125.65,409.65,124.76,411.8Z" style="fill: rgb(255, 199, 39); transform-origin: 126.083px 412.328px;" id="elntut7eun7xe" class="animable"></path><path d="M315.26,415.07c-1.08.93,1.74,3.24,3.19,2.59S317.16,413.43,315.26,415.07Z" style="fill: rgb(255, 199, 39); transform-origin: 316.938px 416.209px;" id="elijc4cssc23" class="animable"></path><path d="M220,420.45c1.6-.45-.23-2.77-1.91-1.61S218.41,420.89,220,420.45Z" style="fill: rgb(255, 199, 39); transform-origin: 219.035px 419.542px;" id="elgqz2222v2et" class="animable"></path><path d="M104,403.76c1.61-.44-.23-2.76-1.9-1.6S102.36,404.21,104,403.76Z" style="fill: rgb(255, 199, 39); transform-origin: 103.039px 402.859px;" id="el1p8o40ydjcc" class="animable"></path><path d="M124.37,409.76c.85-.23-.13-1.47-1-.85S123.52,410,124.37,409.76Z" style="fill: rgb(255, 199, 39); transform-origin: 123.867px 409.281px;" id="el8ptfyzoa0qs" class="animable"></path><path d="M155.84,409.07c.86-.24-.12-1.47-1-.85S155,409.31,155.84,409.07Z" style="fill: rgb(255, 199, 39); transform-origin: 155.339px 408.591px;" id="els6j8d9hh00e" class="animable"></path><path d="M311,417.37c1-.27-.14-1.67-1.15-1S310,417.63,311,417.37Z" style="fill: rgb(255, 199, 39); transform-origin: 310.424px 416.812px;" id="elu4vpmnfwyfi" class="animable"></path><path d="M75.06,465.56c20.35-.67,40.83-.67,61.17,0-20.35.68-40.82.68-61.17,0Z" style="fill: rgb(219, 219, 219); transform-origin: 105.645px 465.564px;" id="eldtpger6fh76" class="animable"></path><path d="M58.91,435.55c46.85-.66,98.93-.64,145.81,0-46.89.65-98.95.67-145.81,0Z" style="fill: rgb(219, 219, 219); transform-origin: 131.815px 435.554px;" id="el0mbxdop8gv9r" class="animable"></path><path d="M307.51,435.55c46.85-.66,98.93-.64,145.81,0-46.89.65-98.95.67-145.81,0Z" style="fill: rgb(219, 219, 219); transform-origin: 380.415px 435.554px;" id="elosjcexi7fb" class="animable"></path><path d="M259.41,442.89c38.88-.66,82.1-.64,121,0-38.91.65-82.11.67-121,0Z" style="fill: rgb(219, 219, 219); transform-origin: 319.91px 442.894px;" id="el5orfff8tr6" class="animable"></path><path d="M340,473c16.51-.67,33.15-.67,49.67,0-16.52.68-33.15.68-49.67,0Z" style="fill: rgb(219, 219, 219); transform-origin: 364.835px 473.004px;" id="elj86dsdf3i9a" class="animable"></path><path d="M370.45,464a207.71,207.71,0,0,1,29.2,0,209.24,209.24,0,0,1-29.2,0Z" style="fill: rgb(219, 219, 219); transform-origin: 385.05px 463.998px;" id="el7ic6h7oodur" class="animable"></path><path d="M46.68,454.31a207.66,207.66,0,0,1,29.09,0,207.66,207.66,0,0,1-29.09,0Z" style="fill: rgb(219, 219, 219); transform-origin: 61.225px 454.31px;" id="el6fg282mb3tm" class="animable"></path></g><g id="freepik--Sun--inject-63" class="animable" style="transform-origin: 109.21px 99.3px;"><g id="eli3j933eae7"><circle cx="109.21" cy="99.3" r="32.74" style="fill: rgb(255, 199, 39); opacity: 0.5; transform-origin: 109.21px 99.3px; transform: rotate(-35.5deg);" class="animable"></circle></g><g id="elm2te8rhhk8"><circle cx="109.21" cy="99.3" r="23.59" style="fill: rgb(255, 199, 39); transform-origin: 109.21px 99.3px; transform: rotate(-22.16deg);" class="animable"></circle></g></g><defs>     <filter id="active" height="200%">         <feMorphology in="SourceAlpha" result="DILATED" operator="dilate" radius="2"></feMorphology>                <feFlood flood-color="#32DFEC" flood-opacity="1" result="PINK"></feFlood>        <feComposite in="PINK" in2="DILATED" operator="in" result="OUTLINE"></feComposite>        <feMerge>            <feMergeNode in="OUTLINE"></feMergeNode>            <feMergeNode in="SourceGraphic"></feMergeNode>        </feMerge>    </filter>    <filter id="hover" height="200%">        <feMorphology in="SourceAlpha" result="DILATED" operator="dilate" radius="2"></feMorphology>                <feFlood flood-color="#ff0000" flood-opacity="0.5" result="PINK"></feFlood>        <feComposite in="PINK" in2="DILATED" operator="in" result="OUTLINE"></feComposite>        <feMerge>            <feMergeNode in="OUTLINE"></feMergeNode>            <feMergeNode in="SourceGraphic"></feMergeNode>        </feMerge>            <feColorMatrix type="matrix" values="0   0   0   0   0                0   1   0   0   0                0   0   0   0   0                0   0   0   1   0 "></feColorMatrix>    </filter></defs></svg>