<svg width="381" height="381" viewBox="0 0 381 381" fill="none" xmlns="http://www.w3.org/2000/svg">
<path d="M32.4991 259.08C32.0495 259.08 32.0038 258.181 32.4991 258.12C34.625 257.853 36.751 255.948 38.8694 255.666C40.9877 255.384 43.0832 255.156 44.9654 254.211C48.1277 252.626 50.0936 249.448 53.3474 247.932C59.0776 245.257 64.9907 246.408 70.5686 248.755C73.8785 250.227 77.5312 250.754 81.1223 250.279C84.3836 249.867 87.5536 248.968 90.8073 248.503C93.6989 247.975 96.6729 248.116 99.5017 248.915C102.413 249.86 104.92 251.689 107.663 253.007C111.275 254.752 114.841 254.455 118.735 254.569C121.539 254.653 127.399 256.421 127.399 258.31C127.444 259.575 38.0998 259.08 32.4991 259.08Z" fill="#EBEBEB"/>
<path d="M348.721 160.782C344.805 160.782 247.101 160.104 219.502 160.104C217.574 160.104 220.012 156.759 221.071 156.53C224.47 155.768 228.005 155.768 231.45 155.395C234.858 155.068 238.197 154.231 241.356 152.91C244.068 151.767 246.781 150.442 249.738 149.984C255.422 149.093 260.406 152.171 265.74 153.535C267.359 154.001 269.057 154.124 270.726 153.896C272.395 153.667 273.998 153.093 275.432 152.209C277.894 150.731 280.134 148.956 282.717 147.637C287.651 145.209 293.034 143.825 298.528 143.573C304.022 143.322 309.509 144.207 314.645 146.174C317.092 147.115 319.431 148.313 321.625 149.748C324.231 151.455 326.479 153.642 329.092 155.326C334.876 159.075 342.046 157.856 348.34 160.005C348.668 160.119 349.057 160.782 348.721 160.782Z" fill="#EBEBEB"/>
<path d="M197.358 114.704C192.184 114.704 105.072 115.275 99.5929 115.1C99.2043 115.1 98.991 114.506 99.3796 114.338C102.831 112.631 106.748 112.974 110.337 111.763C112.448 111.054 113.743 109.675 115.206 108.09C116.431 106.704 118.013 105.682 119.778 105.133C121.38 104.65 123.079 104.595 124.708 104.973C126.476 105.4 128.016 106.413 129.7 107.046C133.883 108.631 137.952 107.13 140.939 103.998C143.4 101.445 145.823 99.0371 149.176 97.6655C150.544 97.0469 152.025 96.7169 153.526 96.6959C155.027 96.6749 156.517 96.9635 157.901 97.5436C161.094 98.9914 163.289 101.902 166.283 103.64C169.842 105.72 174.094 105.225 178.026 105.849C181.958 106.474 184.975 109.789 188.419 111.694C189.542 112.417 190.841 112.82 192.176 112.86C192.938 112.86 193.7 112.631 194.462 112.54C195.651 112.387 196.748 112.425 197.571 113.416C197.7 113.675 197.662 114.704 197.358 114.704Z" fill="#EBEBEB"/>
<path d="M319.545 185.806C315.735 185.806 252.169 186.225 248.168 186.096C247.886 186.096 247.726 185.669 248.016 185.524C250.538 184.282 253.395 184.526 256.009 183.65C257.41 183.084 258.638 182.159 259.568 180.967C260.453 179.959 261.596 179.211 262.875 178.803C264.045 178.45 265.288 178.41 266.479 178.689C267.723 179.122 268.939 179.631 270.121 180.213C273.169 181.364 276.149 180.266 278.328 178.011C280.126 176.144 281.894 174.384 284.34 173.385C285.338 172.932 286.42 172.69 287.516 172.674C288.612 172.658 289.7 172.869 290.711 173.294C293.042 174.353 294.642 176.479 296.807 177.752C299.405 179.276 302.514 178.918 305.379 179.375C308.244 179.832 310.454 182.247 312.999 183.634C313.818 184.164 314.767 184.46 315.742 184.488C316.306 184.488 316.855 184.32 317.411 184.252C317.814 184.139 318.24 184.139 318.644 184.252C319.047 184.364 319.411 184.586 319.697 184.892C319.827 185.059 319.796 185.806 319.545 185.806Z" fill="#EBEBEB"/>
<path d="M121.226 160.515C117.416 160.515 53.8502 160.934 49.8497 160.805C49.7818 160.806 49.7154 160.784 49.6611 160.743C49.6068 160.702 49.5679 160.644 49.5503 160.579C49.5328 160.513 49.5378 160.443 49.5644 160.381C49.591 160.318 49.6378 160.266 49.6974 160.233C52.212 158.984 55.0313 159.235 57.6907 158.351C59.0939 157.789 60.3221 156.863 61.2493 155.669C62.1342 154.662 63.2779 153.916 64.5564 153.513C65.727 153.159 66.97 153.12 68.1606 153.398C69.4073 153.825 70.6241 154.334 71.803 154.922C74.851 156.073 77.8228 154.976 80.0097 152.712C81.808 150.853 83.5759 149.093 86.0219 148.087C87.0211 147.637 88.1024 147.397 89.1983 147.382C90.2943 147.368 91.3815 147.579 92.3922 148.003C94.7239 149.055 96.3241 151.181 98.4882 152.461C101.087 153.985 104.188 153.619 107.061 154.076C109.933 154.534 112.128 156.957 114.681 158.344C115.501 158.871 116.449 159.166 117.424 159.197C117.988 159.197 118.544 159.029 119.1 158.961C119.503 158.848 119.93 158.848 120.333 158.961C120.736 159.074 121.1 159.295 121.386 159.601C121.501 159.769 121.47 160.515 121.226 160.515Z" fill="#EBEBEB"/>
<path d="M286.611 69.7383C282.801 69.7383 219.227 70.1574 215.234 70.0278C214.945 70.0278 214.792 69.6011 215.074 69.4563C217.597 68.2067 220.454 68.4581 223.075 67.5742C224.477 67.0134 225.704 66.0872 226.626 64.892C227.514 63.8845 228.66 63.1389 229.941 62.7355C231.109 62.3819 232.35 62.3425 233.538 62.6212C234.784 63.0481 236.001 63.5572 237.18 64.1452C240.228 65.3034 243.207 64.2062 245.387 61.943C247.185 60.0837 248.953 58.3235 251.399 57.3177C252.398 56.8673 253.479 56.6274 254.575 56.613C255.671 56.5986 256.759 56.8099 257.769 57.2339C260.109 58.2854 261.709 60.4114 263.865 61.6916C266.464 63.2156 269.573 62.8498 272.438 63.307C275.303 63.7642 277.513 66.1874 280.058 67.5742C280.877 68.1042 281.826 68.3994 282.801 68.4276C283.365 68.4276 283.914 68.26 284.47 68.1914C284.873 68.0786 285.299 68.0786 285.702 68.1915C286.105 68.3043 286.47 68.5257 286.756 68.8315C286.885 68.9915 286.855 69.7383 286.611 69.7383Z" fill="#EBEBEB"/>
<path d="M230.962 46.9239H122.979C122.537 46.9239 122.377 46.4591 122.811 46.2534C126.682 44.4398 131.018 44.9046 135.003 43.6473C137.358 42.8853 138.813 41.4071 140.49 39.6849C141.87 38.1835 143.632 37.0852 145.587 36.5074C147.375 36.0143 149.261 35.9959 151.059 36.4541C153.009 36.957 154.693 38.1152 156.545 38.862C161.117 40.7136 165.689 39.1439 169.08 35.814C171.869 33.0403 174.612 30.4266 178.361 28.956C179.892 28.3014 181.542 27.9696 183.207 27.9814C184.872 27.9932 186.517 28.3483 188.038 29.0246C191.551 30.701 193.913 33.9776 197.182 35.9892C201.076 38.3819 205.808 37.9323 210.136 38.7172C214.465 39.5021 218.099 41.3766 221.871 43.5711C223.116 44.4117 224.569 44.8917 226.07 44.958C226.923 44.958 227.769 44.737 228.615 44.6532C229.933 44.516 231.183 44.577 232.044 45.6971C232.25 45.9486 233.499 46.9239 230.962 46.9239Z" fill="#EBEBEB"/>
<path d="M300.655 95.25C301.284 94.9287 301.933 94.6487 302.598 94.4118C303.282 94.1559 303.997 93.9919 304.724 93.9242C304.945 93.9071 305.168 93.933 305.379 94.0004C305.451 94.0226 305.52 94.0533 305.585 94.0918L305.714 94.1832C305.798 94.2442 305.867 94.3128 305.943 94.3737C306.21 94.6146 306.464 94.8689 306.705 95.1357C307.185 95.6768 307.604 96.233 308.031 96.8121L307.505 96.6216C308.216 96.4233 308.939 96.2706 309.669 96.1644C310.046 96.1196 310.425 96.0942 310.805 96.0882C311.006 96.0854 311.208 96.1007 311.407 96.134C311.515 96.1494 311.623 96.1749 311.727 96.2102C311.839 96.2547 311.948 96.3055 312.054 96.3626C312.38 96.5907 312.668 96.8684 312.908 97.1855C313.137 97.4735 313.351 97.7736 313.548 98.0847C313.931 98.7038 314.267 99.3508 314.554 100.02C314.089 99.4639 313.639 98.9 313.159 98.3743C312.919 98.1064 312.665 97.852 312.397 97.6123C312.172 97.3795 311.916 97.1794 311.635 97.0179C311.363 96.9266 311.074 96.8979 310.789 96.9341C310.449 96.9573 310.11 97.0031 309.776 97.0712C309.098 97.1931 308.404 97.3608 307.734 97.5437L307.398 97.6351L307.208 97.3608C306.819 96.7969 306.393 96.2483 305.974 95.7149C305.769 95.4489 305.551 95.1945 305.318 94.9529C305.266 94.8957 305.21 94.8422 305.151 94.7928L305.074 94.7243C304.956 94.6757 304.829 94.6498 304.701 94.6481C304.031 94.649 303.362 94.7154 302.705 94.8462C302.034 94.9681 301.348 95.1129 300.655 95.25Z" fill="#263238"/>
<path d="M308.305 115.908C309.134 115.251 310.007 114.652 310.919 114.117C311.846 113.541 312.845 113.09 313.891 112.776C314.213 112.686 314.549 112.658 314.881 112.692C314.993 112.708 315.103 112.737 315.209 112.776C315.283 112.803 315.354 112.836 315.422 112.875C315.556 112.936 315.686 113.005 315.811 113.081C316.282 113.363 316.737 113.671 317.175 114.003C318.036 114.651 318.821 115.352 319.613 116.068L318.79 115.954C319.775 115.449 320.793 115.014 321.838 114.651C322.374 114.466 322.921 114.316 323.477 114.201C323.771 114.142 324.069 114.104 324.368 114.087C324.536 114.076 324.704 114.076 324.871 114.087C325.046 114.119 325.219 114.162 325.389 114.216C325.946 114.452 326.46 114.776 326.913 115.176C327.336 115.534 327.738 115.915 328.117 116.319C328.867 117.11 329.55 117.961 330.159 118.864C329.321 118.179 328.491 117.485 327.637 116.853C327.218 116.533 326.791 116.22 326.349 115.946C325.949 115.673 325.513 115.455 325.054 115.298C324.628 115.246 324.196 115.29 323.789 115.428C323.296 115.562 322.813 115.728 322.341 115.923C321.373 116.304 320.406 116.754 319.484 117.211L319.011 117.447L318.653 117.097C317.891 116.388 317.129 115.702 316.367 115.047C315.99 114.719 315.596 114.411 315.186 114.125C315.093 114.061 314.996 114.002 314.896 113.95L314.767 113.873C314.767 113.873 314.767 113.873 314.714 113.873C314.525 113.838 314.331 113.838 314.142 113.873C313.156 114.07 312.192 114.361 311.262 114.742C310.248 115.108 309.288 115.512 308.305 115.908Z" fill="#263238"/>
<path d="M73.4033 187.688C73.972 187.269 74.5676 186.887 75.1864 186.545C75.8171 186.18 76.4936 185.901 77.1981 185.715C77.4176 185.679 77.6415 185.679 77.861 185.715C77.9343 185.726 78.006 185.747 78.0744 185.776L78.2192 185.844L78.4706 185.989C78.7907 186.195 79.0802 186.416 79.3622 186.637C79.9184 187.086 80.429 187.566 80.9471 188.069L80.3909 187.97C81.0615 187.671 81.7514 187.416 82.4559 187.208C82.8177 187.094 83.1869 187.005 83.5608 186.942C83.7597 186.908 83.961 186.89 84.1628 186.888C84.2719 186.881 84.3813 186.881 84.4904 186.888C84.6078 186.91 84.7227 186.943 84.8333 186.987C85.1932 187.159 85.5247 187.386 85.8163 187.658C86.0906 187.909 86.3421 188.176 86.5783 188.42C87.0585 188.968 87.4966 189.551 87.8889 190.165C87.3403 189.692 86.7993 189.212 86.243 188.77C85.9758 188.544 85.6959 188.333 85.4048 188.138C85.1449 187.943 84.8572 187.789 84.5514 187.681C84.2691 187.633 83.9796 187.651 83.7056 187.734C83.3746 187.816 83.0488 187.918 82.7302 188.039C82.0825 188.267 81.4196 188.549 80.7947 188.801L80.4747 188.946L80.2461 188.709C79.766 188.222 79.2631 187.742 78.7221 187.292C78.4791 187.066 78.2248 186.852 77.9601 186.652C77.8991 186.614 77.8305 186.561 77.7696 186.53L77.6858 186.477C77.6858 186.477 77.6858 186.477 77.6477 186.477C77.5219 186.452 77.3924 186.452 77.2667 186.477C76.606 186.585 75.9577 186.759 75.3312 186.995C74.714 187.193 74.0663 187.452 73.4033 187.688Z" fill="#263238"/>
<path d="M50.8711 179.322C51.4675 178.451 52.1218 177.621 52.8294 176.837C53.5427 176.01 54.3656 175.285 55.2755 174.681C55.5538 174.498 55.8639 174.369 56.1899 174.3C56.3015 174.292 56.4135 174.292 56.5251 174.3H56.769C56.9152 174.32 57.0602 174.348 57.2033 174.384C57.7341 174.515 58.258 174.673 58.773 174.856C59.7865 175.222 60.7466 175.618 61.7144 176.106L60.8914 176.243C61.6821 175.47 62.5248 174.752 63.4136 174.094C63.8708 173.759 64.3493 173.453 64.8462 173.18C65.1111 173.036 65.3862 172.911 65.6691 172.806C65.8252 172.75 65.9858 172.706 66.1492 172.677C66.3293 172.665 66.5101 172.665 66.6902 172.677C67.28 172.746 67.8557 172.905 68.3971 173.149C68.9191 173.374 69.4279 173.629 69.9211 173.911C70.8687 174.447 71.7731 175.056 72.6262 175.733C71.6127 175.336 70.6221 174.917 69.5782 174.567C69.0787 174.381 68.5701 174.22 68.0542 174.087C67.5931 173.94 67.1131 173.86 66.6293 173.85C66.2069 173.929 65.8065 174.098 65.4558 174.346C65.0257 174.622 64.6134 174.925 64.2213 175.252C63.4136 175.9 62.6211 176.616 61.8744 177.333L61.501 177.691L61.0514 177.462C60.137 177.005 59.1845 176.586 58.2473 176.19C57.7924 175.989 57.3269 175.814 56.8528 175.664L56.5251 175.573H56.3727H56.388C56.1961 175.593 56.01 175.65 55.8393 175.74C54.9553 176.193 54.1182 176.731 53.34 177.348C52.4865 177.98 51.6864 178.659 50.8711 179.322Z" fill="#263238"/>
<path d="M283.578 110.833C284.177 109.959 284.834 109.127 285.544 108.341C286.26 107.52 287.08 106.795 287.982 106.185C288.264 106.004 288.577 105.878 288.905 105.811C289.016 105.799 289.128 105.799 289.24 105.811H289.476C289.636 105.811 289.766 105.865 289.91 105.895C290.445 106.024 290.972 106.185 291.488 106.375C292.501 106.741 293.454 107.137 294.429 107.625L293.598 107.754C294.392 106.981 295.237 106.263 296.128 105.606C296.587 105.272 297.065 104.967 297.561 104.691C297.827 104.549 298.102 104.424 298.384 104.318C298.541 104.267 298.701 104.227 298.864 104.196C299.041 104.18 299.22 104.18 299.397 104.196C299.989 104.261 300.568 104.418 301.112 104.661C301.63 104.882 302.118 105.133 302.598 105.423C303.548 105.961 304.455 106.573 305.31 107.251C304.297 106.848 303.306 106.429 302.3 106.078C301.798 105.903 301.302 105.727 300.776 105.598C300.314 105.459 299.835 105.379 299.352 105.362C298.925 105.44 298.522 105.611 298.17 105.865C297.742 106.136 297.332 106.437 296.944 106.764C296.136 107.412 295.343 108.128 294.597 108.844L294.216 109.202L293.766 108.981C292.859 108.524 291.907 108.097 290.97 107.701C290.515 107.5 290.049 107.325 289.575 107.175C289.461 107.175 289.339 107.107 289.24 107.091H289.095C289.095 107.091 289.095 107.091 289.034 107.091C288.846 107.116 288.663 107.173 288.493 107.259C287.61 107.742 286.776 108.308 286.001 108.951C285.201 109.492 284.401 110.17 283.578 110.833Z" fill="#263238"/>
<path d="M184.32 243.657V63.5585L85.3442 243.657H184.32Z" fill="#FFC727"/>
<path opacity="0.8" d="M184.32 243.657V63.5585L85.3442 243.657H184.32Z" fill="white"/>
<path opacity="0.1" d="M85.3442 243.657C85.3442 243.657 159.129 236.708 169.629 217.886C180.129 199.065 184.32 63.5585 184.32 63.5585V243.657H85.3442Z" fill="#FFC727"/>
<path d="M71.7956 271.44H66.7588V278.122H71.7956V271.44Z" fill="#263238"/>
<path d="M183.331 63.0131L68.2534 272.338L70.2567 273.439L185.334 64.1144L183.331 63.0131Z" fill="#263238"/>
<path d="M184.328 241.752H77.8384V245.562H184.328V241.752Z" fill="#263238"/>
<path d="M184.29 207.721H104.47V210.007H184.29V207.721Z" fill="#263238"/>
<path d="M184.29 170.962H124.671V173.248H184.29V170.962Z" fill="#263238"/>
<path d="M184.29 134.211H144.376V136.497H184.29V134.211Z" fill="#263238"/>
<path d="M184.29 97.4521H165.072V99.7381H184.29V97.4521Z" fill="#263238"/>
<path d="M281.963 250.866H276.926V257.548H281.963V250.866Z" fill="#263238"/>
<path d="M186.743 79.3454L184.735 80.4393L278.449 252.395L280.457 251.301L186.743 79.3454Z" fill="#263238"/>
<path d="M222.664 262.334H217.627V269.016H222.664V262.334Z" fill="#263238"/>
<path d="M187.102 124.102L184.882 124.649L219.06 263.376L221.279 262.829L187.102 124.102Z" fill="#263238"/>
<path d="M341.947 239.207H336.911V245.89H341.947V239.207Z" fill="#263238"/>
<path d="M324.711 244.191H319.674V250.873H324.711V244.191Z" fill="#263238"/>
<path d="M188.054 56.92L186.298 58.3839L339.056 241.6L340.812 240.136L188.054 56.92Z" fill="#263238"/>
<path d="M43.9064 272.903H38.8696V279.585H43.9064V272.903Z" fill="#263238"/>
<path d="M183.335 57.0196L40.1284 273.709L42.0356 274.97L185.242 58.28L183.335 57.0196Z" fill="#263238"/>
<path d="M184.534 40.1726H186.934L190.5 293.957H180.968L184.534 40.1726Z" fill="#FFC727"/>
<path opacity="0.4" d="M184.534 40.1726H186.934L190.5 293.957H180.968L184.534 40.1726Z" fill="black"/>
<path d="M190.554 55.2222H180.922V57.6682H190.554V55.2222Z" fill="#FFC727"/>
<path opacity="0.6" d="M190.554 55.2222H180.922V57.6682H190.554V55.2222Z" fill="black"/>
<path d="M190.554 62.3392H180.922V64.7853H190.554V62.3392Z" fill="#FFC727"/>
<path opacity="0.6" d="M190.554 62.3392H180.922V64.7853H190.554V62.3392Z" fill="black"/>
<path d="M190.554 105.179H180.922V107.625H190.554V105.179Z" fill="#FFC727"/>
<path opacity="0.6" d="M190.554 105.179H180.922V107.625H190.554V105.179Z" fill="black"/>
<path d="M190.554 145.054H180.922V147.5H190.554V145.054Z" fill="#FFC727"/>
<path opacity="0.6" d="M190.554 145.054H180.922V147.5H190.554V145.054Z" fill="black"/>
<path d="M190.554 184.93H180.922V187.376H190.554V184.93Z" fill="#FFC727"/>
<path opacity="0.6" d="M190.554 184.93H180.922V187.376H190.554V184.93Z" fill="black"/>
<path d="M190.554 224.805H180.922V227.251H190.554V224.805Z" fill="#FFC727"/>
<path opacity="0.6" d="M190.554 224.805H180.922V227.251H190.554V224.805Z" fill="black"/>
<path d="M187.147 55.2221L186.934 38.9611H184.534L184.32 55.2221H187.147Z" fill="#263238"/>
<path d="M61.6305 321.754H272.331C272.331 321.754 312.252 288.722 339.928 249.585C339.928 249.585 240.259 269.466 221.331 272.91C186.545 279.235 41.0718 283.578 41.0718 283.578C41.0718 283.578 43.8378 295.496 61.6305 321.754Z" fill="#FFC727"/>
<path d="M35.7303 285.811L35.5703 278.991L39.8985 278.839C89.2532 277.078 191.948 273.413 214.549 269.329C237.988 265.085 326.936 247.231 344.531 243.657L345.43 250.386C327.82 253.99 238.811 271.828 215.349 276.073C192.42 280.218 89.5123 283.891 40.089 285.659L35.7303 285.811Z" fill="#FFC727"/>
<path opacity="0.6" d="M35.7303 285.811L35.5703 278.991L39.8985 278.839C89.2532 277.078 191.948 273.413 214.549 269.329C237.988 265.085 326.936 247.231 344.531 243.657L345.43 250.386C327.82 253.99 238.811 271.828 215.349 276.073C192.42 280.218 89.5123 283.891 40.089 285.659L35.7303 285.811Z" fill="black"/>
<path opacity="0.2" d="M297.035 299.085C282.946 312.969 272.331 321.762 272.331 321.762H61.6308C59.4464 318.531 57.4804 315.516 55.7329 312.717C83.7059 312.245 189.472 310.431 200.78 310.431C232.677 310.462 274.503 303.39 297.035 299.085Z" fill="black"/>
<path d="M331.66 260.68C330.177 262.57 328.681 264.434 327.172 266.273C276.263 277.787 229.08 286.238 214.168 287.891C178.773 291.808 77.8764 295.191 45.9943 295.557C45.179 293.896 44.4703 292.425 43.9141 291.122C73.152 290.893 177.599 287.449 213.672 283.456C229.019 281.757 278.892 272.796 331.66 260.68Z" fill="#263238"/>
<path d="M99.3326 297.355L71.2627 298.345L71.4198 302.8L99.4897 301.81L99.3326 297.355Z" fill="#263238"/>
<path d="M154.209 294.872L126.122 295.995L126.3 300.453L154.387 299.329L154.209 294.872Z" fill="#263238"/>
<path d="M189.86 241.661C189.86 241.661 213.116 217.917 219.631 188.42C226.146 158.923 187.277 64.77 187.277 64.77C187.277 64.77 260.223 144.376 287.472 182.88C314.721 221.384 322.776 246.317 322.776 246.317C322.776 246.317 306.141 239.657 263.477 237.935C220.812 236.212 189.86 241.661 189.86 241.661Z" fill="#FFC727"/>
<path opacity="0.8" d="M189.86 241.661C189.86 241.661 213.116 217.917 219.631 188.42C226.146 158.923 187.277 64.77 187.277 64.77C187.277 64.77 260.223 144.376 287.472 182.88C314.721 221.384 322.776 246.317 322.776 246.317C322.776 246.317 306.141 239.657 263.477 237.935C220.812 236.212 189.86 241.661 189.86 241.661Z" fill="white"/>
<path opacity="0.1" d="M322.768 246.324C322.25 246.126 305.47 239.641 263.477 237.942C220.805 236.228 189.86 241.645 189.86 241.645C195.233 235.878 200.079 229.64 204.338 223.007C205.001 223.19 276.728 242.057 290.528 216.088C300.594 197.091 241.31 125.593 208.285 88.0719C231.991 114.628 269.55 157.589 287.442 182.872C314.523 221.109 322.646 245.935 322.768 246.324Z" fill="#FFC727"/>
<path opacity="0.1" d="M273.627 192.786C270.518 192.634 256.329 218.61 257.137 220.058C257.945 221.506 266.898 221.331 268.765 217.01C270.632 212.69 276.157 192.908 273.627 192.786Z" fill="#FFC727"/>
<path opacity="0.1" d="M264.734 196.337C263.302 195.651 255.377 204.285 255.026 205.054C254.013 207.294 253.914 212.674 255.643 211.028C257.373 209.382 265.892 196.885 264.734 196.337Z" fill="#FFC727"/>
<path d="M193.03 271.668C184.755 272.323 174.94 272.956 164.226 273.558C163.823 273.558 163.419 273.611 163.007 273.627L156.485 273.992C156.424 273.992 156.355 273.939 156.294 273.901L155.654 273.619L154.465 273.086L154.374 273.047H154.305C152.537 272.285 150.83 271.447 149.276 270.67L148.263 270.159C147.767 269.908 147.287 269.664 146.83 269.397L145.954 268.917L145.512 268.666C144.75 268.254 144.14 267.858 143.591 267.485C143.271 267.264 142.959 267.035 142.669 266.791C140.758 265.208 139.312 263.135 138.486 260.794C138.372 260.497 138.273 260.192 138.181 259.888V259.842C138.09 259.537 138.006 259.232 137.93 258.935C137.854 258.638 137.755 258.173 137.686 257.8C137.633 257.564 137.595 257.327 137.564 257.091C137.503 256.733 137.457 256.375 137.419 256.017C137.419 255.788 137.374 255.559 137.358 255.331C137.358 255.247 137.358 255.171 137.358 255.087C137.313 254.5 137.297 253.929 137.297 253.365C137.297 253.121 137.297 252.87 137.297 252.603C137.297 252.4 137.297 252.202 137.297 252.009C137.34 250.965 137.441 249.924 137.602 248.892C137.602 248.679 137.663 248.473 137.694 248.29C137.694 248.229 137.694 248.168 137.694 248.1C137.739 247.879 137.777 247.68 137.808 247.52C137.838 247.36 137.808 247.353 137.854 247.284C137.899 247.216 137.854 247.147 137.899 247.094C137.945 247.04 137.953 246.85 137.953 246.85H161.064C161.064 246.85 160.386 250.492 160.744 252.557C160.783 252.978 160.944 253.378 161.209 253.708C162.527 255.064 185.357 262.814 191.338 268.712C191.445 268.811 191.537 268.91 191.636 269.016C191.854 269.254 192.053 269.509 192.23 269.778C192.387 270.001 192.517 270.242 192.619 270.495C192.786 270.807 192.908 271.219 193.03 271.668Z" fill="#37474F"/>
<path d="M164.219 273.558C163.815 273.558 163.411 273.611 162.999 273.627L156.477 273.992C156.416 273.992 156.347 273.939 156.286 273.901L155.646 273.619L154.457 273.086L154.366 273.04H154.297C151.158 271.615 148.201 270.19 145.915 268.925L145.473 268.674C144.94 268.369 144.445 268.079 144.003 267.79L143.553 267.492C138.394 263.964 137.236 257.99 137.229 253.373C137.229 253.121 137.229 252.877 137.229 252.611C137.269 250.669 137.506 248.736 137.937 246.842H161.049C161.049 246.842 160.37 250.485 160.729 252.55C160.767 252.971 160.929 253.371 161.193 253.7C162.512 255.057 185.341 262.806 191.323 268.704C191.43 268.803 191.521 268.902 191.62 269.009C192.031 269.43 192.362 269.924 192.595 270.464C192.733 270.83 192.87 271.226 192.992 271.691C184.747 272.324 174.932 272.956 164.219 273.558Z" fill="#37474F"/>
<path d="M155.288 269.748C158.229 271.097 161.224 272.339 164.219 273.558C163.815 273.558 163.411 273.611 163 273.627C160.645 272.636 158.298 271.63 155.974 270.579L155.174 270.205L154.656 269.961C151.303 268.437 147.897 266.822 144.963 264.544C142.723 262.433 141.58 259.042 140.962 255.56C140.962 255.392 140.909 255.224 140.886 255.057C140.524 252.699 140.292 250.323 140.193 247.94C140.316 250.333 140.617 252.715 141.092 255.064C141.092 255.24 141.161 255.415 141.199 255.582C141.359 256.344 141.549 257.106 141.755 257.807C142.186 259.405 142.818 260.941 143.637 262.379C144.399 263.903 145.832 264.772 147.241 265.641C149.672 267.028 152.172 268.285 154.709 269.451L155.288 269.748Z" fill="#263238"/>
<path d="M161.018 246.819L154.45 273.086C150.693 271.479 147.059 269.6 143.576 267.462C134.287 261.107 137.968 246.819 137.968 246.819H161.018Z" fill="#263238"/>
<path d="M160.782 252.527C160.432 255.575 159.708 259.103 158.199 261.137C157.936 261.331 157.649 261.49 157.346 261.61C156.7 261.87 156.089 262.208 155.525 262.616C155.526 262.631 155.526 262.646 155.525 262.661C155.486 263.05 155.182 265.709 154.763 269.466C154.763 269.626 154.724 269.786 154.709 269.954C154.595 270.914 154.473 271.935 154.343 273.002C154.298 273.36 154.252 273.764 154.214 274.099C148.613 274.396 142.845 274.686 136.977 274.96H136.482L134.288 275.067C134.783 269.436 135.149 264.803 135.05 264.505C134.44 262.7 133.716 261.328 133.83 259.362C134.12 254.333 136.116 246.789 136.116 246.789H161.11C161.112 248.706 161.003 250.622 160.782 252.527Z" fill="#37474F"/>
<path d="M158.176 261.137C156.105 261.889 154.104 262.82 152.194 263.919C152.18 263.928 152.17 263.942 152.165 263.958C152.161 263.974 152.163 263.992 152.17 264.007C152.178 264.022 152.191 264.034 152.206 264.04C152.222 264.046 152.239 264.046 152.255 264.041C154.267 263.18 156.324 262.349 158.29 261.374C158.322 261.358 158.346 261.331 158.357 261.299C158.369 261.266 158.366 261.23 158.351 261.198C158.336 261.167 158.309 261.143 158.276 261.132C158.243 261.12 158.207 261.122 158.176 261.137Z" fill="#263238"/>
<path d="M158.816 247.307C158.816 247.238 158.694 247.223 158.694 247.307C158.694 249.557 158.58 251.805 158.351 254.043C158.26 255.079 157.429 260.817 155.623 260.398C155.326 260.33 155.174 260.032 155.12 259.583C155.13 258.988 155.212 258.397 155.364 257.823C155.562 256.619 155.722 255.415 155.829 254.203C156.036 251.943 156.011 249.668 155.753 247.414C155.749 247.402 155.741 247.392 155.731 247.385C155.72 247.378 155.708 247.374 155.696 247.374C155.683 247.374 155.671 247.378 155.661 247.385C155.651 247.392 155.643 247.402 155.639 247.414C155.688 250.547 155.505 253.68 155.09 256.786C154.861 258.272 154.115 260.52 155.669 260.749C157.224 260.977 158.29 257.221 158.481 256.177C158.976 253.247 159.089 250.266 158.816 247.307Z" fill="#263238"/>
<path d="M155.677 260.543C155.513 260.929 155.375 261.327 155.265 261.732C155.153 262.045 155.096 262.375 155.098 262.707C155.098 262.768 155.189 262.776 155.227 262.707C155.41 262.413 155.551 262.095 155.646 261.762C155.783 261.389 155.928 261 156.05 260.657C156.056 260.611 156.045 260.564 156.02 260.525C155.995 260.486 155.956 260.457 155.912 260.443C155.867 260.429 155.819 260.432 155.776 260.45C155.733 260.468 155.698 260.501 155.677 260.543Z" fill="#263238"/>
<path d="M139.774 255.057C140.208 254.98 140.848 255.133 142.745 255.003C143.259 254.956 143.768 254.872 144.269 254.752C144.79 254.666 145.284 254.466 145.717 254.165C146.403 253.512 146.961 252.737 147.363 251.879C147.87 251 148.257 250.057 148.514 249.075C148.514 249.014 148.613 249.075 148.605 249.075C148.506 249.624 148.453 250.18 148.308 250.728C148.159 251.249 147.973 251.758 147.752 252.252C147.409 253.216 146.827 254.076 146.06 254.752C145.132 255.318 144.061 255.609 142.974 255.59C142.372 255.636 140.025 255.59 139.713 255.232C139.682 255.194 139.69 255.064 139.774 255.057Z" fill="#263238"/>
<path d="M136.535 260.505C137 261.854 137.404 263.218 137.808 264.589C137.808 264.589 137.312 270.579 136.924 274.968H136.428C136.764 271.447 137.099 267.866 137.45 264.665C137.069 263.294 136.688 261.922 136.246 260.581C136.134 260.222 136.1 259.842 136.146 259.469C136.392 257.152 136.763 254.849 137.259 252.573C137.579 251.049 137.93 249.471 138.257 247.917C137.922 249.715 137.564 251.521 137.251 253.327C136.893 255.369 136.588 257.427 136.436 259.492C136.396 259.833 136.43 260.178 136.535 260.505Z" fill="#263238"/>
<path d="M134.874 251.597C134.935 251.681 161.064 248.778 161.369 248.503C161.796 248.115 160.516 223.7 157.917 219.38C157.361 218.45 153.277 216.332 150.8 218.511C141.176 226.901 134.669 251.292 134.874 251.597Z" fill="#FFC727"/>
<path d="M162.001 241.318C162.237 240.655 162.34 239.953 162.303 239.251C162.267 238.548 162.092 237.86 161.788 237.226C162.55 234.559 161.483 233.187 161.483 233.187C160.98 227.51 160.089 221.811 158.374 219.334C157.285 217.757 152.172 216.484 149.756 218.999C145.946 222.954 142.708 228.989 140.033 234.597C138.85 235.92 138.112 237.58 137.922 239.344C137.27 239.812 136.745 240.435 136.396 241.158C136.047 241.881 135.885 242.68 135.926 243.482C135.926 243.482 133.807 246.53 133.998 248.999C134.067 249.738 134.412 250.424 134.966 250.919C135.072 250.919 161.369 247.696 161.636 247.383C162.043 246.968 162.31 246.435 162.398 245.859C162.676 244.337 162.539 242.769 162.001 241.318ZM152.812 227.076C151.913 229.24 148.781 231.084 147.363 230.962C145.946 230.84 145.237 229.766 145.436 227.808C145.634 225.849 148.019 221.513 149.756 220.835C152.4 219.829 153.703 224.927 152.812 227.076Z" fill="#455A64"/>
<path d="M162.58 244.053L134.386 246.522C134.581 245.963 134.816 245.418 135.087 244.892L162.329 242.506C162.459 243.013 162.543 243.531 162.58 244.053Z" fill="white"/>
<path d="M162.306 239.954L136.063 242.24C136.177 241.657 136.405 241.103 136.734 240.609L162.207 238.384C162.315 238.9 162.349 239.428 162.306 239.954Z" fill="white"/>
<path d="M162.024 236.052L138.12 238.14C138.263 237.577 138.47 237.033 138.737 236.517L161.978 234.475C162.069 234.996 162.085 235.527 162.024 236.052Z" fill="white"/>
<path d="M147.363 230.977C146.733 237.396 145.715 243.77 144.315 250.066C144.957 243.649 145.975 237.275 147.363 230.977Z" fill="#263238"/>
<path d="M156.972 222.801C157.536 227.045 157.871 231.313 158.169 235.58C158.329 239.847 158.931 244.19 157.818 248.389C158.443 244.716 157.818 239.359 157.597 235.618C157.376 231.877 157.056 226.527 156.972 222.801Z" fill="#263238"/>
<path d="M136.192 243.078C143.424 242.164 154.389 241.432 161.75 240.891C153.288 242.18 144.75 242.91 136.192 243.078Z" fill="#263238"/>
<path d="M137.922 239.344C144.529 238.506 154.549 237.881 161.278 237.416C153.55 238.626 145.744 239.271 137.922 239.344Z" fill="#263238"/>
<path d="M159.474 231.701L154.406 232.374L154.624 234.02L159.693 233.348L159.474 231.701Z" fill="#263238"/>
<path d="M159.894 234.864L154.826 235.537L155.044 237.184L160.113 236.511L159.894 234.864Z" fill="#263238"/>
<path d="M160.535 243.136L155.467 243.809L155.685 245.455L160.754 244.783L160.535 243.136Z" fill="#263238"/>
<path d="M156.972 222.801C155.54 222.801 152.271 220.515 151.76 218.351C152.093 217.303 152.479 216.273 152.918 215.265C153.292 214.282 153.68 213.17 153.962 212.133C154.023 211.92 160.058 215.501 160.058 215.501C159.332 216.696 158.753 217.976 158.336 219.311C158.299 219.456 158.276 219.604 158.268 219.753C158.266 219.776 158.266 219.799 158.268 219.822C158.161 220.668 158.496 222.801 156.972 222.801Z" fill="#EB9481"/>
<path d="M158.268 219.753C158.268 219.753 158.268 219.799 158.268 219.822C158.039 219.789 157.812 219.74 157.59 219.677C153.78 218.542 154.084 213.467 154.229 212.194C155.334 212.682 160.074 215.501 160.074 215.501C159.347 216.696 158.768 217.976 158.352 219.311C158.309 219.455 158.281 219.603 158.268 219.753Z" fill="#263238"/>
<path d="M151.836 206.555C151.41 209.017 153.52 215.699 155.395 217.04C158.123 218.953 162.161 218.671 163.678 215.516C165.194 212.362 162.245 203.744 160.188 202.562C157.155 200.863 152.476 202.913 151.836 206.555Z" fill="#EB9481"/>
<path d="M159.19 209.878C159.19 209.878 159.19 209.916 159.19 209.931C159.342 210.381 159.449 210.922 159.083 211.196C159.548 210.998 159.411 210.312 159.19 209.878Z" fill="#263238"/>
<path d="M158.641 209.55C157.879 209.718 158.291 211.196 158.976 211.036C159.662 210.876 159.258 209.39 158.641 209.55Z" fill="#263238"/>
<path d="M161.712 209.192C161.712 209.192 161.75 209.192 161.758 209.23C161.864 209.687 162.07 210.198 162.52 210.236C162.001 210.312 161.742 209.649 161.712 209.192Z" fill="#263238"/>
<path d="M161.994 208.605C162.718 208.354 163.167 209.817 162.497 210.053C161.826 210.289 161.392 208.788 161.994 208.605Z" fill="#263238"/>
<path d="M157.879 209.017C158.062 208.91 158.222 208.78 158.397 208.658C158.572 208.537 158.763 208.43 158.854 208.201C158.873 208.132 158.869 208.058 158.841 207.992C158.814 207.926 158.764 207.87 158.702 207.836C158.57 207.78 158.425 207.762 158.283 207.785C158.141 207.808 158.009 207.87 157.902 207.965C157.649 208.112 157.462 208.349 157.376 208.628C157.361 208.693 157.365 208.761 157.388 208.824C157.41 208.887 157.451 208.942 157.503 208.983C157.556 209.023 157.62 209.048 157.686 209.054C157.753 209.06 157.819 209.047 157.879 209.017Z" fill="#263238"/>
<path d="M162.367 207.714C162.159 207.729 161.95 207.729 161.742 207.714C161.52 207.746 161.293 207.706 161.095 207.599C161.041 207.552 161.004 207.489 160.989 207.419C160.974 207.349 160.982 207.276 161.011 207.211C161.095 207.089 161.21 206.993 161.344 206.931C161.478 206.869 161.626 206.845 161.773 206.86C162.064 206.842 162.351 206.932 162.581 207.112C162.633 207.157 162.67 207.217 162.688 207.283C162.705 207.35 162.702 207.42 162.679 207.485C162.656 207.55 162.614 207.607 162.559 207.648C162.503 207.688 162.436 207.711 162.367 207.714Z" fill="#263238"/>
<path d="M159.754 214.183C159.881 214.292 160.043 214.352 160.211 214.351C160.378 214.3 160.533 214.217 160.668 214.107C160.668 214.107 160.706 214.107 160.668 214.107C160.626 214.214 160.555 214.308 160.464 214.379C160.373 214.45 160.264 214.496 160.15 214.511C160.051 214.512 159.954 214.484 159.871 214.43C159.788 214.375 159.723 214.297 159.685 214.206C159.685 214.206 159.731 214.175 159.754 214.183Z" fill="#263238"/>
<path d="M159.868 212.689C160.033 212.838 160.227 212.952 160.438 213.023C160.649 213.093 160.873 213.12 161.095 213.101C161.288 213.09 161.478 213.049 161.658 212.979L161.765 212.941L161.864 212.895C161.886 212.884 161.904 212.866 161.915 212.844C161.926 212.822 161.929 212.797 161.925 212.773C161.925 212.773 161.925 212.773 161.925 212.728V212.682C161.841 212.331 161.666 211.805 161.666 211.805C161.811 211.805 162.542 211.95 162.481 211.805C162.022 210.221 161.398 208.689 160.622 207.233C160.615 207.227 160.607 207.223 160.598 207.222C160.589 207.221 160.579 207.222 160.571 207.227C160.563 207.231 160.556 207.237 160.552 207.245C160.547 207.253 160.545 207.262 160.546 207.272C160.965 208.727 161.636 210.106 162.07 211.562C161.817 211.527 161.561 211.527 161.308 211.562C161.262 211.562 161.666 212.575 161.689 212.735C161.409 212.842 161.109 212.891 160.809 212.879C160.51 212.867 160.215 212.795 159.944 212.667C159.86 212.598 159.83 212.659 159.868 212.689Z" fill="#263238"/>
<path d="M161.407 212.857C161.28 213.157 161.078 213.42 160.82 213.619C160.677 213.725 160.503 213.784 160.325 213.787C159.929 213.787 159.83 213.451 159.822 213.147C159.819 212.985 159.835 212.824 159.868 212.667C160.347 212.893 160.887 212.96 161.407 212.857Z" fill="#263238"/>
<path d="M160.82 213.627C160.677 213.733 160.504 213.791 160.325 213.794C159.929 213.794 159.83 213.459 159.822 213.154C160.017 213.111 160.222 213.134 160.402 213.219C160.583 213.305 160.73 213.448 160.82 213.627Z" fill="#FF9BBC"/>
<path d="M153.299 211.912C154.397 211.745 154.168 209.215 154.168 209.215C154.168 209.215 157.025 209.542 156.454 205.877C156.454 205.877 159.837 206.418 161.651 205.024C163.175 203.827 163.632 200.795 162.108 199.286C161.247 198.432 159.136 197.869 156.644 201.191C156.644 201.191 152.385 199.172 151.707 204.033C151.162 204.194 150.684 204.528 150.346 204.984C150.007 205.441 149.827 205.995 149.832 206.563C149.977 209.664 152.347 212.049 153.299 211.912Z" fill="#263238"/>
<path d="M156.439 205.618C156.439 205.618 156.37 205.618 156.385 205.618C156.698 206.487 157.026 207.424 156.439 208.255C156.177 208.654 155.791 208.956 155.341 209.113C154.89 209.27 154.4 209.273 153.947 209.123C153.894 209.123 153.863 209.184 153.947 209.207C154.389 209.354 154.864 209.366 155.313 209.243C155.762 209.119 156.165 208.866 156.469 208.514C157.193 207.668 156.972 206.502 156.439 205.618Z" fill="#263238"/>
<path d="M153.284 211.333C152.471 211.121 151.728 210.698 151.131 210.107C150.534 209.515 150.104 208.776 149.885 207.965C149.65 207.14 149.731 206.257 150.114 205.489C150.561 204.878 151.122 204.36 151.768 203.965C151.768 203.926 151.768 203.965 151.768 203.965C147.958 205.626 149.626 210.861 153.292 211.585C153.325 211.584 153.357 211.569 153.379 211.545C153.402 211.521 153.415 211.488 153.414 211.455C153.413 211.422 153.398 211.39 153.374 211.367C153.35 211.344 153.317 211.332 153.284 211.333Z" fill="#263238"/>
<path d="M162.641 199.24C160.584 197.137 157.544 199.24 156.583 201.397C157.498 199.766 159.67 197.968 161.62 198.813C163.967 199.85 163.716 203.85 161.316 204.62C161.247 204.62 161.316 204.765 161.354 204.749C163.609 204.216 164.173 200.795 162.641 199.24Z" fill="#263238"/>
<path d="M154.282 212.004C154.282 212.004 152.416 210.015 151.486 210.716C150.556 211.417 152.195 214.45 153.437 214.716C153.594 214.765 153.76 214.78 153.924 214.761C154.088 214.743 154.246 214.691 154.389 214.609C154.532 214.527 154.656 214.416 154.754 214.284C154.853 214.151 154.923 214.001 154.961 213.84L154.282 212.004Z" fill="#EB9481"/>
<path d="M151.974 211.577C152.381 211.71 152.756 211.927 153.074 212.215C153.391 212.502 153.645 212.854 153.818 213.246C153.758 213.169 153.682 213.107 153.595 213.063C153.508 213.019 153.413 212.994 153.316 212.991C153.219 212.987 153.122 213.004 153.032 213.042C152.943 213.079 152.862 213.136 152.797 213.208C152.797 213.208 152.797 213.253 152.797 213.246C152.937 213.18 153.093 213.159 153.246 213.185C153.398 213.211 153.539 213.283 153.65 213.39C153.829 213.573 153.989 213.772 154.13 213.985C154.183 214.053 154.305 213.985 154.267 213.916C154.153 212.872 153.162 211.516 151.974 211.577Z" fill="#263238"/>
<path d="M148.59 226.352C149.352 234.193 154.755 249.052 158.832 250.835C162.131 252.275 175.489 249.448 178.895 247.978C180.419 247.322 179.07 235.839 177.333 236.144C171.572 237.15 164.318 239.413 163.617 239.146C162.093 238.559 157.346 229.69 154.092 224.447C150 217.863 148.24 222.839 148.59 226.352Z" fill="#EB9481"/>
<path d="M195.072 240.792C195.061 241.166 194.936 241.527 194.715 241.828C194.493 242.129 194.184 242.355 193.83 242.476C194.174 243.012 194.319 243.65 194.242 244.282C194.051 245.387 192.238 245.57 192.238 245.57C192.476 246.2 192.519 246.888 192.36 247.543C192.07 248.58 190.272 249.022 190.272 249.022C190.17 249.722 189.821 250.362 189.289 250.828C187.818 252.009 185.098 251.064 183.36 250.477C181.623 249.89 177.264 246.599 176.342 246.057L176.411 236.372C176.411 236.372 185.555 233.911 187.544 234.757C189.251 235.496 195.072 239.375 195.072 240.792Z" fill="#EB9481"/>
<path d="M193.807 242.316C192.22 241.13 190.493 240.144 188.664 239.382C188.626 239.382 188.595 239.42 188.664 239.443C190.447 240.289 192.039 241.485 193.784 242.4C193.8 242.392 193.845 242.316 193.807 242.316Z" fill="#263238"/>
<path d="M192.238 245.425C191.862 245.166 191.455 244.956 191.026 244.8C190.576 244.61 190.134 244.427 189.677 244.251C188.778 243.901 187.864 243.566 186.942 243.261C186.904 243.261 186.873 243.307 186.942 243.322C187.848 243.672 188.74 244.046 189.624 244.434L190.942 245.029C191.345 245.249 191.772 245.423 192.215 245.547C192.227 245.544 192.239 245.537 192.248 245.527C192.256 245.518 192.262 245.506 192.265 245.493C192.267 245.48 192.266 245.467 192.261 245.455C192.256 245.443 192.248 245.433 192.238 245.425Z" fill="#263238"/>
<path d="M190.226 249.022C189.881 248.792 189.499 248.622 189.098 248.519L187.856 248.054C187.033 247.741 186.202 247.429 185.387 247.086C185.387 247.086 185.318 247.132 185.387 247.147C186.21 247.498 187.033 247.863 187.863 248.206L189.083 248.709C189.442 248.895 189.832 249.016 190.233 249.067L190.226 249.022Z" fill="#263238"/>
<path d="M160.973 234.696L151.638 240.228C151.638 240.228 147.98 229.865 148.209 224.737C148.438 219.608 151.318 220.073 153.848 223.769C155.646 226.367 160.973 234.696 160.973 234.696Z" fill="#FFC727"/>
<path d="M151.958 238.171C153.04 237.363 154.244 236.685 155.395 235.984C156.546 235.283 157.811 234.627 159.007 233.934C159.007 233.934 159.075 233.934 159.045 233.987C157.894 234.749 156.759 235.511 155.616 236.189C154.438 236.924 153.222 237.595 151.974 238.201C151.974 238.201 151.943 238.178 151.958 238.171Z" fill="#263238"/>
<path d="M148.293 226.611C148.724 227.937 148.96 229.318 148.994 230.711C148.446 229.417 148.206 228.014 148.293 226.611Z" fill="#263238"/>
<path d="M148.102 228.044C148.435 228.496 148.664 229.016 148.773 229.568C148.505 229.427 148.292 229.2 148.171 228.923C148.049 228.646 148.025 228.336 148.102 228.044Z" fill="#263238"/>
<path d="M349.24 322.113C310.088 322.113 297.142 316.093 289.187 314.615C281.231 313.136 275.082 311.658 264.627 311.506C254.173 311.353 240.876 315.658 233.637 315.262C227.686 314.935 204.01 309.38 196.177 309.547C188.344 309.715 181.318 311.833 182.621 313.052C183.924 314.272 193.076 314.576 190.294 316.565C187.513 318.554 178.544 318.196 170.543 317.381C162.542 316.565 151.737 319.827 146.281 319.827C140.825 319.827 126.782 311.338 119.764 308.724C112.746 306.111 101.765 306.088 103.175 307.817C104.585 309.547 114.049 311.361 115.847 313.228C117.645 315.095 116.99 319.324 111.763 318.851C106.535 318.379 96.9646 308.61 83.9496 302.956C70.9347 297.302 58.415 297.393 57.9045 299.306C57.3939 301.219 70.6146 303.017 73.3959 305.463C76.1772 307.909 82.3723 314.767 80.2539 315.75C78.1356 316.733 71.3614 310.69 65.5169 310.035C59.6723 309.38 60.1829 311.01 64.0843 312.321C67.9857 313.632 74.5313 321.297 71.27 321.793C68.0086 322.288 55.2222 314.82 48.5243 313.845C41.8263 312.87 40.1423 314.66 42.1006 315.803C44.0589 316.946 56.3881 319.065 54.666 324.841C53.904 327.523 34.3739 326.037 31.7603 326.037" fill="white"/>
<path d="M349.24 322.113C333.832 322.113 318.303 321.404 303.192 318.188C298.148 317.183 293.241 315.552 288.196 314.615C283.152 313.677 278.1 312.641 272.956 312.169C267.854 311.605 262.705 311.605 257.602 312.169C249.936 312.984 242.446 315.27 234.696 315.544C229.759 315.499 216.934 312.618 211.836 311.833C206.739 311.048 201.702 310.005 196.596 309.86C192.762 309.858 188.947 310.386 185.258 311.429C184.374 311.651 183.544 312.05 182.819 312.603C182.743 312.694 182.736 312.763 182.743 312.771C182.751 312.778 182.812 312.877 182.926 312.946C184.079 313.424 185.287 313.757 186.523 313.936C187.925 314.287 189.51 314.386 190.79 315.278C191.979 316.542 189.411 317.434 188.504 317.678C182.156 319.057 175.55 318.097 169.195 317.678C161.468 317.312 153.955 319.85 146.243 320.238C143.569 320.116 141.161 319.049 138.738 318.074C131.605 315.156 125.022 310.919 117.729 308.519C115.273 307.836 112.757 307.387 110.216 307.177C108.327 306.968 106.42 306.968 104.531 307.177C104.127 307.213 103.736 307.341 103.388 307.551C103.388 307.498 103.388 307.612 103.388 307.551C103.554 307.754 103.759 307.923 103.99 308.046C107.107 309.684 110.635 310.332 113.896 311.719C115.131 312.207 116.518 312.976 116.891 314.363C117.889 317.617 114.857 319.583 111.938 319.202C110.613 319.044 109.333 318.621 108.174 317.96C100.371 313.487 93.452 307.536 85.1995 303.855C80.5546 301.691 75.6539 300.124 70.6148 299.192C66.8886 298.582 62.9948 297.995 59.2382 298.773C54.75 299.87 66.1724 302.247 67.0182 302.651C68.9048 303.13 70.7438 303.781 72.5122 304.594C74.2572 305.433 82.3725 313.83 80.658 315.75C79.6217 316.588 78.2272 315.75 77.2061 315.323C74.8744 314.18 72.7027 312.816 70.3481 311.772C68.0676 310.657 65.556 310.096 63.0177 310.134C61.7375 310.134 60.3507 310.37 62.4919 311.468C63.6349 312.031 64.9608 312.321 66.0123 313.083C68.6108 314.942 71.232 317.289 72.2988 320.391C72.756 322.402 70.4777 322.136 69.2508 321.762C60.7241 319.278 52.9593 313.182 43.7619 313.754C43.1361 313.793 42.5233 313.951 41.956 314.218C41.6969 314.363 41.4531 314.584 41.4531 314.851C41.6436 315.78 42.8475 315.979 43.64 316.299C46.1159 317.009 48.5294 317.921 50.8562 319.027C53.0279 320.101 55.7482 322.28 54.6662 325.008C54.2171 325.498 53.6101 325.813 52.9517 325.9C51.0529 326.264 49.1243 326.45 47.1909 326.456C42.0398 326.578 36.9039 326.243 31.7681 326.037C35.9057 326.037 52.0601 327.485 54.5595 324.955C56.0835 319.758 47.1528 317.762 43.5791 316.489C42.5123 316.215 40.0739 315.186 41.8493 314.013C43.0554 313.52 44.3619 313.325 45.6593 313.441C48.2509 313.527 50.8103 314.042 53.2336 314.965C58.0875 316.664 62.7053 318.996 67.5135 320.779C69.9976 321.686 73.5561 322.684 71.1101 318.767C69.6992 316.657 67.8868 314.844 65.7761 313.433C64.3131 312.359 62.2862 312.329 61.0517 310.934C60.4269 309.806 62.2785 309.7 62.9948 309.692C68.3288 309.433 72.9008 312.641 77.4119 314.919C78.0977 315.224 80.1779 316.268 80.4599 315.14C80.4599 313.99 79.5302 312.854 78.9359 311.871C77.4045 309.823 75.6962 307.913 73.8305 306.164C72.0169 304.381 69.3042 303.931 66.9725 303.162C64.6407 302.392 62.0042 301.874 59.5582 300.944C57.9504 300.388 56.5102 299.032 59.2001 298.262C63.0101 297.447 66.9953 298.033 70.813 298.651C81.0542 300.403 90.4421 305.257 98.8926 311.132C101.034 312.572 103.129 314.051 105.278 315.445C107.427 316.84 109.606 318.31 112.083 318.554C114.559 318.798 117.196 317.335 116.342 314.592C115.984 313.35 114.818 312.839 113.729 312.367C111.367 311.391 108.867 310.721 106.452 309.852C105.4 309.471 101.041 307.993 103.533 306.728C105.758 306.057 108.105 306.294 110.391 306.423C115.582 306.821 120.637 308.278 125.243 310.706C129.883 312.938 134.425 315.354 139.134 317.373C141.42 318.31 143.881 319.377 146.358 319.499C154.039 319.11 161.544 316.596 169.34 316.977C174.483 317.426 179.588 317.937 184.701 317.624C186.553 317.464 188.511 317.335 190.135 316.375C190.378 316.238 190.599 315.986 190.592 315.902C190.584 315.819 190.416 315.636 190.15 315.521C187.818 314.493 185.06 314.592 182.713 313.456C182.505 313.339 182.347 313.149 182.271 312.923C182.246 312.797 182.252 312.667 182.288 312.544C182.324 312.421 182.388 312.308 182.476 312.214C184.298 310.69 186.766 310.477 188.984 309.974C196.672 308.45 204.452 309.974 212.042 311.308C216.865 312.07 229.941 314.973 234.811 315.057C242.514 314.797 249.997 312.527 257.671 311.734C267.98 310.515 278.313 312.237 288.356 314.272C293.416 315.239 298.3 316.901 303.345 317.937C318.425 321.244 333.932 322.029 349.332 322.136L349.24 322.113Z" fill="#C7C7C7"/>
<path d="M53.0965 293.134C52.1744 294.056 56.3654 295.092 57.8361 294.277C59.3068 293.461 54.7271 291.503 53.0965 293.134Z" fill="white"/>
<path d="M53.0961 293.134C53.0529 293.176 53.0203 293.228 53.0007 293.285C52.9811 293.342 52.9751 293.403 52.9833 293.463C52.9914 293.523 53.0134 293.581 53.0476 293.63C53.0817 293.68 53.127 293.722 53.1799 293.751C54.2553 294.302 55.4858 294.471 56.6699 294.231C57.0504 294.205 57.4178 294.082 57.7367 293.873C56.8147 292.844 54.361 291.991 53.0961 293.111V293.134ZM53.0961 293.134C54.422 292.014 56.7613 292.189 58.1253 293.187C58.2976 293.314 58.417 293.5 58.4606 293.71C58.5042 293.919 58.4689 294.137 58.3615 294.323C58.1365 294.565 57.8404 294.731 57.5157 294.795C56.2389 294.98 54.9362 294.761 53.7895 294.17C53.4314 293.995 52.6618 293.591 53.0961 293.134Z" fill="#C7C7C7"/>
<path d="M244.252 308.884C243.33 309.806 247.521 310.843 248.984 310.027C250.447 309.212 245.882 307.246 244.252 308.884Z" fill="white"/>
<path d="M244.251 308.884C244.208 308.927 244.176 308.979 244.156 309.036C244.136 309.093 244.13 309.154 244.139 309.214C244.147 309.274 244.169 309.331 244.203 309.381C244.237 309.431 244.282 309.472 244.335 309.502C245.413 310.044 246.641 310.213 247.825 309.982C248.205 309.953 248.572 309.83 248.892 309.623C247.97 308.587 245.509 307.741 244.251 308.861V308.884ZM244.251 308.884C245.577 307.757 247.909 307.932 249.281 308.938C249.454 309.062 249.574 309.248 249.616 309.457C249.659 309.666 249.62 309.883 249.509 310.065C249.289 310.312 248.995 310.481 248.671 310.546C247.394 310.73 246.092 310.512 244.945 309.921C244.587 309.745 243.817 309.342 244.251 308.884Z" fill="#C7C7C7"/>
<path d="M58.095 308.656C57.714 309.585 59.4361 310.622 60.0381 309.799C60.6401 308.976 58.7655 307.025 58.095 308.656Z" fill="white"/>
<path d="M58.0948 308.656C57.8204 309.418 58.9253 309.997 59.5349 309.761C60.1445 309.524 59.6645 308.801 59.2835 308.366C59.2011 308.27 59.0936 308.198 58.973 308.159C58.8523 308.121 58.7233 308.116 58.6002 308.146C58.477 308.176 58.3646 308.239 58.2754 308.329C58.1862 308.419 58.1237 308.532 58.0948 308.656ZM58.0948 308.656C58.6053 307.132 60.716 308.29 60.5179 309.616C60.076 311.292 57.6452 309.936 58.0948 308.656Z" fill="#C7C7C7"/>
<path d="M176.51 313.792C176.129 314.714 177.851 315.75 178.453 314.935C179.055 314.119 177.181 312.153 176.51 313.792Z" fill="white"/>
<path d="M176.51 313.792C176.235 314.554 177.34 315.133 177.95 314.889C178.559 314.645 178.079 313.929 177.698 313.494C177.615 313.398 177.507 313.327 177.386 313.288C177.265 313.25 177.136 313.246 177.012 313.277C176.889 313.307 176.777 313.372 176.688 313.463C176.599 313.554 176.538 313.668 176.51 313.792ZM176.51 313.792C177.02 312.268 179.131 313.418 178.933 314.744C178.491 316.428 176.068 315.064 176.51 313.792Z" fill="#C7C7C7"/>
<path d="M101.293 302.407C100.47 303.116 102.619 304.884 103.724 304.381C104.828 303.878 102.748 301.165 101.293 302.407Z" fill="white"/>
<path d="M101.293 302.407C100.531 303.413 102.817 304.411 103.579 304.038C103.701 303.954 103.693 303.733 103.579 303.406C103.259 302.544 102.184 301.676 101.293 302.407ZM101.293 302.407C102.398 301.31 105.065 302.925 104.234 304.434C103.198 305.455 101.796 304.282 101.27 303.367C101.16 303.232 101.1 303.062 101.1 302.887C101.1 302.713 101.16 302.543 101.27 302.407H101.293Z" fill="#C7C7C7"/>
<path d="M54.3992 299.672C55.6184 299.329 54.2239 297.561 52.9437 298.445C51.6636 299.329 53.18 300.007 54.3992 299.672Z" fill="white"/>
<path d="M54.3991 299.672C55.0392 299.489 54.864 298.826 54.3534 298.62C54.0841 298.528 53.7928 298.521 53.5197 298.602C53.2466 298.682 53.0054 298.846 52.8294 299.07C52.8294 299.07 52.7761 299.115 52.8294 299.184C53.0219 299.418 53.2798 299.59 53.5703 299.677C53.8608 299.764 54.1706 299.762 54.4601 299.672H54.3991ZM54.3991 299.672C53.7209 299.862 52.0445 300.076 52.1665 298.91C52.2405 298.67 52.3758 298.454 52.559 298.283C52.7422 298.112 52.9669 297.991 53.2109 297.933C53.4549 297.876 53.7097 297.883 53.9502 297.954C54.1907 298.025 54.4085 298.157 54.582 298.338C55.0011 298.742 55.0925 299.565 54.3991 299.687V299.672Z" fill="#C7C7C7"/>
<path d="M64.3508 308.32C65.57 307.977 64.1756 306.21 62.8954 307.094C61.6152 307.978 63.1316 308.656 64.3508 308.32Z" fill="white"/>
<path d="M64.3508 308.32C64.9909 308.138 64.8156 307.475 64.2975 307.269C64.0283 307.175 63.7366 307.168 63.4633 307.249C63.1899 307.329 62.9487 307.494 62.7735 307.718C62.7735 307.757 62.7201 307.764 62.7735 307.84C62.9669 308.073 63.2252 308.243 63.5157 308.329C63.8061 308.414 64.1154 308.411 64.4042 308.32H64.3508ZM64.3508 308.32C63.665 308.511 61.9962 308.724 62.1182 307.558C62.1922 307.319 62.3275 307.103 62.5107 306.932C62.6938 306.76 62.9185 306.64 63.1626 306.582C63.4066 306.524 63.6614 306.531 63.9019 306.602C64.1424 306.673 64.3602 306.806 64.5337 306.987C64.9528 307.398 65.0366 308.214 64.3508 308.336V308.32Z" fill="#C7C7C7"/>
<path d="M41.0032 319.598C42.2224 319.263 40.8279 317.495 39.5478 318.379C38.2676 319.263 39.784 319.941 41.0032 319.598Z" fill="white"/>
<path d="M41.0031 319.598C41.6432 319.423 41.468 318.76 40.9574 318.554C40.6889 318.461 40.398 318.453 40.125 318.532C39.852 318.611 39.6103 318.774 39.4334 318.996C39.4334 319.034 39.3801 319.049 39.4334 319.118C39.6268 319.351 39.8852 319.521 40.1756 319.606C40.466 319.692 40.7753 319.689 41.0641 319.598H41.0031ZM41.0031 319.598C40.325 319.789 38.6486 320.01 38.7705 318.836C38.8445 318.596 38.9798 318.38 39.163 318.209C39.3462 318.038 39.5709 317.917 39.8149 317.86C40.0589 317.802 40.3137 317.809 40.5542 317.88C40.7947 317.951 41.0125 318.084 41.186 318.265C41.6051 318.668 41.6889 319.484 41.0031 319.606V319.598Z" fill="#C7C7C7"/>
<path d="M47.1145 311.3C47.7622 311.117 47.0155 310.18 46.3525 310.645C45.6896 311.109 46.4821 311.475 47.1145 311.3Z" fill="white"/>
<path d="M47.1143 311.3C47.4496 311.201 47.3124 310.843 47.0305 310.812C46.7486 310.782 46.5123 311.064 46.4057 311.018C46.299 310.972 46.3599 310.942 46.3447 310.965C46.3447 311.246 46.8324 311.376 47.1067 311.3H47.1143ZM47.1143 311.3C46.779 311.361 46.2761 311.582 45.918 311.3C45.5598 311.018 45.918 310.462 46.1618 310.324C46.3369 310.212 46.5482 310.169 46.7533 310.206C46.9583 310.243 47.1418 310.356 47.2667 310.523C47.4725 310.782 47.4877 311.285 47.1143 311.285V311.3Z" fill="#C7C7C7"/>
<path d="M60.7542 306.934C61.4019 306.751 60.6551 305.806 59.9922 306.278C59.3292 306.751 60.1065 307.086 60.7542 306.934Z" fill="white"/>
<path d="M60.7546 306.934C61.0899 306.834 60.9527 306.476 60.6708 306.446C60.3888 306.415 60.1526 306.697 60.0459 306.652C59.9393 306.606 60.0002 306.575 59.985 306.598C59.985 306.88 60.4727 307.01 60.747 306.934H60.7546ZM60.7546 306.934C60.3431 307.063 59.322 307.276 59.4135 306.476C59.4433 306.312 59.521 306.161 59.6367 306.041C59.7524 305.921 59.9011 305.837 60.0639 305.802C60.2268 305.766 60.3966 305.779 60.552 305.839C60.7074 305.9 60.8415 306.005 60.9375 306.141C61.1432 306.393 61.1585 306.903 60.7851 306.903L60.7546 306.934Z" fill="#C7C7C7"/>
<path d="M177.904 311.224C178.552 311.041 177.813 310.096 177.142 310.568C176.472 311.041 177.257 311.399 177.904 311.224Z" fill="white"/>
<path d="M177.904 311.224C178.247 311.125 178.102 310.766 177.82 310.736C177.538 310.705 177.302 310.987 177.203 310.942C177.104 310.896 177.15 310.865 177.135 310.888C177.135 311.17 177.63 311.3 177.897 311.224H177.904ZM177.904 311.224C177.569 311.285 177.066 311.506 176.708 311.224C176.35 310.942 176.708 310.385 176.959 310.248C177.133 310.134 177.343 310.091 177.548 310.128C177.752 310.164 177.934 310.279 178.057 310.446C178.27 310.698 178.278 311.208 177.904 311.208V311.224Z" fill="#C7C7C7"/>
<path d="M100.737 305.608C101.499 305.402 100.63 304.343 99.8602 304.846C99.0906 305.349 100.005 305.813 100.737 305.608Z" fill="white"/>
<path d="M100.737 305.608C101.11 305.501 100.981 305.097 100.66 305.036C100.562 305.018 100.461 305.021 100.364 305.044C100.267 305.068 100.176 305.112 100.097 305.173C100.005 305.219 99.9137 305.311 99.8985 305.28C99.8832 305.25 99.8527 305.227 99.8375 305.28C99.9061 305.592 100.417 305.714 100.737 305.631V305.608ZM100.737 305.608C100.363 305.684 99.807 305.897 99.4108 305.608C99.0146 305.318 99.4108 304.716 99.6927 304.564C99.8818 304.442 100.109 304.396 100.331 304.434C100.552 304.472 100.751 304.592 100.889 304.769C101.133 305.044 101.156 305.577 100.737 305.638V305.608Z" fill="#C7C7C7"/>
<path d="M61.4403 296.654C62.2023 296.449 61.3337 295.389 60.5717 295.892C59.8097 296.395 60.7088 296.86 61.4403 296.654Z" fill="white"/>
<path d="M61.4402 296.654C61.8212 296.548 61.6917 296.144 61.364 296.083C61.2669 296.064 61.1668 296.066 61.0707 296.09C60.9746 296.113 60.8849 296.158 60.8078 296.22C60.7164 296.266 60.6249 296.357 60.6097 296.327C60.5944 296.296 60.5563 296.266 60.5487 296.327C60.6173 296.639 61.1202 296.761 61.4402 296.677V296.654ZM61.4402 296.654C61.0669 296.73 60.5106 296.944 60.122 296.654C59.7334 296.365 60.122 295.763 60.3963 295.61C60.586 295.487 60.8154 295.439 61.0386 295.477C61.2618 295.515 61.4624 295.636 61.6003 295.816C61.8441 296.09 61.867 296.624 61.4402 296.685V296.654Z" fill="#C7C7C7"/>
<path d="M159.296 320.322C158.367 321.244 162.558 322.28 164.028 321.465C165.499 320.65 160.927 318.684 159.296 320.322Z" fill="#FFC727"/>
<path d="M95.0671 313.792C94.6937 314.714 96.4158 315.75 97.0178 314.935C97.6198 314.119 95.7453 312.153 95.0671 313.792Z" fill="#FFC727"/>
<path d="M240.228 316.283C239.405 316.992 241.554 318.752 242.659 318.257C243.764 317.762 241.676 315.034 240.228 316.283Z" fill="#FFC727"/>
<path d="M167.64 320.383C168.859 320.04 167.465 318.272 166.185 319.156C164.905 320.04 166.429 320.718 167.64 320.383Z" fill="#FFC727"/>
<path d="M79.248 307.665C80.4748 307.33 79.0728 305.562 77.8002 306.446C76.5277 307.33 77.9983 308.008 79.248 307.665Z" fill="#FFC727"/>
<path d="M94.7698 312.237C95.4175 312.062 94.6707 311.117 94.0078 311.589C93.3449 312.062 94.1221 312.42 94.7698 312.237Z" fill="#FFC727"/>
<path d="M118.75 311.711C119.406 311.528 118.659 310.591 117.988 311.064C117.318 311.536 118.11 311.894 118.75 311.711Z" fill="#FFC727"/>
<path d="M236.982 318.036C237.744 317.83 236.875 316.763 236.106 317.274C235.336 317.785 236.22 318.234 236.982 318.036Z" fill="#FFC727"/>
<path d="M57.1958 354.757C72.7025 354.246 88.3083 354.246 103.807 354.757C88.3006 355.275 72.7025 355.275 57.1958 354.757Z" fill="#DBDBDB"/>
<path d="M44.8896 331.889C80.5893 331.386 120.274 331.401 155.997 331.889C120.267 332.384 80.597 332.4 44.8896 331.889Z" fill="#DBDBDB"/>
<path d="M234.323 331.889C270.022 331.386 309.707 331.401 345.43 331.889C309.7 332.384 270.03 332.4 234.323 331.889Z" fill="#DBDBDB"/>
<path d="M197.67 337.482C227.297 336.979 260.231 336.995 289.872 337.482C260.223 337.978 227.305 337.993 197.67 337.482Z" fill="#DBDBDB"/>
<path d="M259.08 360.426C271.661 359.915 284.34 359.915 296.929 360.426C284.34 360.944 271.668 360.944 259.08 360.426Z" fill="#DBDBDB"/>
<path d="M282.283 353.568C289.691 353.046 297.126 353.046 304.534 353.568C297.126 354.086 289.691 354.086 282.283 353.568Z" fill="#DBDBDB"/>
<path d="M35.5703 346.184C42.9501 345.666 50.3571 345.666 57.7369 346.184C50.3571 346.702 42.9501 346.702 35.5703 346.184Z" fill="#DBDBDB"/>
<path opacity="0.5" d="M97.7079 95.9794C108.925 87.9783 111.532 72.3988 103.531 61.1817C95.53 49.9645 79.9505 47.3574 68.7333 55.3585C57.5162 63.3596 54.909 78.9391 62.9102 90.1563C70.9113 101.373 86.4908 103.981 97.7079 95.9794Z" fill="#FFC727"/>
<path d="M89.9974 92.3233C99.1918 88.5786 103.61 78.0895 99.8649 68.8952C96.1203 59.7009 85.6312 55.283 76.4369 59.0277C67.2425 62.7723 62.8247 73.2615 66.5694 82.4558C70.314 91.6501 80.8031 96.0679 89.9974 92.3233Z" fill="#FFC727"/>
</svg>
